<?xml version="1.0" encoding="UTF-8"?>
<!DOCTYPE svg  PUBLIC '-//W3C//DTD SVG 1.1//EN'  'http://www.w3.org/Graphics/SVG/1.1/DTD/svg11.dtd'>
<svg enable-background="new 0 0 392 84.8" version="1.1" viewBox="0 0 392 84.8" xml:space="preserve" xmlns="http://www.w3.org/2000/svg">
<linearGradient id="d" x1="5.1777" x2="81.528" y1="41.659" y2="41.659" gradientUnits="userSpaceOnUse">
	<stop stop-color="#9BE25E" offset="0"/>
	<stop stop-color="#92D962" offset=".2315"/>
	<stop stop-color="#78C26C" offset=".615"/>
	<stop stop-color="#59A579" offset=".9944"/>
</linearGradient>
<path d="m43.3 2.3l16.7 18.4 21 13.3m-5.3 29.9l-24.3 5.3-22 11.6m-23.3-19.6l7.6-23.7m1-24.8l-1 24.8m28 5l-28-4.9m28 4.9l9.7 26.7m8.6-48.5l-18.3 21.8" fill="none" opacity=".3" stroke="url(#d)" stroke-width="2"/>
<linearGradient id="b" x1="1.6157" x2="78.71" y1="43.28" y2="43.28" gradientUnits="userSpaceOnUse">
	<stop stop-color="#9BE25E" offset="0"/>
	<stop stop-color="#92D962" offset=".2315"/>
	<stop stop-color="#78C26C" offset=".615"/>
	<stop stop-color="#59A579" offset=".9944"/>
</linearGradient>
<path d="m54 4.2l-22 11.6-24.3 5.3m15.7 43.2l18.3-21.8m-18.3 21.8l-21-13.3m21 13.3l16.7 18.4m29.6-35.3l-1 24.8m8.6-48.4l-7.6 23.7m-28-5l28 4.9m-37.7-31.6l9.7 26.7" fill="none" stroke="url(#b)" stroke-width="3"/>
<linearGradient id="c" x1=".416" x2="82.995" y1="42.497" y2="42.497" gradientUnits="userSpaceOnUse">
	<stop stop-color="#9BE25E" offset="0"/>
	<stop stop-color="#92D962" offset=".2315"/>
	<stop stop-color="#78C26C" offset=".615"/>
	<stop stop-color="#59A579" offset=".9944"/>
</linearGradient>
<path d="m14.7 12.7l28.6-10.4m0 0l10.7 1.9m23.3 19.6l-23.3-19.6m27 29.8l-3.7-10.2m3.7 10.2l-5.3 30m-7 8.3l7-8.3m-7 8.3l-28.6 10.4m-10.7-1.9l10.7 1.9m-34-21.5l23.3 19.6m-23.3-19.6l-3.7-10.2m0 0l5.3-30m0 0.1l7-8.3" fill="none" stroke="url(#c)" stroke-linecap="round" stroke-miterlimit="10" stroke-width="4"/>
	<g fill="url(#a)">
		<linearGradient id="a" x1="107.98" x2="392.27" y1="42.542" y2="42.542" gradientUnits="userSpaceOnUse">
			<stop stop-color="#59A579" offset="0"/>
			<stop stop-color="#62AE75" offset=".2315"/>
			<stop stop-color="#7CC56B" offset=".615"/>
			<stop stop-color="#9BE25E" offset=".9944"/>
		</linearGradient>
		<path d="m126.9 66.4h-5.1c-0.6 0-1-0.3-1.2-1l-12.6-43.7c-0.1-0.7 0.2-1.1 0.9-1.1h3.5c0.6 0 1 0.3 1.1 1l10.6 39h0.3l10.6-39c0.1-0.7 0.5-1 1.1-1h3.6c0.7 0 1 0.4 0.9 1.1l-12.6 43.7c-0.1 0.7-0.5 1-1.1 1z"/>
		<path d="m152.2 66.4h-3.2c-0.7 0-1-0.3-1-1v-43.8c0-0.7 0.3-1 1-1h16.4c3.3 0 5.9 0.9 7.8 2.8s2.9 4.5 2.9 7.7v6.5c0 2.7-0.6 4.9-1.9 6.6s-3.1 2.9-5.3 3.5v0.3l8.3 17.3c0.4 0.8 0.2 1.1-0.7 1.1h-3.2c-0.8 0-1.4-0.3-1.8-1l-8-17.3h-9.4c-0.5 0-0.7 0.2-0.7 0.6v16.6c-0.2 0.8-0.5 1.1-1.2 1.1zm1.7-22.6h10.8c4.1 0 6.1-2 6.1-6.1v-6.3c0-4.1-2-6.2-6.1-6.2h-10.8c-0.5 0-0.7 0.2-0.7 0.6v17.4c0 0.4 0.3 0.6 0.7 0.6z"/>
		<path d="m210.2 65.4c-2.4-1.1-4.8-2.8-7.1-5.2-0.3-0.3-0.4-0.6-0.4-1 0-0.3 0.2-0.7 0.5-1s0.6-0.5 1-0.5 0.8 0.2 1.1 0.6c1.7 2 3.7 3.5 6.1 4.6 2.3 1 4.8 1.6 7.4 1.6 3.4 0 6.1-0.8 8.3-2.4s3.3-3.8 3.3-6.4c0-2.1-0.6-3.8-1.7-5.2s-2.4-2.4-4-3.2-3.8-1.7-6.5-2.7c-3-1.1-5.4-2.1-7-3-1.7-0.9-3.1-2.1-4.3-3.7s-1.8-3.7-1.8-6.4c0-2.1 0.6-4.1 1.8-5.8s2.9-3.1 5-4.1c2.2-1 4.7-1.5 7.6-1.5 2.6 0 5 0.5 7.3 1.4s4.1 2.3 5.5 4c0.4 0.6 0.7 1.1 0.7 1.4 0 0.4-0.2 0.7-0.5 0.9-0.3 0.3-0.7 0.4-1.1 0.4s-0.6-0.1-0.9-0.4c-1.2-1.6-2.8-2.8-4.7-3.7s-4-1.4-6.4-1.4c-3.3 0-6.1 0.8-8.3 2.4s-3.3 3.7-3.3 6.4c0 1.9 0.5 3.5 1.6 4.8s2.4 2.4 4 3.2 3.6 1.6 6 2.5c3.1 1.1 5.5 2.1 7.3 3s3.3 2.2 4.6 4c1.3 1.7 1.9 4.1 1.9 6.9 0 2-0.6 3.9-1.8 5.6s-2.9 3.1-5.1 4.2c-2.2 1-4.7 1.5-7.6 1.5-3.2-0.1-6.1-0.7-8.5-1.8z"/>
		<path d="m267.9 65.1c0 0.4-0.2 0.7-0.5 0.9s-0.6 0.4-0.8 0.4c-0.3 0-0.7-0.2-1-0.5l-15.3-16.3-5.5 4.6v10.9c0 0.3-0.1 0.7-0.4 0.9-0.2 0.3-0.6 0.4-0.9 0.4-0.4 0-0.7-0.1-1-0.4s-0.4-0.6-0.4-0.9v-45.8c0-0.3 0.1-0.7 0.4-0.9 0.2-0.3 0.6-0.4 1-0.4s0.7 0.1 0.9 0.4 0.4 0.6 0.4 0.9v31.7l20.6-17.2c0.3-0.3 0.5-0.4 0.9-0.4 0.3 0 0.7 0.1 0.9 0.4 0.3 0.3 0.4 0.6 0.4 1s-0.2 0.7-0.5 1l-14.8 12.2 15.2 16.2c0.3 0.2 0.4 0.5 0.4 0.9z"/>
		<path d="m302.8 58.9c0.2 0.2 0.3 0.5 0.3 0.8s-0.1 0.6-0.3 0.8c-1.4 1.9-3.2 3.5-5.4 4.7-2.1 1.2-4.4 1.8-6.9 1.8-3.3 0-6.2-0.7-8.7-2.1s-4.5-3.4-5.9-6-2.1-5.6-2.1-9c0-3.5 0.7-6.6 2.1-9.2s3.2-4.7 5.5-6.1 4.7-2.1 7.3-2.1 5 0.6 7.2 1.7 4 2.8 5.4 5 2.1 5 2.2 8.3c0 0.3-0.1 0.7-0.4 0.9-0.3 0.3-0.6 0.4-0.9 0.4h-25.7v0.9c0 2.7 0.5 5.2 1.6 7.4 1.1 2.3 2.7 4 4.8 5.3s4.7 2 7.7 2c2.1 0 4.1-0.5 5.9-1.5s3.3-2.3 4.4-3.9c0.3-0.4 0.7-0.6 1.1-0.6 0.3 0.2 0.6 0.3 0.8 0.5zm-19.1-22.3c-1.7 0.9-3.2 2.1-4.5 3.8s-2.2 3.7-2.6 6.1h24.1v-0.6c-0.2-2.2-0.9-4.1-2.1-5.7s-2.7-2.8-4.5-3.6-3.6-1.2-5.5-1.2c-1.5-0.1-3.2 0.4-4.9 1.2z"/>
		<path d="m325.1 33.9c0.3 0.3 0.4 0.5 0.4 0.9s-0.1 0.6-0.4 0.9c-0.2 0.2-0.5 0.4-0.9 0.4h-7.2v23.3c0 1.9 0.3 3.2 1 3.8s1.5 0.9 2.6 0.9c0.2 0 0.4 0 0.8-0.1 0.3-0.1 0.6-0.1 0.8-0.1 0.3 0 0.6 0.1 0.8 0.4 0.2 0.2 0.3 0.5 0.3 0.8 0 0.4-0.3 0.7-0.8 1s-1.1 0.4-1.8 0.4c-1.1 0-2-0.1-2.8-0.2-0.7-0.2-1.5-0.7-2.3-1.8-0.8-1-1.2-2.7-1.2-5v-23.5h-5.4c-0.3 0-0.6-0.1-0.9-0.4s-0.4-0.5-0.4-0.9c0-0.3 0.1-0.6 0.4-0.9 0.2-0.2 0.5-0.4 0.9-0.4h5.4v-8.3c0-0.3 0.1-0.7 0.4-0.9 0.3-0.3 0.6-0.4 0.9-0.4 0.4 0 0.7 0.1 1 0.4 0.2 0.3 0.4 0.6 0.4 0.9v8.3h7.2c0.2 0.1 0.5 0.2 0.8 0.5z"/>
		<path d="m352.4 33.4c1.8 0.4 3.2 1 4.3 1.7s1.6 1.5 1.6 2.3c0 0.4-0.1 0.7-0.4 0.9-0.2 0.3-0.5 0.4-0.9 0.4s-0.7-0.1-0.9-0.2-0.5-0.4-0.8-0.7c-0.6-0.7-1.2-1.1-1.8-1.4-1.6-0.7-3.8-1.1-6.7-1.1-2.5 0-4.8 0.7-6.9 2s-3.8 3.1-5 5.3-1.9 4.7-1.9 7.4c0 2.8 0.6 5.3 1.7 7.6 1.2 2.3 2.8 4 4.9 5.3s4.5 1.9 7.2 1.9c1.7 0 3.1-0.2 4.1-0.5s2-0.7 3-1.3c0.7-0.4 1.3-0.9 1.8-1.4 0.2-0.2 0.4-0.4 0.7-0.6s0.4-0.2 0.7-0.2 0.6 0.1 0.8 0.3 0.3 0.5 0.3 0.9c0 0.6-0.5 1.3-1.5 2.2s-2.4 1.6-4.2 2.2-3.7 0.9-5.9 0.9c-3.1 0-5.9-0.7-8.4-2.2s-4.4-3.5-5.8-6.2-2.1-5.6-2.1-8.8c0-3.1 0.7-5.9 2.1-8.5s3.3-4.7 5.8-6.3 5.4-2.4 8.6-2.4c2-0.2 3.9 0 5.6 0.5z"/>
		<path d="m389.3 36.9c2 2.4 3 5.4 3 9.1v19.1c0 0.3-0.1 0.7-0.4 0.9s-0.6 0.4-0.9 0.4c-0.4 0-0.7-0.1-0.9-0.4s-0.4-0.6-0.4-0.9v-19.1c0-3-0.7-5.5-2.2-7.3-1.5-1.9-3.8-2.8-6.8-2.8-1.9 0-3.7 0.5-5.5 1.4s-3.3 2.2-4.4 3.7c-1.1 1.6-1.7 3.3-1.7 5v19.1c0 0.3-0.1 0.7-0.4 0.9s-0.6 0.4-0.9 0.4c-0.4 0-0.7-0.1-0.9-0.4s-0.4-0.6-0.4-0.9v-45.8c0-0.3 0.1-0.7 0.4-0.9 0.3-0.3 0.6-0.4 0.9-0.4 0.4 0 0.7 0.1 1 0.4 0.2 0.3 0.4 0.6 0.4 0.9v20.7c1.2-1.9 2.9-3.5 5.1-4.7s4.4-1.9 6.6-1.9c3.5 0 6.3 1.2 8.4 3.5z"/>
	</g>
</svg>
