<?xml version="1.0" encoding="utf-8"?>
<!-- Generator: Adobe Illustrator 16.0.0, SVG Export Plug-In . SVG Version: 6.00 Build 0)  -->
<!DOCTYPE svg PUBLIC "-//W3C//DTD SVG 1.1//EN" "http://www.w3.org/Graphics/SVG/1.1/DTD/svg11.dtd">
<svg version="1.1" id="Layer_1" xmlns="http://www.w3.org/2000/svg" xmlns:xlink="http://www.w3.org/1999/xlink" x="0px" y="0px"
	 width="400px" height="600px" viewBox="0 0 400 600" style="enable-background:new 0 0 400 600;" xml:space="preserve">
<linearGradient id="SVGID_1_" gradientUnits="userSpaceOnUse" x1="62" y1="286.1318" x2="196.1323" y2="286.1318">
	<stop  offset="0" style="stop-color:#9BE35E"/>
	<stop  offset="1" style="stop-color:#5AA579"/>
</linearGradient>
<polyline style="fill:none;stroke:url(#SVGID_1_);stroke-width:5;stroke-miterlimit:10;" points="193.6,167 193.5,388 64.5,557 
	64.5,13 188.8,110.3 "/>
<g>
	<g>
		<path style="fill:#333333;" d="M309.3,186.2c0,0,0.3,0.2,0.8,0.6c0.5,0.4,1.4,0.9,2.5,1.5c1.1,0.6,2.5,1.2,4.1,1.9
			c0.8,0.4,1.6,0.8,2.4,1.3c0.8,0.5,1.6,1.2,2.4,1.8c1.7,1.2,3.5,2.6,5.5,4c1,0.7,2,1.4,3.1,2.3l0.8,0.7c0.3,0.3,0.5,0.6,0.8,0.9
			c0.2,0.3,0.5,0.7,0.7,1l0.3,0.6l0.1,0.3l0.1,0.1l0,0c0,0.1,0-0.1,0,0.1l0,0.1l0.1,0.2c0,0.1,0,0.1,0.1,0.3c0,0.3,0.1,0.6,0.1,0.8
			c0,0.5-0.1,0.9-0.2,1.4c-0.2,0.9-0.7,1.7-1.3,2.4c-0.6,0.7-1.5,1.2-2.5,1.5c-0.5,0.1-1,0.2-1.5,0.1l-0.4-0.1c0.1,0-0.1,0-0.1,0
			l0,0l-0.1,0l-0.1,0l-0.5-0.1c-0.8-0.3-1.6-0.6-2.2-1c-0.7-0.4-1.3-0.8-1.9-1.2l-0.9-0.6l-0.5-0.3l-0.4-0.3l-1.7-1.2
			c-2.3-1.7-4.5-3.3-6.7-5c-2.2-1.7-4.3-3.4-6.4-5c-1-0.8-2.1-1.6-3.1-2.4c-1-0.7-2.1-1.6-3-2.6c-0.9-0.9-1.7-1.9-2.4-3.2
			c-0.3-0.6-0.6-1.3-0.7-2c-0.1-0.7-0.1-1.5,0.1-2.2c0-0.2,0.1-0.4,0.2-0.5l0.1-0.3l0.1-0.1l0-0.1l0,0l0.1-0.2
			c0.1-0.2,0.3-0.4,0.4-0.6c0.3-0.3,0.6-0.7,1-0.9c0.4-0.2,0.7-0.4,1.1-0.4c1.5-0.2,2.6,0.3,3.4,0.8c1.6,1,2.7,2.2,3.5,3.1
			C308.2,185.3,309.3,186.2,309.3,186.2z M309.3,186.2c0,0-0.3-0.2-0.8-0.7c-0.5-0.4-1.3-1-2.3-1.6c-1.1-0.6-2.5-1.2-4-1.5
			c-0.7-0.1-1.5-0.1-1.9,0.1c-0.1,0-0.1,0.1-0.2,0.2c-0.1,0,0,0-0.1,0c-0.1,0.2-0.3,0.4-0.4,0.6c0-0.1-0.1,0.2,0.1-0.1l0,0l0,0
			l0,0.1l0,0.1c0,0.1-0.1,0.1-0.1,0.2c-0.4,1.1,0.7,3,2.2,4.5c0.8,0.8,1.6,1.5,2.7,2.3c1,0.8,2,1.6,3,2.4c2.1,1.6,4.2,3.3,6.4,4.9
			c2.2,1.6,4.5,3.3,6.7,5l1.7,1.2l0.4,0.3l0.4,0.3l0.8,0.6c0.6,0.4,1.1,0.7,1.6,1c0.6,0.3,1.1,0.5,1.5,0.7l0.5,0.1l0.1,0l0.1,0l0,0
			c0,0-0.1,0-0.1,0l0.1,0c0.2,0,0.3,0,0.5,0c0.3-0.1,0.7-0.3,1-0.6c0.3-0.3,0.5-0.7,0.6-1.1c0.1-0.2,0.1-0.4,0.1-0.6
			c0-0.1,0-0.1,0-0.2c0,0,0-0.1,0-0.2l-0.1-0.2l0-0.1c0.1,0.2,0,0,0,0.1l0,0l0-0.1l-0.1-0.2l-0.1-0.3l-0.4-0.6l-0.5-0.6l-0.6-0.6
			c-0.8-0.7-1.9-1.4-2.9-2.1c-2-1.4-3.8-2.8-5.5-4c-0.8-0.7-1.7-1.1-2.4-1.8c-0.7-0.7-1.4-1.3-2-1.9c-1.2-1.3-2.2-2.4-3.1-3.2
			c-0.9-0.9-1.6-1.5-2.1-1.9C309.5,186.4,309.3,186.2,309.3,186.2z"/>
		<path style="fill:#333333;" d="M308.7,185.7c0,0,0-0.1,0-0.4c0-0.2,0-0.6-0.1-1.1c-0.1-0.9-0.6-2.2-1.6-3.4
			c-0.3-0.4-0.6-0.6-0.9-0.9c-0.3-0.3-0.8-0.5-1.2-0.8c-0.9-0.6-1.9-1.2-2.8-2.3c-0.2-0.3-0.4-0.6-0.7-0.9c-0.2-0.3-0.3-0.7-0.5-1
			l-0.1-0.3l-0.1-0.3l-0.2-0.5c-0.1-0.3-0.2-0.7-0.3-1.1c-0.1-0.4-0.1-0.8-0.2-1.1c0-0.4,0-0.7-0.1-1.1c0-0.7-0.1-1.4-0.1-2.1
			c-0.1-0.7-0.2-1.3-0.4-1.9l0-0.1l0,0c0.1,0.2,0,0,0,0.1l-0.1-0.1c0-0.1-0.1-0.2-0.1-0.3c-0.1,0,0-0.1-0.1-0.1
			c-0.1-0.2-0.3-0.3-0.5-0.4c-0.8-0.5-2.4-0.5-4-0.4c-0.8,0.1-1.7,0.1-2.5,0.3c-0.8,0.1-1.6,0.3-2.5,0.5c-0.8,0.2-1.7,0.4-2.5,0.7
			c-0.8,0.2-1.7,0.6-2.5,0.9c-1.7,0.6-3.3,1.4-5,2.3c-0.8,0.4-1.6,0.9-2.4,1.4c-0.8,0.5-1.7,1-2.4,1.6c-3.1,2.1-6.1,4.6-8.3,7.6
			l-0.8,1.1c-0.2,0.4-0.4,0.8-0.7,1.2l-0.3,0.6l-0.1,0.1c0.1-0.3,0,0,0-0.1l0,0l0,0.1l-0.1,0.4l-0.1,0.4c0,0.1,0,0.1,0,0.2
			c0,0.1-0.1,0.2,0,0.3c0,0.5,0.3,0.9,0.9,1.4c0.6,0.5,1.4,0.9,2.2,1.3c0.9,0.4,1.8,0.8,2.6,1.3c0.9,0.5,1.9,0.9,2.8,1.8
			c0.9,0.9,1.4,1.8,1.9,2.3c0.2,0.3,0.5,0.5,0.5,0.5c0,0,0,0-0.1,0c0,0-0.1,0-0.2,0c-0.1,0-0.1,0.1-0.1,0c0,0,0.1-0.2,0.2-0.2
			c-0.1,0.1,0.3-0.4,0.2-0.4c-0.1,0.2,0,0.2-0.1,0c-0.1-0.2-0.4-0.7-0.7-1.1c-0.1-0.3-0.3-0.5-0.4-0.8l-0.1-0.3
			c0-0.1-0.1-0.3-0.2-0.5c-0.1-0.3-0.2-0.7-0.1-1.2c0-0.1,0-0.3,0.1-0.4c0-0.2,0.1-0.3,0.2-0.5c0.2-0.4,0.5-0.6,0.9-0.8
			c0.7-0.3,1.1-0.2,1.5-0.2c0.4,0,0.6,0.1,0.9,0.2c0.5,0.2,1,0.4,1.4,0.6l0.2,0.1l0.2,0.1l0.3,0.2l0.5,0.3c0.8,0.6,1.5,1.1,2.2,1.6
			c0.6,0.5,1.2,1,1.8,1.4c0.3,0.2,0.6,0.3,0.9,0.5c0.3,0.1,0.6,0.2,0.9,0.4c0.7,0.3,1.4,0.5,2.2,0.7c0.4,0.2,0.8,0.3,1.1,0.5
			l0.6,0.3l0.3,0.1l0.1,0.1l0.2,0.1l0.5,0.3l0.5,0.3c0.2,0.2,0.4,0.3,0.6,0.4l0.1,0.1l0,0c-0.2-0.1,0,0-0.1,0l0.1,0l0.1,0l0.5,0.1
			c0.3,0.1,0.6,0.2,0.9,0.3c0.5,0.1,1.1,0.2,1.6,0.2c2.3,0.1,4.4,0,6-0.3c1.6-0.3,2.9-0.9,3.6-1.4c0.4-0.2,0.6-0.5,0.8-0.7
			c0.2-0.2,0.3-0.3,0.3-0.3s-0.1,0.1-0.2,0.3c-0.1,0.2-0.3,0.5-0.7,0.9c-0.6,0.7-1.8,1.6-3.5,2.3c-1.7,0.7-3.7,1.3-6.3,1.5
			c-0.7,0-1.4,0-2.1,0c-0.3,0-0.6-0.1-1-0.1l-0.5-0.1l-0.1,0l-0.1,0c-0.1,0,0.1,0-0.2,0l0,0l-0.4-0.1c-0.5-0.1-0.9-0.4-1.2-0.6
			c-0.2-0.2-0.5-0.4-0.8-0.6l-0.1,0l0,0c-0.1,0,0.1,0,0,0l-0.1,0l-0.2-0.1l-0.4-0.2c-0.3-0.1-0.6-0.3-0.9-0.4
			c-0.7-0.3-1.4-0.5-2.1-0.7c-0.4-0.2-0.9-0.3-1.3-0.5c-0.4-0.2-0.8-0.4-1.2-0.7c-0.7-0.5-1.4-1-2.1-1.6c-0.7-0.5-1.3-1-1.8-1.4
			l-0.5-0.3l-0.3-0.2l-0.1,0l0,0c0.1,0.1,0,0,0,0l-0.1-0.1c-0.3-0.2-0.7-0.3-1-0.4c-0.1,0-0.3-0.1-0.4-0.1c-0.1,0-0.1,0,0.2-0.1
			c0.2-0.1,0.3-0.2,0.4-0.4c0-0.1,0.1-0.1,0.1-0.2c0,0,0-0.1,0-0.1c0-0.1,0,0,0,0.1c0,0.1,0,0.1,0.1,0.2l0.1,0.3
			c0,0.1,0.1,0.3,0.2,0.4c0.2,0.3,0.4,0.6,0.7,1.2c0.3,0.6,0.7,1.6,0.2,2.6l-0.1,0.2c0,0,0,0.1,0,0.1l-0.1,0.2l-0.1,0.2l0,0.1
			l-0.1,0.2l-0.3,0.4c-0.1,0.1-0.2,0.3-0.4,0.4c-0.3,0.3-0.7,0.6-1.3,0.7c-0.3,0.1-0.6,0.1-0.9,0c-0.3,0-0.5-0.1-0.7-0.2
			c-0.8-0.4-1.2-0.9-1.6-1.3c-0.7-0.8-1.2-1.7-1.7-2.1c-0.5-0.4-1.3-0.9-2.1-1.3c-0.9-0.4-1.8-0.8-2.6-1.3c-0.9-0.5-1.9-0.9-2.8-1.7
			c-0.5-0.4-0.9-0.8-1.3-1.4c-0.4-0.6-0.6-1.3-0.7-2.1c-0.1-0.4,0-0.8,0.1-1.2c0-0.2,0.1-0.4,0.1-0.5l0.1-0.4l0.1-0.4l0-0.1l0,0
			l0.1-0.2l0.1-0.2l0.4-0.7c0.3-0.5,0.5-1,0.8-1.4l0.9-1.3c2.5-3.4,5.7-6,9-8.4c0.8-0.6,1.7-1.1,2.5-1.6c0.9-0.5,1.7-1,2.6-1.5
			c1.8-0.9,3.5-1.8,5.3-2.4c0.9-0.4,1.8-0.7,2.7-0.9c0.9-0.3,1.8-0.5,2.7-0.8c0.9-0.2,1.8-0.4,2.7-0.6c0.9-0.2,1.8-0.2,2.6-0.3
			c0.9-0.1,1.8-0.1,2.8-0.1c0.9,0.1,2,0.2,3,0.8c0.5,0.3,1,0.6,1.3,1.1c0.2,0.2,0.4,0.5,0.5,0.8l0.1,0.3l0.1,0.1l0.1,0.1l0,0l0,0.1
			c0.3,0.9,0.5,1.7,0.5,2.5c0.1,0.8,0.1,1.6,0.2,2.3c0,0.3,0.1,0.7,0.1,1c0,0.3,0,0.7,0.1,0.9c0,0.3,0,0.5,0.1,0.9l0.1,0.5l0,0.1
			l0,0.1c0,0,0-0.1,0,0l0,0l0.1,0.2c0.1,0.2,0.1,0.5,0.2,0.7c0.1,0.2,0.2,0.4,0.3,0.7c0.5,0.9,1.3,1.6,2,2.4
			c0.4,0.4,0.7,0.7,1.1,1.2c0.3,0.4,0.7,0.8,0.9,1.2c1,1.6,1,3.1,1,4.1c0,0.5-0.1,0.8-0.1,1.1C308.7,185.6,308.7,185.7,308.7,185.7z
			"/>
		<path style="fill:#333333;" d="M331,202.8c0,0,0.1-0.2,0.2-0.5c0.1-0.4,0.2-0.8,0.2-1.5c0-0.6-0.1-1.3-0.3-2.1
			c-0.1-0.4-0.3-0.8-0.4-1.3c-0.1-0.2-0.1-0.5-0.1-0.7c0-0.2-0.1-0.5-0.1-0.7c-0.2-1-0.6-2.1-0.9-3.4l-0.1-0.5l-0.1-0.5
			c-0.1-0.3-0.2-0.6-0.3-1c-0.2-0.6-0.3-1.1-0.6-1.4l-0.1-0.1l0,0l0,0c0.2,0.2,0,0,0.1,0.1l0,0l-0.1-0.1l-0.4-0.4
			c-0.3-0.2-0.5-0.5-0.8-0.7c-0.5-0.3-0.9-0.7-1.6-1.1c-0.3-0.2-0.6-0.4-0.9-0.6l-1-0.7c-0.7-0.5-1.2-0.9-1.8-1.4
			c-1.2-1-2.3-2-3.4-2.9c-1.1-0.9-2.2-1.9-3.3-2.7c-1.1-0.8-2.1-1.5-3.2-2.1c-1-0.6-2.1-1-3-1.3c-0.2-0.1-0.5-0.1-0.7-0.2
			c-0.2,0-0.5-0.1-0.7-0.2c-0.4-0.2-0.8-0.4-1.2-0.5c-0.8-0.3-1.6-0.4-2.2-0.5c-0.6-0.1-1.2-0.1-1.5-0.2c-0.4,0-0.6,0-0.6,0
			s0.2-0.1,0.5-0.3c0.3-0.1,0.8-0.5,1.5-0.7c0.7-0.2,1.5-0.5,2.5-0.6c0.5-0.1,1-0.1,1.6-0.1c0.6-0.1,1.1,0.3,1.7,0.4
			c1.2,0.3,2.4,0.9,3.6,1.5c1.2,0.7,2.4,1.5,3.5,2.3c1.2,0.9,2.3,1.8,3.4,2.8c1.1,1,2.2,2,3.3,2.9c0.5,0.4,1.2,1,1.7,1.3l0.8,0.6
			c0.3,0.2,0.6,0.4,0.9,0.6c0.6,0.3,1.3,0.9,2,1.4c0.3,0.2,0.5,0.5,0.8,0.7l0.4,0.4l0.1,0.1l0.1,0.1l0,0l0.1,0.1l0.2,0.3
			c0.6,0.8,0.8,1.7,1,2.4c0.1,0.3,0.2,0.6,0.2,1l0.1,0.5l0.1,0.4c0.4,1.2,0.7,2.4,1,3.6c0.1,0.3,0.1,0.6,0.2,0.9
			c0.1,0.3,0.1,0.6,0.1,0.8c0,0.6-0.1,1.1-0.2,1.6c-0.2,1-0.5,1.9-0.9,2.5c-0.4,0.6-0.8,1.1-1,1.3C331.1,202.7,331,202.8,331,202.8z
			"/>
		<path style="fill:#333333;" d="M312,253c0,0,0-0.2,0.1-0.6c0.1-0.4,0.2-1,0.6-1.6c0.3-0.7,0.9-1.5,1.6-2.2
			c0.4-0.4,0.7-0.8,1.2-1.2c0.2-0.2,0.5-0.3,0.7-0.5c0.3-0.1,0.5-0.3,0.8-0.4c1-0.6,2.1-1.3,3-2c0.2-0.2,0.4-0.4,0.6-0.6l0,0
			c-0.3,0.3-0.1,0.1-0.1,0.1l0,0l0-0.1l0.1-0.1c0-0.1,0.1-0.2,0.1-0.2c0,0,0,0,0-0.1c0.1-0.4,0.2-1.1,0.3-1.8l0-0.6l0.1-0.6
			c0-0.4,0.1-0.8,0.1-1.1c0.1-0.7,0.1-1.5,0.2-2.4c0.1-0.9,0.3-1.8,0.8-2.7c0.2-0.5,0.4-0.8,0.6-1.1l0.6-1c0.8-1.3,1.3-2.5,1.4-3.8
			c0-0.3,0.1-0.7,0-0.9l0-0.6c0-0.2-0.1-0.3-0.1-0.4c-0.1-0.6-0.3-1.3-0.5-1.9c-0.4-1.3-1-2.9-1.1-4.4c-0.1-0.6-0.1-1.5-0.1-2.2
			c0-0.7,0.1-1.4,0.2-2c0-0.3,0.1-0.6,0.1-0.9c0-0.3,0.1-0.6,0.2-0.9c0.2-0.5,0.5-1,0.7-1.5c0.5-0.9,0.9-1.7,1.3-2.3
			c0.4-0.6,0.7-1.1,1-1.4c0.2-0.3,0.4-0.5,0.4-0.5s0,0.2-0.1,0.6c-0.1,0.4-0.1,0.9-0.2,1.6c-0.1,0.7-0.1,1.5-0.2,2.5
			c0,0.5,0,1,0,1.5c0,0.3,0,0.5-0.1,0.8c-0.1,0.3-0.1,0.5-0.1,0.8c0,0.5-0.1,1.1-0.1,1.7c0,0.6-0.1,1.1,0.1,1.8
			c0.1,1.2,0.5,2.4,1,3.8c0.2,0.8,0.5,1.5,0.6,2.5c0,0.2,0.1,0.5,0.1,0.7l0,0.6c0,0.5,0,0.9,0,1.4c-0.1,1.8-1,3.6-1.8,5l-0.6,1
			c-0.2,0.3-0.5,0.7-0.5,0.9c-0.3,0.5-0.4,1.1-0.5,1.8c-0.1,0.7-0.1,1.4-0.2,2.2c0,0.4-0.1,0.8-0.1,1.2l-0.1,0.5l0,0.5
			c-0.1,0.8-0.1,1.6-0.4,2.5c-0.1,0.3-0.2,0.6-0.4,0.9c-0.1,0.1-0.1,0.2-0.2,0.2l-0.1,0.1l0,0.1l0,0l-0.1,0.2l0,0
			c-0.3,0.3-0.6,0.6-0.9,0.8c-1.2,1-2.3,1.7-3.4,2.3c-0.3,0.2-0.5,0.3-0.7,0.5c-0.2,0.2-0.4,0.3-0.7,0.4c-0.5,0.2-1,0.4-1.4,0.5
			c-0.8,0.4-1.5,0.7-2.1,1.1c-0.5,0.4-0.9,0.7-1.2,1C312.1,252.9,312,253,312,253z"/>
		<path style="fill:#333333;" d="M300.6,196.5c0,0,0,0.8-0.1,2.3c-0.1,0.7-0.1,1.6-0.2,2.6c-0.1,0.5-0.1,1-0.2,1.6
			c0,0.3-0.2,0.5-0.3,0.8c-0.1,0.3-0.2,0.5-0.4,0.8c-1,2.3-2.3,4.9-4.6,7.3c-0.3,0.3-0.6,0.6-0.8,0.8l-0.4,0.4l-0.3,0.3
			c-0.1,0.1-0.1,0.2-0.2,0.2c0,0.1-0.1,0.1-0.1,0.1c0,0.1,0,0.2,0,0.4c0,0.1,0.1,0.2,0.1,0.4l0,0c-0.1-0.2,0,0,0-0.1l0,0l0,0
			l0.1,0.1l0.1,0.3c0.2,0.3,0.4,0.7,0.6,1c0.4,0.6,0.8,1.1,1.3,1.8l0.7,1l0.4,0.5l0.2,0.3l0.1,0.1l0.1,0.2l0,0.1l0.3,0.5
			c0.1,0.2,0.2,0.3,0.3,0.6c0.2,0.5,0.4,1.1,0.4,1.6c0,0.3,0,0.5,0,0.8l-0.1,0.7c0,0.5-0.2,0.9-0.3,1.3c-0.1,0.4-0.3,0.8-0.4,1.2
			c-0.1,0.4-0.3,0.7-0.4,1.1c-0.1,0.3-0.2,0.7-0.3,1c-0.1,0.3-0.2,0.7-0.3,1c-0.2,0.7-0.4,1.3-0.5,1.9c-0.3,1.2-0.4,2.4-0.4,3.4
			c0,0.3,0,0.5,0.1,0.7c0.1,0.2,0.1,0.5,0.1,0.7l-0.2,0.1l-0.2,0v0c0,0,0,0.1,0-0.1v0l0.2,0.2c0,0.1,0.1,0.3,0.1,0.4
			c0,0.3,0.1,0.5,0.1,0.8c0.2,0.9,0.3,1.8,0.5,2.4c0.2,0.7,0.2,1.3,0.2,1.7c0,0.4,0,0.6,0,0.6s-0.1-0.2-0.3-0.5
			c-0.2-0.3-0.5-0.8-0.9-1.3c-0.4-0.5-1-1.3-1.6-2.2c-0.1-0.2-0.3-0.4-0.4-0.7l-0.2-0.3l-0.1-0.2l0,0l0-0.1l0,0l0-0.1l0-0.1
			c-0.3-0.6-0.2-1.3-0.3-1.9c-0.1-1.4,0.1-2.8,0.4-4.2c0.2-0.7,0.4-1.4,0.6-2.1c0.1-0.3,0.2-0.7,0.3-1c0.1-0.4,0.3-0.7,0.4-1.1
			c0.5-1.4,1-2.7,0.9-3.8c0-0.3-0.1-0.4-0.1-0.6c0-0.1-0.1-0.3-0.2-0.4l-0.3-0.5l0-0.1l0,0l0,0c-0.1-0.1,0.1,0.1,0.1,0.1l-0.1-0.1
			L294,221l-0.3-0.5l-0.7-0.9c-0.5-0.6-1-1.4-1.5-2.1c-0.2-0.4-0.4-0.7-0.6-1l-0.1-0.3l-0.1-0.1l-0.1-0.2l0-0.1l-0.3-0.7
			c-0.1-0.5-0.2-1.2-0.1-1.9c0.1-0.3,0.2-0.6,0.4-0.9c0.2-0.2,0.3-0.5,0.5-0.7l0.5-0.5l0.4-0.4c0.3-0.3,0.5-0.5,0.7-0.8
			c1.8-2,3.1-4.3,4-6.4c0.1-0.3,0.2-0.5,0.3-0.8c0.1-0.3,0.2-0.5,0.3-0.7c0.3-0.5,0.6-0.9,0.8-1.3c0.5-0.8,0.9-1.6,1.3-2.2
			C300.1,197.2,300.6,196.5,300.6,196.5z"/>
		<path style="fill:#333333;" d="M304.1,247c0,0,0-0.1-0.1-0.3c0-0.2-0.1-0.6-0.2-0.9c-0.1-0.4-0.3-0.8-0.5-1.3
			c-0.1-0.2-0.2-0.5-0.3-0.8c-0.1-0.1-0.1-0.3,0-0.4c0-0.1,0-0.3,0-0.4c-0.1-1.2-0.4-2.6-0.8-4.2c-0.2-0.8-0.5-1.5-0.7-2.3
			c-0.1-0.4-0.3-0.8-0.4-1.2l-0.2-0.6l-0.1-0.3c0,0,0.1,0.2,0,0.1l0,0l0,0l0,0l0-0.1l-0.1-0.1c-0.4-0.8-0.8-1.6-1.2-2.2
			c-0.4-0.6-0.9-1.4-1.3-2.1c-0.2-0.3-0.4-0.7-0.7-1.1c-0.2-0.4-0.4-0.8-0.6-1.1c-0.3-0.7-0.6-1.3-0.9-1.9c-0.1-0.1-0.1-0.3-0.2-0.4
			c-0.1-0.1-0.2-0.3-0.2-0.4c0-0.3,0-0.7,0-1c0-0.6,0-1.1,0-1.5c0-0.9,0.1-1.3,0.1-1.3s0.4,0.3,1,0.9c0.3,0.3,0.6,0.6,1,1.1
			c0.2,0.2,0.4,0.4,0.6,0.6c0.1,0.1,0.2,0.2,0.2,0.4c0,0.2,0.1,0.3,0.2,0.4c0.3,0.6,0.6,1.3,0.9,1.9c0.2,0.3,0.3,0.6,0.5,0.9
			c0.2,0.3,0.4,0.6,0.6,1c0.4,0.7,0.9,1.4,1.4,2.2c0.5,0.8,0.9,1.6,1.3,2.4l0.2,0.4l0.1,0.3l0.2,0.6c0.2,0.4,0.3,0.8,0.5,1.3
			c0.3,0.8,0.5,1.7,0.8,2.5c0.5,1.7,0.8,3.3,0.9,4.7c0,0.2,0,0.4,0.1,0.5c0,0.2,0.1,0.3,0,0.5c-0.1,0.3-0.2,0.7-0.3,0.9
			c-0.2,0.6-0.5,1.1-0.7,1.5c-0.2,0.4-0.5,0.6-0.6,0.8C304.2,246.9,304.1,247,304.1,247z"/>
		<path style="fill:#333333;" d="M276.2,194.8c0,0,0,0.2-0.1,0.7c-0.1,0.4-0.2,1.1-0.4,1.9c-0.2,0.8-0.5,1.8-1,2.9
			c-0.3,0.6-0.7,1.2-1.1,1.7c-0.2,0.2-0.5,0.5-0.8,0.7c-0.3,0.2-0.5,0.4-0.8,0.6c-1,0.8-1.9,1.8-2,2.6c0,0,0.1,0.1,0.1,0.1l0.1,0.1
			v0c0-0.1-0.1,0.1-0.1-0.1l0,0l0,0.1l0,0.1l0,0.1l0,0c0,0,0,0,0,0c0.1,0.2,0.2,0.4,0.4,0.7c0.4,0.5,1,1,1.6,1.6
			c0.3,0.3,0.7,0.6,1,0.9c0.3,0.3,0.8,0.7,1,1c0.6,0.6,1.2,1.3,1.9,2c1.2,1.4,2.4,2.8,3.5,4.6c0.4,0.8,0.9,1.5,1.3,2.5
			c0.4,0.9,0.8,1.8,1.1,2.7c0.3,0.9,0.6,1.7,0.9,2.6c0.1,0.4,0.3,0.9,0.4,1.3l0.2,0.6l0.2,0.7c0.2,0.8,0.4,1.7,0.6,2.5
			c0.2,0.8,0.4,1.6,0.5,2.4c0.2,1.6,0.5,3.2,0.6,4.6c0,0.4,0,0.7,0,1c0,0.3,0.1,0.7,0,1c-0.1,0.6-0.2,1.3-0.3,1.8
			c-0.2,1.1-0.5,2.1-0.7,2.9c-0.5,1.6-0.8,2.5-0.8,2.5s-0.2-0.9-0.4-2.5c-0.1-0.4-0.1-0.8-0.2-1.3c-0.1-0.5-0.1-1-0.3-1.5
			c-0.1-0.5-0.3-1.1-0.4-1.7c-0.1-0.3-0.1-0.6-0.1-0.9c0-0.3,0-0.6,0-1c-0.1-1.3-0.4-2.7-0.5-4.2c-0.1-0.7-0.3-1.5-0.5-2.3
			c-0.2-0.8-0.4-1.6-0.6-2.5l-0.1-0.6l-0.2-0.6c-0.1-0.4-0.3-0.8-0.4-1.2c-0.2-0.8-0.6-1.6-0.8-2.5c-0.3-0.9-0.6-1.6-0.9-2.4
			c-0.3-0.8-0.8-1.6-1.2-2.4l-0.3-0.6l-0.3-0.4l-0.8-1c-0.6-0.7-1.1-1.4-1.7-2c-0.6-0.6-1.2-1.3-1.8-1.9c-0.3-0.4-0.5-0.6-0.8-0.8
			c-0.3-0.3-0.6-0.6-1-0.8c-0.7-0.6-1.3-1.2-2-2c-0.3-0.4-0.6-0.8-0.9-1.4c-0.1-0.2-0.1-0.4-0.2-0.6c0-0.1,0-0.2,0-0.2l0-0.1l0-0.1
			l0.1,0c0-0.3,0.1-0.1,0.1-0.2v0l-0.1-0.2c0-0.1,0-0.3,0-0.4c0.2-1.2,0.8-2.1,1.3-2.8c0.6-0.7,1.1-1.2,1.7-1.7
			c0.3-0.2,0.5-0.5,0.8-0.7c0.2-0.2,0.4-0.4,0.7-0.6c0.5-0.3,0.9-0.5,1.3-0.9c0.7-0.7,1.4-1.4,1.9-2
			C275.5,195.5,276.2,194.8,276.2,194.8z"/>
		<path style="fill:#333333;" d="M285.1,251.5c0,0-0.1-0.3-0.1-0.8c0-0.3,0-0.6,0-0.9c0-0.2,0-0.3-0.1-0.5c0-0.1,0-0.1,0.1-0.2
			c0.1,0,0.1-0.1,0.1-0.2c0.2-0.2,0.3-0.5,0.5-0.8c0.2-0.3,0.3-0.6,0.5-0.9c0.2-0.3,0.3-0.7,0.4-1c0.1-0.4,0.2-0.7,0.4-1.1
			c0.4-1.5,0.6-3.1,0.6-4.3c0-0.1,0-0.1,0-0.2c0-0.1,0-0.1,0-0.2c0.1-0.1,0.2-0.3,0.3-0.4c0.2-0.3,0.4-0.5,0.6-0.7
			c0.3-0.4,0.5-0.6,0.5-0.6s0.3,0.2,0.6,0.6c0.2,0.2,0.4,0.4,0.6,0.7c0.1,0.1,0.2,0.3,0.3,0.4c0.1,0.1,0.1,0.2,0,0.2
			c0,0.1,0,0.2,0,0.3c0,1.4-0.2,3.2-0.7,5c-0.1,0.4-0.3,0.9-0.4,1.3c-0.1,0.4-0.3,0.9-0.5,1.3c-0.2,0.4-0.4,0.8-0.6,1.1
			c-0.2,0.4-0.4,0.7-0.6,1c0,0.1-0.1,0.1-0.1,0.2c0,0.1-0.1,0.2-0.2,0.2c-0.2,0.1-0.4,0.1-0.5,0.2c-0.3,0.1-0.6,0.1-0.9,0.2
			C285.4,251.5,285.1,251.5,285.1,251.5z"/>
		<path style="fill:#333333;" d="M273.3,211.8c0.1,0.7,0.1,1.4,0.2,2.1c0.1,0.7,0.2,1.3,0.3,2c0.1,0.6,0.3,1.2,0.6,1.7
			c0.1,0.1,0.1,0.2,0.2,0.4l0.2,0l0.2,0v0c0,0-0.3-0.2-0.3-0.1l-0.1,0l0,0.1l0,0.2c0.1,0.2,0.1,0.3,0.1,0.4c0.1,0.1,0.1,0.2,0.2,0.3
			c0.3,0.5,0.7,1.1,1.1,1.9c0.2,0.4,0.3,0.8,0.5,1.3c0,0.2,0.3,0.5,0.3,0.7l0.2,0v0c0,0.1,0-0.2,0,0.2v0l-0.2,0.1l-0.1,0.1l-0.1,0.3
			c0,0.2-0.2,0.7-0.3,1c-0.1,0.3-0.3,0.5-0.4,0.7c-0.1,0.2-0.3,0.4-0.4,0.6c-0.2,0.2-0.3,0.3-0.5,0.5c-0.6,0.6-1.2,1-1.7,1.4
			c-0.5,0.4-1.1,0.8-1.6,1.2c-0.5,0.4-0.9,0.8-1.3,1.3l-0.5,0.7l-0.4,0.7c-0.1,0.2-0.2,0.5-0.3,0.7c-0.1,0.2-0.1,0.5-0.1,0.7
			l-0.1,0.2l-0.1,0v0c0-0.2,0,0,0-0.1v0l0.1,0.1l0.1,0.1l0.1,0.5l0.1,1c0.1,0.6,0.2,1.2,0.3,1.8c0.1,0.6,0.3,1.3,0.4,1.9l0.5,1.9
			l-2.8-0.2c0.7-1.4,1.5-2.9,2.6-4.2c0.3-0.3,0.6-0.7,0.9-1c0.3-0.3,0.7-0.6,1.1-0.9c0.8-0.5,1.9-0.9,3.1-0.8c0.3,0,0.5,0.1,0.8,0.1
			l0.4,0.1l0.2,0.1l0,0l0,0l0.1,0l0.1,0.1l0.5,0.2c0.2,0.1,0.3,0.1,0.6,0.3c0.4,0.2,0.8,0.6,1,0.9l0.8,0.8c0.2,0.2,0.5,0.5,0.7,0.7
			l1,0.6c0.7,0.4,1.3,0.9,2,1.3c-0.8-0.1-1.6-0.1-2.4-0.2l-1.2-0.1l-1.3-0.4c-0.4-0.2-0.8-0.3-1.1-0.5c-0.4-0.2-0.6-0.2-0.9-0.4
			c-0.1-0.1-0.3-0.2-0.4-0.3l-0.5-0.2l-0.1-0.1l-0.1,0l0,0l0,0l0,0.2c0,0,0.3,0.3,0.2,0.3h0l-0.2-0.3c-0.1,0-0.2-0.2-0.3-0.2
			c-0.4,0-0.8,0-1.3,0.3c-0.2,0.1-0.5,0.3-0.7,0.5c-0.2,0.2-0.4,0.4-0.7,0.7c-0.8,1-1.6,2.2-2.2,3.6l-1.8,3.7l-1-3.9l-0.5-2
			c-0.2-0.7-0.3-1.4-0.5-2.1c-0.1-0.7-0.3-1.5-0.3-2.2l-0.1-1l0-0.5l-0.1-0.1l-0.1-0.1v0v-0.1v0l0.1,0l0.1-0.3
			c0.1-0.4,0.1-0.9,0.2-1.3c0.1-0.4,0.3-0.8,0.5-1.2c0.2-0.4,0.4-0.7,0.6-1.1l0.8-0.9c0.5-0.6,1.1-1.1,1.6-1.6
			c0.6-0.5,1.1-0.9,1.7-1.3c0.5-0.4,1.1-0.8,1.5-1.2l0.3-0.3l0.2-0.2c0-0.1,0.1-0.2,0.1-0.2c0,0,0,0.1,0,0l0-0.3l0.2-0.1l0.2-0.1v0
			c0,0.4,0,0.1,0,0.2v0l-0.2,0c0-0.1-0.1-0.2-0.1-0.3c-0.1-0.2-0.2-0.4-0.3-0.7c-0.2-0.5-0.6-1-1-1.7c-0.2-0.3-0.5-0.9-0.6-1.1
			l-0.1-0.2l-0.1-0.1l0,0l0-0.1l0,0l0-0.1c0-0.2-0.1-0.4-0.1-0.6c0-0.8,0.1-1.6,0.2-2.4c0.2-0.7,0.4-1.4,0.7-2.1
			C272.6,213.1,272.9,212.4,273.3,211.8z"/>
		<path style="fill:#333333;" d="M203.5,147.3c-0.4-0.9-0.6-1.9-0.9-2.9c-0.3-0.9-0.9-1.6-1.6-2c-0.8-0.5-1.7-0.7-2.7-1.2
			c-0.5-0.3-1.1-0.7-1.4-1.3c-0.4-0.7-0.4-1.5-0.3-2.1c0.1-0.3,0.1-0.6,0.2-0.9l0.1-0.2l0-0.1l0-0.1c0-0.1,0,0.1,0.1-0.1l0,0
			c0.1-0.1,0.1-0.2,0.2-0.4c0.3-0.4,0.6-0.7,1-0.9c0.4-0.2,0.7-0.3,1.1-0.4c1.4-0.2,2.5,0.1,3.6,0.3l0.7,0.2l0.2,0.1l0.2,0.1
			l0.4,0.1c0.6,0.3,1.2,0.6,1.7,1.1c1,0.9,1.5,2,2,2.7c0.5,0.9,1.1,1.6,1.6,2.6c0.3,0.4,0.5,1.1,0.7,1.7l0,0.1l0,0.1
			c0,0,0-0.1,0,0.1l0,0l0,0.2l0.1,0.4c0,0.3,0.1,0.6,0.1,0.9c0.1,1.2,0,2.2-0.1,3.2c0,0.5-0.1,1-0.1,1.4l0,1.5l0,1.5l0.1,1.4
			l0.1,1.4l0.1,1.4l0.1,1.4l0.2,1.4c0.1,1,0.3,1.9,0.5,2.9c0.4,2,0.7,3.9,1.1,5.8c0.4,1.9,0.8,3.9,1.3,5.8c0.5,1.9,1,3.8,1.6,5.6
			c0.6,1.9,1.3,3.6,2.1,5.4c0.8,1.8,1.7,3.6,2.5,5.4c0.9,1.8,1.7,3.6,2.5,5.5c0.4,0.9,0.8,1.9,1.2,2.8c0.3,1,0.7,1.9,1,2.9l0.8,3
			l0.6,3.1l-2.7-0.7c0.2-0.2,0.4-0.4,0.7-0.7c0.3-0.2,0.8-0.4,1.3-0.3c0.9,0.1,1.2,0.4,1.6,0.7c0.6,0.5,0.9,0.9,1.2,1.2l2.4,1.7
			l2.5,1.8l0.2,0.1l0.1,0.1l0,0c0,0,0.1,0.1-0.1-0.1l0,0l0,0l0.3,0.2l0.7,0.4l1.3,0.8l2.7,1.7c0.9,0.6,1.8,1,2.7,1.5l2.7,1.4
			c0.2,0.1,0.5,0.3,0.6,0.3l0.7,0.3l1.4,0.6c1,0.4,1.9,0.9,2.9,1.2c0.9,0.4,1.9,0.7,2.9,1.1c0.9,0.4,1.9,0.8,2.8,1.2
			c1,0.4,1.9,0.8,2.9,1.1l2.9,1c1,0.3,2,0.6,3,0.9c1,0.3,2,0.7,3,1.1c1,0.4,1.9,1,2.7,1.7c-1.8-1.1-3.9-1.4-5.9-1.7
			c-1-0.1-2.1-0.2-3.1-0.4l-3.1-0.5c-1.1-0.2-2.1-0.4-3.1-0.7c-1-0.3-2.1-0.5-3.1-0.8c-1-0.4-2-0.8-3-1.2c-1-0.4-1.9-0.8-2.9-1.2
			l-1.4-0.6l-0.7-0.3c-0.3-0.1-0.5-0.3-0.7-0.4l-2.9-1.5c-0.9-0.5-1.9-1-2.8-1.5l-2.7-1.7l-1.3-0.8l-0.7-0.4l-0.3-0.2l-0.4-0.3
			l-2.5-1.8l-1.3-0.9l-0.6-0.5l-0.3-0.2l-0.2-0.1c-0.2-0.1-0.2-0.1-0.3-0.2c-0.5-0.5-0.8-0.9-1-1c-0.1-0.1-0.2,0,0.2,0
			c0.2,0,0.4-0.1,0.5-0.1c0.1-0.1,0.1-0.1,0.1-0.1l-2.7-0.7l-0.5-2.8l-0.8-2.8c-0.3-0.9-0.6-1.8-1-2.7c-0.3-0.9-0.7-1.8-1.1-2.7
			c-0.8-1.8-1.6-3.6-2.5-5.4c-0.9-1.8-1.7-3.6-2.6-5.4c-0.8-1.9-1.6-3.8-2.2-5.7c-0.7-1.9-1.2-3.9-1.7-5.9c-0.5-2-0.9-3.9-1.3-5.9
			c-0.4-2-0.8-3.9-1.1-5.9c-0.2-1-0.4-2-0.5-3l-0.2-1.5l-0.2-1.5l-0.2-1.5l-0.1-1.6l-0.1-1.6l0-1.5l0-1.5c0-0.6,0.1-1.1,0.1-1.6
			c0.1-1,0.2-1.9,0.1-2.8c0-0.2,0-0.3-0.1-0.5l-0.1-0.4l0-0.2l0,0c0,0.2,0,0,0,0.1l0,0l0-0.1c-0.2-0.3-0.2-0.7-0.5-1.1
			c-0.4-0.7-1-1.6-1.5-2.5c-0.6-0.9-1-1.7-1.5-2.1c-0.2-0.2-0.5-0.3-0.8-0.5l-0.6-0.2c-0.2-0.1-0.5-0.2-0.7-0.3
			c-0.9-0.4-1.7-0.6-2.3-0.6c-0.1,0-0.2,0-0.3,0c-0.1,0-0.1,0-0.1,0c0,0,0,0,0,0c-0.1,0.1-0.1,0.2-0.2,0.3l0,0c0.1-0.2,0,0,0-0.1
			l0,0l0,0.1l-0.1,0.1c-0.1,0.2-0.2,0.4-0.2,0.5c-0.1,0.3-0.1,0.6-0.1,0.8c0.1,0.2,0.3,0.5,0.6,0.8c0.7,0.5,1.6,1,2.5,1.7
			c0.4,0.3,0.8,0.8,1.1,1.3c0.3,0.5,0.4,1,0.5,1.5C203.3,145.3,203.3,146.3,203.5,147.3z"/>
		<path style="fill:#333333;" d="M195.9,163.2c0,0,0.2,0.1,0.6,0.3c0.2,0.1,0.4,0.3,0.7,0.5c0.3,0.2,0.5,0.5,0.8,0.8
			c0.6,0.7,1.1,1.6,1.6,2.6c0.3,0.5,0.5,1.1,0.7,1.7c0.1,0.3,0.2,0.6,0.2,1c0,0.3,0.1,0.7,0.1,1c0.2,1.4,0.3,2.9,0.4,4.3
			c0.2,1.5,0.5,3.1,0.7,4.8c0.5,3.3,1.1,6.9,1.6,10.4c0.1,0.9,0.3,1.8,0.4,2.7l0.2,1.3l0.2,1.3c0.3,1.7,0.6,3.5,1.1,5
			c0.2,0.8,0.4,1.6,0.6,2.3c0.2,0.8,0.4,1.5,0.7,2.3s0.4,1.5,0.6,2.2c0.2,0.7,0.4,1.3,0.6,2c0.1,0.3,0.2,0.6,0.3,0.9
			c0.1,0.3,0.2,0.6,0.3,0.9c0.1,0.6,0.2,1.2,0.3,1.8c0.2,1.1,0.3,2,0.5,2.7c0.2,0.7,0.4,1.3,0.7,1.6c0.3,0.3,0.5,0.3,0.5,0.3
			c0,0-0.2,0.1-0.7-0.1c-0.4-0.2-1-0.6-1.5-1.3c-0.5-0.7-1.1-1.5-1.6-2.5c-0.3-0.5-0.6-1-0.9-1.5c-0.2-0.3-0.3-0.6-0.3-0.9
			c-0.1-0.3-0.2-0.6-0.3-1c-0.2-0.7-0.5-1.3-0.7-2c-0.2-0.7-0.4-1.4-0.6-2.2c-0.2-0.7-0.4-1.5-0.7-2.3c-0.2-0.8-0.4-1.6-0.6-2.5
			c-0.5-1.7-0.8-3.4-1.1-5.1l-0.3-1.4l-0.2-1.3c-0.1-0.9-0.3-1.8-0.4-2.7c-0.6-3.5-1.1-7.1-1.6-10.4c-0.3-1.7-0.5-3.3-0.8-4.8
			c-0.2-1.6-0.3-3-0.4-4.4c0-0.3-0.1-0.6-0.1-0.9c-0.1-0.3-0.1-0.6-0.1-0.9c0-0.6,0-1.2,0-1.7c-0.1-1-0.2-1.9-0.4-2.6
			c-0.1-0.4-0.2-0.7-0.3-0.9c-0.1-0.2-0.2-0.5-0.4-0.6C196.1,163.3,195.9,163.2,195.9,163.2z"/>
		<path style="fill:#333333;" d="M204.2,137c0,0,0-1.2,0.2-3.2c0.1-1,0.2-2.2,0.3-3.5c0-0.7,0.1-1.4,0-2.1c0-0.7,0.2-1.4,0.1-2.2
			c0-0.7-0.1-1.5-0.3-2.2c-0.1-0.4-0.3-0.7-0.4-1.1l-0.3-0.5l-0.1-0.2l-0.2-0.3c-1.1-1.6-2.2-3.2-3.5-4.8c-0.3-0.4-0.7-0.7-1-1.1
			c-0.4-0.3-0.7-0.7-1.1-1c-0.4-0.3-0.8-0.6-1.2-0.9l-0.6-0.4l-0.3-0.2l-0.2-0.1c0,0-0.1,0,0.1,0l0,0l0,0l-0.1,0l-0.8-0.3
			c-0.3-0.1-0.5-0.2-0.7-0.3c-0.5-0.1-0.9-0.3-1.4-0.4c-1-0.3-2.1-0.4-3.2-0.7l-0.3,0c0,0-0.1,0,0,0c0.1,0,0.2-0.1,0.3-0.2
			c0.1-0.1,0.1-0.1,0.1-0.1c0-0.1,0,0.1,0,0.1l0,0.1l0,0c0-0.2,0,0,0-0.1l0,0l0,0.1l-0.1,0.8l0,0.2l0,0.2l0,0.3l-0.2,0.3l-0.2,0.1v0
			c0-0.1,0.3,0.2,0.2-0.1l0.1,0.1l0.1,0.2c0-0.1,0.1,0.2,0.3,0.4c0.1,0.3,0.3,0.5,0.5,1c0,0.1,0.1,0.3,0.1,0.4c0,0.3,0,0.6-0.1,0.8
			c0,0-0.1,0.3-0.1,0.2l0,0l0,0l0,0.1c0,0-0.1,0.2-0.2,0.3c-0.4,0.6-0.6,0.7-0.6,0.7c0,0,0,0,0,0c0,0,0,0,0-0.1c0,0,0-0.1,0-0.1
			c0,0,0,0,0,0l0,0c0-0.2,0,0,0-0.1l0,0l0,0l0.1,0.2c0,0.1,0.1,0.3,0.1,0.4c0.1,0.3,0.3,0.7,0.6,1.2c0,0.1,0.3,0.5,0.3,0.6l0.4,0.6
			c0.3,0.5,0.6,0.9,0.9,1.5c0.1,0.1,0.1,0.3,0.2,0.5l0.1,0.3c0,0.1,0.1,0.2,0.1,0.3c0,0.2-0.1,0.3-0.1,0.5l-0.1,0.1v0.1
			c0,0.1,0.2-0.2,0.1,0.3l0,0.1c0,0,0,0.1-0.1,0.3c-0.1,0.1-0.1,0.2-0.2,0.3c-0.1,0.2-0.1,0.2-0.2,0.3c-0.5,0.5-0.9,0.8-1.2,1.1
			c-0.1,0.1-0.3,0.3-0.3,0.4c-0.1,0.1,0,0.1,0-0.2c0-0.1-0.1-0.4-0.1-0.5c0-0.1-0.1-0.1-0.1-0.1l0.2,0.2l0.5,0.5
			c0.3,0.3,0.7,0.7,1,1c0.3,0.3,0.6,0.7,0.9,1l0.5,0.5l0.2,0.2l0.2,0.2l0.1,0.1c0,0,0,0,0,0c0,0,0,0-0.1,0c0,0-0.1,0-0.1,0
			c0,0-0.1,0-0.1,0c0,0,0.5-0.2,0.9-0.3c0.2-0.1,0.4-0.1,0.6-0.1c0.2,0,0.4-0.1,0.5-0.1c0.4-0.1,0.8-0.2,1.2-0.2
			c0.4-0.1,0.8-0.1,1.3,0c0.1,0,0.2,0,0.3,0.1l0.2,0l0.1,0c0,0,0.2,0.1,0.1,0l0,0l0,0l0.2,0.1l0.1,0l0.1,0.1c0.1,0,0.2,0.1,0.2,0.1
			c0.5,0.4,0.7,1,0.6,1.4c0,0.4-0.1,0.7-0.3,1c-0.5,1-1,1.6-1.4,2c-0.3,0.4-0.5,0.6-0.5,0.6s0.1-0.3,0.3-0.8
			c0.2-0.5,0.4-1.3,0.5-2.2c0-0.2,0-0.4,0-0.6c0-0.2-0.2-0.1-0.1-0.1c0,0,0,0,0,0l0,0l-0.1,0l-0.2,0l0,0l0,0c-0.1,0,0.1,0,0.1,0l0,0
			l-0.1,0l-0.2,0c-0.2,0.1-0.4,0.1-0.7,0.3c-0.3,0.1-0.5,0.3-0.9,0.5c-0.2,0.1-0.3,0.2-0.5,0.3c-0.2,0.1-0.3,0.2-0.5,0.3
			c-0.3,0.2-0.6,0.3-1.3,0.5c-0.1,0-0.4,0.1-0.7,0c-0.2,0-0.5-0.1-0.7-0.2c-0.3-0.1-0.4-0.2-0.6-0.3l-0.3-0.2l-0.1-0.1l-0.2-0.2
			l-0.3-0.3l-0.5-0.5c-0.3-0.3-0.6-0.6-0.9-1c-0.3-0.3-0.6-0.7-1-1l-0.5-0.5c0,0-0.1-0.1-0.1-0.1c-0.1-0.1-0.2-0.3-0.4-0.4
			c-0.2-0.3-0.4-0.8-0.3-1.2c0.1-0.8,0.4-1.2,0.6-1.5c0.2-0.3,0.4-0.5,0.7-0.7c0.4-0.4,0.8-0.7,1-1c0,0,0.1-0.1,0,0
			c0,0.1-0.1,0.1-0.1,0.2c0,0.1,0,0.2,0,0.1l0-0.1c-0.1,0.6,0,0.2-0.1,0.3l0,0l0,0c0,0,0,0.1,0,0.1c0,0.1,0,0,0,0l0-0.1
			c0,0-0.1-0.1-0.1-0.2c-0.2-0.4-0.5-0.8-0.7-1.2l-0.5-0.7c-0.2-0.3-0.3-0.4-0.5-0.8c-0.2-0.5-0.5-1-0.8-1.7
			c-0.1-0.2-0.1-0.3-0.1-0.4l-0.1-0.2l-0.1-0.2l0-0.2c0-0.2,0-0.3,0-0.5c0-0.2,0-0.3,0.1-0.5c0-0.2,0.1-0.3,0.2-0.5
			c0.1-0.1,0.1-0.3,0.2-0.4c0.2-0.2,0.3-0.3,0.4-0.5c0.1-0.1,0.2-0.2,0.1-0.1c0,0,0,0.1,0,0l0-0.1l0,0l0,0c0.1-0.1-0.1,0.2-0.1,0.2
			c-0.1,0.1-0.1,0.3,0,0.4c0,0,0,0,0,0c0,0-0.1-0.3-0.2-0.5c-0.1-0.2-0.3-0.5-0.5-1.1l-0.1-0.2l0-0.1c-0.1-0.3,0-0.1,0-0.2l0,0
			l0-0.1l0-0.5l0-0.5l0-0.3l0-0.2l0.1-0.8l0-0.1l0-0.2l0-0.1l0.1-0.3c0.1-0.2,0.1-0.4,0.2-0.7c0.1-0.5,0.9-1.3,1.7-1.4
			c0.3-0.1,0.6-0.1,0.8,0c0.2,0,0.4,0,0.6,0.1c1.1,0.2,2.2,0.4,3.4,0.7c0.6,0.1,1.2,0.4,1.8,0.6c0.3,0.1,0.6,0.2,0.8,0.3l0.8,0.3
			l0.1,0l0,0l0,0c0.2,0.1,0.1,0,0.1,0.1l0.2,0.1l0.4,0.2l0.8,0.5c0.5,0.4,0.9,0.7,1.4,1.1c0.4,0.4,0.8,0.8,1.3,1.2
			c0.4,0.4,0.8,0.8,1.1,1.3c1.4,1.7,2.7,3.4,3.7,5l0.2,0.3l0.2,0.4c0.1,0.2,0.3,0.5,0.4,0.7c0.2,0.5,0.5,1,0.6,1.5
			c0.3,1,0.4,2,0.4,3c0,0.5,0,0.9,0,1.4c0,0.4,0,0.9-0.1,1.3c-0.2,0.8-0.5,1.5-0.7,2.2c-0.5,1.4-1,2.5-1.4,3.4
			C204.7,136,204.2,137,204.2,137z"/>
		<path style="fill:#333333;" d="M199.6,135.9c0,0-0.3,0.1-0.7,0.1c-0.2,0-0.5,0.1-0.8,0.1c-0.1,0-0.3,0-0.5,0c-0.1,0-0.1,0-0.1-0.1
			c0-0.1-0.1-0.1-0.1-0.1c-0.2-0.2-0.4-0.4-0.6-0.5c-0.2-0.2-0.4-0.3-0.6-0.5c-0.2-0.2-0.4-0.3-0.7-0.5c-0.1-0.1-0.2-0.2-0.3-0.3
			l-0.4-0.2c-0.2-0.1-0.4-0.2-0.4-0.2c0,0,0.1,0,0.2,0c0,0,0.1,0,0.1,0l0,0l0,0l0,0c-0.1,0,0.1-0.1,0.1-0.1l0,0l0,0
			c-0.1,0.1,0,0-0.1,0c-0.4,0.4-0.8,0.8-1.1,1.1c0,0-0.1,0.1-0.1,0.1c0,0.1,0,0.1-0.1,0.1c-0.2,0-0.3,0-0.4,0c-0.3,0-0.5,0-0.7,0
			c-0.2,0-0.4,0-0.5,0c-0.1,0-0.2,0.1-0.2,0.1c0,0-0.1,0-0.1-0.2c-0.1-0.1-0.1-0.3-0.1-0.6c0-0.2-0.1-0.5-0.1-0.8c0-0.2,0-0.3,0-0.5
			c0-0.1,0-0.1,0.1-0.2c0.1,0,0.1-0.1,0.1-0.1c0.4-0.4,0.8-0.8,1.3-1.3c0.1-0.1,0.3-0.2,0.3-0.3l0.1-0.1l0,0l0.1,0l0.2-0.1
			c0.1,0,0.2-0.1,0.3-0.1c0.4-0.1,0.8-0.1,1.1,0c0.6,0.1,1,0.3,1.4,0.5l0.5,0.3c0.2,0.1,0.3,0.2,0.4,0.3c0.3,0.2,0.6,0.4,0.9,0.6
			c0.3,0.2,0.5,0.4,0.8,0.6c0.2,0.2,0.4,0.4,0.6,0.6c0,0,0.1,0.1,0.1,0.1c0.1,0,0.1,0.1,0.1,0.1c0,0.2,0,0.3,0,0.5
			c0,0.3,0,0.6,0,0.8C199.6,135.6,199.6,135.9,199.6,135.9z"/>
		<path style="fill:#333333;" d="M197.6,137.8c0,0-0.6,0-1.5-0.1c-0.5-0.1-1.1-0.1-1.7-0.2c-0.3-0.1-0.7-0.1-1-0.2
			c-0.2,0-0.3-0.1-0.5-0.2c-0.2-0.1-0.3-0.2-0.5-0.3c-0.3-0.2-0.7-0.4-1.1-0.6l-0.3-0.1l-0.1,0l0,0l0,0l0,0c0.4,0.2,0.1,0,0.2,0.1
			l-0.2-0.1l-0.1,0c0,0-0.1,0,0,0c0.1,0,0.1,0.1,0.2,0.1c0.2,0,0.1,0,0.2,0c0.1,0-0.2,0.1-0.4,0.4c-0.2,0.2-0.4,0.6-0.6,0.9
			c-0.2,0.3-0.3,0.7-0.4,1c0,0,0,0.1,0,0l0.1,0l0.1,0v0c0,0.1-0.1-0.1-0.1-0.1l-0.1,0l0,0.4c0,0.3,0.1,0.3,0.1,0.5
			c0,0.1,0.1,0.4,0.2,0.5l0.3,0.7c0.1,0.1,0.1,0.2,0.2,0.5c0.1,0.2,0.2,0.6,0.1,1c-0.1,0.5-0.3,0.8-0.4,1l-0.2,0.3
			c-0.1,0.1-0.1,0.2-0.1,0.2c0,0,0,0.1,0,0l0,0.1l-0.1,0.2l-0.2,0.3l-0.1,0.3c-0.1,0.3-0.2,0.7-0.3,1.1c0,0.3,0,0.4,0.1,1
			c0.1,0.5,0.3,1.4,0,2.3l0,0.1l0,0l0,0l-0.1,0.1l0,0.1l-0.1,0.2c-0.1,0.1-0.1,0.2-0.2,0.3l-0.3,0.4l-0.2,0.3
			c-0.2,0.4-0.3,0.5-0.2,0.3c0,0,0,0,0,0c0,0,0,0,0,0c0,0,0.1,0.1,0.1,0.1l0,0.1l0,0l0.1,0.1c0.1,0.1,0.3,0.4,0.4,0.7
			c0.1,0.2,0.2,0.4,0.3,0.6c0.1,0.2,0.2,0.4,0.3,0.6c0.1,0.2,0.2,0.3,0.2,0.5c0,0.4,0,0.7,0.1,1c0.1,0.6,0.1,1.2,0.2,1.6
			c0.1,0.4,0.2,0.7,0.4,0.9c0.1,0.2,0.3,0.3,0.3,0.3s-0.1,0-0.4,0c-0.3,0-0.7-0.2-1.1-0.5c-0.4-0.3-0.9-0.8-1.3-1.3
			c-0.2-0.3-0.5-0.5-0.7-0.8c-0.1-0.1-0.2-0.3-0.2-0.5c0-0.2-0.1-0.3-0.2-0.5c-0.1-0.2-0.1-0.3-0.2-0.4c-0.1-0.1,0-0.1-0.2-0.3l0,0
			l0,0l0,0c0,0-0.1-0.1,0.1,0.1l-0.1-0.1l-0.1-0.2l-0.3-0.4c-0.1-0.1-0.2-0.4-0.2-0.6c-0.1-0.2-0.1-0.4-0.1-0.7c0-0.2,0-0.5,0.1-0.7
			c0.1-0.2,0.1-0.4,0.2-0.6c0.1-0.2,0.2-0.3,0.2-0.5l0.1-0.2l0.1-0.2l0.3-0.5c0,0,0.1-0.2,0.2-0.3l0.1-0.2l0-0.1c0,0,0-0.1,0,0.1
			l0,0l0,0l0,0c0,0,0-0.1-0.1-0.6c-0.1-0.4-0.3-1.3-0.2-2c0.1-0.7,0.2-1.3,0.5-1.9l0.2-0.5l0.2-0.3l0.1-0.2l0-0.1l0.1-0.2
			c0.1-0.1,0.2-0.3,0.3-0.4l0.2-0.3c0-0.1,0,0-0.1,0.3c0,0.2,0,0.3,0,0.3c0,0.1-0.1-0.1-0.1-0.2l-0.3-0.8c-0.1-0.3-0.2-0.6-0.3-0.9
			c-0.1-0.3-0.2-0.8-0.2-1l0-0.4l0.1,0l0.1-0.1v0l-0.1-0.1l0-0.2c0-0.2,0-0.2,0-0.3c0.2-0.8,0.4-1.2,0.7-1.8c0.3-0.5,0.6-1,1-1.5
			c0.4-0.5,0.9-1,1.8-1.3c0.3-0.1,0.4-0.1,0.8-0.1c0.2,0,0.4,0,0.5,0.1c0.1,0,0.1,0,0.1,0l0.1,0l0.2,0.1l0.2,0.1l0,0l0,0l0.1,0
			l0.3,0.1c0.4,0.2,0.7,0.4,1.1,0.6c0.2,0.1,0.3,0.2,0.5,0.2c0.2,0.1,0.3,0.1,0.5,0.3c0.3,0.3,0.5,0.5,0.7,0.8
			c0.5,0.5,0.9,0.9,1.2,1.3C197.2,137.4,197.6,137.8,197.6,137.8z"/>
		<path style="fill:#333333;" d="M191.1,146.2c0,0,0.4-0.3,1-0.7c0.4-0.1,0.9-0.3,1.5-0.4c0.3,0,0.6-0.1,0.9-0.1
			c0.2,0,0.3,0.1,0.4,0.1c0.1,0.1,0.3,0.1,0.4,0.2c1.2,0.5,2.3,1.2,3.5,1.6l0.2,0.1l0.3,0.1l0.4,0.1c0.3,0.1,0.6,0.1,0.9,0.1
			c0.3,0,0.6,0,0.6,0c0,0-0.1,0-0.1,0c-0.1,0-0.2,0.1-0.2,0.2c-0.1,0.1-0.1,0.3-0.1,0.3c0,0.1,0,0.2,0,0.2c0,0.1-0.1-0.2-0.2-0.4
			c-0.2-0.3-0.4-0.6-0.6-0.8c-0.2-0.3-0.4-0.5-0.6-0.7c-0.2-0.2-0.4-0.4-0.7-0.6c-0.5-0.4-1-0.8-1.5-1.1c-0.5-0.3-1-0.6-1.5-0.8
			c-0.1-0.1-0.2-0.1-0.4-0.2c-0.1,0-0.2-0.1-0.3-0.2c-0.2-0.2-0.4-0.4-0.5-0.6c-0.3-0.4-0.6-0.7-0.9-1c-0.5-0.6-0.8-0.9-0.8-0.9
			s0.4-0.1,1.2-0.1c0.4,0,0.8,0,1.4,0c0.3,0,0.5,0,0.8,0c0.2,0,0.3,0.1,0.4,0.2c0.1,0.1,0.3,0.1,0.4,0.2c0.5,0.3,1.1,0.6,1.8,1
			c0.6,0.4,1.2,0.8,1.8,1.4c0.3,0.2,0.6,0.6,0.9,0.9c0.3,0.3,0.6,0.7,0.8,1c0.2,0.3,0.5,0.7,0.7,1c0.2,0.5,0.5,0.8,0.7,1.7
			c0,0.2,0,0.5,0,0.7c0,0.3-0.2,0.6-0.3,0.8c-0.2,0.3-0.4,0.4-0.6,0.6c-0.2,0.1-0.4,0.2-0.6,0.3c-0.7,0.2-1.2,0.2-1.7,0.1
			c-0.5,0-0.9-0.1-1.3-0.2c-0.2,0-0.4-0.1-0.6-0.2l-0.3-0.1c-0.1,0-0.2-0.1-0.3-0.1c-1.5-0.6-2.7-1.3-3.7-1.7
			c-0.1,0-0.2-0.1-0.3-0.1c-0.1,0-0.2-0.1-0.3-0.1c-0.2-0.2-0.3-0.3-0.5-0.5c-0.3-0.3-0.6-0.5-0.9-0.7
			C191.5,146.4,191.1,146.2,191.1,146.2z"/>
		<path style="fill:#333333;" d="M199.2,148.6c0,0,0.1,0,0.2,0.1c0.1,0.1,0.3,0.1,0.5,0.3c0.2,0.2,0.5,0.5,0.5,1
			c0.1,0.2,0,0.6-0.1,0.9c-0.1,0.2-0.2,0.3-0.3,0.4c-0.2,0.1-0.3,0.2-0.4,0.2c-0.6,0.3-1,0.3-1.5,0.4c-0.4,0-0.9,0-1.3-0.1
			c-0.4-0.1-0.8-0.1-1.2-0.2c-0.2-0.1-0.4-0.1-0.6-0.2c-0.1,0-0.3-0.1-0.4-0.1c-0.1,0-0.4,0-0.6,0c-0.2,0-0.5,0.1-0.7,0.1
			c-0.4,0.1-0.7,0.3-0.8,0.5c0,0,0,0,0,0.1c0,0,0,0.1-0.1,0c-0.1,0-0.3,0-0.4,0c-0.2,0-0.5,0.1-0.6,0.2c-0.4,0.2-0.6,0.4-0.6,0.4
			s-0.1,0-0.2-0.1c-0.1-0.1-0.3-0.2-0.4-0.4c-0.1-0.2-0.3-0.5-0.4-0.9c0-0.2-0.1-0.4-0.1-0.6c0-0.1,0-0.2,0.1-0.3
			c0.1-0.1,0.1-0.2,0.2-0.2c0.6-0.7,1.4-1.2,2.3-1.5c0.4-0.1,0.9-0.2,1.4-0.3c0.5,0,0.9,0,1.5,0.1c0.3,0.1,0.3,0.1,0.6,0.2
			c0.1,0,0.3,0.1,0.4,0.1c0.3,0.1,0.6,0.1,0.9,0.2c0.3,0,0.5,0,0.7,0c0.2,0,0.3,0,0.2,0c0,0-0.2,0-0.1,0.1c0,0.1,0.1,0.3,0.2,0.3
			c0.2,0.1,0.4,0,0.6-0.1c0.1-0.2,0.3-0.3,0.3-0.4C199.2,148.7,199.2,148.6,199.2,148.6z"/>
		<path style="fill:#333333;" d="M192.8,149.9c0,0,0.1,0.7,0.2,1.9c0.1,0.6,0.1,1.4,0.2,2.2c0,0.4,0,0.9,0.1,1.3
			c0,0.2,0,0.5-0.1,0.7c-0.1,0.2-0.1,0.5-0.2,0.7c-0.2,1-0.4,2.1-0.6,3.2c-0.1,0.6-0.2,1.1-0.3,1.7c-0.1,0.6-0.2,1.2-0.3,1.8
			c-0.2,1.2-0.3,2.4-0.2,3.3c0.1,0.5,0.3,0.7,0.4,0.8l0,0l0,0l0,0c0.1,0.1-0.1-0.1-0.1-0.1l0,0l0.2,0.1c0,0-0.1,0-0.1,0c0,0,0,0,0,0
			c-0.1,0-0.1,0,0,0c0.2-0.1,0.5-0.6,0.7-1c0.2-0.6,0.5-1.2,0.7-1.8c0.5-1.2,1-2.4,1.4-3.6c0.9-2.4,1.8-4.5,2.5-6.4
			c0.1-0.2,0.2-0.5,0.3-0.7c0.1-0.2,0.1-0.5,0.3-0.6c0.3-0.4,0.5-0.8,0.8-1.1c0.5-0.7,0.9-1.3,1.3-1.8c0.7-1,1.2-1.5,1.2-1.5
			s0,0.7-0.1,1.9c-0.1,0.6-0.1,1.4-0.2,2.2c-0.1,0.4-0.1,0.9-0.2,1.3c0,0.2-0.1,0.5-0.2,0.7c-0.1,0.2-0.2,0.5-0.3,0.7
			c-0.7,1.9-1.6,4.1-2.5,6.4c-0.5,1.2-0.9,2.4-1.4,3.6c-0.2,0.6-0.5,1.3-0.7,1.9c-0.3,0.8-0.7,1.5-1.6,2.3c-0.4,0.3-1.1,0.7-1.9,0.7
			c-0.2,0-0.4,0-0.5-0.1c-0.2,0-0.4-0.1-0.6-0.2l-0.2-0.1l0,0c0,0-0.2-0.1-0.1-0.1l0,0l-0.1-0.1l-0.2-0.1c-0.9-0.7-1.4-1.7-1.6-2.6
			c-0.3-1.7-0.1-3.1,0.1-4.4c0.1-0.6,0.2-1.2,0.3-1.8c0.1-0.6,0.2-1.2,0.4-1.8c0.2-1.1,0.4-2.2,0.6-3.2c0.1-0.2,0.1-0.5,0.1-0.7
			c0-0.2,0.1-0.5,0.2-0.7c0.2-0.4,0.4-0.8,0.6-1.2c0.4-0.8,0.7-1.4,1-2C192.4,150.5,192.8,149.9,192.8,149.9z"/>
		<path style="fill:#333333;" d="M193.7,114.1c0,0-0.1,0.3-0.2,0.9c0,0.3,0,0.6,0,0.9c0,0.2,0,0.3,0.1,0.4c0,0.1,0,0.1,0,0.1
			c0,0,0,0.1-0.1,0.1c0,0.1-0.1,0.2,0,0.4c0,0.2,0.1,0.5,0.3,0.8c0.2,0.3,0.4,0.7,0.7,1.1l0.4,0.6l0.1,0.1l0,0c-0.1-0.1,0,0,0-0.1
			l0,0l0,0l0,0l0.1,0.1l0.2,0.3c0.1,0.1,0.2,0.2,0.3,0.3c0.1,0.1,0.2,0.2,0.4,0.3c0.2,0.1,0.5,0.2,0.8,0.2c0.6,0.1,1.3-0.1,2-0.3
			c0.1,0,0.2,0,0.2-0.1c0.1-0.1,0.2-0.1,0.3,0c0.2,0.1,0.4,0.1,0.6,0.2c0.3,0.1,0.7,0.2,0.9,0.3c0.5,0.2,0.8,0.3,0.8,0.3
			s-0.2,0.3-0.5,0.7c-0.2,0.2-0.3,0.5-0.6,0.8c-0.1,0.1-0.2,0.3-0.4,0.5c-0.1,0.1-0.2,0.1-0.3,0.1c-0.1,0-0.2,0-0.3,0.1
			c-0.4,0.1-0.8,0.2-1.3,0.3c-0.5,0.1-1.1,0.1-1.7,0.1c-0.6,0-1.4-0.3-2-0.6c-0.3-0.2-0.6-0.4-0.9-0.6c-0.3-0.2-0.5-0.5-0.7-0.8
			l-0.2-0.3l-0.1-0.1l-0.2-0.2l-0.4-0.6c-0.3-0.4-0.6-0.9-0.8-1.4c-0.3-0.5-0.5-1.1-0.6-1.7c-0.1-0.7,0-1.4,0.2-2
			c0.1-0.1,0.1-0.3,0.2-0.4c0-0.1,0.1-0.3,0.2-0.3c0.2-0.2,0.5-0.3,0.7-0.3c0.4-0.2,0.8-0.2,1.1-0.3c0.3,0,0.5,0,0.7,0
			C193.6,114.1,193.7,114.1,193.7,114.1z"/>
		<path style="fill:#333333;" d="M240,242.1c0,0-0.3-1.3-0.7-3.5c-0.2-1.1-0.4-2.4-0.7-3.9c-0.1-0.8-0.3-1.5-0.5-2.4
			c-0.1-0.4-0.1-0.8-0.2-1.3c0-0.4-0.1-0.9-0.2-1.3c-0.1-0.5-0.2-0.9-0.3-1.3c-0.1-0.4-0.2-0.9-0.4-1.4c-0.2-0.4-0.3-0.9-0.5-1.4
			c0,0-0.2-0.5-0.3-0.5l-0.1-0.2l-0.2-0.2c-1.1-1.3-3.1-2.4-5.2-3.4c-2.2-1.1-4.3-2.3-6.5-3.2c-0.5-0.2-1.1-0.4-1.7-0.6
			c-0.6-0.2-1.1-0.4-1.7-0.5c-0.6-0.1-1.1-0.3-1.7-0.3c-0.6-0.1-1.1-0.1-1.8-0.2c-1.2-0.1-2.4-0.1-3.4,0.1l-0.7,0.2l-0.6,0.2
			c-0.1,0.1-0.2,0.1-0.2,0.2l-0.1,0.1l-0.1,0c-0.1,0,0.4-0.4,0.2-0.2l0,0l0,0l-0.1,0.1c0,0,0.1-0.1,0.1-0.2c0-0.1,0.1-0.2,0.1-0.2
			c0-0.1,0,0,0-0.1c0,0,0,0,0,0c0,0,0,0.1,0,0.1c0.1,0.3,0.3,0.9,0.5,1.4c0.3,0.6,0.6,1.1,0.8,1.6c0.1,0.3,0.3,0.6,0.4,1.1
			c0,0.1,0.1,0.3,0.1,0.4l0,0.3l0,0.5c0,0.3,0,0.8,0,1.1l-0.1,0.9c0,0.3,0,0.4,0,0.6c0.1,0.1,0,0.3,0.1,0.4c0,0.1,0.1,0.1,0.1,0.2
			l0.2,0.2l0.1,0.2l0.3,0.3l0.7,0.5l0.6,0.4c0.4,0.3,0.9,0.5,1.3,0.8c0.2,0.1,0.5,0.2,0.7,0.3l0.3,0.2l0.2,0.1l0.1,0l0,0
			c-0.4-0.2-0.1,0-0.2-0.1l0,0l0.4,0.1c0.1,0,0,0,0,0c0,0-0.1,0-0.1,0c-0.1,0,0,0,0,0c0,0,0,0,0,0l0.1,0c0.2-0.1,0.5-0.4,0.8-0.7
			c0.2-0.2,0.3-0.4,0.5-0.5l0,0c-0.3,0.2,0.4-0.3,0.3-0.3l0,0l0,0c0,0,0.2-0.1,0.2-0.1c0.2-0.1,0.4-0.1,0.6-0.1c0.1,0,0.1,0,0.2,0
			l0.1,0c0.3,0,0.4,0.1,0.6,0.1c0.6,0.2,1.1,0.4,1.5,0.5c0.5,0.2,0.9,0.4,1.2,0.6c0.6,0.4,1.6,0.9,2.3,1.7c0.7,0.9,0.9,1.8,1,2.5
			c0.1,0.6,0.2,1.3,0.3,1.8c0.2,1.1,0.2,2.1,0,2.7c-0.1,0.6-0.4,0.9-0.4,0.9c0,0,0-0.1,0.1-0.2c0-0.1,0.1-0.4,0-0.7
			c-0.1-0.6-0.4-1.4-0.8-2.4c-0.2-0.5-0.5-1-0.8-1.7c-0.3-0.6-0.5-1.1-0.9-1.3c-0.4-0.2-1.1-0.4-2-0.7c-0.4-0.1-0.8-0.3-1.2-0.5
			c-0.4-0.2-0.8-0.3-1.1-0.4c0,0-0.1,0-0.1,0c0,0,0,0,0.1,0c0.1,0,0.3,0,0.4-0.1c0.1,0,0.2-0.1,0.1-0.1l0,0l0,0
			c-0.1,0.1,0.6-0.5,0.3-0.2l0,0c-0.2,0.2-0.3,0.4-0.5,0.5c-0.4,0.4-0.8,0.8-1.5,1.3l-0.3,0.1l-0.3,0.1c-0.2,0.1-0.4,0.2-0.8,0.2
			c-0.2,0-0.3,0-0.5,0c-0.2,0-0.4,0-0.4-0.1l-0.4-0.1l0,0l-0.2-0.1l0,0l-0.1,0l-0.2-0.1l-0.4-0.2c-0.3-0.1-0.5-0.2-0.8-0.4
			c-0.5-0.3-1-0.5-1.6-0.9l-0.8-0.5l-0.7-0.5l-0.3-0.3c-0.2-0.2-0.3-0.3-0.5-0.5l-0.4-0.5c-0.1-0.2-0.2-0.4-0.3-0.6
			c-0.2-0.4-0.3-0.9-0.4-1.3c0-0.4-0.1-0.8,0-1.2l0.1-0.9c0-0.3,0-0.4,0-0.7l0-0.5l0-0.1l0-0.1l0,0c0,0,0-0.1,0,0.1c0,0,0,0,0,0
			c0-0.1-0.1-0.4-0.3-0.6c-0.3-0.5-0.6-1.1-0.8-1.6c-0.3-0.6-0.6-1.2-0.8-2.1l-0.1-0.4c0-0.1,0-0.3,0-0.5c0-0.1,0-0.1,0-0.3
			c0-0.2,0.1-0.3,0.2-0.5c0.1-0.1,0.2-0.3,0.2-0.4l0.1-0.1l0,0l0,0c-0.2,0.2,0.3-0.3,0.2-0.2l0.1-0.1l0.3-0.2l0.6-0.4
			c0.4-0.2,0.7-0.3,1.1-0.4l1.1-0.3c1.4-0.2,2.8-0.2,4.1-0.2c0.6,0,1.3,0.1,2,0.2c0.7,0.1,1.3,0.3,2,0.4c0.7,0.2,1.3,0.4,1.9,0.6
			c0.6,0.2,1.2,0.5,1.8,0.7c2.4,1,4.6,2.3,6.6,3.3c2.1,1.1,4.4,2.1,6.1,4.1l0.3,0.4c0.1,0.1,0.2,0.3,0.3,0.5
			c0.3,0.4,0.2,0.4,0.4,0.9c0.2,0.5,0.4,1.1,0.5,1.6c0.2,0.5,0.3,1,0.4,1.5c0.1,0.5,0.3,1,0.3,1.5c0.1,1,0.4,1.9,0.4,2.8
			c0,0.9-0.1,1.7-0.1,2.5c-0.1,1.6-0.3,2.9-0.4,4C240.2,240.9,240,242.1,240,242.1z"/>
		<path style="fill:#333333;" d="M225.5,222c0,0,0.4-0.1,1-0.2c0.3,0,0.9,0.1,1.4,0.4c0.2,0.1,0.5,0.3,0.8,0.4
			c0.1,0.1,0.2,0.2,0.2,0.4c0,0.1,0.1,0.3,0.2,0.4c0.2,0.6,0.4,1.2,0.5,1.8c0.1,0.7,0.1,1.3,0,2l0,0.4l0,0.2c0,0.1,0,0.2,0,0.1
			c0-0.1-0.1-0.2-0.1-0.3c0,0,0.7,0.4,1.3,0.7c0.5,0.3,1.1,0.6,1.6,0.8c0.5,0.3,1,0.5,1.5,0.7c0.2,0.1,0.5,0.1,0.7,0.2l0.3,0.1l0,0
			l0,0l0-0.1c0,0-0.4-0.1-0.2-0.1h0l0.1,0.1c0.1,0,0.2,0.1,0.2,0.1c-0.5,0-0.6,0.2-0.7,0.3c0,0,0,0,0.1-0.2c0-0.1,0-0.1,0-0.2
			c0-0.1,0-0.1,0.1-0.2c0.1-0.1,0.3-0.3,0.4-0.5c0.2-0.3,0.5-0.6,0.6-0.9c0.4-0.5,0.6-0.8,0.6-0.8s0,0.1,0.1,0.2
			c0.1,0.1,0.2,0.4,0.4,0.6c0.2,0.3,0.3,0.6,0.5,1c0.1,0.2,0.2,0.5,0.2,0.7c0.1,0.1,0,0.3,0,0.4c0,0.1-0.1,0.3-0.1,0.4
			c-0.1,0.3-0.2,0.7-0.5,1.1c-0.4,0.4-0.9,1-2,0.9c-0.1,0-0.1,0-0.2,0l-0.1,0l-0.2,0l0,0l0,0l-0.1,0c-0.1,0-0.3-0.1-0.4-0.1
			c-0.3-0.1-0.6-0.2-0.9-0.3c-0.6-0.3-1.2-0.5-1.7-0.8c-0.6-0.3-1.1-0.6-1.6-0.9l-0.8-0.4c-0.3-0.1-0.7-0.3-1.1-0.7
			c-0.5-0.5-0.8-1.2-0.8-1.9c0-0.2,0-0.3,0-0.3l0-0.2l0.1-0.5c0.1-0.4,0.1-0.9,0-1.3c0-0.4-0.1-0.7-0.3-1c0-0.1-0.2-0.2-0.2-0.4
			c0-0.2,0-0.3,0-0.5c0-0.2,0-0.3,0-0.4c0-0.1,0-0.3-0.1-0.4C225.7,222.4,225.5,222,225.5,222z"/>
		<path style="fill:#333333;" d="M293.9,289.6c0,0,0-0.1,0-0.4c0-0.2,0-0.6,0.1-1.1c0.1-0.5,0.3-1,0.5-1.6c0.1-0.3,0.3-0.6,0.4-0.9
			c0.1-0.2,0.2-0.3,0.3-0.4c0.1-0.1,0.2-0.2,0.4-0.4c0.2-0.2,0.5-0.5,0.7-0.7c0.2-0.2,0.4-0.5,0.7-0.8c0.2-0.3,0.5-0.6,0.7-1
			c0.2-0.3,0.4-0.6,0.6-0.9l0.1-0.2l0,0l0,0c0-0.1-0.1,0.1,0,0.1l0,0l0-0.1l0.1-0.2l0.1-0.1l0-0.1c0,0,0-0.1,0-0.2
			c0.1-0.3,0.1-0.9,0.3-1.5c0.1-0.3,0.3-0.6,0.5-0.9l0.1-0.2l0,0c-0.1,0.2,0,0.1-0.1,0.1l0,0l0,0l0-0.1l0.1-0.1
			c0-0.1,0.1-0.1,0.1-0.1c0,0,0,0,0-0.1l0.1-0.2l0.1-0.6c0.1-0.3,0.1-0.6,0.3-0.9c0.1-0.2,0.2-0.3,0.3-0.5c0.1-0.1,0.1-0.1,0.2-0.3
			l0.1-0.1c0.3-0.4,0.5-0.7,0.9-1.1c0.3-0.3,0.6-0.7,0.9-1l0.4-0.5l0.3-0.4c0.1-0.1,0.2-0.3,0.3-0.4c0.1-0.2,0.2-0.4,0.3-0.6
			c0.2-0.4,0.4-0.7,0.6-1.1c0.4-0.7,0.7-1.4,1.1-2c0.1-0.2,0.2-0.3,0.2-0.5c0-0.2,0.1-0.3,0.2-0.4c0.2-0.2,0.5-0.4,0.7-0.6
			c0.4-0.4,0.8-0.8,1.1-1.1c0.6-0.6,1-0.9,1-0.9s0,0.5,0,1.4c0,0.4,0,1-0.1,1.6c0,0.3-0.1,0.6-0.1,1c0,0.2-0.1,0.3-0.2,0.5
			c-0.1,0.1-0.2,0.3-0.2,0.5c-0.3,0.6-0.7,1.3-1.1,2c-0.2,0.3-0.4,0.7-0.6,1.1c-0.1,0.2-0.2,0.4-0.3,0.6c-0.2,0.3-0.3,0.4-0.5,0.7
			l-0.5,0.6l-0.5,0.5c-0.3,0.4-0.6,0.7-0.9,1c-0.3,0.3-0.6,0.7-0.9,1L303,277c0.1-0.1,0,0,0,0c0,0,0,0,0,0.1c0,0.1-0.1,0.2-0.1,0.4
			l-0.2,0.7l-0.1,0.5c-0.1,0.2-0.2,0.4-0.3,0.6c-0.1,0.2-0.1,0.2-0.2,0.3l-0.2,0.2l0,0.1c-0.1,0.1-0.1,0.2-0.2,0.3
			c-0.1,0.2-0.1,0.6-0.2,1.1c0,0.2-0.2,0.8-0.3,0.9l-0.1,0.2l0,0.1l-0.1,0.1l0,0l0,0l-0.2,0.3c-0.3,0.4-0.5,0.8-0.8,1.2
			c-0.3,0.4-0.5,0.7-0.7,1c-0.2,0.3-0.5,0.7-0.8,1c-0.3,0.3-0.5,0.6-0.8,0.8c-0.1,0.1-0.2,0.2-0.3,0.4c-0.1,0.1-0.2,0.3-0.3,0.3
			c-0.3,0.1-0.6,0.3-0.8,0.4c-0.5,0.3-0.9,0.5-1.3,0.7c-0.2,0.1-0.3,0.2-0.5,0.3c-0.1,0.1-0.2,0.2-0.3,0.3
			C294,289.6,293.9,289.6,293.9,289.6z"/>
		<path style="fill:#333333;" d="M301.4,296c0,0-1.8-1-4.9-2.8c-1.5-0.9-3.4-2-5.5-3.2c-1.1-0.6-2.2-1.3-3.4-2
			c-1.2-0.7-2.3-1.7-3.6-2.5c-0.6-0.4-1.3-0.9-1.9-1.4c-0.3-0.2-0.6-0.5-1-0.7l-0.2-0.1l-0.1-0.1l-0.2-0.2l-0.5-0.4
			c-1.3-1-2.6-2.1-4-3.1c-1.4-1-2.7-2.3-4.1-3.6c-0.7-0.6-1.4-1.3-2.1-1.9c-0.7-0.6-1.4-1.3-2.1-2c-1.3-1.3-2.7-2.8-4.1-4
			c-0.7-0.7-1.4-1.3-2.1-2l-0.5-0.5l-0.1-0.1l-0.1-0.1c0,0,0.1,0.1,0,0l0,0l-0.3-0.2l-1.2-0.9c-0.8-0.6-1.5-1-2.4-1.6
			c-0.9-0.5-1.7-1-2.6-1.6c-0.9-0.6-1.7-1-2.7-2c-0.8-0.9-1.4-1.9-2-2.8c-1-1.7-2-3.5-3-5.2c-0.5-0.8-1.1-1.6-1.6-2.4l-0.4-0.6
			l-0.1-0.1l-0.1-0.1l0,0c0,0,0.1,0.1,0,0l-0.3-0.3l-1-1.1c-0.3-0.4-0.7-0.6-1-0.9c-0.3-0.3-0.6-0.6-1-0.9l-1.1-0.8l-0.6-0.4
			l-0.6-0.3l-1.2-0.7c-0.4-0.2-0.8-0.4-1.2-0.6c-0.8-0.4-1.7-0.8-2.5-1.1c-0.8-0.4-1.7-0.6-2.6-0.9c-0.4-0.1-0.9-0.2-1.3-0.4
			l-0.6-0.2l-0.3-0.1l-0.1,0l0,0c-0.1,0,0.1,0,0,0l-0.2,0c-1.8-0.3-3.6-0.7-5.2-0.9c-0.4-0.1-0.8-0.1-1.3-0.2
			c-0.4-0.1-0.8-0.1-1.3-0.2c-0.9-0.2-1.6-0.3-2.4-0.4c-0.7-0.1-1.5-0.2-2.1-0.1c-0.2,0-0.5,0.1-0.5,0.1c0,0,0.1,0,0.1-0.1l0,0
			c0-0.1-0.1,0.1,0.1-0.1l0,0.1c0,0-0.1,0.1,0,0c0.1-0.2,0.1-0.3,0.1-0.4c0-0.1,0-0.2-0.1-0.3c-0.1-0.2,0,0.1,0.3,0.2
			c0.2,0.2,0.5,0.3,0.8,0.4c0.6,0.3,1.2,0.5,1.8,0.8c0.6,0.3,1.3,0.6,1.9,0.9c0.6,0.3,1.1,0.6,1.7,0.9c1.1,0.6,2.1,1.2,3,1.8
			c0.9,0.5,1.8,1,2.5,1.4c0.8,0.3,1.5,0.7,2.1,0.9c0.6,0.3,1.2,0.4,1.6,0.6c0.9,0.2,1.4,0.3,1.4,0.3s-0.5,0-1.5,0
			c-1,0-2.3-0.3-4.1-0.7c-0.9-0.3-1.8-0.6-2.8-0.9c-1-0.4-2-0.8-3.2-1.2c-0.6-0.2-1.2-0.4-1.8-0.6c-0.2-0.1-0.6-0.1-0.9-0.2
			c-0.3-0.1-0.7-0.2-1-0.3c-0.7-0.2-1.4-0.5-2.1-0.9c-0.4-0.2-0.7-0.4-1.1-0.7c-0.4-0.3-0.8-0.6-1.3-1.5c-0.1-0.2-0.2-0.5-0.2-0.8
			c0-0.3,0.1-0.6,0.2-1c0.1-0.2,0.1-0.2,0.1-0.2l0-0.1c0.2-0.2,0.1-0.1,0.1-0.2l0.1-0.1c0.2-0.2,0.3-0.3,0.5-0.4
			c0.7-0.4,1.3-0.5,1.8-0.6c1-0.1,1.9,0,2.8,0.1c0.9,0.1,1.7,0.3,2.5,0.4c0.3,0.1,0.8,0.1,1.2,0.2c0.4,0.1,0.9,0.1,1.3,0.2
			c1.8,0.2,3.5,0.6,5.3,0.9l0.2,0l0.1,0l0,0l0.1,0l0.3,0.1l0.7,0.2c0.5,0.1,0.9,0.2,1.4,0.4c0.9,0.3,1.9,0.6,2.8,1
			c0.9,0.4,1.8,0.7,2.7,1.2c0.5,0.2,0.9,0.4,1.4,0.7l1.3,0.8l0.7,0.4l0.6,0.5l1.3,0.9c0.4,0.3,0.8,0.7,1.2,1.1
			c0.4,0.4,0.9,0.7,1.2,1.1l1,1.1l0.3,0.3l0.1,0.1l0,0l0.1,0.1l0.1,0.2l0.4,0.6c0.6,0.9,1.2,1.7,1.8,2.6c1.1,1.8,2.1,3.5,3.1,5.3
			c0.5,0.8,1,1.6,1.5,2.2l0.4,0.4l0.5,0.4l1.2,0.8c0.8,0.5,1.7,1.1,2.5,1.6c0.9,0.6,1.8,1.2,2.6,1.8l1.2,0.9l0.3,0.2l0.1,0.1
			l0.1,0.1l0.1,0.1l0.5,0.5c0.7,0.7,1.5,1.4,2.2,2.1c1.5,1.4,2.8,2.7,4.1,4.1c0.7,0.7,1.3,1.3,2,1.9c0.7,0.6,1.3,1.2,2,1.8
			c1.3,1.2,2.6,2.4,4,3.5c1.4,1.1,2.7,2.1,4,3.1c0.3,0.2,0.6,0.5,0.9,0.7c0.3,0.2,0.7,0.5,1,0.7c0.6,0.5,1.3,0.9,1.9,1.4
			c1.2,0.9,2.5,1.6,3.5,2.5c1.1,0.9,2.1,1.8,3,2.6c1.9,1.6,3.5,3,4.9,4.2C299.9,294.6,301.4,296,301.4,296z"/>
		<path style="fill:#333333;" d="M226.2,242.6c0,0-0.2,0.3-0.5,0.8c-0.1,0.1-0.2,0.2-0.2,0.4c0,0.1-0.1,0.3-0.1,0.4
			c0,0.1,0,0.3,0,0.4c0,0.1,0,0.1-0.1,0.1c-0.1,0-0.1,0.1-0.1,0.1c-0.2,0.1-0.3,0.4-0.5,0.6c-0.1,0.3-0.3,0.6-0.4,0.9
			c-0.1,0.3-0.2,0.7-0.3,1.1l0,0.6l0,0.2v0c0,0,0-0.3,0-0.1v0v0l0,0l0,0.1c0-0.1,0-0.2-0.1-0.3c0,0,0-0.1-0.1-0.1
			c-0.2-0.2,0.1,0.1,0.4,0.1c0.3,0.1,0.7,0.2,1.1,0.3c0.8,0.1,1.6,0.2,2.3,0.3c0.1,0,0.2,0,0.3,0c0.1,0,0.2,0,0.2,0.1
			c0.2,0.1,0.3,0.2,0.4,0.4c0.3,0.2,0.5,0.4,0.7,0.6c0.4,0.4,0.6,0.6,0.6,0.6c0,0-0.3,0.2-0.7,0.5c-0.2,0.2-0.5,0.3-0.8,0.5
			c-0.2,0.1-0.3,0.2-0.5,0.3c-0.1,0.1-0.2,0.1-0.3,0c-0.1,0-0.2,0-0.3,0c-0.8-0.1-1.6-0.1-2.6-0.3c-0.5-0.1-1-0.2-1.6-0.4
			c-0.3-0.1-0.6-0.2-0.9-0.4c-0.3-0.2-0.7-0.5-1-1c-0.1-0.1-0.1-0.3-0.2-0.4c-0.1-0.2-0.1-0.5-0.1-0.6l0-0.1v0V248v-0.2
			c0-0.3,0-0.5,0.1-0.8c0.1-0.5,0.2-1.1,0.4-1.6c0.1-0.5,0.4-1,0.7-1.5c0.3-0.4,0.6-0.9,1-1.2c0.1-0.1,0.2-0.2,0.3-0.3
			c0.1-0.1,0.2-0.2,0.3-0.2c0.3-0.1,0.5-0.1,0.8-0.1c0.2,0,0.4,0,0.6,0c0.2,0,0.3,0.1,0.4,0.1C225.9,242.5,226.2,242.6,226.2,242.6z
			"/>
		<path style="fill:#333333;" d="M225.1,249.6c0,0,0,0.3,0,0.8c0,0.2,0.1,0.5,0.1,0.7c0,0.1,0.1,0.3,0.1,0.4c0,0.1,0,0.1,0,0.1
			c0,0,0,0.1-0.1,0.1c-0.1,0.1-0.1,0.2-0.1,0.3c0,0.1,0,0,0,0.1c0,0.1,0.4,0.4,0.9,0.7c1,0.5,2.3,0.9,3.3,1c0.1,0,0.1,0,0.2,0
			c0.1,0,0.1,0,0.2,0.1c0.1,0.1,0.2,0.3,0.3,0.4c0.2,0.2,0.3,0.5,0.4,0.6c0.3,0.4,0.4,0.6,0.4,0.6c0,0-0.2,0.2-0.6,0.5
			c-0.2,0.1-0.4,0.3-0.7,0.5c-0.1,0.1-0.3,0.2-0.4,0.3c-0.1,0.1-0.1,0.1-0.2,0c-0.1,0-0.1,0-0.2-0.1c-1.1-0.2-2.6-0.5-4.1-1.3
			c-0.4-0.2-0.8-0.4-1.1-0.8c-0.4-0.3-0.8-0.7-1-1.3c-0.3-0.5-0.4-1.2-0.3-1.8c0.1-0.6,0.3-1,0.5-1.3c0-0.1,0.1-0.2,0.1-0.2
			c0-0.1,0.1-0.2,0.2-0.2c0.2-0.1,0.4-0.1,0.5-0.1c0.3-0.1,0.6-0.1,0.9-0.1C224.8,249.6,225.1,249.6,225.1,249.6z"/>
		<path style="fill:#333333;" d="M226.2,254.6c0,0-0.1,0.1-0.3,0.2c-0.2,0.1-0.4,0.3-0.7,0.6c-0.1,0.2-0.3,0.3-0.4,0.5
			c-0.1,0.2-0.3,0.5-0.3,0.6c0,0.3,0.5,0.7,1.1,1.1c0.3,0.2,0.7,0.4,1.1,0.7c0.3,0.3,0.7,0.5,1.1,0.8c0.7,0.6,1.6,1.1,2.4,1.8
			c0.9,0.6,1.8,1.3,2.7,2c0.2,0.2,0.5,0.4,0.7,0.6c0.2,0.2,0.4,0.4,0.7,0.6c0.5,0.4,0.9,0.8,1.4,1.2c0.5,0.4,1,0.7,1.4,0.9l0.4,0.1
			l0.4,0.1c0.3,0.1,0.7,0.2,1,0.2c1.5,0.3,3,0.9,4.5,1.6c0.7,0.4,1.5,0.8,2.2,1.3c0.4,0.2,0.7,0.5,1,0.8l0.2,0.1l0.1,0.1l0.2,0.2
			l0.4,0.4c1.1,1.1,2.3,2.3,3.4,3.4c1.2,1.2,2.3,2.5,3.4,3.8c0.6,0.6,1.1,1.3,1.7,1.9c0.6,0.7,1.1,1.3,1.7,2
			c2.2,2.6,4.5,5.3,6.8,7.9c1.2,1.3,2.4,2.6,3.5,3.8c1.2,1.2,2.4,2.4,3.6,3.6c1.3,1.2,2.5,2.3,3.7,3.5c1.3,1.1,2.5,2.2,3.7,3.3
			c2.5,2.1,4.9,4.2,7.2,6.1c1.1,1,2.3,1.9,3.3,2.8c0.5,0.4,1.1,1,1.6,1.3c0.5,0.4,1.1,0.8,1.6,1.2c0.5,0.4,1,0.7,1.5,1
			c0.3,0.1,0.5,0.3,0.7,0.5c0.1,0.1,0.2,0.2,0.3,0.3l0.1,0.1l0,0l0,0c-0.1,0,0.2,0.1-0.1-0.1l0.2,0.1c0.3,0.1,0.5,0.3,0.8,0.4
			c0.2,0.1,0.3,0.1,0.5,0.2c0.1,0.1,0.4,0.1,0.6,0.1c0.2,0,0.4,0.1,0.6,0c1.7-0.1,3.4-1.2,4.4-2.1c0.3-0.3,0.5-0.5,0.8-0.8
			c0.2-0.3,0.4-0.5,0.6-0.7c0.4-0.4,0.6-0.9,0.9-1.2c0.5-0.7,0.8-1,0.8-1s-0.2,0.4-0.5,1.2c-0.2,0.4-0.3,0.9-0.6,1.4
			c-0.1,0.3-0.3,0.6-0.4,0.9c-0.2,0.3-0.4,0.6-0.6,0.9c-0.3,0.4-0.5,0.7-0.8,1c-0.3,0.3-0.7,0.7-1,1c-0.4,0.3-0.8,0.7-1.3,0.9
			c-0.3,0.1-0.5,0.3-0.8,0.4c-0.3,0.1-0.6,0.2-0.9,0.3c-0.3,0.1-0.6,0.1-1,0.2c-0.3,0-0.7,0.1-1.1,0c-0.4,0-0.8-0.1-1.2-0.2
			c-0.3-0.1-0.6-0.2-0.8-0.3l-0.2-0.1l-0.2-0.1l-0.1,0l-0.1-0.1c-0.1-0.1-0.3-0.2-0.4-0.3c-0.3-0.2-0.6-0.4-0.8-0.6
			c-0.5-0.4-1.2-0.8-1.7-1.2c-0.5-0.4-1-0.8-1.6-1.2c-0.6-0.5-1.1-0.9-1.6-1.4c-1.1-0.9-2.2-1.9-3.3-2.8c-2.3-2-4.7-4-7.2-6.2
			c-1.2-1.1-2.5-2.2-3.8-3.3c-1.2-1.2-2.5-2.3-3.8-3.5c-1.2-1.2-2.5-2.5-3.7-3.7c-1.2-1.3-2.4-2.6-3.6-3.9c-2.3-2.7-4.6-5.3-6.8-8
			c-0.6-0.7-1.1-1.3-1.7-2c-0.6-0.6-1.1-1.3-1.7-1.9c-1.1-1.2-2.2-2.5-3.3-3.6c-1.2-1.2-2.3-2.3-3.4-3.4l-0.4-0.4l-0.2-0.2l-0.1-0.1
			c0,0.1,0,0-0.1,0c-0.3-0.2-0.5-0.5-0.8-0.7c-0.6-0.4-1.1-0.8-1.7-1.1c-1.2-0.6-2.5-1-3.8-1.3c-0.4-0.1-0.7-0.1-1-0.2l-0.6-0.2
			l-0.6-0.2c-0.8-0.3-1.4-0.8-2-1.2c-0.6-0.4-1.1-0.9-1.6-1.3c-0.3-0.2-0.5-0.4-0.8-0.6c-0.2-0.2-0.4-0.4-0.6-0.6
			c-0.8-0.9-1.6-1.7-2.3-2.5c-0.7-0.8-1.4-1.5-2-2.2c-0.3-0.3-0.6-0.7-0.9-1c-0.3-0.3-0.5-0.5-0.8-0.8c-0.3-0.3-0.6-0.6-0.8-0.9
			c-0.2-0.3-0.4-0.8-0.3-1.2c0.1-0.4,0.4-0.6,0.6-0.8c0.2-0.2,0.4-0.3,0.6-0.4c0.4-0.2,0.6-0.4,0.8-0.5
			C226.1,254.6,226.2,254.6,226.2,254.6z"/>
		<path style="fill:#333333;" d="M303.3,316.5c0,0,0.3-0.1,1-0.3c0.6-0.2,1.6-0.5,2.7-1.1c0.5-0.3,1.1-0.6,1.6-1
			c0.5-0.4,0.9-1,1-1.5c0.1-0.4,0.2-0.8,0.4-1.3c0.1-0.4,0.3-0.9,0.5-1.5c0.2-0.5,0.5-1,0.9-1.5c0.4-0.5,0.7-1,1.1-1.4
			c0.2-0.2,0.4-0.4,0.6-0.7l0.3-0.3l0.3-0.3c0.4-0.4,0.9-0.8,1.3-1.1l0.6-0.6l0.3-0.3l0.1-0.1l0.1-0.1l0,0l0,0
			c-0.2,0.3-0.1,0.1-0.1,0.1c0.2-0.2,0.4-0.6,0.3-0.6c0,0,0-0.1,0-0.1l0.1-0.2c0.1-0.2,0.1-0.3,0.2-0.5c0.1-0.2,0.3-0.5,0.4-0.7
			l0.2-0.3c0.2-0.2,0.4-0.5,0.6-0.7c0.1-0.2,0.2-0.4,0.4-0.6l0.3-0.7c0.1-0.2,0.2-0.6,0.3-0.9l0.1-0.4l0.2-0.6l0.4-0.9
			c0.1-0.3,0.3-0.7,0.5-1c0.4-0.7,0.7-1.3,1.1-1.9l0.5-0.9l0.3-0.4l0.1-0.2l0-0.1c0,0,0.1-0.1,0,0.1l0,0l0.1-0.1l0.5-0.9l0.3-0.8
			c0.2-0.6,0.5-1.4,0.9-2.1l0.1-0.3l0-0.1c-0.1,0.1,0.1-0.2,0.1-0.2l0,0l0.1-0.1l0.3-0.4c0.1-0.1,0.2-0.3,0.3-0.4l0.4-0.5l0.5-0.5
			l0.4-0.4c0.2-0.2,0.5-0.5,0.7-0.7l0.3-0.3l0.1-0.1l0,0l0,0c0-0.1,0,0.1,0,0l0.1-0.2l0.6-0.9l0.3-0.5l0.2-0.4l0.4-0.9
			c1.1-2.4,1.6-5.2,2.3-8c0.6-2.8,1.8-5.6,2.6-8c0.4-1.2,0.7-2.4,0.7-3.6c0-0.3,0-0.6,0-0.8c0-0.3,0-0.6,0-0.9
			c0-0.6-0.1-1.2-0.1-1.9c0-0.3,0-0.6,0-0.9c0-0.3,0-0.6,0-0.8c0-0.6-0.1-1-0.2-1.5l0-0.2l0-0.1l0,0c0.1,0.2,0,0,0,0.1l0,0l-0.1-0.4
			l-0.1-0.4c0-0.1-0.1-0.1-0.1-0.2s-0.1-0.1-0.1-0.2l-0.2-0.2c-0.1-0.2-0.3-0.3-0.4-0.5c-0.1-0.2-0.3-0.3-0.5-0.4
			c-0.2-0.1-0.3-0.3-0.6-0.4c-0.4-0.3-0.8-0.5-1.2-0.9c-0.8-0.7-1.4-1.3-2.1-1.9c-1.3-1.2-2.4-2.3-3.3-3.1c-1.8-1.8-2.9-2.8-2.9-2.8
			s1.3,0.7,3.5,1.9c1.1,0.6,2.5,1.3,4,2.2c0.8,0.4,1.6,0.9,2.4,1.3c0.4,0.2,0.9,0.5,1.3,0.9c0.2,0.2,0.4,0.4,0.7,0.6
			c0.2,0.2,0.5,0.4,0.7,0.6c0.2,0.2,0.5,0.5,0.7,0.8l0.3,0.4l0.3,0.5l0.3,0.5l0.1,0.4l0.1,0.4l0.1,0.2l0,0.1l0,0.1l0,0.2
			c0.1,0.7,0.3,1.4,0.3,2c0,0.3,0,0.6,0,1c0,0.3,0,0.6,0,0.9c0,0.6,0,1.2,0.1,1.9c0,0.3,0,0.7,0,1c0,0.4,0,0.7,0,1.1
			c-0.1,1.5-0.5,2.9-0.9,4.2c-0.9,2.7-1.9,5.1-2.5,7.8c-0.7,2.7-1.2,5.6-2.4,8.5l-0.5,1.1l-0.3,0.5l-0.3,0.5l-0.6,0.9l-0.1,0.2
			c0,0-0.1,0.1-0.1,0.1l0,0l-0.1,0.1l-0.1,0.1l-0.4,0.5c-0.3,0.4-0.5,0.6-0.8,0.9l-0.7,0.7l-0.3,0.3c-0.1,0.1-0.2,0.3-0.3,0.4
			l-0.3,0.4l-0.1,0.1l0,0c0,0,0.1-0.2,0.1-0.1l0,0.1l-0.1,0.2c-0.3,0.5-0.5,1.1-0.7,1.8l-0.4,1.1l-0.5,0.9l-0.1,0.1l-0.1,0.1l0,0.1
			l-0.1,0.2l-0.3,0.5l-0.5,0.9c-0.3,0.6-0.7,1.2-0.9,1.7c-0.1,0.3-0.3,0.5-0.4,0.8l-0.4,0.9l-0.1,0.2l0,0.1l0,0.1l0,0
			c0,0.1,0-0.1,0-0.1l-0.2,0.5c-0.1,0.3-0.2,0.7-0.3,1c-0.1,0.4-0.3,0.7-0.4,1c-0.2,0.3-0.4,0.7-0.6,1c-0.2,0.3-0.4,0.5-0.6,0.8
			l-0.3,0.4c0,0.1,0,0.1-0.1,0.1c0,0-0.1,0.2-0.1,0.3l-0.2,0.5c-0.2,0.5-0.4,0.7-0.5,1c-0.1,0.1,0.1-0.1-0.1,0.2l0,0l0,0l-0.1,0.1
			l-0.2,0.2l-0.3,0.3c-0.2,0.2-0.5,0.5-0.7,0.7c-0.4,0.4-0.9,0.8-1.3,1.2l-0.3,0.3l-0.2,0.3c-0.2,0.2-0.3,0.4-0.5,0.5
			c-0.7,0.7-1.1,1.5-1.5,2.2c-0.3,0.3-0.5,0.7-0.7,1.1c-0.2,0.4-0.5,0.8-0.7,1.2c-0.6,1.1-1.5,1.7-2.3,2c-0.8,0.4-1.5,0.5-2.2,0.7
			c-1.3,0.2-2.3,0.2-3,0.3C303.6,316.5,303.3,316.5,303.3,316.5z"/>
		<path style="fill:#333333;" d="M282.7,238.4c0,0-0.5,1.2-1.6,3.3c-0.5,1-1.1,2.3-1.7,3.8c-0.3,0.7-0.7,1.5-1,2.3
			c-0.3,0.8-0.9,1.6-1.4,2.4c-1,1.7-1.9,3.6-3,5.5c-1.1,2-2.3,4.1-3.2,6.2c-0.3,0.5-0.5,1.1-0.8,1.6c-0.1,0.2-0.2,0.6-0.3,0.8
			c-0.1,0.3-0.2,0.5-0.3,0.8c-0.1,0.5-0.2,1-0.2,1.4c0,0.2,0,0.4,0.1,0.5l0,0.1l0,0c0.1,0.1-0.1-0.1-0.1-0.1l0,0l0.1,0.2
			c0.1,0.2,0.1,0.1,0.1,0.1c0.2,0.3,1.3,0.6,2.4,0.4c0.6,0,1.2-0.1,1.8-0.3l1.8-0.4c0.7-0.1,1.2-0.4,1.8-0.6
			c0.6-0.2,1.1-0.4,1.7-0.7c0.6-0.3,1.2-0.5,1.7-0.8c0.6-0.3,1.1-0.6,1.7-0.8c2.2-1.2,4.4-2.4,6.4-3.7c0.5-0.3,1-0.6,1.5-1l0.8-0.5
			l0.1-0.1l0,0c0,0-0.1,0.1-0.1,0l0,0l0.2-0.1l0.4-0.3c0.5-0.3,1-0.7,1.4-1l0.7-0.5l0.6-0.5c0.4-0.3,0.8-0.7,1.1-1
			c0.2-0.1,0.4-0.4,0.5-0.5l0.5-0.6c0.7-0.8,1.3-1.5,1.9-2.3c0.3-0.4,0.7-0.8,1-1.2c0.3-0.4,0.7-0.7,1.1-1l0.3-0.2l0.1-0.1
			c0.2-0.1,0.1,0,0.1-0.1l0,0l0,0l0.1,0c0.2-0.1,0.4-0.2,0.6-0.3c0.4-0.2,0.7-0.4,1.1-0.6c1.5-0.7,3-1.2,4.1-1.5
			c1.1-0.3,2-0.5,2.6-0.6c0.6-0.1,0.9-0.2,0.9-0.2s-0.3,0.2-0.8,0.5c-0.5,0.3-1.3,0.8-2.3,1.4c-1,0.6-2,1.3-3.2,2.3
			c-0.3,0.3-0.6,0.5-0.9,0.8c-0.2,0.1-0.3,0.3-0.5,0.4c-0.1,0.1-0.2,0.3-0.3,0.4c-0.2,0.3-0.5,0.6-0.8,0.9c-0.3,0.3-0.6,0.7-0.9,1
			c-0.6,0.7-1.3,1.6-2,2.4l-0.5,0.6c-0.2,0.2-0.5,0.4-0.7,0.6c-0.4,0.4-0.9,0.8-1.3,1.2l-0.7,0.6l-0.7,0.5c-0.5,0.3-0.9,0.7-1.4,1
			l-0.4,0.3l-0.2,0.1l-0.3,0.2l-0.8,0.5c-0.5,0.3-1,0.6-1.5,1c-2.1,1.3-4.3,2.6-6.6,3.8c-0.6,0.3-1.2,0.6-1.8,0.9
			c-0.6,0.3-1.2,0.5-1.8,0.8c-0.6,0.3-1.3,0.5-1.9,0.7c-0.7,0.2-1.3,0.5-2,0.6l-1,0.2l-0.5,0.1l-0.2,0.1l-0.2,0l-0.1,0
			c-0.7,0.1-1.4,0.2-2.1,0.3c-0.7,0.1-1.5,0.1-2.3-0.1c-0.8-0.2-1.8-0.5-2.5-1.3c-0.2-0.2-0.4-0.6-0.5-0.6l-0.1-0.2l0,0
			c0,0-0.1-0.2-0.1-0.2l0-0.1l-0.1-0.2c-0.2-0.5-0.2-0.9-0.3-1.4c0-0.9,0.1-1.7,0.3-2.4c0.4-1.5,1-2.5,1.5-3.7
			c1.1-2.3,2.2-4.3,3.3-6.3c1.1-2,2-3.9,3-5.6c0.5-0.8,0.9-1.7,1.4-2.5c0.5-0.7,1.1-1.4,1.6-2c1-1.3,1.9-2.4,2.7-3.2
			C281.8,239.4,282.7,238.4,282.7,238.4z"/>
		<path style="fill:#333333;" d="M260.2,242.6c0,0,0.1,0.3,0.3,0.9c0.1,0.3,0.2,0.6,0.3,1c0,0.2,0.1,0.4,0.2,0.6
			c0,0.1,0,0.2-0.1,0.3c-0.1,0.1-0.1,0.2-0.1,0.3c-0.5,1.6-1.1,3.7-1.7,5.8c-0.3,1.1-0.6,2.1-0.8,3.1c-0.3,1-0.5,1.9-0.6,2.7
			c0,0.1-0.1,0.2-0.1,0.3c0,0.1,0,0.2-0.1,0.3c-0.2,0.2-0.3,0.3-0.4,0.4c-0.3,0.3-0.5,0.5-0.7,0.7c-0.4,0.4-0.7,0.7-0.7,0.7
			s-0.2-0.3-0.5-0.8c-0.1-0.3-0.3-0.6-0.4-1c-0.1-0.2-0.1-0.4-0.2-0.6c0-0.1,0-0.2,0-0.3c0-0.1,0.1-0.2,0.1-0.3
			c0.2-0.8,0.4-1.8,0.7-2.8c0.3-1,0.6-2.1,0.9-3.2c0.6-2.2,1.3-4.3,1.7-5.9c0-0.1,0.1-0.2,0.1-0.3c0-0.1,0-0.2,0.1-0.3
			c0.2-0.1,0.3-0.3,0.5-0.4c0.3-0.3,0.6-0.5,0.8-0.7C259.9,242.8,260.2,242.6,260.2,242.6z"/>
		<path style="fill:#333333;" d="M257.2,252.6c0,0-0.3,0-0.8-0.1c-0.3,0-0.6-0.1-0.9-0.1c-0.2,0-0.3-0.1-0.5-0.1
			c-0.1,0-0.1-0.1-0.2-0.1c0-0.1-0.1-0.1-0.1-0.2c-0.2-0.2-0.5-0.4-0.7-0.7c-0.2-0.2-0.5-0.5-0.8-0.7c-0.3-0.2-0.6-0.5-0.9-0.7
			c-0.3-0.2-0.7-0.4-1-0.6c-0.4-0.2-0.7-0.4-1.1-0.5c-0.3-0.2-0.7-0.3-1.1-0.4c-0.3-0.1-0.7-0.3-1-0.3c-0.3-0.1-0.7-0.2-0.9-0.2
			c-0.1,0-0.1,0-0.2,0c-0.1,0-0.1,0-0.2-0.1c-0.1-0.1-0.2-0.3-0.3-0.4c-0.2-0.2-0.4-0.5-0.6-0.7c-0.3-0.4-0.5-0.6-0.5-0.6
			s0.2-0.2,0.7-0.5c0.2-0.1,0.5-0.3,0.8-0.5c0.2-0.1,0.3-0.2,0.5-0.3c0.1-0.1,0.2-0.1,0.3,0c0.1,0,0.2,0,0.3,0.1
			c0.4,0.1,0.7,0.2,1.1,0.3c0.4,0.1,0.8,0.2,1.2,0.4c0.4,0.2,0.9,0.3,1.3,0.5c0.4,0.2,0.9,0.4,1.3,0.6c0.4,0.3,0.8,0.5,1.2,0.8
			c0.4,0.2,0.7,0.6,1.1,0.8c0.3,0.3,0.7,0.5,1,0.8c0.3,0.3,0.6,0.6,0.8,0.8c0.1,0.1,0.1,0.1,0.2,0.2c0.1,0,0.1,0.1,0.1,0.2
			c0,0.2,0,0.4,0,0.5c0,0.3,0,0.6,0,0.9C257.2,252.2,257.2,252.6,257.2,252.6z"/>
		<path style="fill:#333333;" d="M221.1,228.8c0,0,0.3,0,0.7-0.1c0.2,0,0.5,0,0.7,0c0.1,0,0.3,0,0.4,0c0.1,0,0.1,0,0.1,0.1
			c0,0.1,0.1,0.1,0.1,0.1c0.3,0.3,0.7,0.8,1,1.1c0.4,0.4,0.8,0.8,1.2,1.2c0.2,0.2,0.4,0.3,0.6,0.5c0.2,0.2,0.4,0.3,0.6,0.4
			c0.2,0.1,0.4,0.3,0.6,0.3c0.2,0.1,0.4,0.1,0.5,0.2c0,0,0.1,0,0.1,0c0,0,0.1,0,0.1,0.1c0.1,0.1,0.1,0.2,0.2,0.4
			c0.1,0.2,0.2,0.5,0.3,0.6c0.2,0.4,0.3,0.6,0.3,0.6s-0.2,0.2-0.5,0.5c-0.2,0.1-0.4,0.3-0.6,0.5c-0.1,0.1-0.3,0.2-0.4,0.3
			c-0.1,0.1-0.1,0-0.2,0c-0.1,0-0.1-0.1-0.2-0.1c-0.3-0.1-0.5-0.2-0.8-0.3c-0.3-0.1-0.6-0.3-0.9-0.5c-0.3-0.2-0.6-0.3-0.9-0.6
			c-0.3-0.2-0.5-0.4-0.8-0.6c-0.5-0.5-1-0.9-1.4-1.4c-0.4-0.4-0.8-0.8-1.1-1.2c0,0-0.1-0.1-0.1-0.1c-0.1,0-0.1-0.1-0.1-0.1
			c0-0.2,0-0.3,0-0.4c0-0.3,0.1-0.5,0.1-0.7C221.1,229.1,221.1,228.8,221.1,228.8z"/>
		<path style="fill:#333333;" d="M248.5,274.5c0,0,0.1,1,0.3,2.8c0,0.9,0.3,1.9,0.4,3.1c0,0.3,0.1,0.6,0.1,0.9
			c0,0.2,0.1,0.6,0.2,0.9c0,0.1,0.1,0.2,0.1,0.4c0,0.2,0,0.3,0.1,0.5c0,0.3,0.1,0.7,0.2,1.1c0.1,0.4,0.2,0.8,0.2,1.3
			c0,0.5,0.1,0.9,0,1.6c-0.1,0.8-0.3,1.6-0.4,2.5c-0.1,0.4-0.2,0.9-0.2,1.3c-0.1,0.4-0.2,0.9-0.3,1.3c-0.2,0.9-0.5,1.8-0.8,2.8
			c-0.6,1.8-1.2,3.6-1.8,5.5c-0.6,1.9-1.2,3.8-1.9,5.7c-0.6,1.9-1.2,3.8-1.9,5.7c-0.6,1.9-1.2,3.7-1.7,5.5c-0.2,0.9-0.5,1.8-0.7,2.6
			c-0.2,0.9-0.4,1.7-0.6,2.5c-0.4,1.6-0.6,3.2-0.8,4.6c-0.1,0.4-0.1,0.7-0.2,1.1c0,0.3,0,0.7-0.1,1c-0.2,0.7-0.3,1.3-0.5,1.9
			c-0.1,0.6-0.3,1.1-0.4,1.7c-0.1,0.5-0.2,1-0.2,1.4c-0.3,1.7-0.5,2.8-0.5,2.8s-0.3-1-0.7-2.7c-0.1-0.4-0.2-0.9-0.3-1.5
			c-0.1-0.5-0.1-1.1-0.2-1.7c-0.1-0.6-0.1-1.3-0.2-2c-0.1-0.7,0.1-1.4,0.2-2.2c0.3-1.5,0.4-3.2,0.9-4.9c0.2-0.9,0.4-1.7,0.6-2.6
			c0.2-0.9,0.5-1.8,0.7-2.7c0.5-1.8,1.1-3.7,1.7-5.6c0.6-1.9,1.2-3.8,1.9-5.7c0.6-1.9,1.3-3.8,1.9-5.7c0.6-1.9,1.2-3.7,1.8-5.5
			c0.2-0.9,0.5-1.7,0.7-2.5c0.1-0.4,0.2-0.8,0.3-1.2c0.1-0.4,0.2-0.9,0.2-1.3c0.2-0.8,0.3-1.7,0.4-2.5c0,0,0-0.1,0,0.1v0v0l0-0.1
			l0-0.1l0-0.2c0-0.1,0-0.3,0-0.5c0-0.3-0.1-0.6-0.2-1c-0.1-0.3-0.1-0.7-0.2-1.1c0-0.2-0.1-0.4-0.1-0.6c0-0.2,0-0.4,0-0.7
			c0-0.5,0.1-0.6,0.1-1.1c0.1-0.3,0.1-0.7,0.2-1c0.3-1.2,0.5-2.3,0.8-3.2C248.1,275.5,248.5,274.5,248.5,274.5z"/>
		<path style="fill:#333333;" d="M308.2,315.2c0,0,0.2,0.3,0.5,0.8c0.1,0.2,0.3,0.5,0.4,0.9c0.1,0.2,0.2,0.3,0.2,0.5
			c0,0.1,0,0.2,0,0.3c0,0.1-0.1,0.2-0.1,0.3c-0.1,0.4-0.2,0.8-0.3,1.2c-0.1,0.4-0.3,0.9-0.4,1.4c-0.1,0.5-0.3,1-0.5,1.5l-0.3,0.7
			l-0.1,0.2l-0.1,0.3c-0.1,0.1-0.1,0.2-0.2,0.4l-0.3,0.4l-0.2,0.3c-0.1,0.2-0.2,0.3-0.3,0.4c-0.1,0.2-0.1,0.1-0.1,0.2l0,0
			c0,0.1,0-0.1,0-0.1l0,0l0,0l0,0l0,0.1c0,0,0,0.1,0.1,0.1l0.1,0.2c0.1,0.2,0.2,0.3,0.3,0.5c0.2,0.3,0.4,0.7,0.7,1.1
			c0.1,0.1,0.1,0.2,0.2,0.3c0.1,0.1,0.1,0.2,0.1,0.3c0,0.2,0,0.5-0.1,0.7c-0.1,0.5-0.2,0.8-0.4,1.1c-0.2,0.3-0.3,0.5-0.5,0.6
			c-0.1,0.1-0.2,0.1-0.2,0.1s0-0.1-0.1-0.2c-0.1-0.1-0.2-0.3-0.4-0.4c-0.2-0.2-0.4-0.3-0.7-0.4c-0.1-0.1-0.3-0.1-0.4-0.2
			c-0.1,0-0.1-0.1-0.1-0.2c0-0.1-0.1-0.1-0.1-0.2c-0.2-0.3-0.4-0.6-0.6-1c-0.1-0.2-0.2-0.4-0.4-0.6c-0.1-0.1-0.1-0.3-0.2-0.4
			l-0.1-0.2l0-0.1l0-0.1l0-0.1c-0.3-0.8-0.1-1.9,0.2-2.5c0.2-0.3,0.4-0.6,0.5-0.8l0.3-0.5c0,0,0.1-0.2,0.2-0.3l0-0.1l0,0l0,0l0,0
			l0,0c0,0-0.1,0.2,0,0.1l0.1-0.2l0.2-0.6c0.2-0.4,0.3-0.8,0.4-1.3c0.1-0.4,0.2-0.8,0.3-1.2c0.1-0.4,0.2-0.8,0.2-1.1
			c0-0.1,0-0.2,0-0.3c0-0.1,0-0.2,0.1-0.2c0.2-0.1,0.3-0.3,0.4-0.4c0.2-0.3,0.5-0.5,0.7-0.7C308,315.4,308.2,315.2,308.2,315.2z"/>
		<path style="fill:#333333;" d="M300,342.3c0,0,0.5-0.2,1.4-0.6c0.9-0.4,2.2-1,3.9-1.7c0.4-0.2,0.8-0.4,1.3-0.6
			c0.2-0.1,0.4-0.2,0.6-0.4c0.1-0.1,0.2-0.1,0.3-0.2c0.1-0.1,0.1-0.1,0.1-0.1c0,0,0,0-0.1,0.1c0,0.1,0,0.1,0,0.2c0,0,0,0,0,0l0-0.2
			l0-0.4c0-0.3,0-0.6,0.1-0.9c0-0.6,0.1-1.2,0.1-1.8c0-0.6,0-1.2-0.1-1.8c-0.1-0.6-0.2-1.2-0.4-1.5c-0.1-0.1-0.1-0.1-0.1-0.2
			c0,0,0,0,0,0c0,0,0.1,0,0.1,0c0,0,0,0,0,0v0c0,0,0.1,0,0,0l-0.1,0h-0.2l-0.6,0c-0.2,0-0.3,0-0.4,0c-0.2,0-0.6,0.1-1,0.2
			c-1.4,0.3-2.9,0.9-4.6,1.3c-1.6,0.4-3.3,0.9-5,1.3c-3.5,0.9-7.1,1.9-10.9,2.9c-3.8,1-7.7,2-11.6,3.1c-2,0.6-4,1.1-6,1.6l-3,0.8
			c-1.1,0.3-2.1,0.5-3.1,0.7c-4.2,0.9-8.6,1.2-13,0.4c-0.5-0.1-1.1-0.2-1.6-0.3l-1.5-0.5c-1-0.3-2-0.8-3-1.2c-0.5-0.2-1-0.4-1.4-0.7
			l-1.3-0.8c-0.8-0.5-1.6-0.8-2.2-1c-0.3-0.1-0.5,0-0.4,0c0,0,0,0,0,0v0l0,0c0,0,0.2-0.2,0.1-0.1l-0.1,0.2c0.1-0.2,0,0,0,0.1
			c-0.1,0.7-0.1,1.6-0.1,2.6c0,0.5,0,0.9,0,1.5l0,0.7c0,0.2,0,0.4,0,0.5c0,0.7,0.2,1.3,0.5,1.7c0.6,0.8,2.3,1.4,3.7,1.8
			c0.8,0.2,1.6,0.4,2.4,0.6c0.8,0.2,1.5,0.3,2.2,0.4c1.4,0.3,2.9,0.2,4.3,0.5c1.4,0.1,2.7,0.3,3.9,0.3c2.5,0.1,4.7,0.1,6.5,0
			c0.9-0.1,1.7-0.1,2.4-0.2c0.7-0.1,1.3-0.1,1.8-0.2c1-0.1,1.5-0.2,1.5-0.2s-0.5,0.2-1.4,0.5c-0.5,0.2-1,0.3-1.7,0.6
			c-0.7,0.2-1.5,0.4-2.4,0.6c-1.8,0.4-4,0.9-6.6,1.2c-1.3,0.2-2.7,0.2-4.2,0.3c-0.7,0-1.5,0-2.3-0.1c-0.8-0.1-1.6-0.2-2.4-0.3
			c-0.8-0.1-1.7-0.2-2.5-0.4c-0.8-0.2-1.6-0.4-2.4-0.6c-1-0.3-1.7-0.5-2.7-0.9c-0.9-0.4-1.9-1-2.7-2c-0.8-1-1.1-2.3-1.2-3.4
			c0-0.3,0-0.6,0-0.8l0-0.7c0-0.3,0-0.8,0-1.3c0-1,0-1.9,0.2-3.1c0.1-0.3,0.1-0.6,0.4-1.2l0.1-0.2c-0.1,0.1,0.1-0.2,0.1-0.2l0.1-0.1
			l0.1-0.1c0.2-0.2,0.4-0.3,0.6-0.4c0.9-0.5,1.8-0.5,2.4-0.3c1.3,0.3,2.3,0.8,3.2,1.3l1.3,0.8c0.4,0.2,0.8,0.4,1.2,0.6
			c0.9,0.4,1.7,0.8,2.6,1.1l1.4,0.5c0.5,0.1,0.9,0.2,1.4,0.3c3.8,0.8,7.8,0.5,11.7-0.3c1-0.2,2.1-0.4,3-0.7l3-0.8c2-0.5,4-1,6-1.6
			c4-1.1,7.9-2.1,11.7-3.1c3.8-1,7.4-1.9,10.9-2.9c1.7-0.5,3.4-0.9,5-1.3c1.5-0.4,3.1-1,4.8-1.4c0.4-0.1,0.8-0.2,1.3-0.2
			c0.2,0,0.5-0.1,0.7-0.1l0.6,0l0.1,0h0.1c0,0,0.2,0,0.2,0l0.1,0c0.2,0,0.4,0.1,0.5,0.1c0.4,0.1,0.7,0.3,1,0.5
			c0.3,0.2,0.5,0.5,0.7,0.8c0.1,0.3,0.3,0.5,0.4,0.8c0.3,1,0.3,1.8,0.3,2.5c0,0.8-0.1,1.4-0.2,2.1c-0.1,0.7-0.2,1.3-0.4,1.9
			c-0.1,0.3-0.1,0.6-0.2,0.9l-0.1,0.4l0,0.2l0,0.1c0,0.1,0,0.2-0.1,0.3c-0.1,0.2-0.1,0.2-0.2,0.3c-0.2,0.2-0.4,0.3-0.5,0.4
			c-0.2,0.1-0.3,0.1-0.4,0.2c-0.3,0.1-0.5,0.2-0.8,0.3c-0.5,0.2-1,0.3-1.4,0.4c-1.8,0.5-3.2,0.7-4.2,0.9
			C300.5,342.2,300,342.3,300,342.3z"/>
		<path style="fill:#333333;" d="M236.6,349c0,0,0.3,0.3,0.2,1c-0.1,0.7-0.8,1.5-1.1,2.8c-0.1,0.3-0.1,0.7-0.1,1
			c0,0.4,0.1,0.7,0.1,1.1c0.2,0.9-0.5,1.9-0.4,2.6c0,0.2,0.1,0.4,0.2,0.6c0.1,0.2,0.2,0.5,0.3,0.7c0.2,0.5,0.3,1.2,0,1.8
			c-0.1,0.3-0.3,0.6-0.5,0.9c-0.2,0.2-0.4,0.4-0.7,0.6c-0.4,0.4-0.9,0.8-1.2,1.2c-0.1,0.1-0.1,0.2-0.1,0.3c0,0,0,0.1,0,0.1l0,0
			c0,0.1,0,0.1,0,0.1c0,0.3,0,0.6,0,1c-0.1,0.7-0.3,1.4-0.2,1.9c0,0.2,0.1,0.4,0.2,0.7c0.1,0.3,0.3,0.6,0.4,1
			c0.1,0.2,0.1,0.4,0.2,0.6l0,0.1c0,0,0,0.2,0,0.2l0,0.1c0,0.2-0.1,0.5-0.1,0.6c-0.2,0.5-0.5,0.8-0.7,1.2c-0.2,0.3-0.5,0.6-0.7,0.9
			c-0.2,0.3-0.4,0.5-0.5,0.7c-0.3,0.7-0.6,1.5-0.9,2.2c-0.6,1.5-1.2,3.1-1.8,4.7c-0.6,1.6-1.3,3.3-1.9,5c-0.6,1.7-1.2,3.5-1.8,5.3
			c-0.6,1.8-1.3,3.7-2.1,5.5c-0.7,1.8-1.4,3.8-2.1,5.8c-0.7,2-1.5,4-2.1,6.1c-0.6,2.1-1.2,4.2-1.9,6.4c-0.3,1.1-0.6,2.2-1,3.3
			c-0.3,1.1-0.6,2.3-0.9,3.4c-0.6,2.3-1.2,4.6-1.8,7c-0.6,2.4-1.3,4.7-2.1,7.1c-0.7,2.4-1.5,4.8-2.2,7.3c-1.5,4.9-3.1,9.8-4.7,14.9
			c-0.8,2.5-1.4,4.9-1.4,7.4c0,1.2,0.2,2.5,0.5,3.7l0.1,0.5l0.1,0.5c0.1,0.3,0.2,0.7,0.3,0.9c0.2,0.6,0.4,1.2,0.7,1.8
			c0.5,1.2,1.1,2.3,1.8,3.3c0.2,0.2,0.4,0.5,0.6,0.7l0.3,0.3l0.1,0.2c0,0-0.1-0.1,0,0l0.1,0.1c0.2,0.1,0.2,0.1,0.3,0.2l0.4,0.3
			c0.2,0.1,0.3,0.2,0.5,0.4l0.3,0.2l0.3,0.3c0.2,0.2,0.4,0.5,0.6,0.8c0.2,0.4,0.3,1,0.3,1l0,0.5l0,0.3c0,0.1,0,0.1,0,0.2
			c0,0.1,0,0.2,0.1,0.3c0,0.1,0.1,0.1,0.1,0.2c0.1,0.2,0.3,0.5,0.5,0.7l0.1,0.2l0.1,0.1l0.1,0.2c0.1,0.2,0.3,0.5,0.3,0.7
			c0.2,0.4,0.3,0.8,0.4,1c0.1,0.3,0.2,0.5,0.3,0.7c0,0.1,0.1,0.2,0.2,0.3l0.3,0.5l0.1,0.2l0.2,0.4c0.1,0.2,0.3,0.5,0.3,0.7l0.2,0.6
			l0.1,0.6l0.2,1c0.1,0.4,0.2,0.6,0.3,0.8c0.4,1.1,1,2.3,1.7,3.5c0.7,1.2,1.4,2.4,2.1,3.7c0.7,1.2,1.4,2.5,2.1,3.7
			c0.7,1.2,1.3,2.5,2,3.9c0.7,1.3,1.2,2.7,1.7,4c0.6,1.4,1,2.7,1.5,4l1.4,4c0.9,2.7,1.9,5.4,2.8,8l1.4,4l0.7,2
			c0.2,0.8,0.4,1.3,0.6,1.9c0.1,0.1,0.1,0.3,0.2,0.3c0,0,0,0.1,0,0.1c0,0,0,0-0.1-0.1c0,0-0.2-0.1-0.3-0.2c-0.1,0-0.3-0.1-0.5-0.1
			c-0.2,0-0.4,0.1-0.5,0.1c-0.2,0.1-0.2,0.1-0.1,0.1l0.4-0.3l0.9-0.6c0.3-0.2,0.8-0.4,1.1-0.6c1.5-0.7,2.9-1.1,4.1-1.5l2-0.8
			l1.8-0.8c1.2-0.6,2.3-1.3,3.5-2c0.3-0.2,0.6-0.4,0.8-0.5l0.8-0.6c0.6-0.4,1.1-0.8,1.7-1.2c0.6-0.4,1.2-0.9,1.9-1.2l0.9-0.5
			l0.2-0.1l0.1-0.1c0.1-0.1,0.2-0.1,0.2-0.2c1.1,0.1-1.1-3.5-1.9-5.8l-0.8-1.9c-0.3-0.6-0.5-1.3-0.8-1.9c-0.5-1.3-1-2.6-1.4-3.9
			c-0.9-2.6-1.8-5.1-2.6-7.6c-0.4-1.3-0.8-2.6-1.1-4l-0.4-2c-0.1-0.7-0.2-1.3-0.3-1.9c-0.4-2.6-0.8-5-1.5-7.4
			c-0.2-0.6-0.4-1.1-0.6-1.7c-0.2-0.6-0.5-1.1-0.7-1.6c-0.3-0.5-0.6-1-0.8-1.5c-0.3-0.6-0.6-1.1-0.9-1.7c-0.6-1.1-1.2-2.2-1.8-3.3
			c-0.3-0.5-0.6-1.1-0.9-1.6l-0.1-0.2c0,0-0.1-0.2,0,0l-0.1-0.1l-0.1-0.2c0,0,0,0,0,0c0,0-0.2-0.2-0.4-0.3c-0.3-0.2-0.6-0.3-1-0.7
			c-0.2-0.1-0.4-0.4-0.5-0.6c-0.2-0.4-0.1-0.2-0.2-0.3l-0.1-0.1l-0.1-0.2c-0.1-0.2-0.2-0.6-0.3-0.8c0-0.2,0-0.3,0-0.4l0-0.3
			c0-0.2,0-0.4,0-0.6c0-0.2,0.1-0.4,0.1-0.6c0.1-0.7,0.4-1.3,0.5-1.8c0.1-0.5,0.2-1.1,0.3-1.6c0.1-1.1,0.2-2.2,0.3-3.3
			c0.1-0.6,0.2-1.3,0.3-1.9l0-0.2l0.1-0.3l0.1-0.4l0.2-0.8c0.1-0.5,0.4-1.2,0.6-1.8l0.2-0.4c-0.1,0.1,0.1-0.3,0.1-0.3l0.1-0.1
			l0.1-0.2c0.1-0.1,0.1-0.2,0.2-0.4c0.1-0.2,0.3-0.4,0.4-0.5c0.5-0.6,0.8-0.8,0.9-1l0.4-0.7c0-0.2,0.1-0.4,0.2-0.5
			c0.1-0.1,0.1-0.5,0.2-0.7l0.2-0.8c0.1-0.3,0.1-0.6,0.2-0.9l0.2-0.8c0.3-1,0.6-2.1,1-3.1c0.2-0.5,0.3-1,0.5-1.5l0.2-0.8l0.1-0.4
			l0.2-0.4c0.4-1,0.7-1.9,1.1-2.9c0.4-1,0.6-1.9,1.1-2.8c0.4-0.9,0.9-1.8,1.3-2.7c0.5-0.9,0.9-1.8,1.4-2.6c0.5-0.8,0.9-1.6,1.4-2.4
			c0.9-1.6,1.8-3.1,2.7-4.6c1.7-3,3.5-5.7,5.1-8.3c0.8-1.3,1.6-2.5,2.3-3.6c0.2-0.3,0.4-0.6,0.5-0.9l0.3-0.4l0.3-0.4
			c0.4-0.5,0.8-1,1.2-1.5c3-4,5.8-6.8,7.5-8.8c1.7-2,2.7-3.1,2.7-3.1s-0.8,1.1-2.4,3.3c-1.6,2.1-4.1,5.1-6.8,9.2
			c-0.3,0.5-0.7,1-1.1,1.6L258,412l-0.2,0.4c-0.2,0.3-0.3,0.6-0.5,0.9c-0.7,1.2-1.4,2.4-2.1,3.7c-1.4,2.6-3.1,5.4-4.5,8.5
			c-3.1,6.3-6.5,12.9-9,21c-0.3,1-0.6,2-1,3.1l-0.2,0.8c-0.1,0.2-0.1,0.5-0.2,0.7l-0.2,0.8c-0.1,0.3-0.1,0.5-0.2,0.9
			c-0.1,0.3-0.2,0.7-0.4,1l-0.4,0.7c-0.4,0.8-1,1.3-1.3,1.6c0,0-0.1,0.1-0.1,0.1c-0.1,0.1-0.1,0.2-0.2,0.3l-0.1,0.2l-0.1,0.1
			c0,0.1,0.1-0.2,0-0.1l-0.1,0.4c-0.2,0.5-0.4,0.9-0.5,1.5l-0.2,0.8l-0.1,0.4c0,0,0,0.2,0,0.2l0,0.2c-0.1,0.5-0.2,1-0.2,1.6
			c0,0.6-0.1,1.1-0.1,1.7c-0.1,0.7-0.1,1.3-0.2,2l-0.2,0.9l-0.1,0.4l0,0.2l0,0.1c0-0.1-0.1,0.2-0.1,0.2c-0.2,0.6-0.4,1.1-0.5,1.6
			c-0.1,0.4,0,0.9-0.1,0.8l0.1,0.2l0.1,0.1c0,0,0.1,0.2,0-0.1c0,0,0,0,0.1,0.1c0.1,0.1,0.3,0.2,0.5,0.4c0.3,0.2,0.6,0.3,1,0.8
			c0.1,0.1,0.2,0.3,0.3,0.3l0.1,0.2l0.1,0.1l0.1,0.2l0.1,0.2c0.3,0.5,0.6,1.1,0.9,1.6c0.6,1.1,1.2,2.2,1.8,3.3l0.9,1.6
			c0.3,0.6,0.7,1.2,1,1.8c0.3,0.6,0.6,1.2,0.8,1.9c0.2,0.6,0.4,1.3,0.6,1.9c0.8,2.6,1.2,5.2,1.6,7.8c0.1,0.6,0.2,1.3,0.3,1.9
			l0.4,1.8c0.2,1.2,0.7,2.5,1,3.7c0.8,2.5,1.7,5,2.6,7.5c0.5,1.2,0.9,2.5,1.4,3.7l0.3,0.9l0.4,0.9l0.8,1.9l0.8,1.9l0.2,0.5l0.1,0.2
			l0.1,0.2l0.5,0.9c0.3,0.7,0.7,1.4,0.8,2.5c0,0.5,0,1.2-0.3,1.8c-0.3,0.6-0.7,1-1,1.3c-0.2,0.2-0.4,0.3-0.6,0.4l-0.3,0.2l-0.2,0.1
			l-0.9,0.5c-0.5,0.3-1.1,0.7-1.6,1c-0.5,0.4-1.1,0.8-1.7,1.2l-0.8,0.6c-0.3,0.2-0.6,0.4-0.9,0.6c-1.2,0.8-2.5,1.5-3.7,2.2l-2,1
			l-2,0.8c-1.4,0.5-2.8,0.9-3.8,1.4c-0.2,0.1-0.5,0.2-0.7,0.4l-0.9,0.6l-0.4,0.3c0,0-0.1,0.1-0.3,0.2c-0.2,0.1-0.4,0.2-0.7,0.2
			c-0.3,0-0.6-0.1-0.8-0.1c-0.2-0.1-0.4-0.2-0.5-0.3c-0.2-0.2-0.4-0.4-0.4-0.5c-0.1-0.1-0.2-0.3-0.2-0.4c-0.1-0.2-0.2-0.4-0.3-0.6
			c-0.3-0.8-0.5-1.5-0.7-2.1l-0.7-2l-1.4-4c-0.9-2.7-1.9-5.3-2.8-8l-1.4-4c-0.5-1.3-0.9-2.7-1.4-4c-0.5-1.3-1-2.6-1.6-3.8
			c-0.6-1.2-1.2-2.5-1.9-3.7c-0.6-1.2-1.3-2.4-2-3.7c-0.7-1.2-1.4-2.4-2.1-3.6c-0.7-1.3-1.4-2.6-1.9-4.1c-0.1-0.4-0.3-0.8-0.3-1.2
			l-0.2-1.1l-0.1-0.4l-0.1-0.4c0-0.1-0.1-0.2-0.1-0.2c0,0,0-0.1,0-0.1l-0.1-0.2l-0.2-0.4c-0.1-0.2-0.3-0.4-0.4-0.6
			c-0.2-0.4-0.4-0.8-0.5-1.2c-0.1-0.4-0.2-0.7-0.3-0.9c-0.1-0.1-0.1-0.1-0.1-0.2c0-0.1-0.1-0.1-0.1-0.2l-0.1-0.1c-0.1-0.1,0,0,0,0
			c-0.2-0.4-0.5-0.6-0.7-1c-0.1-0.2-0.2-0.5-0.3-0.7c-0.1-0.2-0.1-0.5-0.2-0.7c0-0.1,0-0.3-0.1-0.4l0-0.3l0-0.5c0-0.3,0,0,0,0
			c0,0,0,0,0,0l-0.1-0.1l-0.1-0.1c-0.1-0.1-0.2-0.2-0.3-0.2l-0.4-0.3c-0.2-0.1-0.5-0.3-0.6-0.4l-0.1-0.1c0,0-0.2-0.1-0.2-0.2
			l-0.2-0.2l-0.4-0.4c-0.3-0.3-0.5-0.6-0.7-0.9c-0.9-1.2-1.6-2.5-2.2-3.9c-0.3-0.7-0.5-1.3-0.8-2.1c-0.1-0.4-0.2-0.7-0.3-1l-0.1-0.5
			l-0.1-0.5c-0.3-1.4-0.5-2.9-0.5-4.3c0-3,0.7-5.8,1.5-8.3c1.6-5.1,3.2-10,4.8-14.9c0.7-2.4,1.5-4.8,2.2-7.2c0.7-2.4,1.5-4.7,2-7.1
			c0.6-2.4,1.2-4.7,1.8-7c0.3-1.1,0.6-2.3,0.9-3.4c0.3-1.1,0.7-2.3,1-3.4c0.6-2.2,1.3-4.4,1.9-6.6c0.7-2.1,1.4-4.1,2.1-6.2
			c0.7-2,1.4-4,2.1-5.9c0.7-1.9,1.4-3.8,2.2-5.6c0.8-1.8,1.5-3.5,2.2-5.2c0.8-1.7,1.5-3.3,2.3-4.8c0.7-1.6,1.4-3.1,2.1-4.5
			c0.3-0.7,0.7-1.4,1-2.2c0-0.1,0.1-0.2,0.2-0.4c0.1-0.1,0.2-0.2,0.2-0.3c0.1-0.2,0.3-0.3,0.4-0.5c0.3-0.3,0.5-0.5,0.8-0.8
			c0.2-0.2,0.4-0.5,0.5-0.7c0-0.1,0,0,0,0l0-0.1c0-0.1,0,0.1,0,0l0,0c0-0.1,0-0.3-0.1-0.4c-0.2-0.6-0.6-1.3-0.6-2.3
			c0-0.8,0.3-1.5,0.4-2c0.1-0.3,0.1-0.6,0.1-0.9c0,0,0-0.1,0-0.1l0-0.2c0-0.1,0-0.3,0.1-0.4c0.1-0.2,0.2-0.4,0.3-0.5
			c0.5-0.6,1-0.9,1.5-1.3c0.2-0.2,0.4-0.3,0.6-0.5c0.1-0.1,0.3-0.4,0.3-0.5c0.4-0.8-0.1-1.7-0.3-2.8c-0.1-0.6,0.2-1.1,0.3-1.5
			c0.2-0.4,0.3-0.7,0.3-1.1c0-0.4,0-0.8,0-1.2c0.1-0.4,0.1-0.8,0.2-1.1c0.5-1.3,1.2-2,1.4-2.7C236.8,349.3,236.5,348.9,236.6,349z"
			/>
		<path style="fill:#333333;" d="M264.7,388.9c0,0,0.6,1.3,1.7,3.7c1.1,2.4,2.8,5.8,4.7,10.4c0.4,1.1,0.9,2.4,1.4,3.6
			c0.5,1.3,0.9,2.6,1.4,4c0.9,2.8,1.9,5.8,3,9.1c0.5,1.6,1,3.3,1.6,5.1c0.3,0.9,0.5,1.7,0.8,2.6c0.1,0.4,0.3,0.9,0.4,1.3l0.2,0.7
			l0.2,0.8c0.5,1.9,0.9,3.8,1.4,5.7c0.3,2,0.6,4.1,0.9,6.3c0.3,2.1,0.5,4.2,0.8,6.4c0.1,1.1,0.3,2.2,0.4,3.3
			c0.1,1.1,0.3,2.2,0.5,3.3c0.4,2.2,0.7,4.4,1.1,6.7c0.5,2.3,0.9,4.5,1.8,6.6c0.2,0.5,0.5,1,0.7,1.5c0.3,0.5,0.6,1.1,0.9,1.5
			c0.6,1,1.3,2,2,2.9c0.7,0.9,1.5,1.8,2.3,2.6l0.6,0.5l0.4,0.4c0.1,0.1,0.2,0.2,0.4,0.3c0.3,0.3,0.6,0.7,0.8,1
			c0.2,0.3,0.4,0.7,0.6,1c0.6,1.3,1,2.6,1.5,3.6l0,0.1c0-0.1,0,0,0,0.1l0.1,0.2l0.2,0.3c0.2,0.3,0.3,0.6,0.5,1
			c0.2,0.4,0.3,0.9,0.3,1.4c0,0.6,0,0.8-0.1,1.2c-0.1,0.7-0.1,1.2,0,1.4c0,0,0,0.1,0,0.1c0,0,0,0,0,0.1c0,0,0.1,0,0.1,0.1l0,0
			c0.3,0.2,0.1,0.1,0.2,0.2l0.2,0.1c0.2,0.1,0.6,0.5,0.7,0.7c0.2,0.2,0.3,0.5,0.4,0.7c0.2,0.5,0.3,0.9,0.3,1.4c0.1,0.8,0,1.5,0,2.2
			c0,0.6,0,1.2,0,1.6c0,0.1,0,0.1,0.1,0.2l0.2,0.5c0.1,0.3,0.2,0.6,0.3,1c0.4,1.6,0.5,2.9,0.6,4.3c0.1,1.4,0,2.7,0.2,3.9
			c0.1,1.3,0.3,2.7,0.4,4c0.1,1.3,0.3,2.7,0.4,4c0.2,1.3,0.4,2.6,0.7,4c0.2,1.3,0.5,2.7,0.7,4c0.2,1.3,0.5,2.7,0.8,3.9
			c0.4,1.2,0.9,2,1.5,2.2c1,0.3,2.2,0.3,3.5,0.3c1.3-0.1,2.7-0.3,3.9-0.5l0.5-0.1l0.4-0.1c0.3-0.1,0.6-0.2,0.9-0.3
			c0.6-0.2,1.2-0.4,1.8-0.7c2.3-1.1,4.5-2.7,5.7-4.7c0.6-1,0.9-2.1,0.8-3.1c-0.1-0.8-0.1-1.1-0.3-1.8c-0.2-0.6-0.4-1.3-0.6-1.9
			c-0.2-0.7-0.5-1.4-0.6-2.2l-0.1-0.3c0,0,0-0.2,0-0.2l0-0.1l-0.1-0.5l-0.1-1c-0.1-0.7-0.1-1.4-0.2-2.2l-0.1-1.1l0-1.1
			c0-1.5,0.1-2.8,0.1-4.3c0.1-1.4,0.2-2.8,0.4-4.2c0.3-2.8,0.6-5.5,0.3-8c0-0.3-0.1-0.6-0.1-0.9l-0.2-0.9l-0.1-0.4l0-0.1l-0.1-0.2
			l-0.1-0.2l-0.3-1l-0.6-2c-0.2-0.7-0.3-1.4-0.5-2.1c-0.4-1.4-0.7-2.7-1-4.1c-0.3-1.3-0.6-2.7-0.9-4l-0.2-0.9l-0.3-1l-0.6-2
			c-0.4-1.3-0.8-2.5-1.3-3.8c-0.4-1.2-1-2.5-1.5-3.7c-0.5-1.2-1.1-2.4-1.6-3.6l-0.1-0.2l-0.1-0.3l-0.2-0.5l-0.4-0.9
			c-0.2-0.6-0.4-1.4-0.7-2.1c-0.2-0.7-0.3-1.4-0.5-2l-0.3-2c-0.4-2.7-0.5-5.3-0.7-7.9c-0.1-2.6-0.3-5.1-0.4-7.7
			c-0.1-2.5-0.1-5.1-0.2-7.6c0-0.6,0-1.2,0-1.9c0-0.6,0-1.3,0.1-1.9c0-1.2,0.1-2.4,0.1-3.6c0-2.4,0.3-4.8,0.5-7.2
			c0.1-1.2,0.2-2.4,0.3-3.5c0.2-1.2,0.4-2.3,0.5-3.4s0.4-2.3,0.5-3.4c0.1-1.1,0.5-2.2,0.7-3.3c0.3-1.1,0.5-2.1,0.8-3.2
			c0.1-0.5,0.3-1.1,0.4-1.6l0.2-0.7l0.2-0.8c0.2-1,0.4-2,0.7-3c0.1-1,0.2-1.9,0.3-2.9c0.1-0.9,0.1-1.9,0.1-2.8c0-1,0.1-1.9,0-2.8
			c-0.1-1.9-0.1-3.7-0.3-5.5c-0.1-0.9-0.2-1.8-0.3-2.6c-0.1-0.9-0.3-1.7-0.4-2.5c-0.5-3.3-1.1-6.5-1.7-9.4c-0.6-2.9-1.1-5.5-1.6-7.9
			c-1.9-9.6-3.1-15.1-3.1-15.1s1.5,5.4,4.1,14.9c0.6,2.4,1.4,5,2.2,7.8c0.7,2.9,1.5,6,2.3,9.3c0.2,0.8,0.4,1.7,0.5,2.6
			c0.2,0.9,0.3,1.8,0.5,2.7c0.4,1.8,0.5,3.7,0.7,5.7c0.1,1,0.1,2,0.1,3c0,0.5,0,1,0,1.5c0,0.5-0.1,1-0.1,1.6
			c-0.1,1.1-0.2,2.1-0.4,3.2c-0.2,1-0.4,2-0.7,3c-0.1,0.5-0.2,1.1-0.4,1.6c-0.1,0.5-0.2,1-0.4,1.5c-0.2,1-0.5,2.1-0.7,3.1
			c-0.2,1.1-0.6,2.1-0.7,3.2c-0.2,1.1-0.3,2.2-0.5,3.3c-0.2,1.1-0.4,2.2-0.5,3.3c-0.1,1.1-0.2,2.3-0.3,3.4c-0.2,2.3-0.5,4.6-0.5,7
			c0,1.2-0.1,2.4-0.1,3.6c0,0.6,0,1.2,0,1.8c0,0.6,0,1.2,0,1.8c0.1,2.4,0.1,4.9,0.2,7.4c0.1,2.5,0.3,5.1,0.4,7.6
			c0.2,2.6,0.3,5.2,0.6,7.7l0.3,1.9c0.1,0.6,0.3,1.2,0.4,1.8c0.2,0.6,0.3,1.1,0.5,1.7l0.4,0.9l0.2,0.5l0,0.1c0,0,0.1,0.1,0,0
			l0.1,0.2c0.5,1.2,1.1,2.5,1.6,3.7c0.5,1.3,1,2.5,1.5,3.8c0.4,1.3,1,2.7,1.3,4l0.6,2l0.3,1c0.1,0.4,0.2,0.7,0.3,1
			c0.3,1.3,0.6,2.7,0.9,4c0.3,1.3,0.6,2.7,0.9,4c0.2,0.6,0.3,1.3,0.5,1.9l0.6,2l0.3,1l0.1,0.2l0.1,0.2l0.2,0.6l0.3,1.1
			c0.1,0.4,0.1,0.8,0.2,1.1c0.4,3,0,5.9-0.3,8.7c-0.2,1.4-0.3,2.7-0.4,4.1c-0.1,1.3-0.1,2.8-0.1,4.1l0,1l0.1,1c0,0.7,0,1.3,0.2,2
			l0.1,1l0.1,0.5l0,0.1c0,0.1,0-0.1,0,0l0.1,0.2c0.1,0.6,0.3,1.2,0.5,1.9c0.2,0.7,0.4,1.3,0.6,2.1c0.2,0.7,0.4,1.7,0.4,2.3
			c0.1,1.8-0.4,3.5-1.2,4.9c-1.7,2.8-4.3,4.6-7,5.9c-0.7,0.3-1.4,0.6-2.1,0.8c-0.4,0.1-0.7,0.2-1.1,0.3l-0.6,0.1l-0.5,0.1
			c-1.5,0.3-2.8,0.4-4.3,0.5c-1.5,0.1-3,0.1-4.7-0.4c-1-0.3-1.8-1.1-2.3-1.8c-0.5-0.8-0.8-1.5-1.1-2.3c-0.5-1.5-0.6-2.8-0.9-4.2
			c-0.2-1.4-0.5-2.7-0.7-4.1c-0.2-1.4-0.5-2.7-0.7-4.1c-0.1-1.4-0.3-2.7-0.4-4c-0.1-1.3-0.3-2.7-0.4-4c-0.2-1.4-0.1-2.8-0.2-4.1
			c0-0.6-0.1-1.3-0.1-1.9c-0.1-0.6-0.2-1.2-0.3-1.7c0-0.2-0.2-0.5-0.3-0.9l-0.1-0.4c-0.1-0.2-0.2-0.5-0.2-0.7
			c-0.2-0.9-0.1-1.7-0.1-2.3c0-0.7,0.1-1.3,0-1.8c0-0.2-0.1-0.4-0.1-0.5c0-0.1-0.1-0.1-0.1-0.1c0,0,0.1,0.1,0,0l-0.2-0.1
			c0,0-0.2-0.1,0,0l-0.2-0.1c-0.2-0.2-0.5-0.3-0.7-0.5c-0.2-0.2-0.4-0.5-0.5-0.7c-0.1-0.3-0.2-0.5-0.3-0.8c-0.2-1-0.1-1.8,0-2.4
			c0.1-0.8,0.1-0.8-0.1-1.2c-0.1-0.2-0.2-0.4-0.4-0.7l-0.3-0.5l-0.1-0.2l-0.1-0.2l0-0.1c-0.5-1.3-0.9-2.5-1.4-3.5
			c-0.1-0.3-0.3-0.4-0.4-0.7c-0.1-0.2-0.2-0.3-0.3-0.5c-0.1-0.1-0.2-0.2-0.3-0.3l-0.2-0.2l-0.1-0.1c-0.1-0.1,0.1,0,0,0l-0.8-0.7
			c-1-0.9-1.9-1.9-2.7-3c-0.8-1-1.5-2.1-2.2-3.2c-0.4-0.6-0.6-1-1-1.6c-0.3-0.6-0.6-1.2-0.8-1.8c-1-2.4-1.5-4.9-1.9-7.1
			c-0.4-2.3-0.8-4.6-1.1-6.9c-0.2-1.1-0.4-2.3-0.5-3.4c-0.1-1.1-0.3-2.2-0.4-3.3c-0.3-2.2-0.5-4.3-0.8-6.4c-0.3-2-0.6-4-0.9-5.9
			c-0.5-2-0.9-3.9-1.3-5.7l-0.1-0.6l-0.2-0.7c-0.1-0.5-0.2-0.9-0.3-1.4c-0.2-0.9-0.4-1.8-0.6-2.7c-0.4-1.8-0.8-3.5-1.2-5.1
			c-0.8-3.3-1.6-6.4-2.4-9.3c-0.4-1.4-0.7-2.8-1.1-4.1c-0.4-1.3-0.8-2.5-1.2-3.7c-1.6-4.6-3-8.2-3.9-10.7
			C265.2,390.3,264.7,388.9,264.7,388.9z"/>
		<path style="fill:#333333;" d="M232.1,534.1c0,0,0.1,0.6,0.4,1.8c0.1,0.6,0.3,1.4,0.3,2.3c0,0.9,0,2.1-0.7,3.2
			c-0.2,0.2-0.3,0.5-0.5,0.7c-0.2,0.2-0.4,0.5-0.7,0.8c-0.2,0.2-0.4,0.5-0.7,0.7l-0.3,0.4l-0.2,0.2c0,0-0.1,0.1-0.1,0.1
			c0,0,0.1,0,0.1-0.1c0-0.1,0-0.2,0-0.3c-0.1-0.2,0-0.1,0.1,0c0.2,0.1,0.6,0.2,1,0.6l0.2,0.1l0.2,0.2l0.2,0.2
			c0.1,0.2,0.4,0.6,0.5,0.9c0.2,0.7,0.1,1.3-0.1,1.8c-0.4,1-1,1.8-1.6,2.5c-0.6,0.7-1.3,1.3-2.1,1.9l-0.3,0.2l0,0
			c0.2-0.2,0,0,0.1-0.1l-0.1,0.1l-0.1,0.1c-0.2,0.1-0.3,0.3-0.5,0.4c-0.2,0.2-0.2,0.3-0.4,0.4c-0.1,0.1-0.2,0.2-0.3,0.4
			c-0.5,0.7-1,1.4-1.6,2.3c-0.3,0.4-0.7,0.9-1,1.3c-0.2,0.2-0.4,0.4-0.7,0.6c-0.2,0.2-0.5,0.4-0.8,0.6l-0.8,0.5
			c-0.2,0.1-0.5,0.2-0.7,0.3c-0.5,0.2-0.9,0.5-1.4,0.7c-0.9,0.5-1.9,0.9-2.9,1.4c-1,0.5-2,0.9-2.9,1.5c-1.9,1.1-3.9,2.2-5.9,3.3
			l-0.7,0.5l-0.6,0.4c-0.4,0.3-0.8,0.7-1.1,1c-0.6,0.7-1.1,1.7-1.4,2.7c-0.3,0.9-0.4,2-0.2,2.9c0.1,0.4,0.3,0.8,0.5,1
			c0.2,0.2,0.4,0.4,0.8,0.5c0.1,0,0.2,0,0.3,0l0.1,0l0.2,0l0.9,0c0.6,0,1.3,0,1.9,0.1c1.3,0,2.6,0.1,3.8,0.1c2.5,0,5.1,0,7.7,0
			l1.9-0.2c0.6-0.1,1.1-0.2,1.7-0.3c0.6-0.1,1.1-0.4,1.7-0.6c0.5-0.2,1.1-0.5,1.6-0.8c2.1-1.1,4-2.8,5.7-4.6
			c0.9-0.9,1.6-1.8,2.5-2.9c0.5-0.5,1-1,1.6-1.5c0.6-0.5,1.3-0.9,1.8-1.2c1.2-0.6,2.4-1.3,4-1.6c0.4-0.1,0.8-0.1,1.3-0.1
			c0.5,0,1,0.1,1.6,0.4c0.5,0.2,1.1,1,1.1,1.1c0.1,0.2,0.2,0.4,0.3,0.5l0.2,0.5c0.6,1.2,1,2.3,1.6,3c0.3,0.3,0.5,0.5,0.6,0.5l0,0
			c-0.2,0,0,0,0,0l0.1,0l0.2,0l0.5,0l0.7,0c1-0.1,2.1-0.4,3.2-0.8l0.8-0.3l0.7-0.3l0.4-0.2c0.1,0,0.1-0.1,0.2-0.1c0,0,0,0,0-0.1
			c0,0,0.1-0.1,0.1-0.1c0.1-0.1,0.1-0.1,0.2-0.2c0.5-0.5,0.7-1.5,0.8-2.5c0.1-1,0.1-2.1,0-3.2c0-0.6,0-1.1-0.1-1.7
			c0-0.3,0-0.6,0-0.9l0-0.5l0-0.3c0-1.1-0.1-2.2,0.1-3.5c0.1-0.3,0.1-0.7,0.3-1.1c0.1-0.2,0.2-0.5,0.5-0.8l0.3-0.3
			c-0.1,0.1,0,0,0-0.3c0-0.6-0.4-1.5-0.7-2.4c-0.2-0.4-0.4-0.9-0.6-1.4c-0.2-0.5-0.3-0.9-0.5-1.4c-0.3-0.9-0.6-1.8-0.8-2.6
			c-0.2-0.9-0.4-1.7-0.6-2.5l-0.2-0.6c0-0.1-0.1-0.3-0.1-0.2l-0.1-0.3c-0.1-0.4-0.3-0.8-0.4-1.1c-0.1-0.4-0.3-0.7-0.4-1.1
			c-0.1-0.4-0.3-0.8-0.4-1.1c-0.1-0.4-0.2-0.8-0.3-1.2c-0.1-0.4-0.2-0.8-0.2-1.1c-0.1-1.4-0.2-2.6-0.3-3.8c-0.2-2.3-0.4-4.1-0.5-5.3
			c-0.1-1.2-0.2-1.9-0.2-1.9s0.2,0.6,0.5,1.8c0.3,1.2,0.8,2.9,1.3,5.2c0.3,1.1,0.5,2.3,0.9,3.7c0.3,1.3,0.9,2.4,1.7,3.9
			c0.2,0.4,0.4,0.7,0.5,1.1l0.1,0.3l0.1,0.3l0.2,0.6c0.3,0.8,0.6,1.6,1,2.4c0.3,0.8,0.6,1.7,0.9,2.6c0.1,0.4,0.3,1,0.4,1.3
			c0.1,0.4,0.3,0.8,0.5,1.3c0.4,0.9,0.8,2,0.9,3.4c0,0.7,0,1.7-0.8,2.6l-0.3,0.3c0.1-0.1,0.1-0.1,0.1-0.1c0,0-0.1,0.2-0.1,0.4
			c-0.1,0.8,0,1.8,0,3v0.5l0,0.4c0,0.2,0,0.5,0,0.8c0,0.5,0,1.1,0.1,1.7c0,1.1,0.1,2.3,0,3.6c-0.2,1.3-0.4,2.7-1.4,4l-0.4,0.5
			c-0.2,0.2-0.4,0.3-0.6,0.5l-0.3,0.2c-0.1,0.1-0.1,0.1-0.2,0.1l-0.4,0.2l0,0c-0.3,0.1-0.1,0-0.2,0.1l-0.1,0l-0.2,0.1l-0.4,0.2
			l-0.9,0.3c-1.2,0.4-2.5,0.8-3.9,0.9c-0.4,0-0.8,0-1.2,0l-0.5,0l-0.2,0l-0.1,0l-0.2,0l-0.1,0c-1.1-0.2-1.9-0.9-2.4-1.5
			c-1-1.3-1.4-2.5-2-3.6l-0.2-0.4l-0.2-0.3l-0.1-0.2l0,0c0,0-0.1-0.1,0,0l0,0c0,0,0,0,0,0c0,0-0.4-0.1-0.8,0
			c-0.9,0.2-2.1,0.7-3.1,1.3c-0.6,0.3-1,0.6-1.4,0.9c-0.4,0.3-0.8,0.7-1.2,1.2c-0.8,0.9-1.7,2-2.6,2.9c-1.9,1.9-3.9,3.8-6.4,5.1
			c-0.6,0.3-1.3,0.7-1.9,0.9c-0.7,0.2-1.3,0.5-2,0.7c-0.7,0.1-1.5,0.3-2.2,0.4l-2,0.2c-2.6,0-5.3,0-7.9,0c-1.3,0-2.6-0.1-3.8-0.1
			c-0.6,0-1.3,0-1.9-0.1l-0.9,0l-0.2,0l-0.3,0c-0.2,0-0.4,0-0.6-0.1c-0.9-0.2-1.8-0.7-2.4-1.4c-0.6-0.7-0.9-1.5-1.1-2.3
			c-0.3-1.6-0.2-3,0.2-4.4c0.4-1.3,1-2.6,1.9-3.7c0.5-0.6,1-1,1.5-1.5l0.8-0.6l0.7-0.5c2.1-1.2,4.2-2.3,6.2-3.5c2-1.1,4-2,5.9-2.9
			c0.5-0.2,0.9-0.5,1.4-0.7c0.2-0.1,0.5-0.2,0.7-0.4l0.5-0.3c0.2-0.1,0.3-0.2,0.5-0.3c0.1-0.1,0.3-0.2,0.4-0.4
			c0.3-0.3,0.5-0.6,0.8-1c0.5-0.7,1-1.6,1.7-2.4c0.3-0.4,0.8-1,1.2-1.3c0.2-0.1,0.4-0.3,0.5-0.4l0.4-0.3l0.3-0.2
			c0.7-0.4,1.4-0.9,2-1.4c0.6-0.5,1.1-1,1.3-1.4c0.1-0.2,0.1-0.4,0.1-0.5c0,0,0,0,0,0l0,0c0,0,0,0,0-0.1l-0.2-0.2l0-0.1l0,0
			c0,0-0.1-0.1,0.1,0.1l0,0c-0.1-0.1-0.4-0.3-0.8-0.6c-0.2-0.1-0.4-0.3-0.7-0.8c-0.1-0.3-0.1-0.6,0-0.8c0.1-0.2,0.2-0.4,0.3-0.6
			c0.1-0.1,0.1-0.1,0.3-0.2l0.2-0.2l0.4-0.3c0.3-0.2,0.5-0.4,0.7-0.6c0.2-0.2,0.4-0.4,0.6-0.5c0.2-0.2,0.4-0.4,0.6-0.6
			c0.6-0.7,0.8-1.7,0.9-2.5c0.1-0.9,0.1-1.6,0-2.2C232.1,534.8,232.1,534.1,232.1,534.1z"/>
		<path style="fill:#333333;" d="M304.1,529c0,0-0.1,0.6-0.3,1.7c0,0.3-0.1,0.6-0.1,0.9c0,0.3,0,0.7-0.1,1.1c0,0.8-0.2,1.7,0.1,2.6
			c0.1,0.4,0.4,0.8,0.6,1.3c0.1,0.2,0.1,0.3,0.2,0.5c0.1,0.1,0.1,0.4,0.1,0.6c0,0.3,0,0.5,0,0.7c0,0.2-0.1,0.4-0.1,0.6
			c-0.2,0.7-0.5,1.3-0.6,1.8l0,0.2l0,0l0,0c0,0,0,0.1,0,0l0,0.1l0,0.5c0,0.4,0,0.6,0,0.9c0.1,1.3,0.6,2.8,0.4,4.8
			c-0.1,0.5-0.1,1-0.3,1.5l-0.1,0.4l-0.1,0.2l0,0.1c0.1-0.2,0,0,0-0.1l0,0l-0.2,0.6c-0.1,0.4-0.3,0.8-0.4,1.2
			c-0.1,0.4-0.2,0.8-0.2,1.1c-0.3,1.5-0.5,3.4-0.9,5.4c-0.2,0.9-0.4,1.9-0.7,2.8c-0.3,1-0.6,2-0.9,3c-1.4,4-3.2,7.9-5,11.9
			c-0.4,1-0.9,2-1.3,3c-0.4,1-0.9,2.1-1.2,3.1l-0.5,1.6l-0.1,0.4l-0.1,0.2c0,0,0-0.1,0,0l0,0.1l0,0.1l-0.2,0.8c0,0.2,0,0.4-0.1,0.6
			c0,0.2,0,0.3,0,0.5c0.1,0.1,0.1,0.3,0.2,0.4c0,0.1,0.1,0.1,0.1,0.2l0.2,0.2c0.3,0.3,0.7,0.6,1.1,0.9l0.3,0.2l0.4,0.2l0.4,0.2
			c0.1,0.1,0.2,0.1,0.3,0.2c0.8,0.4,1.9,0.7,2.9,0.9c1,0.1,2,0.1,3.1-0.1c0.6-0.1,1.2-0.2,1.7-0.3l1.6-0.4c2.2-0.5,4.4-1.3,6.4-2.3
			c0.5-0.2,1-0.5,1.5-0.8c0.5-0.3,1-0.5,1.4-0.9l0.7-0.5l0.3-0.2l0.3-0.2c0.5-0.4,0.7-0.7,1-1c1.1-1.5,1.5-3.6,1.7-5.8
			c0.2-2.2,0.3-4.6,1.1-7c0.3-1.1,0.7-2.1,1-3.1c0.4-1,0.7-2.1,1.1-3.1c0.4-1,0.7-2,1-3c0.2-0.5,0.3-1,0.5-1.4
			c0.1-0.5,0.3-1,0.4-1.4c0.1-0.5,0.3-0.9,0.4-1.4l0.1-0.3l0-0.1l0,0c0,0,0,0.1,0,0l0-0.2c0-0.2,0.1-0.5,0.1-0.7l0-0.5l0-0.6
			c0-0.4-0.1-0.9-0.2-1.3c-0.2-0.9-0.3-1.8-0.5-2.8c-0.1-0.9-0.3-1.8-0.4-2.7c-0.2-1.8-0.6-3.4-0.7-5.1c-0.1-1.6-0.2-3.2-0.2-4.6
			c-0.2-2.9-0.1-5.5,0.4-7.7c0.1-0.2,0.2-0.5,0.2-0.7c0.1-0.2,0.2-0.5,0.3-0.7c0.2-0.5,0.5-0.8,0.7-1.2c0.4-0.7,0.9-1.3,1.2-1.7
			c0.4-0.4,0.6-0.8,0.7-1c0.1-0.3,0-0.4,0-0.4c0,0,0.1,0.1,0.1,0.4c0,0.3-0.2,0.7-0.5,1.2c-0.3,0.5-0.6,1.1-0.9,1.8
			c-0.1,0.4-0.3,0.8-0.4,1.2c-0.1,0.2-0.1,0.4-0.2,0.6c0,0.2-0.1,0.5-0.1,0.7c-0.1,0.4,0,1,0,1.5c0,0.3,0,0.5,0,0.8
			c0,0.3,0.1,0.6,0.1,0.9c0.1,1.2,0.4,2.5,0.7,3.9c0.3,1.4,0.6,2.9,0.9,4.5c0.2,0.8,0.3,1.6,0.3,2.4c0.1,0.8,0.2,1.7,0.4,2.6
			c0.1,0.9,0.3,1.8,0.4,2.7c0.1,0.8,0.4,1.8,0.5,2.8c0.1,0.5,0.1,1,0.2,1.6l0,0.8c0,0.3,0,0.6,0,0.9c0,0.3-0.1,0.5-0.1,0.8l0,0.2
			l0,0.1l0,0l0,0.1l-0.1,0.4c-0.1,0.5-0.3,1-0.4,1.5c-0.1,0.5-0.3,1-0.4,1.5c-0.1,0.5-0.3,1-0.5,1.5c-0.3,1-0.7,2-1,3
			c-0.4,1-0.7,2-1.1,3c-0.3,1-0.7,2.1-1,3.1c-0.6,1.8-0.7,4-0.9,6.4c-0.1,1.2-0.3,2.4-0.6,3.6c-0.3,1.2-0.8,2.5-1.6,3.6
			c-0.4,0.6-1,1.2-1.4,1.5l-0.2,0.1l-0.1,0.1l0,0l-0.1,0.1l-0.4,0.3l-0.8,0.5c-0.5,0.4-1.1,0.7-1.6,1c-0.5,0.3-1.1,0.6-1.7,0.9
			c-2.2,1.1-4.6,1.9-7,2.5l-1.8,0.4c-0.6,0.1-1.2,0.2-1.8,0.3c-1.3,0.2-2.6,0.2-4,0.1c-1.3-0.2-2.6-0.5-3.9-1.2
			c-0.2-0.1-0.3-0.2-0.5-0.2l-0.4-0.2l-0.4-0.2l-0.2-0.1l-0.1-0.1l-0.2-0.1c-0.5-0.4-1.1-0.7-1.6-1.3l-0.4-0.4
			c-0.1-0.2-0.2-0.4-0.3-0.5c-0.2-0.4-0.4-0.8-0.5-1.2c-0.1-0.4-0.1-0.8-0.1-1.2c0-0.4,0.1-0.8,0.1-1.2l0.2-0.8l0.1-0.3l0.1-0.2
			l0.1-0.4l0.6-1.7c0.4-1.1,0.8-2.2,1.2-3.2c0.4-1.1,0.9-2.1,1.3-3.1c1.8-4.1,3.6-7.9,4.9-11.7c0.3-0.9,0.6-1.8,0.9-2.7
			c0.2-1,0.4-1.9,0.7-2.8c0.4-1.7,0.5-3.6,0.9-5.5c0.1-0.5,0.2-1,0.3-1.4c0.1-0.4,0.3-0.8,0.4-1.2c0.1-0.4,0.3-0.8,0.4-1.2
			c0.1-0.3,0.2-0.6,0.3-0.9c0.3-1.3,0.1-2.8,0.2-4.4c0-0.4,0.1-0.9,0.1-1.2l0.1-0.5l0-0.1c0-0.1,0-0.1,0-0.1l0,0l0-0.1l0.1-0.3
			c0.3-0.8,0.7-1.3,0.9-1.8c0.2-0.5,0.3-0.6,0.1-1.2c-0.2-0.6-0.4-1.1-0.5-1.7c-0.1-1.2,0.2-2.1,0.4-2.9c0.1-0.4,0.2-0.8,0.3-1.1
			c0.1-0.3,0.2-0.6,0.3-0.9C303.9,529.5,304.1,529,304.1,529z"/>
	</g>
</g>
</svg>
