<?xml version="1.0" encoding="utf-8"?>
<!-- Generator: Adobe Illustrator 16.0.0, SVG Export Plug-In . SVG Version: 6.00 Build 0)  -->
<!DOCTYPE svg PUBLIC "-//W3C//DTD SVG 1.1//EN" "http://www.w3.org/Graphics/SVG/1.1/DTD/svg11.dtd">
<svg version="1.1" id="Layer_1" xmlns="http://www.w3.org/2000/svg" xmlns:xlink="http://www.w3.org/1999/xlink" x="0px" y="0px"
	 width="400px" height="600px" viewBox="0 0 400 600" style="enable-background:new 0 0 400 600;" xml:space="preserve">
<linearGradient id="SVGID_1_" gradientUnits="userSpaceOnUse" x1="1.272" y1="256.0952" x2="410" y2="256.0952">
	<stop  offset="0" style="stop-color:#9BE35E"/>
	<stop  offset="1" style="stop-color:#5AA579"/>
</linearGradient>
<path style="fill:none;stroke:url(#SVGID_1_);stroke-width:5;stroke-miterlimit:10;" d="M198.3,108.2L5.5,279.3L62.7,36.7
	l133.7,71.6 M5.5,279.3l199.3,62.5l-80.4-168 M410,479.3 M350.5,410.8l26,14.3V271 M376.5,173v31 M376.5,159V80.7l-61.3,43.1
	 M288.8,142.2L243.5,174v26 M243.5,284v-57 M243.5,329v22l21.8,12.4"/>
<g>
	<g>
		<path style="fill:#333333;" d="M298.3,525.8c0,0,0.3,0.4,1,1c0.3,0.3,0.6,0.9,1,1.4c0.2,0.3,0.3,0.6,0.5,1
			c0.2,0.4,0.4,0.7,0.5,1.2c0.6,1.7,1.1,3.8,1.4,6.2c0.2,1.2,0.3,2.5,0.5,3.8c0.2,1.3,0.2,2.8,0.1,4.4c-0.1,1.6-0.3,3.5-1.5,5.2
			c-0.6,0.8-1.4,1.5-2.2,2.1c-0.5,0.2-0.9,0.5-1.4,0.6c-0.4,0.1-0.8,0.3-1.2,0.4c-3.5,1.2-7.2,1.3-10.7,2c-0.9,0.1-1.7,0.4-2.6,0.6
			c-0.8,0.3-1.6,0.5-2.4,0.9c-1.7,0.8-3.5,1.6-5.2,2.5c-1.7,0.9-3.5,1.7-5.3,2.5c-0.9,0.4-1.9,0.7-2.9,1.1l-1.4,0.5l-0.4,0.1
			l-0.4,0.1l-0.7,0.2c-0.9,0.3-2,0.5-3,0.7c-1,0.2-2,0.4-3,0.4c-2,0.2-4.1,0.2-6.2,0l-1.5-0.2c-0.5-0.1-1-0.3-1.5-0.4
			c-0.3-0.1-0.5-0.1-0.8-0.2l-0.7-0.3l-0.8-0.4l-0.7-0.4c-0.9-0.6-1.8-1.2-2.5-2.1c-0.7-0.9-1.4-2-1.5-3.5c0-0.4,0.1-0.7,0.2-1.1
			c0.1-0.4,0.3-0.7,0.4-1c0.2-0.3,0.4-0.5,0.6-0.8c0.2-0.2,0.5-0.4,0.7-0.6c0.2-0.2,0.5-0.3,0.7-0.5l0.6-0.4
			c0.4-0.2,0.8-0.4,1.2-0.7c0.4-0.2,0.7-0.4,1-0.7c0.3-0.2,0.6-0.5,1-0.7c0.6-0.5,1.3-1,1.9-1.6c2.4-2.2,4.6-4.5,6.6-6.7
			c0.5-0.5,1-1.1,1.5-1.6c0.5-0.5,1-1,1.5-1.4c1-0.9,2-1.7,2.9-2.5c1.8-1.6,3.3-3,4.6-4.1c1.2-1.2,2.2-2.2,2.8-2.8c0.7-0.7,1-1,1-1
			s-0.3,0.4-0.8,1.2c-0.5,0.8-1.2,2-2.2,3.4c-1,1.4-2.3,3.1-3.8,5c-0.8,0.9-1.6,1.9-2.4,3c-0.4,0.5-0.9,1-1.4,1.5
			c-0.5,0.5-1,1-1.5,1.5c-2,2.1-4.2,4.5-6.8,6.8c-0.6,0.6-1.4,1.1-2.1,1.7c-0.4,0.3-0.8,0.5-1.2,0.8c-0.4,0.3-0.8,0.6-1.2,0.8
			c-0.4,0.2-0.8,0.4-1.2,0.7l-0.2,0.1l-0.1,0.1l-0.2,0.1c-0.1,0.1-0.3,0.2-0.4,0.3c-0.6,0.4-0.7,0.8-0.7,1.1c0,0.4,0.3,1,0.8,1.5
			c0.5,0.6,1.1,1.1,1.8,1.5l0.5,0.3l0.5,0.2l0.7,0.3l0.6,0.2l1.3,0.4l1.3,0.2c1.8,0.2,3.6,0.2,5.5,0c0.9-0.1,1.9-0.3,2.8-0.4
			c0.9-0.2,1.8-0.4,2.8-0.6l0.7-0.2l0.3-0.1l0.3-0.1l1.3-0.5c0.9-0.3,1.8-0.6,2.7-1c1.7-0.8,3.5-1.6,5.2-2.5
			c1.7-0.9,3.5-1.7,5.2-2.5c0.9-0.4,1.9-0.7,2.8-1.1c1-0.2,1.9-0.5,2.9-0.7c3.8-0.7,7.3-0.9,10.2-1.9c0.4-0.1,0.8-0.3,1.2-0.4
			c0.3-0.1,0.6-0.3,0.9-0.4c0.5-0.3,1-0.7,1.3-1.2c0.7-0.9,0.9-2.2,1-3.6c0.1-1.3-0.2-2.7-0.1-4.1c0-1.4,0.1-2.7,0.2-3.8
			c0.1-2.4,0-4.4-0.3-6c-0.1-0.4-0.2-0.8-0.3-1.2c-0.1-0.4-0.1-0.7-0.3-1c-0.2-0.6-0.4-1.2-0.6-1.5
			C298.6,526.3,298.3,525.8,298.3,525.8z"/>
		<path style="fill:#333333;" d="M327.6,534.6c0,0-0.3,0.4-0.8,1.2c-0.5,0.8-1.4,1.9-2.3,3.4c-0.4,0.7-0.9,1.6-1.4,2.5
			c-0.2,0.4-0.6,0.9-0.8,1.4c-0.2,0.5-0.5,1.1-0.7,1.6c-0.5,1.1-0.9,2.2-1.4,3.6c-0.1,0.3-0.3,0.7-0.5,1c-0.2,0.3-0.4,0.6-0.6,1
			c-0.2,0.3-0.4,0.7-0.6,1l0,0.1l0,0l-0.1,0.1l-0.1,0.1l-0.2,0.2l-0.4,0.4c-0.2,0.3-0.5,0.6-0.7,0.9c-0.3,0.3-0.6,0.6-0.8,0.9
			c-0.3,0.3-0.6,0.6-0.9,0.9c-0.3,0.3-0.6,0.6-0.9,0.9c-1.2,1.2-2.5,2.3-3.8,3.4c-1.3,1.1-2.7,2.2-4,3.4c-0.6,0.6-1.3,1.2-1.9,1.9
			c-0.6,0.7-1.3,1.3-1.9,1.9c-0.3,0.3-0.5,0.6-0.8,1l0,0c-0.1,0.1,0.1-0.1,0.1-0.1l0,0.1l-0.1,0.2l-0.1,0.2c0,0.1-0.1,0.1,0,0.1
			c0,0,0,0,0,0c0,0,0,0.1,0,0.1c0,0.1,0.1,0.6,0.1,1.3c0,0.3,0,0.7-0.1,1.1c0-0.2,0,0.6,0,0.3c0-0.1-0.1-0.2-0.1-0.3c0,0,0,0,0,0
			c0.1,0,0.1,0.1,0.3,0.2c0.2,0.1,0.6,0.3,1,0.4l1.3,0.3c0.5,0.1,1,0.2,1.4,0.3c0.9,0.1,1.8,0.2,2.7,0.2c1,0,1.9,0.1,2.9,0
			c2,0,4,0,6-0.1c4-0.1,7.9-0.3,11.5-1.3c0.4-0.1,1-0.2,1.3-0.4l1.4-0.5c0.5-0.2,0.9-0.3,1.3-0.5l1.2-0.6c1.6-0.9,3.3-1.8,4.7-2.8
			c1.4-1,2.9-2.5,5.2-3l0.4-0.1l0.2,0l0.1,0c0.1,0-0.1,0,0.2,0l0.1,0l0.2,0c0.1,0,0.1,0,0.2,0c0.2,0,0.5,0,0.7,0.1
			c0.7,0.2,1.1,0.4,1.3,0.4c0.3,0.1,0.1,0,0.7,0c0.3,0,0.3-0.1,0.4-0.1c0.1-0.1,0.2-0.1,0.4-0.2l0.5-0.2l0.5-0.3
			c0.1,0,0.2-0.1,0.2-0.1l0.3-0.2l0.5-0.3c0.6-0.4,1.1-0.8,1.5-1.3c0.8-0.9,1-2.1,1.1-3.5c0-0.8,0.1-1.5,0.1-2.2
			c-0.1-0.7-0.1-1.3,0-2c0.1-0.7,0-1.3,0-1.9c0-0.6,0-1.3,0-1.8c-0.1-2.4-0.4-4.5-0.6-6.2c-0.3-1.7-0.5-3.1-0.7-4
			c-0.2-0.9-0.3-1.4-0.3-1.4s0.2,0.5,0.6,1.3c0.4,0.9,0.9,2.1,1.5,3.8c0.6,1.7,1.3,3.7,1.8,6.2c0.1,0.6,0.3,1.2,0.4,1.9
			c0.1,0.7,0.2,1.3,0.3,2.1c0.1,0.7,0.1,1.5,0.1,2.2c0,0.7-0.1,1.5-0.1,2.2c0,0.8-0.1,1.7-0.4,2.6c-0.1,0.5-0.3,0.9-0.5,1.4
			c-0.3,0.4-0.5,0.9-0.8,1.3c-0.6,0.8-1.4,1.4-2.2,2l-0.5,0.3l-0.3,0.2c-0.2,0.1-0.2,0.1-0.3,0.2l-0.6,0.3l-0.7,0.3
			c-0.4,0.2-1.2,0.5-1.6,0.5l-0.3,0l-0.2,0l-0.1,0l0,0c0.1,0-0.2,0-0.2,0c-0.2,0-0.4,0-0.6,0c-0.2,0-0.3-0.1-0.5-0.1
			c-0.6-0.2-1-0.4-1.2-0.4c0,0,0,0,0,0c0,0-0.1,0-0.1,0l-0.2,0l-0.1,0c0.3,0,0.1,0,0.1,0l0,0l-0.1,0l-0.2,0.1c-0.6,0.2-1.3,0.5-2,1
			c-0.7,0.5-1.4,1-2.2,1.6c-1.6,1.1-3.3,2.1-5.1,3c-0.9,0.4-1.9,0.9-2.8,1.2l-1.4,0.5c-0.6,0.2-1,0.3-1.5,0.4
			c-4,1.1-8.2,1.3-12.2,1.4c-2,0-4,0-6,0.1c-1,0-2,0-3.1,0c-1,0-2.1-0.2-3.2-0.3c-0.5-0.1-1-0.2-1.5-0.3l-0.7-0.1l-0.4-0.1l-0.2,0
			l0,0l-0.1,0l-0.1,0c-0.5-0.2-1.1-0.4-1.7-0.7c-0.3-0.2-0.6-0.4-0.9-0.7c-0.2-0.2-0.3-0.4-0.4-0.6c-0.1-0.2-0.3-0.6-0.3-0.9
			c-0.1-0.4,0-0.4,0-0.6l0-0.2l0-0.3l0,0c0-0.1,0-0.2,0-0.4c0-0.3-0.2-0.8-0.1-1.6c0-0.2,0-0.4,0.1-0.6c0.1-0.2,0.1-0.5,0.2-0.7
			c0.1-0.1,0.1-0.2,0.1-0.2l0.1-0.2l0.1-0.2l0-0.1c0,0,0.2-0.3,0.1-0.2l0,0c0.3-0.4,0.7-0.9,1-1.2c0.7-0.8,1.4-1.4,2-2.1
			c0.7-0.7,1.4-1.3,2-2c1.4-1.2,2.8-2.4,4.1-3.5c1.3-1.1,2.6-2.2,3.7-3.3c0.3-0.3,0.6-0.5,0.8-0.8c0.3-0.3,0.5-0.5,0.8-0.8
			c0.2-0.3,0.5-0.5,0.7-0.8c0.2-0.3,0.5-0.6,0.7-0.9l0.3-0.4l0.2-0.2l0.1-0.1c0-0.1,0,0,0,0l0,0l0-0.1c0.2-0.3,0.3-0.6,0.5-0.9
			c0.2-0.3,0.3-0.6,0.5-0.8c0.2-0.3,0.3-0.6,0.5-0.9c0.7-1.2,1.4-2.3,2.1-3.4c0.3-0.5,0.7-1,1-1.5c0.4-0.5,0.8-0.9,1.1-1.3
			c0.7-0.8,1.4-1.6,2-2.2c0.6-0.7,1.2-1.2,1.7-1.7c0.5-0.5,0.9-0.9,1.3-1.2C327.3,534.9,327.6,534.6,327.6,534.6z"/>
		<path style="fill:#333333;" d="M314.5,315.5c-0.3,0.4-0.7,0.5-1.2,0.6c-0.4,0.1-0.9,0.1-1.3,0.1c-0.9,0-1.8,0.1-2.6,0.2
			c-1.8,0.1-3.5,0.2-5.3,0.4c-1.8,0.1-3.5,0.4-5.3,0.4c-0.9,0-1.8,0.1-2.7,0.1c-0.9,0-1.8,0-2.7-0.1l-2.6-0.3l-2.7-0.4l-2.6-0.5
			l-2.6-0.7c-0.9-0.3-1.7-0.5-2.6-0.8c-0.9-0.3-1.7-0.7-2.5-1.2l-0.3-0.2l-0.1,0l0,0l0,0l-0.1-0.1l-0.1-0.1
			c-0.2-0.1-0.3-0.2-0.6-0.4c-0.2-0.2-0.4-0.4-0.6-0.5l-0.5-0.5c-0.6-0.7-1.1-1.2-1.6-1.4l1-2.2c0.4,0.2,0.7,0.6,0.7,0.8
			c0.1,0.2,0.1,0.4,0.1,0.5c0,0.2,0,0.4,0,0.6c0,0.3,0,0.6-0.1,0.9c-0.1,0.6-0.2,1.1-0.3,1.6c-0.1,0.5-0.3,1-0.4,1.5l-0.2,0.8
			l-0.1,0.4c0,0.1,0,0.1-0.1,0.3l-0.1,0.2l-1.4,2.7l-1.5,2.7l-1.4,2.6L269,326c-0.1,0.5-0.3,1-0.4,1.4c-0.1,0.4-0.2,0.8-0.3,1.3
			c-0.1,0.9-0.2,1.9-0.3,2.9c-0.3,8.1-0.9,16.2-1.2,24.2l-1,24.2c-0.1,2-0.1,4.1-0.2,6.1l0,6l0.2,6c0.1,2,0.4,4,0.6,5.9
			c0.4,4,1.1,8,1.5,12.1l0.3,3l0.2,3c0.2,2,0.3,4.1,0.4,6.1c0.2,4.1,0.4,8.2-0.1,12.4c-0.1,1-0.3,2.1-0.5,3.1l-0.1,0.8l-0.1,0.7
			l-0.2,0.7l-0.1,0.7c-0.1,0.9-0.2,1.8-0.1,2.7l0,0.2l0,0.1c0,0.1,0-0.2,0,0l0.1,0.4l0.1,0.7c0.1,0.5,0.2,0.9,0.4,1.3
			c0.1,0.4,0.3,0.9,0.5,1.3c0.2,0.5,0.4,1,0.5,1.5l0.1,0.4l0.1,0.2l0,0.1c0-0.1,0.1,0.2,0.1,0.2l0.1,0.7l0.3,1.5
			c0.1,0.5,0.2,1,0.2,1.6l0.1,1.6c0.1,1.1,0.1,2.1,0.1,3.1l0.1,6.1l0.1,6.1c0.1,4,0,8.2,0.3,12c0.1,1,0.1,2,0.3,2.9l0.2,1.4l0.1,0.4
			c0,0,0-0.1,0,0l0,0.1l0,0.2l0.2,0.7c0.2,1,0.5,2,0.8,2.9l0.4,1.4l0.1,0.2l0.1,0.3l0.1,0.4l0.1,0.4c0,0.1,0.1,0.3,0.1,0.5
			c0.4,2.6-0.4,4.7-0.5,6.4c-0.1,1.8,0.3,3.3,1.1,5.2c0.4,1,0.9,2.2,0.7,3.7l-0.1,0.5c0,0-0.1,0.3-0.1,0.2l0,0.1l-0.1,0.2
			c-0.1,0.3-0.1,0.4-0.3,0.8c-0.1,0.3-0.3,0.6-0.4,0.9l-0.4,0.7c-1.2,1.9-2.6,3.3-3.4,4.9c-0.4,0.8-0.6,1.5-0.4,1.8
			c0,0.1,0,0.2,0.1,0.3c0,0,0.1,0.1,0.1,0.1c0.1,0.1-0.1-0.1-0.1-0.1l0.1,0.1l0.1,0.1l0.6,0.5c0.2,0.2,0.3,0.2,0.5,0.3
			c0.2,0.1,0.3,0.2,0.4,0.3l0.6,0.2c0.4,0.2,0.8,0.2,1.2,0.4c0.4,0.1,0.9,0.1,1.3,0.2c0.4,0,0.9,0,1.3,0c0.4-0.1,0.9-0.1,1.2-0.2
			l0.6-0.2l0.8-0.3c0.4-0.2,1-0.3,1.6-0.5c0.6-0.2,1.1-0.2,1.6-0.3c2.1-0.3,4.2-0.4,6.2-0.5c4-0.2,7.6-0.9,9.9-3.8
			c1.1-1.2,1.8-3,1.9-4.7l0.1-0.6c0,0.2,0,0,0,0l0-0.1l0-0.2l0-0.4l0-0.8l-0.1-0.6l-0.1-0.6L299,514c-0.1-0.4-0.3-0.8-0.6-1.2
			c-0.8-1.7-2-3.4-2.9-5.4c-0.5-1-0.9-2.4-0.8-3.6c0.1-1.3,0.4-2.4,0.8-3.4c0.4-1,0.8-1.9,1.1-2.8l0.2-0.6l0.1-0.3l0-0.2
			c0,0,0-0.1,0,0l0-0.1l0.2-1.5l0.2-1.5l0.1-1.4l0.1-1.4l0-1.5c0-2,0.1-4.1,0.2-6.1l0.3-6.1l0.4-6.1c0.1-2.1,0.4-4,0.2-5.8
			c-0.1-0.4-0.1-0.9-0.2-1.3c-0.1-0.4-0.2-0.8-0.4-1.2l-0.6-1.3l-0.2-0.3c-0.1-0.2-0.1-0.4-0.2-0.7c-0.1-0.5-0.1-0.8,0-1.2
			c0.1-0.7,0.3-1.4,0.5-1.8c0.2-0.5,0.3-0.9,0.4-1.3c0-0.1,0.1-0.5,0.1-0.6c0-0.2,0-0.3,0-0.5c0-0.4,0-0.8-0.1-1.2
			c-0.3-1.6-1.4-3.3-2.2-5.4c-0.4-1-0.7-2.3-0.5-3.6c0.2-1.3,0.8-2.5,1.4-3.4l0.9-1.2c0.2-0.4,0.5-0.7,0.6-1.2
			c0.4-0.8,0.7-1.7,0.9-2.6c0.4-1.8,0.3-3.7,0.2-5.8c-0.1-2-0.3-4.1-0.1-6.2c0.1-1.1,0.3-2.1,0.6-3.2l0.3-0.8
			c0.1-0.1,0.1-0.2,0.2-0.4l0.2-0.3l0.7-1.3c0.9-1.8,2.2-3.5,2.5-5.3c0.5-1.9,0.4-3.9,0.8-6c0.3-2,0.9-4,1.4-6c0.3-1,0.2-2,0.3-3
			c0.1-1,0.1-2.1,0.7-2.9c-0.6,0.9-0.5,1.9-0.6,2.9c0,1,0.1,2-0.1,3.1c-0.4,2-0.8,3.9-1,6c-0.2,2,0,4-0.4,6.1c-0.2,1.1-0.5,2.1-1,3
			l-1.3,2.7c-2.1,3.5-1.5,7.4-1.1,11.4c0.2,2,0.4,4.2,0.1,6.3c-0.2,1.1-0.5,2.2-0.9,3.2c-0.2,0.5-0.5,1-0.8,1.5l-0.8,1.3
			c-0.5,0.7-0.8,1.5-0.8,2.2c0,0.7,0.1,1.5,0.5,2.3c0.3,0.8,0.8,1.7,1.2,2.7l0.3,0.7l0.3,0.8c0.2,0.5,0.4,1.1,0.5,1.7
			c0.1,0.6,0.2,1.2,0.2,1.8c0,0.3,0,0.7-0.1,1c0,0.2,0,0.3-0.1,0.4l-0.1,0.5c-0.3,1.2-0.9,2.2-0.9,2.7c0,0.1,0,0.3,0,0.3
			c0,0,0,0,0,0.1l0.2,0.3l0.1,0.2l0,0.1c0,0.1-0.1-0.2,0,0l0.2,0.4l0.4,0.8c0.2,0.5,0.4,1.1,0.5,1.7c0.1,0.6,0.2,1.1,0.3,1.7
			c0.2,2.2-0.1,4.3-0.2,6.3l-0.4,6l-0.3,6.1c-0.1,2-0.2,3.9-0.2,6l0,1.5l-0.1,1.6l-0.1,1.6l-0.2,1.5l-0.2,1.5
			c-0.1,0.7-0.3,1.2-0.5,1.7c-0.3,1-0.8,2-1.1,2.9c-0.3,0.9-0.6,1.7-0.6,2.5c0,0.4,0,0.8,0.1,1.1c0.1,0.2,0,0.3,0.2,0.5l0.1,0.4
			l0,0.1c0,0,0-0.1,0,0l0.1,0.2c0.8,1.7,1.9,3.3,2.9,5.3c0.2,0.5,0.5,1,0.7,1.5l0.3,0.8c0.1,0.3,0.1,0.6,0.2,0.9
			c0.1,0.3,0.1,0.6,0.2,0.9l0,0.8l0,0.4l0,0.2l0,0.1c0,0.1,0-0.1,0,0.2l-0.1,0.9c-0.1,1.1-0.4,2.3-0.9,3.4c-0.5,1.1-1,2.1-1.8,3
			c-1.4,1.7-3.5,3-5.6,3.7c-2.1,0.7-4.3,0.9-6.4,1c-2.1,0.1-4,0.2-5.9,0.5c-0.4,0.1-0.9,0.2-1.4,0.3c-0.4,0.1-0.8,0.2-1.3,0.4
			l-0.6,0.2l-0.9,0.3c-0.6,0.2-1.2,0.2-1.8,0.3c-0.6,0-1.2,0-1.7,0c-0.6-0.1-1.2-0.1-1.7-0.3c-0.6-0.2-1.1-0.3-1.7-0.5L270,530
			c-0.3-0.1-0.6-0.3-0.9-0.5c-0.3-0.2-0.6-0.4-0.8-0.6l-0.6-0.5l-0.1-0.1l-0.1-0.1c0,0-0.3-0.3-0.2-0.2l-0.3-0.5
			c-0.2-0.3-0.4-0.7-0.5-1.1c-0.2-0.8-0.1-1.6,0-2.2c0.1-0.3,0.2-0.6,0.3-0.9c0.1-0.3,0.3-0.5,0.4-0.8c2.2-4,5.9-6.4,3.9-9.4
			c-0.4-0.9-0.8-2-1.1-3.1c-0.1-0.6-0.2-1.1-0.3-1.7c0-0.6-0.1-1.2,0-1.7l0.1-0.8l0-0.2l0-0.1l0-0.2l0.1-0.4l0.2-1.5
			c0.2-0.9,0.2-1.8,0.1-2.5c0-0.3-0.2-1-0.3-1.3l-0.5-1.5c-0.3-1-0.6-2-0.8-3l-0.2-0.7l0-0.2l0-0.1l0-0.2l-0.1-0.4l-0.2-1.6
			c-0.2-1-0.3-2.1-0.3-3.1c-0.3-4.2-0.2-8.2-0.3-12.2l-0.1-6.1l-0.1-6.1c0-1,0-2-0.1-2.9l-0.1-1.4c0-0.5-0.1-0.9-0.2-1.4l-0.3-1.5
			l-0.1-0.7c0-0.1,0,0.1,0,0l0-0.1l-0.1-0.2l-0.1-0.3c-0.1-0.4-0.3-0.9-0.5-1.4c-0.2-0.5-0.4-0.9-0.5-1.5c-0.2-0.5-0.4-1.2-0.4-1.6
			l-0.1-0.7l-0.1-0.4c0,0.1,0-0.2,0-0.2l0-0.1l0-0.2c-0.1-1.1,0-2.2,0.2-3.3c0.4-2.2,0.8-4,1-5.9c0.5-3.8,0.3-7.9,0.1-11.9
			c-0.1-2-0.2-4-0.4-6l-0.2-3l-0.3-3c-0.4-4-1-8-1.5-12c-0.2-2-0.5-4.1-0.6-6.1l-0.2-6.1l0-6.1c0-2,0.1-4,0.2-6.1l1-24.3
			c0.3-8.1,0.9-16.2,1.2-24.3c0.1-1,0.2-2.1,0.3-3.2c0.1-0.5,0.2-1.1,0.3-1.7c0.1-0.5,0.3-1,0.4-1.5l0-0.1c0.1-0.2,0-0.1,0.1-0.2
			l0.1-0.2l0.2-0.4l0.3-0.7l0.6-1.5c0.5-0.9,1-1.8,1.5-2.8c0.5-0.9,1-1.7,1.6-2.5l1.5-2.6l0-0.1c0,0,0.1-0.1,0,0c0,0,0-0.1,0-0.1
			l0.1-0.3l0.3-0.7c0.2-0.5,0.3-0.9,0.5-1.4c0.1-0.5,0.3-0.9,0.4-1.4c0-0.2,0.1-0.4,0.1-0.6l0-0.2c0,0,0,0,0,0.1
			c0,0.1,0.2,0.3,0.5,0.5l1-2.2c1.1,0.6,1.8,1.4,2.3,2.1l0.4,0.5c0.1,0.2,0.3,0.3,0.4,0.4c0.1,0.1,0.3,0.3,0.4,0.4l0.1,0.1
			c0.1,0-0.1,0-0.1,0l0,0l0,0l0,0l0.1,0l0.3,0.2c0.7,0.4,1.4,0.8,2.2,1.1c0.7,0.3,1.6,0.6,2.4,0.9l2.5,0.8l2.5,0.6l2.5,0.5l2.6,0.4
			c0.8,0.1,1.7,0.1,2.6,0.2c0.9,0.1,1.7,0,2.6,0c1.7,0,3.5-0.1,5.3-0.1c1.8,0,3.5,0,5.3-0.1c0.9,0,1.8,0,2.6,0c0.4,0,0.9,0,1.3,0
			C313.7,316,314.2,315.9,314.5,315.5z"/>
		<path style="fill:#333333;" d="M293.8,364.5c0,0,0.7,1.4,2.1,3.9c0.7,1.3,1.5,2.9,2.5,4.8c0.5,1,1,2,1.5,3.1
			c0.5,1.1,1,2.3,1.6,3.5c2.2,5,4.8,11.1,7.9,18c0.8,1.7,1.5,3.5,2.3,5.4c0.4,0.9,0.8,1.9,1.2,2.8c0.4,1,0.7,2,1.1,3
			c0.4,1,0.8,2,1.1,3.1c0.3,1,0.6,2.1,0.9,3.2c0.3,1.1,0.6,2.2,0.9,3.3c0.3,1.1,0.6,2.3,0.8,3.4c0.6,2.3,1.1,4.6,1.6,7
			c0.5,2.4,1.1,4.8,1.6,7.3c1.1,4.9,2,10.1,3.3,15.2c0.7,2.5,1.4,5.1,2.4,7.5l0.1,0.2c0,0,0.1,0.2,0,0l0.1,0.1l0.2,0.5l0.4,0.9
			c0.3,0.7,0.6,1.2,1,1.7l0.5,0.8l0.1,0.1c0,0,0,0,0,0l0.2,0.2c0.1,0.2,0.2,0.2,0.3,0.3c0.4,0.4,1,1,1.5,1.6
			c0.3,0.3,0.6,0.8,0.8,1.3c0.2,0.5,0.3,1.2,0.1,2c-0.4,1.2-1.1,1.7-1.5,2.3c-0.2,0.3-0.4,0.5-0.5,0.6c0,0-0.1,0.1-0.1,0.1l0,0
			c0.1-0.3,0,0,0,0l-0.1,0.5c0,0.1,0,0.2,0,0.2l0,0.1c0,0.1,0,0.1,0,0.3c0,0.3,0,0.6,0.1,0.9c0.1,0.6,0.2,1.3,0.4,2.1
			c0.1,0.7,0.2,1.8,0.1,2.4c-0.1,1.4-0.1,2.9-0.2,4.3c0,0.7,0,1.4,0,2.1c0,0.7,0,1.4,0.1,2.1l0.2,2.1l0.4,2.2
			c0.3,1.5,0.5,2.9,0.8,4.4c0.2,1.5,0.4,3,0.6,4.5l0.3,2.3c0.1,0.8,0.1,1.5,0.2,2.3c0,0.4,0,0.7,0.1,1.1l0.2,1
			c0.2,0.6,0.3,0.9,0.7,2.1l0.1,0.3c0,0.1,0,0.2,0,0.4c0,0.3,0,0.5-0.1,0.8c-0.1,0.2-0.1,0.3-0.2,0.5c-0.1,0.1-0.2,0.2-0.3,0.3
			c-0.1,0.1-0.2,0.2-0.3,0.3l-0.2,0.1c-0.7,0.3-1,0.3-1.4,0.5l-1,0.3c-0.3,0.1-0.5,0.3-0.8,0.4c-1.1,0.6-2.1,1.6-2.9,2.7
			c-0.4,0.5-0.9,1.1-1.3,1.8l-0.3,0.5c-0.1,0.1,0,0,0,0l-0.1,0.1l-0.1,0.3c-0.2,0.3-0.4,0.7-0.5,1c-0.2,0.5-0.4,1.2-0.6,1.8
			c-0.1,0.3-0.1,0.7-0.2,1l-0.1,1c0,2.7,0.8,5.6,2.4,7.9c0.8,1.2,1.7,2.2,2.8,3l0.1,0.1c0,0,0.1,0,0.1,0.1l0.2,0.2l0.5,0.3l1,0.7
			c0.6,0.5,1.3,0.8,1.9,1.2c0.3,0.2,0.6,0.4,0.9,0.6l1,0.5c0.7,0.3,1.3,0.7,2,0.9l1,0.4l0.5,0.2l0.1,0c0.1,0-0.1,0,0,0l0.3,0.1
			c0.4,0.1,0.8,0.2,1.1,0.2c0.3,0,0.6,0,0.9,0c1.3,0,2.6-0.4,4-1c0.7-0.3,1.4-0.6,2.1-0.9l1.1-0.5l0.1-0.1c0.1-0.1,0,0,0,0l0.3-0.1
			l0.5-0.3c0.2-0.1,0.4-0.2,0.5-0.3l0.4-0.3c0.3-0.2,0.5-0.3,0.8-0.6c0.5-0.4,1-0.9,1.4-1.5c0.8-1.1,1.5-2.4,2-3.7
			c1-2.8,1.7-5.8,2.8-8.8c0.6-1.6,1.3-3,1.8-4.3c0.5-1.3,0.6-2.4,0.6-4l0-1.1l0-1.2c0-0.4,0.1-0.8,0.1-1.2l0.1-0.6l0.1-0.6
			c0.2-1.5,0.4-3,0.6-4.5c0.2-1.5,0.3-3,0.4-4.5l0.2-2.2l0.1-1.1l0-0.6l0-0.3c0,0.1,0-0.1,0-0.1l0-0.1c0-1.5,0-3-0.1-4.5
			c0-0.7,0-1.5,0-2.2l-0.2-2.2c-0.1-1.4-0.3-2.9-0.4-4.3c-0.2-1.5-0.4-2.9-0.6-4.3c-0.4-2.9-0.8-5.8-1.2-8.6
			c-0.2-1.5-0.4-2.8-0.6-4.3c-0.2-1.4-0.3-2.8-0.5-4.2c-0.6-5.6-1.2-11-2.6-16l-0.2-0.9l-0.1-0.2l0-0.1l0-0.1l-0.1-0.5
			c-0.2-0.7-0.4-1.2-0.6-1.7l-0.4-0.7c-0.1-0.2-0.3-0.4-0.4-0.6c-0.1-0.2-0.3-0.4-0.6-0.7c-0.1-0.1-0.2-0.2-0.4-0.4l-0.2-0.2
			l-0.2-0.3c-0.1-0.2-0.3-0.5-0.4-0.8c-0.1-0.3-0.1-0.6-0.1-0.9c0-0.3,0-0.6,0.1-0.8l0.1-0.6c0.1-0.6,0.3-1.3,0.4-1.8
			c0.1-0.6,0.2-1.1,0.2-1.7c0.1-0.6,0.1-1.2,0.1-1.8c0-2.4-0.2-4.8-0.4-7.3c-0.2-2.4-0.3-4.8-0.5-7.1c-0.1-2.3-0.3-4.6-0.4-6.9
			c-0.1-2.3-0.1-4.5-0.1-6.6c0-2.2,0.1-4.3,0.1-6.3c0-0.5,0.1-1,0.1-1.5c0.1-0.5,0.2-1.1,0.3-1.6c0.2-1,0.4-1.9,0.6-2.8
			c0.3-1.8,0.2-3.4-0.4-4.8c0,0-0.1-0.3-0.1-0.2l0-0.1l0-0.2l-0.1-0.3c-0.1-0.2-0.1-0.6-0.1-0.9c0-0.6,0.1-1.1,0.2-1.5
			c0.2-0.9,0.5-1.7,0.7-2.4c0-0.2,0.1-0.4,0.1-0.5l0-0.6c0-0.4,0-0.8,0-1.2c-0.1-0.7-0.1-1.4-0.3-2.2c-0.1-0.7-0.3-1.4-0.4-2.2
			c-0.2-0.8-0.2-1.4-0.3-2.1c-0.2-1.4-0.4-2.6-0.5-3.8c-0.1-1.2-0.2-2.4-0.2-3.4c-0.2-2.1,0-4,0-5.4c0-1.5-0.1-2.6-0.2-3.3
			c-0.2-0.7-0.3-1.1-0.3-1.1s0.1,0.4,0.4,1.1c0.2,0.7,0.4,1.8,0.5,3.3c0.1,1.5,0,3.3,0.3,5.3c0.1,1,0.3,2.2,0.5,3.4
			c0.2,1.2,0.5,2.5,0.7,3.8c0.1,0.7,0.3,1.4,0.4,2c0.2,0.7,0.4,1.4,0.5,2.2c0.2,0.7,0.3,1.6,0.5,2.4c0.1,0.4,0,0.8,0.1,1.2l0,0.6
			c0,0.3,0,0.5-0.1,0.7c-0.3,1.8-1,3.3-0.4,4.4c0.2,0.5,0.4,0.9,0.6,1.4c0.2,0.5,0.2,1,0.3,1.5c0.1,0.5,0.1,1,0.1,1.5
			c0,0.5-0.1,1-0.1,1.5c-0.1,1-0.3,2-0.4,2.9c-0.1,0.4-0.1,0.9-0.2,1.3c0,0.5,0,1-0.1,1.5c0.1,2,0.2,4,0.3,6.1
			c0.1,2.1,0.1,4.3,0.1,6.5c0,2.2,0.3,4.5,0.4,6.8c0.2,2.3,0.3,4.7,0.5,7.1c0.2,2.3,0.5,4.9,0.4,7.5c0,0.7,0,1.3-0.1,2
			c0,0.7-0.2,1.4-0.3,2.1c-0.1,0.7-0.3,1.3-0.4,1.9l-0.1,0.4c0,0.1,0,0.1,0,0.2c0,0.1,0,0.1,0.1,0.2l0.1,0.1l0.1,0.1
			c0.1,0.1,0.2,0.2,0.3,0.3c0.2,0.2,0.4,0.5,0.7,0.8c0.2,0.3,0.5,0.6,0.7,1l0.5,1c0.3,0.7,0.6,1.4,0.7,2l0.1,0.5l0.1,0.3l0.1,0.2
			l0.3,1c1.4,5.3,2.1,10.9,2.7,16.5c0.2,1.4,0.3,2.8,0.5,4.2c0.2,1.4,0.4,2.8,0.6,4.2c0.4,2.8,0.9,5.7,1.2,8.6
			c0.2,1.5,0.4,2.9,0.6,4.4c0.1,1.5,0.3,3,0.4,4.5l0.2,2.3c0,0.8,0,1.5,0,2.2c0,1.5,0,3,0.1,4.5l0,0.3l0,0.3l0,0.6l-0.1,1.1
			l-0.2,2.3c-0.1,1.5-0.2,3.1-0.4,4.6c-0.2,1.5-0.4,3-0.6,4.5l-0.1,0.6l0,0.5c0,0.3-0.1,0.7-0.1,1l0,1.1l0,1.2
			c0.1,1.4-0.1,3.5-0.8,5c-0.6,1.6-1.3,2.9-1.8,4.2c-1,2.8-1.6,5.8-2.8,8.9c-0.6,1.5-1.3,3.1-2.4,4.5c-0.5,0.7-1.1,1.4-1.8,1.9
			c-0.3,0.3-0.7,0.6-1.1,0.8l-0.6,0.4c-0.2,0.1-0.4,0.2-0.5,0.3l-0.5,0.3l-0.3,0.1l-0.4,0.2l-1,0.5c-0.7,0.3-1.4,0.6-2.2,0.9
			c-1.5,0.6-3.2,1.2-5,1.2c-0.5,0-1,0-1.5-0.1c-0.4-0.1-0.8-0.2-1.2-0.2l-0.3-0.1c0.1,0-0.2-0.1-0.3-0.1l-0.1-0.1l-0.6-0.2l-1.2-0.4
			c-0.8-0.3-1.5-0.7-2.2-1l-1.1-0.5c-0.4-0.2-0.7-0.4-1.1-0.6c-0.7-0.4-1.5-0.8-2.1-1.3l-1-0.7l-0.5-0.3l-0.2-0.2l-0.2-0.1l-0.1-0.1
			c-1.4-1.1-2.6-2.4-3.5-3.8c-1.9-2.8-2.9-6.2-2.9-9.6l0.1-1.3c0.1-0.4,0.1-0.9,0.2-1.3c0.2-0.8,0.4-1.7,0.8-2.6
			c0.2-0.5,0.4-0.7,0.6-1.1l0.1-0.3l0.1-0.1l0.1-0.2l0.3-0.5c0.4-0.7,0.9-1.3,1.4-2c1-1.3,2.2-2.5,3.8-3.4c0.4-0.2,0.9-0.5,1.3-0.6
			l1.2-0.4c0.3-0.1,0.7-0.2,0.8-0.2l0,0c0,0-0.1,0-0.1,0.1c0,0-0.1,0.1-0.1,0.1c-0.1,0.1-0.1,0.1-0.1,0.2c0,0.2-0.1,0.2-0.1,0.3
			c0,0,0,0.1,0,0.1l0,0c-0.1-0.3-0.5-1.4-0.7-2.2l-0.2-1.3c-0.1-0.4-0.1-0.8-0.1-1.2c-0.1-0.8-0.1-1.5-0.2-2.2l-0.3-2.2
			c-0.2-1.5-0.4-2.9-0.6-4.4c-0.3-1.5-0.5-2.9-0.8-4.4l-0.4-2.2l-0.3-2.3c-0.1-0.8-0.1-1.5-0.1-2.3c0-0.8,0-1.5,0-2.3
			c0.1-1.5,0.1-2.9,0.2-4.4c0-0.8,0-1.2-0.1-1.9c-0.1-0.7-0.3-1.4-0.4-2.1c-0.1-0.4-0.1-0.8-0.1-1.3c0-0.4,0.1-1.1,0.1-1.5l0.1-0.5
			c0-0.1,0,0.1,0.1-0.3l0.1-0.2c0.1-0.1,0.1-0.2,0.2-0.4c0.3-0.4,0.6-0.7,0.8-1c0.5-0.5,0.9-1,0.9-1.2c0,0.2,0-0.2-0.3-0.6
			c-0.3-0.4-0.8-0.8-1.3-1.4c-0.1-0.2-0.3-0.3-0.4-0.5l-0.2-0.2c0,0-0.1-0.1-0.1-0.2l-0.1-0.1l-0.6-1c-0.4-0.7-0.9-1.3-1.1-1.9
			l-0.4-0.9l-0.2-0.5l-0.1-0.1c-0.1-0.2-0.1-0.1-0.1-0.2l-0.1-0.2c-1.1-2.6-1.9-5.3-2.6-7.9c-1.3-5.3-2.2-10.4-3.3-15.3
			c-0.5-2.5-1.1-4.9-1.6-7.3c-0.5-2.4-1-4.7-1.6-6.9c-0.3-1.1-0.6-2.2-0.8-3.3c-0.3-1.1-0.6-2.2-1-3.3c-0.3-1.1-0.6-2.1-0.9-3.2
			c-0.3-1-0.7-2-1-3c-0.3-1-0.6-2-0.9-3c-0.3-1-0.7-1.9-1-2.9c-0.7-1.9-1.3-3.7-2-5.5c-2.7-7.1-4.9-13.4-6.8-18.4
			c-0.5-1.3-1-2.5-1.4-3.6c-0.5-1.1-0.9-2.2-1.3-3.2c-0.8-2-1.5-3.6-2.1-4.9C294.5,365.9,293.8,364.5,293.8,364.5z"/>
		<path style="fill:#333333;" d="M308,185.3c-0.1,0.3-0.3,0.6-0.4,0.9c-0.1,0.3-0.2,0.6-0.2,0.9c0,0.3,0,0.6,0,1c0,0.3,0,0.6,0.1,1
			c0,0.3,0.1,0.6,0.1,0.9c0,0.3,0.1,0.6,0,0.9c-0.1,0.3-0.1,0.6-0.2,0.9c0,0.3-0.1,0.6-0.1,0.9c-0.1,0.6-0.1,1.2-0.1,1.8l-0.1,1
			l-0.1,0.9c0,0.6-0.1,1.2-0.1,1.8c0,0.3,0,0.6,0,0.8c0,0.1,0,0.3,0,0.3c0,0,0,0.1,0,0c0,0,0-0.1-0.1-0.1c0-0.1-0.1-0.2-0.2-0.2
			c-0.1-0.1-0.3-0.3-0.5-0.4l-1.1,2.8c-0.2-0.1-0.4-0.2-0.6-0.4c-0.1-0.1-0.2-0.2-0.2-0.3c0-0.1-0.1-0.1-0.1-0.2
			c-0.1-0.2-0.2-0.6-0.2-0.7c0-0.1,0-0.3,0-0.4l0-0.3c0-0.4,0.1-0.7,0.2-0.9c0.2-0.6,0.3-1.1,0.5-1.5c0.2-0.5,0.4-1,0.6-1.4l0.1-0.3
			l0.1-0.2l0,0l0-0.1l0.1-0.2l0.2-0.3c0.1-0.1,0.1-0.2,0.2-0.4c0.2-0.3,0.5-0.6,0.8-0.9c0.3-0.2,0.6-0.4,0.8-0.6
			c0.3-0.2,0.6-0.3,0.9-0.4c0.3-0.1,0.6-0.2,0.9-0.3c0.3-0.1,0.6-0.1,0.9-0.2c0.3,0,0.6-0.1,0.9-0.1c0.3,0,0.6,0,0.8,0l0.8,0l-0.1,3
			c-0.2,0-0.4-0.1-0.6-0.1c-0.2-0.1-0.2-0.1-0.3-0.2c-0.2-0.1-0.2-0.2-0.3-0.3c-0.1-0.2-0.2-0.3-0.3-0.4c-0.2-0.2-0.3-0.4-0.4-0.6
			c-0.2-0.4-0.4-0.7-0.5-1.1l-0.1-0.2l-0.1,0l-0.1,0V191h0c0,0,0,0.3,0,0.2v0l0.1,0l0-0.1l-0.3-0.5l-0.6-0.9l-0.6-0.9
			c-0.2-0.3-0.4-0.6-0.6-0.9l-1.2-1.8l2.5-0.1l-0.1,0.3c0,0.1-0.1,0.2-0.1,0.2c0,0,0,0,0,0c0,0,0,0,0,0c0,0,0-0.1,0-0.1
			c0-0.1,0,0,0-0.1c0-0.1,0-0.3-0.1-0.4c0-0.1-0.1-0.3-0.3-0.4c-0.1-0.1-0.3-0.2-0.4-0.3c-0.1-0.1-0.3-0.1-0.5-0.1
			c-0.1,0-0.2,0-0.2,0l-0.1,0c-0.1,0-0.3,0.1-0.3,0.1c0,0-0.1,0.1-0.1,0.1c0,0.1,0,0.1,0,0.1c0,0.1,0,0.1,0.1,0.2
			c0,0,0.1,0.1,0.1,0.1c0,0,0.1,0,0.1,0c0,0,0,0,0.1-0.1l1.4,0c-0.2,0.2-0.5,0.3-0.6,0.5c-0.1,0.1-0.2,0.2-0.2,0.3
			c0,0.1,0,0-0.1,0.1c0-0.1-0.2-0.1-0.2,0c0,0,0.2,0,0.3-0.1c0.1-0.1,0.2-0.2,0.2-0.3c0.1-0.1,0.1-0.3,0-0.4
			C308.2,185.5,308.1,185.4,308,185.3z M308,185.3c0.1,0.1,0.1,0.2,0.2,0.4c0,0.1,0,0.3,0,0.4c0,0.2-0.1,0.3-0.1,0.4
			c-0.1,0.1-0.1,0.3-0.4,0.4c0,0-0.2,0-0.3,0c-0.1,0-0.2-0.1-0.2-0.2c-0.1-0.1-0.1-0.3-0.1-0.4c0-0.2,0-0.4,0-0.6
			c0-0.3,0.1-0.7,0.1-1l0.2-1.3l1.2,1.3c0.1,0.1,0.2,0.2,0.2,0.3c0.1,0.1,0.1,0.2,0.2,0.4c0.1,0.3,0.2,0.6,0.1,0.8
			c0,0.3-0.1,0.6-0.2,0.9c-0.1,0.1-0.2,0.3-0.3,0.4c-0.1,0.1-0.2,0.1-0.3,0.2c-0.1,0.1-0.3,0.2-0.5,0.2c-0.1,0-0.1,0-0.1,0
			c-0.1,0-0.2,0-0.3,0c-0.2,0-0.4-0.1-0.6-0.1c-0.3-0.1-0.7-0.6-0.8-0.8c-0.1-0.2-0.1-0.4-0.1-0.6c0-0.2,0-0.2,0-0.3
			c0-0.1,0-0.2,0-0.3l0-0.2c0-0.1,0.1-0.2,0.1-0.3c0.1-0.2,0.2-0.3,0.3-0.5l0.2-0.4l1.1-2l1.4,1.9l1.3,1.8c0.2,0.3,0.4,0.6,0.6,0.9
			l0.6,0.9l0.6,0.9l0.3,0.5l0.1,0.1l0.1,0.2l0,0.1l0.1,0.3c0.2,0.3,0.3,0.6,0.5,0.9c0.1,0.1,0.1,0.3,0.2,0.3c0,0,0.1,0.1,0,0
			c0,0,0,0-0.1-0.1c-0.1,0,0,0-0.2-0.1c-0.2-0.1-0.3-0.1-0.5-0.1l-0.1,3l-0.7,0c-0.2,0-0.4,0-0.7,0c-0.2,0-0.4,0-0.6,0.1
			c-0.2,0-0.4,0-0.6,0.1c-0.2,0.1-0.4,0.1-0.5,0.2c-0.1,0.1-0.3,0.1-0.4,0.2c-0.1,0.1-0.2,0.2-0.4,0.3c-0.1,0.1-0.1,0.2-0.2,0.2
			c0,0-0.1,0.1-0.2,0.2l-0.2,0.3l-0.1,0.2l0,0.1l0,0l-0.1,0c0-0.1,0,0.1,0-0.1v0l0.1,0l0,0l-0.1,0.4c-0.2,0.4-0.4,0.9-0.5,1.3
			c-0.2,0.4-0.3,0.9-0.4,1.3c-0.1,0.2-0.1,0.4-0.1,0.5l0,0.1c0,0,0,0,0-0.1c0,0,0-0.2-0.1-0.3l-0.1-0.1c0-0.1-0.1-0.1-0.2-0.2
			c-0.1-0.1-0.3-0.2-0.4-0.3l-1.1,2.8c-0.2-0.1-0.5-0.3-0.6-0.5c-0.1-0.1-0.2-0.2-0.2-0.3c-0.1-0.1-0.1-0.3-0.1-0.4
			c-0.1-0.2-0.1-0.3-0.1-0.4c0-0.2,0-0.4,0-0.6c0-0.4,0-0.7,0-1c0-0.7,0.1-1.3,0.1-1.9l0.1-1.8c0-0.7,0.1-1.3,0.1-2
			c0-0.3,0.1-0.7,0.1-1c0.1-0.3,0.1-0.7,0.1-1c0-0.3,0.2-0.6,0.4-1c0.2-0.3,0.4-0.6,0.6-0.9c0.2-0.3,0.5-0.6,0.7-0.8
			c0.2-0.3,0.5-0.5,0.7-0.8c0.2-0.2,0.4-0.5,0.6-0.8C307.7,185.8,307.9,185.5,308,185.3z"/>
		<path style="fill:#333333;" d="M316.9,192.6c0.9,0.8,1.8,1.5,2.8,2.2l1.5,1c0.3,0.2,0.5,0.4,0.8,0.6c0.3,0.2,0.5,0.4,0.8,0.6
			l0.1,0.1l0,0l0,0l0,0c0,0,0-0.1,0,0.1l0,0l0,0l0.2,0.2c0.1,0.1,0.2,0.2,0.3,0.3l0.6,0.7c0.2,0.2,0.4,0.5,0.5,0.8
			c0.2,0.3,0.3,0.6,0.4,0.9l0.4,0.8l0.4,0.8l0.9,1.3l-2.2-0.2c1.7-1.4,3.3-2.9,4.9-4.3l2.3-2.2c0.8-0.8,1.5-1.5,2.2-2.3l0.1-0.1l0,0
			l0,0l0,0c0,0,0-0.1,0,0l0.1-0.1l0.3-0.3l0.5-0.6l1-1.3c0.7-0.9,1.1-1.7,1.7-2.6l0.2-0.3l0.1-0.2l0,0l0,0c0,0-0.2,0.3-0.1,0.2l0,0
			l0-0.1l0.2-0.4c0-0.1,0.1-0.3,0.1-0.3c0-0.1,0-0.1,0-0.3c0-0.2,0-0.3,0-0.5c-0.1-0.8-0.5-1.7-1-2.7c-0.2-0.5-0.5-1.1-0.7-1.6
			l-0.1-0.2c0,0,0,0.1,0.3,0.3c0.3,0.2,0.7,0.1,0.7,0.1c0.1,0,0,0-0.1,0l-2.6,1.8c-0.9,0.6-1.9,1.2-2.9,1.8c-1,0.6-2,1.1-2.9,1.6
			l-5.8,3.1l-2.9,1.6c-0.5,0.3-1,0.5-1.5,0.7c-0.5,0.2-1.1,0.4-1.6,0.5l0.2-1.8l0.2,0.2c0,0.1,0.1,0.1,0.1,0.2c0,0,0,0,0,0.1
			c0,0-0.1,0-0.1,0.1c0,0-0.1,0.1-0.2,0.2c0,0.1-0.1,0.2-0.1,0.2c0,0.1,0,0.1,0.1,0.2c0,0,0.1,0.1,0.1,0.1c0,0,0.1,0,0,0
			c0,0,0,0-0.1,0c-0.1-0.1-0.4,0-0.7,0l0.1-0.6c0.2,0.2,0.4,0.4,0.6,0.6c0.2,0.1,0.5,0.1,0.6-0.1c0-0.1,0-0.2-0.1-0.3
			c-0.1-0.1-0.3-0.1-0.4-0.1C317.5,192.3,317.2,192.4,316.9,192.6z M316.9,192.6c0.3-0.1,0.5-0.3,0.9-0.3c0.2,0,0.3,0,0.5,0.1
			c0.1,0,0.1,0.1,0.2,0.2c0.1,0.1,0.1,0.2,0.1,0.3c0,0.1,0,0.2-0.1,0.3c0,0.1-0.1,0.1-0.2,0.2c-0.2,0.1-0.4,0.1-0.6,0.1
			c-0.4-0.1-0.7-0.2-1-0.4l-0.4-0.2l0.5-0.3c0.3-0.2,0.5-0.4,1-0.5c0.1,0,0.2,0,0.4,0c0.1,0,0.3,0.1,0.4,0.1
			c0.1,0.1,0.3,0.2,0.4,0.4c0.1,0.2,0.2,0.4,0.2,0.6c0,0.2-0.1,0.4-0.2,0.6c-0.1,0.2-0.3,0.3-0.5,0.4c-0.2,0.1-0.4,0.1-0.5,0.1
			c-0.2,0-0.3,0-0.4,0c-0.3-0.1-0.4-0.1-0.7-0.2c-0.2-0.1-0.3-0.2-0.5-0.3l-1.1-0.7l1.3-1.1c0.4-0.4,0.9-0.7,1.3-1
			c0.4-0.4,0.9-0.6,1.4-0.9l2.9-1.5l5.8-3.1l1.4-0.8c0.5-0.3,0.9-0.5,1.4-0.8c0.9-0.5,1.8-1,2.7-1.7l1.4-0.9l0.7-0.5
			c0.2-0.1,0.5-0.3,0.8-0.5c0.2-0.1,0.4-0.2,0.7-0.3c0.3-0.1,0.9-0.2,1.5,0.1c0.6,0.3,0.7,0.7,0.9,0.9c0.1,0.2,0.2,0.4,0.3,0.5
			c0.2,0.6,0.4,0.9,0.6,1.5c0.4,1,1,2.1,1.2,3.5c0.1,0.3,0.1,0.7,0.1,1.1c0,0.4-0.1,0.9-0.2,1.3c-0.1,0.3-0.1,0.3-0.2,0.5l-0.2,0.4
			l0,0.1l0,0l-0.1,0.2l0,0l0,0l-0.1,0.2l-0.2,0.4c-0.6,1-1.3,2-2,2.9l-1,1.3l-0.5,0.6l-0.3,0.3l-0.1,0.1l-0.1,0.1l-0.1,0.2
			c-0.8,0.8-1.5,1.6-2.3,2.4l-2.4,2.3c-1.7,1.5-3.3,2.9-5,4.4l-1.3,1.1l-0.9-1.3c-0.4-0.5-0.7-1.1-1.1-1.6l-0.4-0.8l-0.4-0.8
			c-0.1-0.2-0.3-0.5-0.4-0.7c-0.1-0.2-0.2-0.5-0.3-0.8l-0.4-0.8c-0.1-0.1-0.1-0.3-0.2-0.4l-0.1-0.2l0,0l0,0c0.1,0.1,0,0,0,0.1l0,0
			l0,0l0,0l0-0.1c-0.3-0.5-0.5-1-0.8-1.5c-0.3-0.5-0.6-1-0.9-1.5C318.6,194.3,317.8,193.4,316.9,192.6z"/>
		<path style="fill:#333333;" d="M190.7,164.6l-2,1.4c-0.7,0.5-1.4,0.9-2.1,1.4l-2.1,1.4c-0.7,0.5-1.3,0.9-1.8,1.5
			c-0.1,0.1-0.2,0.3-0.3,0.4c-0.1,0.1-0.1,0.2-0.1,0.3l0,0l-0.1,0c0-0.2-0.1-0.1-0.1-0.1v0v0c0,0,0.1,0.1,0.1-0.1c0-0.1,0-0.2,0-0.3
			c-0.2-0.3-0.3-0.3-0.2-0.3c0,0,0.2,0,0.3,0c0.7-0.1,1.5-0.3,2.3-0.5c0.4-0.1,0.8-0.2,1.2-0.4l1.1-0.4l2.3-0.9
			c0.8-0.3,1.6-0.6,2.4-0.8l2.3-0.9c1.5-0.6,3-1.2,4.6-1.8c0.7-0.3,1.5-0.7,2.1-1c0.7-0.4,1.3-0.7,1.9-1.2l0.4-0.3l0.4-0.4
			c0.2-0.2,0.5-0.5,0.7-0.8c0.2-0.3,0.4-0.5,0.6-0.8l0.5-0.9l1.3-2.7l1.4,2.5l3.9,7c0.7,1.2,1.3,2.4,1.9,3.6
			c0.6,1.2,1.2,2.4,1.7,3.7l0.8,1.9l0.4,0.9l0,0.1l0,0.1l0,0l0,0.1l0.1,0.2l0,0.1l0,0.2l0.1,0.4c0.1,1.1,0.1,1.8,0.1,2.3
			c0,0.1,0.2,0.2,0.2,0.3v0v0c0,0-0.3-0.2-0.2-0.1l-0.1,0.1l0,0.2l0,0.1l0,0c0,0,0,0.1,0,0.1c0,0,0.1,0.2,0.1,0.3
			c0.2,0.4,0.5,1,0.9,1.5c0.2,0.3,0.4,0.5,0.6,1l0.5,0.9c0.7,1.4,1.1,2.7,1.6,3.8c0.5,1.1,1.1,2,1.9,2.7c0.5,0.5,1,0.8,1.5,1.2
			c0.5,0.4,1.1,0.9,1.7,1.4c0.5,0.5,1.1,1.1,1.5,1.8l0.3,0.5l0,0.1c0,0,0.1,0.1-0.1-0.1l0,0l0.1,0.1c0,0.1,0.1,0.1,0.1,0.2
			c0.1,0,0,0,0.1,0.1c0.1,0.1,0.2,0.1,0.3,0.2c0.8,0.6,2.1,1,3.2,1.4c0.6,0.2,1.2,0.3,1.8,0.5l0.4,0.1l0.1,0l0.1,0l0,0
			c0,0,0.1,0-0.1,0l0.3,0c0.3,0,0.7,0.1,0.9,0c0.5,0,1.1-0.1,1.8-0.1c0.6-0.1,1.3-0.2,2.1-0.2c0.4,0,0.7,0,1.1,0
			c0.4,0,0.8,0,1.2,0.1l1,0.2c0.3,0.1,0.7,0.2,0.9,0.2c1,0.1,2.4,0.1,3.8,0.2l1.1,0.1l1.1,0.2c0.4,0.1,0.7,0.2,1.1,0.3
			c0.4,0.1,0.7,0.2,1,0.3c1.2,0.4,2.4,0.7,3.6,0.7l0.8,0c0.3,0,0.5,0,0.8-0.1l1.8-0.5c1.2-0.4,2.8-0.6,4-0.9
			c0.6-0.1,1.3-0.2,1.9-0.4c0.6-0.2,1.2-0.3,1.8-0.5c1.3-0.4,2.6-0.8,3.7-1.3c0.6-0.2,1.2-0.4,1.7-0.7l0.8-0.4l0.1-0.1l0,0
			c0,0-0.2,0.1-0.1,0.1l0,0l0.2-0.2l0.4-0.3c0.2-0.2,0.2-0.3,0.4-0.5c0.2-0.2,0.3-0.4,0.5-0.7c0.3-0.5,0.6-1.1,1.1-1.7
			c0.4-0.6,1-1.3,1.7-1.8l0.1-0.1l0.2-0.1l0.1-0.1l0.2-0.1l0.4-0.3c0.3-0.2,0.5-0.4,1-0.5l1.1-0.5c0.4-0.2,0.7-0.2,1.1-0.3
			c0.7-0.2,1.5-0.3,2.2-0.4c0.7-0.1,1.5-0.1,2.2-0.1c0.7,0.1,1.4,0.1,2.1,0.3c0.7,0.1,1.4,0.3,2.1,0.5c0.3,0.1,0.7,0.2,1,0.3
			c0.3,0.1,0.6,0.2,1,0.3c2.6,0.9,5,2,7.6,2.5c1.3,0.3,2.6,0.4,3.8,0.3c1.3-0.1,2.5-0.6,3.6-1.4c-0.9,1-2.2,1.7-3.5,2
			c-1.3,0.4-2.8,0.4-4.1,0.3c-2.8-0.2-5.4-1-8-1.5c-2.6-0.5-5.1-0.6-7.5-0.5c-0.6,0.1-1.2,0.1-1.8,0.3c-0.3,0.1-0.6,0.1-0.8,0.2
			c-0.2,0.1-0.5,0.2-0.7,0.3c-0.2,0-0.5,0.3-0.8,0.4l-0.4,0.3l-0.2,0.1l-0.1,0.1l0,0c0,0-0.1,0.1,0.1-0.1l0,0
			c-0.4,0.3-0.7,0.6-1,1.1c-0.3,0.5-0.6,1-1,1.7c-0.2,0.3-0.4,0.6-0.7,0.9c-0.3,0.3-0.7,0.7-1,1l-0.4,0.3l-0.2,0.2l0,0
			c0.1-0.1-0.2,0.1-0.1,0.1l-0.1,0l-0.1,0.1l-1,0.5c-0.7,0.4-1.3,0.6-2,0.8c-1.3,0.5-2.6,0.9-3.9,1.3c-0.6,0.2-1.4,0.4-2,0.6
			c-0.7,0.2-1.4,0.3-2,0.4l-1.9,0.4l-0.9,0.2l-1,0.3l-2,0.5c-0.4,0.1-0.8,0.1-1.2,0.2c-0.4,0-0.8,0-1.2,0c-1.5-0.1-2.9-0.4-4.3-0.8
			c-0.3-0.1-0.7-0.2-0.9-0.3c-0.3-0.1-0.5-0.1-0.8-0.2l-0.9-0.1l-0.9-0.1c-1.3-0.1-2.6,0-4.2-0.2c-0.4,0-0.7-0.1-1.1-0.2l-0.6-0.1
			l-0.4-0.1c-0.2-0.1-0.5-0.1-0.8-0.1c-0.3,0-0.6,0-0.9,0c-0.6,0-1.2,0.1-1.9,0.2c-0.7,0.1-1.4,0.2-2.2,0.2c-0.5,0-0.7,0-1.1-0.1
			l-0.3,0l-0.4-0.1l-0.5-0.1c-0.7-0.1-1.4-0.3-2.1-0.5c-1.4-0.4-2.7-0.9-4.1-1.8c-0.2-0.1-0.3-0.3-0.5-0.4c-0.2-0.1-0.4-0.4-0.6-0.6
			l-0.2-0.2l-0.1-0.1l-0.1-0.2l-0.2-0.3c-0.3-0.5-0.7-0.9-1.1-1.3c-0.4-0.4-0.9-0.8-1.4-1.2c-0.5-0.4-1.1-0.9-1.6-1.3
			c-1.3-1.1-2.1-2.5-2.7-3.8c-0.6-1.3-1-2.6-1.5-3.6l-0.5-0.9l-0.5-0.7c-0.4-0.6-0.8-1.2-1.2-1.9c-0.1-0.2-0.2-0.4-0.3-0.7l-0.1-0.4
			l0-0.2l0-0.1l0-0.2l0.2-0.1l0.2-0.2v0v-0.1c0-0.2-0.2-0.5-0.2-0.7c0.1-0.8,0.1-1.4,0.1-1.7c0,0-0.1,0-0.1-0.1c0,0,0,0,0,0
			l-0.1-0.1l-0.1-0.2l0-0.1l0,0c0,0,0.1,0.2,0,0.1l0-0.1l-0.4-0.9l-0.8-1.8c-0.5-1.2-1.1-2.4-1.7-3.6c-0.6-1.2-1.2-2.4-1.8-3.5
			l-3.9-7l2.7-0.2l-0.7,1.3c-0.2,0.4-0.6,0.8-0.8,1.2c-0.3,0.4-0.6,0.7-1,1.1l-0.5,0.5l-0.6,0.4c-0.7,0.6-1.5,1-2.3,1.5
			c-0.8,0.4-1.6,0.8-2.4,1.1c-1.5,0.7-3.2,1.3-4.7,1.9l-2.4,1c-0.8,0.3-1.6,0.5-2.4,0.7l-2.4,0.6l-1.3,0.3c-0.4,0.1-0.9,0.2-1.3,0.2
			c-0.9,0.1-1.7,0.2-2.7,0.2c-0.3,0-0.5,0-0.9-0.2c-0.2-0.1-0.5-0.2-0.8-0.6c-0.1-0.1-0.1-0.3-0.1-0.4c0-0.2,0-0.2,0-0.2l0-0.2
			l0-0.1l0-0.1c0.1-0.3,0.3-0.6,0.5-0.8c0.2-0.2,0.4-0.4,0.6-0.5c0.8-0.6,1.5-1,2.3-1.4l2.3-1c0.8-0.3,1.5-0.7,2.3-1L190.7,164.6z"
			/>
		<path style="fill:#333333;" d="M181.3,171.8c0,0,1,1.2,2.8,3.4c0.9,1.1,1.9,2.4,3.1,4c0.6,0.8,1.2,1.6,1.9,2.5
			c0.7,0.9,1.1,1.9,1.8,2.9c1.2,2,2.6,4.2,4,6.6c0.7,1.2,1.4,2.4,2.2,3.6c0.7,1.2,1.5,2.5,2.2,3.8c0.8,1.3,1.5,2.6,2.3,3.9
			c0.4,0.7,0.8,1.3,1.2,2l0.3,0.5l0.2,0.3l0.1,0.3c0.2,0.3,0.4,0.7,0.5,1c0.7,1.5,1.3,2.9,2.1,4.1c0.8,1.2,1.7,2.1,2.8,2.7l2.1,1.1
			c0.7,0.4,1.4,0.6,2.1,0.9c0.7,0.3,1.4,0.6,2.1,0.9c0.7,0.3,1.4,0.6,2.2,0.8c2.9,1.1,5.8,1.9,8.6,2.8c2.9,0.8,5.6,1.6,8.2,2.3
			c1.3,0.4,2.6,0.7,3.8,1c1.2,0.3,2.4,0.6,3.6,0.9c1.1,0.3,2.3,0.5,3.3,0.8c1,0.3,2,0.7,2.9,1c0.9,0.3,1.8,0.6,2.6,0.9
			c0.8,0.2,1.5,0.4,2.2,0.6c2.7,0.8,4.2,1.3,4.2,1.3s-1.6,0-4.4-0.2c-0.7,0-1.5-0.1-2.3-0.1c-0.8-0.1-1.8-0.2-2.7-0.3
			c-1-0.1-2-0.2-3.1-0.3c-0.6,0-1.1-0.2-1.6-0.3c-0.6-0.2-1.1-0.3-1.7-0.4c-1.2-0.3-2.4-0.6-3.6-0.9c-1.2-0.3-2.5-0.7-3.8-1.1
			c-2.6-0.7-5.4-1.5-8.3-2.3c-2.9-0.9-5.8-1.7-8.8-2.8c-0.8-0.3-1.5-0.6-2.2-0.9c-0.7-0.3-1.5-0.6-2.2-0.9c-0.7-0.3-1.5-0.6-2.2-1
			l-2.1-1.1c-1.7-0.9-3.1-2.3-4-3.8c-0.9-1.5-1.6-3-2.3-4.3c-0.2-0.3-0.4-0.7-0.5-1l-0.1-0.3c0,0-0.1-0.1,0-0.1l-0.1-0.1l-0.3-0.5
			c-0.4-0.7-0.8-1.3-1.2-2c-0.8-1.3-1.5-2.6-2.3-3.9c-0.8-1.3-1.5-2.5-2.2-3.8c-0.7-1.2-1.5-2.4-2.2-3.6c-1.4-2.3-2.8-4.5-4-6.6
			c-0.6-1-1.3-1.9-1.8-2.9c-0.5-1-0.9-1.9-1.3-2.8c-0.8-1.8-1.5-3.3-2.1-4.6C181.9,173.3,181.3,171.8,181.3,171.8z"/>
		<path style="fill:#333333;" d="M259.3,209.9c0,0,0,0.2,0.1,0.5c0.1,0.3,0.2,0.7,0.2,1.3c0.2,1.2,0.2,3,0,5.2
			c-0.2,2.2-0.5,4.9-0.8,7.9c-0.2,1.5-0.4,3.2-0.6,4.9c-0.1,0.4-0.1,0.9-0.2,1.3c-0.1,0.5-0.2,0.9-0.3,1.4c-0.2,0.9-0.4,1.8-0.6,2.7
			c-0.8,3.7-1.6,7.7-2.7,11.9c-1,4.2-2.1,8.7-3.2,13.3c-1.1,4.6-2.3,9.3-3.4,14.2c-1.1,4.8-2.3,9.7-3.4,14.6
			c-1.1,4.9-2.3,9.8-3.2,14.7c-0.6,2.4-1,4.9-1.8,7.3c-0.8,2.4-1.5,4.5-1.8,6.7c-0.1,0.5-0.1,1.1-0.1,1.6c0,0.6,0,1.2,0,1.7
			c0,1.2,0,2.4-0.2,3.6c-0.1,0.6-0.2,1.3-0.4,1.9l-0.3,0.9l-0.3,0.8c-0.2,0.4-0.3,0.9-0.3,1.3c0,0.4,0.1,0.5,0,0.5
			c-0.1-0.1,0,0,0.4,0.1l0.3,0l0.3,0c0.2,0,0.6,0,0.7-0.1l0.6-0.1l0.6-0.2c0.4-0.2,0.8-0.3,1.2-0.5c1.6-0.8,3.1-2,4.6-3.1
			c1.5-1.1,2.8-2.5,4.5-3.3c0.5-0.3,0.8-0.4,1.2-0.6c0.4-0.2,0.8-0.4,1.3-0.5c0.8-0.3,1.6-0.6,2.4-0.8c1.6-0.4,3.1-0.7,4.6-0.6
			c0.4,0.1,0.7,0.1,1.1,0.2l0.1,0c0,0,0.1,0,0.1,0l0,0l0.1,0l0.2,0.1c0.1,0,0.4,0.2,0.5,0.3c0.6,0.4,1.1,0.8,1.5,1.3
			c1.4,1.7,2.7,2.9,3.6,3.5c0.5,0.4,0.9,0.6,1.1,0.8c0.3,0.2,0.4,0.3,0.4,0.3s-0.1-0.1-0.4-0.2c-0.3-0.1-0.7-0.3-1.2-0.6
			c-1.1-0.5-2.6-1.5-4.2-3c-0.4-0.3-0.9-0.7-1.3-0.8c-0.1,0-0.2-0.1-0.3-0.1l-0.2,0l-0.1,0l0,0.2c-0.1,0,0.1,0.2,0,0.2h-0.1
			c-0.3,0-0.6-0.2-0.8-0.2c-1.2,0.1-2.5,0.4-3.8,1c-2.8,1.1-5.1,3-8.2,5.4c-1.5,1.2-3.1,2.5-5.1,3.5c-0.5,0.3-1,0.5-1.6,0.7
			l-0.9,0.3c-0.3,0.1-0.6,0.1-1,0.2c-0.4,0.1-0.6,0.1-0.8,0.1l-0.2,0l-0.1,0l0,0l-0.1,0l-0.5,0c-0.4,0-0.8-0.1-1.2-0.3
			c-0.4-0.2-0.9-0.5-1.3-0.9c-0.7-0.9-0.7-1.9-0.7-2.6c0.1-0.7,0.2-1.4,0.4-2l0.3-0.8l0.2-0.7c0.1-0.5,0.2-0.9,0.3-1.5
			c0.1-1,0.1-2.1,0.1-3.3c0-0.6,0-1.2,0-1.8c0.1-0.7,0.1-1.3,0.2-1.9c0.4-2.5,1.2-4.9,1.9-7.2c0.8-2.2,1.2-4.6,1.7-7
			c0.9-4.9,2.1-9.8,3.2-14.7c1.1-4.9,2.3-9.8,3.4-14.7c1.2-4.8,2.3-9.6,3.4-14.2c1.1-4.6,2.2-9,3.2-13.2c1-4.2,1.9-8.2,2.7-11.9
			c0.2-0.9,0.4-1.8,0.6-2.7c0.1-0.4,0.2-0.8,0.2-1.3c0.1-0.4,0.2-0.9,0.3-1.3c0.4-1.7,0.8-3.3,1.2-4.8c0.8-3,1.4-5.6,2-7.7
			c0.5-2.1,0.8-3.8,0.8-5c0.1-0.6,0-1,0-1.3C259.3,210,259.3,209.9,259.3,209.9z"/>
		<path style="fill:#333333;" d="M238.5,309c0,0,0.2-0.5,0.6-1.4c0.4-0.9,1-2.2,1.8-3.9c0.8-1.7,1.8-3.7,3-6c0.6-1.1,1.3-2.3,2-3.6
			c0.4-0.6,0.8-1.2,1.3-1.8c0.5-0.6,0.9-1.3,1.4-1.9c1-1.3,2-2.6,3.1-3.9c0.6-0.7,1.1-1.3,1.7-2c0.6-0.7,1.2-1.3,1.9-2
			c0.3-0.3,0.6-0.7,1-1c0.3-0.3,0.7-0.6,1-0.9c0.7-0.6,1.4-1.3,2.1-1.9c1.4-1.3,2.9-2.6,4.3-3.9c1.5-1.3,2.7-2.8,4-4.2l0.8-1.2
			c0.3-0.4,0.5-0.8,0.8-1.2c0.5-0.8,0.9-1.7,1.3-2.6c0.8-1.8,1.5-3.8,2.1-5.7l1-3l0.3-0.8l0.3-0.8l0.6-1.5c3-7.9,5.9-15.7,8.7-23.1
			c1.4-3.7,2.7-7.2,4.1-10.7c0.3-0.8,0.7-1.7,1-2.5c0.4-0.8,0.7-1.6,1.1-2.4c0.7-1.6,1.5-3.1,2.3-4.5c0.4-0.7,0.8-1.4,1.2-2
			c0.4-0.7,0.8-1.3,1.3-1.9l0.2-0.2l0-0.1l0-0.1l0,0l0.1-0.1l0.4-0.4c0.2-0.3,0.5-0.5,0.7-0.8c0.5-0.5,0.9-1,1.4-1.4
			c0.9-0.9,1.7-1.8,2.5-2.6c0.8-0.9,1.6-1.5,2.3-2.1c1.4-1.2,2.5-2.1,3-2.9c0.3-0.4,0.6-0.7,0.7-1c0.1-0.2,0.3-0.4,0.3-0.4
			s0,0.1,0,0.4c0,0.3-0.3,0.6-0.5,1.1c-0.4,0.9-1.4,2.2-2.6,3.6c-0.6,0.7-1.3,1.5-1.9,2.4c-0.6,0.9-1.3,1.9-2,3
			c-1.5,2.1-2.9,4.5-4.6,7.1c-0.7,1.4-1.5,2.7-2.2,4.3c-0.3,0.8-0.7,1.5-1,2.3c-0.3,0.8-0.7,1.6-1,2.5c-1.3,3.3-2.6,6.9-4,10.6
			c-2.8,7.4-5.8,15.2-8.7,23.1l-0.6,1.5c-0.1,0.2-0.2,0.5-0.3,0.7l-0.3,0.7l-1,3c-0.7,2-1.4,4-2.2,6c-0.5,1-0.9,2-1.5,2.9
			c-0.3,0.5-0.6,1-0.9,1.4l-0.4,0.6l-0.2,0.3l-0.1,0.2l-0.1,0.1l-0.1,0.1l0,0c-1.4,1.6-2.7,3.2-4.2,4.5c-1.5,1.4-2.9,2.7-4.3,3.9
			c-0.7,0.6-1.4,1.3-2.1,1.9c-0.3,0.3-0.7,0.6-1,0.9c-0.3,0.3-0.6,0.6-0.9,0.9c-0.6,0.6-1.2,1.3-1.8,1.9c-0.6,0.7-1.1,1.3-1.6,1.9
			c-1.1,1.2-2,2.6-3,3.8c-1,1.2-1.7,2.5-2.6,3.6c-0.9,1.1-1.7,2.2-2.5,3.2c-1.5,2.1-2.9,3.8-4,5.3C239.8,307.3,238.5,309,238.5,309z
			"/>
		<path style="fill:#333333;" d="M298.9,192.2c-1.2,0.5-2.5,0.9-3.7,1.4c-1.2,0.4-2.5,0.9-3.7,1.3l0.9-1.4c0.4,1,0.8,1.9,1.1,2.9
			l0.7,1.7l-2,0.2l-4.8,0.4c-0.7,0.1-1.8,0.2-1.9,0.2c-0.3,0.1-0.6,0.4-0.8,1c-0.3,0.6-0.5,1.2-0.7,2l-0.3,1.2l-0.4,1.1l-1.4,4.5
			l-1.4,4.5l-1.1,4.5l-1.1,4.5l-0.1,0.6c0,0.1-0.1,0.4-0.1,0.5l-0.2,1.2l-0.4,2.3l-0.9,4.7c-0.3,1.6-0.5,3.1-0.7,4.7l-0.6,4.7
			l-0.3,2.3c-0.1,0.8-0.1,1.6-0.2,2.3l-0.3,4.7c0,0.8-0.1,1.6-0.1,2.4c0,0.8-0.2,1.6-0.3,2.3c-0.4,3.1-0.9,6.3-1.5,9.4
			c-0.5-3.2-0.8-6.3-1.2-9.5c-0.3-1.6,0.1-3.2,0.1-4.8l0.3-4.8c0.1-0.8,0.1-1.6,0.2-2.4l0.3-2.4l0.6-4.8c0.2-1.6,0.4-3.2,0.7-4.7
			l0.9-4.7l0.4-2.3l0.2-1.2c0-0.2,0.1-0.3,0.1-0.6l0.1-0.6l1.2-4.7l1.2-4.7l1.4-4.5l1.4-4.5l0.4-1.1l0.3-1.1
			c0.2-0.8,0.5-1.6,0.9-2.5c0.4-0.8,1.1-1.9,2.3-2.4c0.2-0.1,0.4-0.1,0.5-0.2l0.3-0.1l0.1,0l0.3,0l0.4,0l1.2-0.1l4.7-0.5l-1.3,1.9
			c-0.1-1-0.3-2.1-0.4-3.1l-0.2-1.3l1-0.1c1.3-0.1,2.6-0.2,3.9-0.2C296.2,192.2,297.5,192.2,298.9,192.2z"/>
		<path style="fill:#333333;" d="M312.8,192.6c1.5,0.2,2.9,0.5,4.3,1c0.4,0.1,0.7,0.3,1,0.5c0.3,0.2,0.7,0.4,1,0.7
			c0.3,0.3,0.6,0.6,0.8,0.9c0.2,0.4,0.4,0.8,0.4,1.2l0,0.3c0,0.1,0,0.1,0,0.2l0,0.1c0,0.2,0,0.4-0.1,0.6c-0.1,0.4-0.2,0.8-0.4,1.2
			c-0.4,0.7-0.9,1.4-1.4,1.9c-1,1.1-2.2,2.1-3.2,3.1l-0.8,0.8l-0.7-1c-1.3-1.8-3-3.5-4.9-3.6c-0.2,0-0.5-0.1-0.7,0l-0.6,0.1
			c-0.1,0-0.3,0.1-0.4,0.1c0,0-0.1,0.1-0.1,0.1c-0.2,0.1-0.3,0.2-0.4,0.4c-0.6,0.6-1,1.5-1.4,2.6c-1.7,4.5-3.8,8.9-5.3,13.4
			l-0.5,1.7l-0.4,1.7c-0.3,1.1-0.5,2.3-0.7,3.5c-0.4,2.4-0.8,4.8-1.3,7.2l-2.7,14.3l-5.5,28.5l-1.4,7.1l-1.4,7.2l-0.7,3.6l-0.4,1.8
			l-0.2,0.9l-0.1,0.8c0,0.3-0.1,0.6-0.1,0.9l0,0.7c0,0.2,0,0.5,0.1,0.7c0,0.2,0,0.5,0.1,0.7c0.2,0.9,0.8,1.8,1.4,2.7
			c0.4,0.4,0.7,0.9,1.1,1.3l0.6,0.6c0.2,0.2,0.5,0.6,0.7,0.8c0.4,0.5,0.7,0.9,0.9,1c0.1,0.1,0.1,0.1,0,0c-0.1,0-0.1,0-0.2,0
			c0,0,0,0,0,0c0,0,0.1-0.1,0.2-0.1l3-2.1l1.5-1c0.5-0.3,1.1-0.7,1.6-1c1-0.6,2-1.2,2.7-1.8l0.2-0.2l0-0.1l0,0
			c0,0.1,0.1-0.2-0.1,0.1l0.1-0.2l0.1-0.2c0-0.1,0.1-0.1,0.1-0.1c0-0.1,0-0.1,0-0.2c0.1-0.4,0.2-0.9,0.2-1.5c0-0.6,0-1.2,0.1-1.9
			c0-0.4,0.1-0.7,0.1-1l0.1-0.9l0.4-3.6l3.5-28.8l1.7-14.4c0.3-2.4,0.5-4.8,0.9-7.2l0.5-3.6c0.2-1.2,0.5-2.4,0.7-3.6l1.5-7.1
			l0.7-3.6l0.6-3.6l1.1-7.2c0.2-1.2,0.5-2.5,1.2-3.5c0.7-1,1.7-1.8,2.2-2.9c-0.5,1.1-1.3,2-1.9,3.1c-0.5,1-0.7,2.2-0.8,3.4l-0.4,7.3
			l-0.2,3.6l-0.4,3.6l-0.8,7.2c-0.1,1.2-0.3,2.4-0.4,3.6l-0.6,3.6c-0.3,2.3-0.6,4.8-0.9,7.2l-1.7,14.4l-3.5,28.8l-0.4,3.6l-0.1,0.9
			c0,0.3-0.1,0.6-0.1,0.8c0,0.5,0,1.1-0.1,1.7c0,0.6-0.1,1.3-0.3,2.1c-0.1,0.2-0.2,0.5-0.3,0.7c-0.1,0.1-0.1,0.2-0.1,0.3l-0.1,0.2
			l-0.1,0.2c-0.2,0.3-0.1,0.1-0.1,0.2l0,0.1l-0.1,0.1l-0.4,0.5c-1.1,1.1-2.2,1.7-3.3,2.3c-0.5,0.3-1,0.6-1.5,0.9l-1.5,1l-3,2.1
			c-0.1,0.1-0.1,0.1-0.2,0.2c-0.1,0.1-0.3,0.2-0.4,0.2c-0.3,0.1-0.7,0.2-1,0.2c-0.7,0-1.3-0.3-1.7-0.6c-0.8-0.6-1.2-1.1-1.5-1.6
			c-0.2-0.3-0.3-0.4-0.5-0.6l-0.6-0.7c-0.4-0.5-0.8-1-1.2-1.5c-0.8-1.1-1.6-2.3-1.9-3.7c-0.1-0.3-0.1-0.7-0.2-1.1
			c0-0.4-0.1-0.7-0.1-1.1l0-1.1c0-0.4,0.1-0.6,0.1-0.9l0.2-1l0.2-0.9l0.4-1.8l0.7-3.6l1.4-7.1l1.4-7.1l5.5-28.5l2.7-14.3
			c0.5-2.4,0.9-4.7,1.3-7.1c0.2-1.2,0.4-2.4,0.7-3.7l0.4-1.9l0.5-1.7c1.6-4.8,3.7-9.1,5.3-13.7c0.5-1.2,1.2-2.5,2.4-3.5
			c0.3-0.3,0.7-0.5,1-0.7c0.2-0.1,0.5-0.2,0.7-0.3c0.2,0,0.3-0.1,0.5-0.1l0.1,0c0.2,0,0.1,0,0.2,0l0.1,0l0.3,0l0.6,0
			c0.4,0,0.7,0,1.1,0.1c1.5,0.3,2.8,1,3.7,2c1,0.9,1.8,2,2.4,3.1L314,203c1.2-1,2.4-1.8,3.4-2.7c0.5-0.5,1-1,1.3-1.5
			c0.2-0.3,0.3-0.6,0.4-0.8c0.1-0.1,0.1-0.3,0.1-0.5l0-0.1c0,0,0-0.1,0-0.1l0-0.2c0-0.6-0.3-1.2-0.8-1.7c-0.2-0.2-0.5-0.5-0.8-0.7
			c-0.3-0.2-0.6-0.4-0.9-0.6C315.6,193.4,314.2,192.9,312.8,192.6z"/>
		<path style="fill:#333333;" d="M274.3,259.1c0,0,0.3,0.6,0.6,1.6c0.2,0.5,0.4,1.1,0.6,1.8c0.1,0.3,0.2,0.7,0.3,1.1
			c0.1,0.2,0.1,0.4,0.1,0.6c0,0.2,0,0.4,0,0.6c0.1,0.8,0.1,1.7,0.2,2.7c0,1,0.2,2,0.3,3c0.2,2.1,0.5,4.4,0.7,6.6
			c0.1,1.1,0.3,2.3,0.4,3.4c0.1,1.1,0.3,2.2,0.4,3.2c0.2,1,0.3,2.1,0.5,3c0.2,0.9,0.4,1.8,0.5,2.7c0,0.2,0.1,0.4,0.1,0.6
			c0.1,0.2,0.1,0.4,0.1,0.6c0,0.4,0,0.8,0,1.1c0,0.7,0,1.3-0.1,1.9c0,1-0.1,1.7-0.1,1.7s-0.4-0.5-1-1.3c-0.3-0.4-0.7-1-1.1-1.6
			c-0.2-0.3-0.4-0.7-0.6-1c-0.1-0.2-0.2-0.4-0.2-0.6c0-0.2-0.1-0.4-0.1-0.6c-0.2-0.9-0.4-1.8-0.6-2.8c-0.2-1-0.3-2-0.5-3.1
			c-0.2-1.1-0.3-2.2-0.5-3.3c-0.1-1.1-0.3-2.3-0.4-3.4c-0.3-2.3-0.5-4.6-0.7-6.7c-0.1-1.1-0.2-2.1-0.3-3.1c-0.1-1-0.1-2-0.2-2.8
			c0-0.2,0-0.4-0.1-0.6c0-0.2-0.1-0.4,0-0.6c0.1-0.4,0.2-0.8,0.3-1.1c0.2-0.7,0.4-1.3,0.6-1.8C274.1,259.7,274.3,259.1,274.3,259.1z
			"/>
		<path style="fill:#333333;" d="M274.8,270.6c0,0,0,0.7,0,1.8c0,0.6-0.1,1.2-0.1,2c0,0.4,0,0.8,0,1.2c0,0.4-0.3,0.7-0.3,1.2
			c-0.1,0.9-0.4,1.8-0.5,2.8c-0.1,1-0.3,2.1-0.3,3.2c-0.1,1.1-0.1,2.3-0.1,3.4c0,1.2,0,2.4,0,3.6c0,1.2,0,2.4,0,3.6
			c0.1,1.2,0.1,2.4,0.1,3.5c0.1,2.3,0.2,4.4,0.3,6.2c0,0.2,0,0.4,0,0.6c0,0.2,0.1,0.4,0,0.6c-0.1,0.4-0.2,0.8-0.2,1.1
			c-0.1,0.7-0.1,1.3-0.1,1.8c0.1,0.5,0.2,0.8,0.3,1.1c0.2,0.2,0.3,0.4,0.3,0.4s-0.2,0-0.5-0.1c-0.3-0.1-0.7-0.4-1.2-0.8
			c-0.4-0.5-0.8-1.1-1.2-1.9c-0.2-0.4-0.3-0.8-0.5-1.2c-0.1-0.2-0.1-0.4-0.1-0.7c0-0.2,0-0.5,0-0.7c-0.1-1.8-0.2-3.9-0.3-6.2
			c0-1.1-0.1-2.3-0.1-3.5c0-1.2,0-2.4,0-3.7c0-1.2,0-2.4,0-3.7c0-1.2,0.1-2.4,0.1-3.6c0-1.2,0.2-2.3,0.3-3.4c0.1-1.1,0.4-2.1,0.5-3
			c0-0.2,0.1-0.5,0.1-0.7c0-0.2,0.1-0.5,0.2-0.7c0.2-0.4,0.4-0.8,0.6-1.1c0.4-0.7,0.8-1.2,1.2-1.6
			C274.4,271.1,274.8,270.6,274.8,270.6z"/>
		<path style="fill:#333333;" d="M333.2,196.8c0,0-1.8,4.5-5,12.3c-0.7,2-1.6,4.1-2.5,6.5c-0.4,1.2-0.9,2.4-1.4,3.7
			c-0.2,0.6-0.5,1.3-0.7,1.9c-0.2,0.7-0.4,1.4-0.7,2.1c-0.5,1.4-0.9,2.8-1.4,4.3c-0.4,1.5-0.9,3-1.3,4.6c-0.9,3.1-2,6.4-3.1,9.8
			c-1.1,3.4-2.2,7-3.3,10.8c-0.6,1.9-1.2,3.7-1.8,5.7c-0.6,1.9-1.3,3.9-1.9,5.9l-0.2,0.7l-0.1,0.4l-0.1,0.3
			c-0.1,0.3-0.1,0.8-0.1,1.3c0,0.9,0,1.9,0.1,2.9c0.2,2.1,0.4,4.2,0.7,6.4c0.2,2.2,0.5,4.3,0.7,6.5c0.2,2.2,0.6,4.4,0.9,6.6
			c0.3,2.2,0.6,4.5,0.9,6.7l0.1,0.8l0.1,0.8l0.3,1.7c0.2,1.1,0.4,2.3,0.6,3.4c0.4,2.3,0.9,4.6,1.3,6.9c0.5,2.3,1,4.6,1.5,6.9
			c2.2,9.2,3.1,19,7.6,27.1c1.1,2.1,2.3,4,3.8,5.8c1.4,1.7,3.1,3.2,5,4.1c1,0.4,2,0.8,3,0.9c0.5,0.1,1.1,0.2,1.6,0.1l0.9,0
			c0.3,0,0.5,0,0.8,0c2.1-0.1,4.4-0.7,6.6-1.3c4.5-1.4,9-2.8,13.4-4.1l1.7-0.5l1.7-0.4c1.1-0.3,2.2-0.6,2.9-1c0.1,0,0.1-0.1,0.2-0.1
			c0,0,0.1-0.1,0,0c0,0,0,0,0,0c-0.2,0.4,0,0-0.1,0.1l0.1-0.2c0-0.1,0-0.1,0-0.1c0,0,0,0,0,0c0-0.2,0-0.7-0.1-1.2
			c-0.2-1.1-0.4-2.3-0.5-3.4c-1.4-8.9-2.5-17.6-3.9-25.6c-0.4-2-0.8-4-1.1-6c-0.4-2-0.9-3.9-1.3-5.7c-0.2-0.9-0.4-1.9-0.6-2.8
			c-0.2-0.9-0.5-1.8-0.8-2.7c-0.5-1.8-1-3.6-1.5-5.3c-0.5-1.7-1-3.4-1.5-5.1c-0.1-0.4-0.2-0.8-0.4-1.2l0-0.1l0-0.2l0-0.2l-0.1-0.3
			l-0.1-0.6c-0.2-0.8-0.3-1.6-0.4-2.5c-0.2-1.7-0.3-3.4-0.4-5c0-1.6-0.1-3.1-0.1-4.6c0-5.9-0.1-11,0.5-15.3c0.1-0.5,0.2-1,0.2-1.5
			c0-0.2,0.1-0.5,0.1-0.7c0.1-0.3,0.1-0.5,0.2-0.7c0.1-0.5,0.2-0.9,0.5-1.3c0.2-0.4,0.4-0.9,0.7-1.2c1-1.4,2.3-2.2,3.4-2.5
			c0.5-0.2,1-0.3,1.5-0.4c0.4-0.1,0.8-0.1,1.1-0.1c0.6,0,0.9,0,0.9,0s-0.3,0-0.9,0.1c-0.3,0-0.6,0.1-1.1,0.2
			c-0.4,0.1-0.9,0.2-1.4,0.5c-1,0.4-2.2,1.3-2.9,2.6c-0.2,0.3-0.3,0.7-0.5,1.1c-0.2,0.4-0.2,0.8-0.3,1.3c0,0.2-0.1,0.4-0.1,0.7
			c0,0.2,0,0.5-0.1,0.7c0,0.5-0.1,1-0.1,1.5c-0.3,4.1,0.2,9.2,0.6,15c0.1,1.5,0.3,2.9,0.4,4.5c0.2,1.5,0.4,3,0.7,4.6
			c0.2,0.8,0.4,1.6,0.6,2.4l0.1,0.6l0.1,0.3l0,0.2c0,0,0,0.1,0,0l0,0.1c0.1,0.4,0.2,0.8,0.3,1.2c0.5,1.7,1,3.3,1.4,5.1
			c0.5,1.7,1,3.5,1.5,5.3c0.3,0.9,0.5,1.8,0.8,2.8c0.2,0.9,0.4,1.9,0.7,2.8c0.4,1.9,0.9,3.8,1.3,5.8c0.4,2,0.8,4,1.1,6
			c1.4,8.2,2.6,16.8,4,25.7c0.2,1.1,0.3,2.2,0.5,3.3c0.1,0.6,0.2,1.2,0.1,2.1c0,0.2,0,0.3-0.1,0.5c0,0.1-0.1,0.3-0.1,0.4l-0.1,0.2
			c-0.1,0.1,0.1-0.1-0.2,0.3l-0.2,0.2c-0.5,0.6-0.8,0.7-1.1,0.9c-1.3,0.7-2.4,0.9-3.6,1.2l-1.6,0.4l-1.6,0.5
			c-4.4,1.4-8.9,2.7-13.5,4.1c-2.3,0.7-4.7,1.3-7.3,1.4c-0.7,0.1-1.3,0-1.9,0c-0.7,0-1.3-0.1-2-0.2c-1.3-0.2-2.6-0.6-3.8-1.2
			c-2.4-1.1-4.4-2.9-6.1-4.9c-1.6-2-3-4.1-4.1-6.3c-2.4-4.4-3.8-9.2-4.9-13.9c-0.5-2.4-1-4.7-1.5-7c-0.5-2.3-1-4.7-1.5-7
			c-0.5-2.3-1-4.6-1.5-6.9c-0.4-2.3-0.9-4.6-1.3-6.9c-0.2-1.1-0.4-2.3-0.6-3.4l-0.3-1.7l-0.2-0.9l-0.1-0.9c-0.3-2.3-0.6-4.5-1-6.8
			c-0.3-2.2-0.7-4.5-0.9-6.7c-0.2-2.2-0.5-4.4-0.7-6.5c-0.2-2.2-0.5-4.3-0.7-6.4c-0.1-1.1-0.2-2.2-0.1-3.4c0-0.6,0.1-1.2,0.2-1.8
			l0.1-0.5l0.1-0.4l0.3-0.8c0.6-1.9,1.3-3.9,1.9-5.7c0.6-1.9,1.2-3.8,1.8-5.7c1.1-3.7,2.3-7.3,3.3-10.7c0.5-1.7,1-3.4,1.5-5.1
			c0.5-1.7,1-3.3,1.6-4.8c0.6-1.6,1.1-3.1,1.7-4.5c0.6-1.4,1.2-2.8,1.7-4.2c0.3-0.7,0.6-1.3,0.8-2c0.3-0.7,0.6-1.3,0.9-1.9
			c0.6-1.2,1.1-2.4,1.7-3.6c1.1-2.3,2.1-4.4,3-6.3c1.9-3.8,3.4-6.7,4.4-8.7C332.6,197.9,333.2,196.8,333.2,196.8z"/>
		<path style="fill:#333333;" d="M355.5,219.2c0,0,0.2,1.7,0.4,4.7c0.1,1.5,0.3,3.3,0.8,5.3c0.1,0.5,0.2,1,0.4,1.5
			c0.2,0.5,0.3,1,0.5,1.5c0.2,0.5,0.4,1,0.6,1.5l0,0.1l0,0.1c-0.1-0.3,0-0.1-0.1-0.1l0,0l0.1,0.2l0.2,0.4c0.1,0.1,0.1,0.2,0.3,0.3
			c0.5,0.5,1.4,0.6,2.5,0.4c1.1-0.2,2.3-0.8,3.1-1.6c0.2-0.2,0.4-0.4,0.6-0.6l0.1-0.1l0,0l0,0c0,0,0-0.1,0,0l0.1-0.2l0.3-0.5
			c0.2-0.3,0.4-0.7,0.6-1c0.1-0.3,0.3-0.6,0.4-0.9c0.3-0.6,0.5-1.3,0.8-2c0.2-0.7,0.4-1.4,0.6-2.2c0.4-1.5,0.4-3,0.5-4.6l0-1.2
			l0-0.3l0-0.1c0-0.1,0,0.1,0,0.1l0,0l0-0.1l-0.1-0.6c-0.1-0.4-0.1-0.9-0.2-1.2l-0.3-1.1c-0.2-0.8-0.4-1.6-0.6-2.5l-0.3-1.3l0-0.1
			l0-0.2l0-0.2l0-0.3l-0.1-0.6c0-0.4-0.1-0.8-0.1-1.3l0-1.5c0-1,0.2-1.9,0.3-2.8c0-0.5,0.2-0.9,0.3-1.4l0.4-1.3l0-0.2l0-0.1l0,0
			c0,0.1,0-0.1,0-0.1l0.1-0.3l0.2-0.6c0.2-0.4,0.3-0.8,0.5-1.2c0.4-0.8,0.8-1.6,1.1-2.3c0.2-0.4,0.3-0.7,0.4-1.1
			c0.1-0.4,0.3-0.7,0.4-1.1c0.2-0.8,0.5-1.6,0.5-2.1l0-0.1l0,0c0,0.3,0,0,0,0.1l0-0.1l0-0.3c0,0,0,0-0.1-0.2
			c-0.1-0.3-0.3-0.7-0.5-1.3c-0.1-0.3-0.1-0.6-0.1-1l0-0.5l0-0.1l0-0.1l0-0.1l0-0.2l0.2-1.2c0.2-0.8,0.5-1.7,0.7-2.5
			c0.2-0.7,0.5-1.5,0.6-2.2c0.1-0.4,0.2-0.7,0.2-1.1l0.1-0.3l0,0c0-0.2,0,0.2,0,0.1l0-0.1l0-0.1l0-0.6c-0.1-0.1-0.2-0.7-0.6-1.1
			c-0.4-0.5-0.9-1-1.4-1.5l-0.4-0.4l-0.1-0.1l0,0c-0.1-0.1,0.1,0.1,0.1,0.1l-0.1-0.1l-0.2-0.2c-0.3-0.3-0.4-0.3-0.6-0.4
			c-0.4-0.2-0.9-0.4-1.5-0.5c-0.6-0.1-1.2-0.1-1.8-0.1c-0.7,0-1.3,0-1.9,0c-0.3,0-0.5,0.1-0.8,0.1c-0.2,0-0.4,0.2-0.2,0
			c0,0,0.1-0.1,0.1-0.1l0-0.1c0,0,0.1-0.1,0.1-0.1c0.1-0.1,0.1-0.2,0.1-0.3c0-0.1,0-0.2,0-0.3c0-0.1-0.1-0.2-0.1-0.3
			c0,0,0-0.1,0-0.1c0-0.1-0.1-0.1,0-0.1c0,0,0.2,0.2,0.3,0.3c0.5,0.4,0.9,0.7,1.3,1.1c0.2,0.2,0.4,0.4,0.6,0.5l0,0
			c0,0,0.1,0.1-0.1-0.1l0,0l0.1,0.1l0.2,0.1l0.2,0.1c0.4,0.2,0.9,0.3,1.5,0.6c0.1,0.1,0.3,0.1,0.4,0.2c0.1,0.1,0.3,0.2,0.4,0.3
			l0.2,0.2l0,0l0.1,0.1l0,0l0,0.1l0.2,0.3c0.1,0.2,0.2,0.4,0.3,0.7c0.1,0.2,0.2,0.5,0.3,0.7c0.1,0.4,0.3,0.8,0.3,1.3l0.1,0.3l0,0.2
			l0,0.1c0,0.2,0,0.3,0,0.5c-0.1,0.5-0.2,0.8-0.4,1c-0.3,0.5-0.6,0.9-0.9,1.2c-0.2,0.3-0.4,0.6-0.5,0.8c-0.1,0.2-0.1,0.3-0.1,0.3
			s0-0.1,0.1-0.3c0-0.2,0.1-0.5,0.3-0.9c0.2-0.4,0.4-0.8,0.5-1.4c0-0.1,0.1-0.3,0.1-0.4c0-0.1,0-0.2,0-0.4c0-0.1,0-0.3-0.1-0.5
			l0-0.1c0,0.1,0,0,0,0l0,0l0,0l0-0.1l-0.1-0.2c-0.1-0.3-0.3-0.6-0.5-1c-0.1-0.2-0.2-0.3-0.3-0.4l-0.2-0.2l-0.2-0.2l-0.2-0.3
			l-0.1-0.1l0,0c0.1,0.1,0,0,0,0.1l0,0c0,0-0.1,0-0.1,0c0,0-0.1,0-0.2-0.1c-0.1,0-0.1-0.1-0.2-0.1c-0.4-0.1-0.8-0.2-1.4-0.3
			c-0.2,0-0.4-0.1-0.5-0.2l-0.2-0.1l-0.1,0l0,0l-0.2-0.1c-0.2-0.1-0.5-0.3-0.7-0.4c-0.5-0.3-1-0.5-1.5-0.8c-0.4-0.2-0.7-0.4-1.1-0.8
			c-0.1-0.1-0.2-0.3-0.3-0.5c0-0.1-0.1-0.2-0.1-0.3c0-0.1-0.1-0.3-0.1-0.5c0-0.2,0-0.4,0-0.5c0-0.2,0.1-0.4,0.2-0.5
			c0-0.1,0.1-0.2,0.1-0.2l0.1-0.1c0.1-0.1,0.2-0.2,0.3-0.3c0.7-0.5,1.1-0.5,1.5-0.6c0.4-0.1,0.8-0.1,1.1-0.1c0.7-0.1,1.4,0,2.1,0
			c0.7,0,1.4,0,2.3,0.1c0.8,0.1,1.7,0.4,2.5,0.8c0.2,0.1,0.5,0.3,0.7,0.5c0.3,0.2,0.3,0.3,0.5,0.4l0.2,0.2l0.1,0.1l0.2,0.2l0.3,0.4
			c0.5,0.5,1.1,1.1,1.6,1.8c0.5,0.8,1.1,1.6,1.2,3l0,0.6l0,0.1l0,0.1c0,0,0,0.3,0,0.2l0,0l-0.1,0.3c-0.1,0.4-0.2,0.8-0.3,1.3
			c-0.2,0.8-0.5,1.6-0.7,2.4c-0.2,0.7-0.5,1.4-0.6,2.2l-0.3,1.2l0,0.2l0,0.1c0,0,0,0.1,0-0.1l0,0c0,0,0,0.1,0,0.1c0,0.1,0,0.2,0,0.3
			c0,0.2,0.2,0.5,0.4,1c0.1,0.2,0.2,0.6,0.3,1l0,0.3l0,0.1l0,0.2l0,0.1l0,0.2c-0.1,1.2-0.4,2-0.6,2.8c-0.3,0.8-0.6,1.8-1,2.6
			c-0.4,0.8-0.7,1.5-1.1,2.3c-0.2,0.3-0.3,0.7-0.5,1.1l-0.2,0.6l-0.1,0.3c0,0,0-0.1,0,0l0,0l0,0.1l0,0.1l-0.3,1.1
			c-0.1,0.4-0.2,0.8-0.2,1.2c-0.1,0.8-0.3,1.6-0.2,2.3l0,1.1c0,0.4,0.1,0.8,0.1,1.3l0.1,1.2l0.3,1.2c0.2,0.8,0.4,1.7,0.6,2.5
			l0.3,1.4c0.1,0.5,0.1,0.8,0.2,1.3l0.1,0.6l0,0.1l0,0l0,0.1l0,0.2l0,0.3l0,1.3c-0.1,1.8-0.2,3.5-0.6,5.2c-0.1,0.8-0.4,1.7-0.6,2.5
			c-0.3,0.8-0.5,1.6-0.9,2.4c-0.2,0.4-0.4,0.8-0.6,1.2c-0.2,0.4-0.4,0.7-0.6,1l-0.3,0.5l-0.1,0.2c-0.1,0.1,0,0.1-0.1,0.1l0,0
			l-0.1,0.1l-0.1,0.1c-0.3,0.4-0.6,0.7-1,1c-1.4,1.2-2.9,1.9-4.5,2.2c-0.8,0.1-1.7,0.2-2.6,0.1c-0.9-0.2-1.8-0.5-2.5-1.1
			c-0.4-0.3-0.7-0.8-1-1.1l-0.2-0.4l-0.1-0.2l0,0l-0.1-0.2l0-0.1l0-0.1c-0.2-0.6-0.5-1.2-0.6-1.9c-0.1-0.6-0.2-1.2-0.2-1.8
			c-0.1-0.6-0.1-1.2-0.1-1.7c0-2.2,0.2-4.1,0.4-5.6c0.2-1.5,0.4-2.7,0.5-3.5C355.4,219.7,355.5,219.2,355.5,219.2z"/>
		<path style="fill:#333333;" d="M356.3,233.1c0,0,0.2,0.4,0.5,1.3c0.3,0.8,0.8,2,1.6,3.4c0.7,1.4,1.7,3.1,2.8,5.1
			c0.5,1,1.1,2.1,1.6,3.3l0.1,0.2l0,0.1l0.1,0.2c0,0.2,0.1,0.3,0.1,0.5c0.1,0.5,0.1,0.8,0.2,1.2c0,0.7,0.1,1.4,0.1,2.1
			c0,0.7,0.1,1.3,0.2,1.9c0.1,0.3,0.1,0.6,0.2,0.8c0,0.1,0.1,0.2,0.1,0.3c0,0.1,0,0.1,0.1,0.1l0,0l0,0l0,0c-0.1-0.1,0,0,0,0l0.2,0.2
			c0,0,0.1,0,0.1,0.1l0.2,0.2l0.3,0.3c0.2,0.2,0.5,0.6,0.7,1c0.1,0.2,0.2,0.4,0.2,0.6l0,0.3l0,0.1l0,0.1l0,0.1c0,0.4,0,0.7-0.1,1.2
			l-0.1,0.7l-0.1,0.5c-0.1,2.5,1.7,4.9,4.5,6.6c0.7,0.4,1.4,0.9,2.2,1.3l0.5,0.3l0.6,0.3c0.4,0.2,0.8,0.4,1.2,0.6
			c1.5,0.6,3.1,1.1,4.7,1.2c1.6,0.1,3.2-0.1,4.8-0.7c0.4-0.1,0.7-0.4,1.1-0.5l0.6-0.3l0,0c0,0,0.1-0.1,0,0l0.1,0l0.1-0.1l0.3-0.2
			l1.2-0.8c0.4-0.3,0.6-0.5,0.9-0.8c2.5-2.1,3.6-5.3,3.5-8.7c0-0.8,0-1.8,0-2.8c0-0.9,0-1.7-0.1-2.5c0-0.4-0.1-0.7-0.2-1
			c-0.1-0.1-0.1-0.3-0.2-0.4c0.2,0.3,0,0.1,0.1,0.1l0,0l0-0.1l-0.1-0.1l-0.2-0.3c-0.1-0.1-0.1-0.2-0.2-0.2l-0.1-0.1l-0.4-0.4
			c-0.2-0.2-0.3-0.3-0.5-0.5l-0.3-0.3l-0.1-0.2l-0.1-0.1c0-0.1,0,0.1-0.1-0.1l0,0c-0.4-0.6-0.9-1.8-1.2-2.5l-0.2-0.5l-0.1-0.3l0,0
			c0,0,0-0.1,0,0l0-0.1l-0.1-0.1l-0.3-0.6l-0.3-0.4c-0.8-1.2-2.1-2.3-3-4c-0.8-1.5-1.5-2.8-2.2-4.2c-0.7-1.3-1.5-2.4-2.2-3.6
			l-0.3-0.4c0-0.1-0.2-0.3-0.3-0.4c-0.2-0.3-0.4-0.5-0.6-0.8c-0.4-0.5-0.8-1-1.1-1.6c-0.6-1.1-1.3-2.1-1.8-3.1c-1.1-2-2.2-3.6-3.1-5
			c-1.7-2.8-2.7-4.4-2.7-4.4s1.3,1.3,3.6,3.7c1.1,1.2,2.5,2.6,4,4.3c0.7,0.9,1.5,1.8,2.4,2.7c0.4,0.5,0.8,1,1.2,1.6
			c0.2,0.3,0.4,0.5,0.6,0.8c0.1,0.2,0.2,0.2,0.3,0.5l0.3,0.5c0.7,1.2,1.6,2.5,2.3,3.8c0.7,1.3,1.4,2.7,2.1,4.1
			c0.6,1.2,1.8,2.2,2.9,3.8l0.4,0.7l0.3,0.6l0.1,0.1l0,0.1l0.1,0.1l0,0l0.1,0.3l0.3,0.6c0.4,0.9,0.5,1.3,1,2.1l0,0
			c-0.1-0.2,0,0,0-0.1l0,0l0.1,0.1l0.1,0.2c0.1,0.1,0.2,0.3,0.4,0.4c0.2,0.2,0.8,0.8,1.1,1.2l0.2,0.3l0.1,0.1l0,0.1l0,0
			c0,0.1-0.1-0.1,0.1,0.2l0.3,0.8c0.2,0.5,0.3,1.1,0.3,1.6c0.1,1,0.1,2,0.1,2.9c0,0.9,0,1.7,0,2.7c0.1,1.9-0.2,4-0.9,5.9
			c-0.2,0.5-0.4,1-0.6,1.4l-0.8,1.3c-0.3,0.4-0.7,0.8-1,1.2l-0.5,0.6l-0.6,0.5c-0.4,0.3-0.8,0.7-1.2,1l-1.2,0.8l-0.3,0.2l-0.1,0.1
			l-0.1,0c-0.2,0.1-0.1,0-0.1,0.1l0,0l-0.7,0.3c-0.5,0.2-0.9,0.5-1.4,0.6c-1.9,0.7-4,1-6.1,0.9c-2-0.2-3.9-0.7-5.8-1.5
			c-0.4-0.2-0.8-0.4-1.2-0.6l-0.6-0.3c-0.3-0.2-0.4-0.2-0.7-0.3c-0.8-0.4-1.6-0.9-2.4-1.4c-1.6-1-3.1-2.2-4.2-3.8
			c-0.1-0.2-0.3-0.4-0.4-0.6l-0.4-0.7c-0.2-0.5-0.5-1-0.5-1.3l-0.2-0.6l-0.1-0.3l0-0.1l0,0c0,0-0.1-0.3,0-0.2l0-0.1
			c0-0.5-0.1-1.1,0-1.6l0.1-0.7l0.1-0.5c0.1-0.3,0.1-0.8,0.1-1.1c0,0,0-0.1,0,0.1l0,0l0,0c0,0,0,0,0,0c0,0,0,0,0,0c0,0,0,0.1,0,0
			l-0.1-0.1l-0.2-0.2l-0.3-0.3l-0.2-0.2l-0.1-0.1l0,0l-0.1-0.1l-0.1-0.2c-0.1-0.1-0.2-0.2-0.2-0.4c-0.1-0.2-0.2-0.5-0.3-0.7
			c-0.2-0.5-0.3-0.9-0.3-1.3c-0.1-0.8-0.2-1.6-0.2-2.3c0-0.7-0.1-1.4-0.1-2c0-0.3-0.1-0.6-0.1-0.8c0-0.1-0.1-0.3-0.1-0.4l0-0.1l0,0
			c0,0,0-0.1,0,0l0-0.1l-0.1-0.2c-0.3-1.2-0.6-2.3-1-3.4c-0.7-2.1-1.3-4-1.7-5.6c-0.2-0.8-0.4-1.5-0.5-2.2c-0.1-0.6-0.2-1.2-0.3-1.6
			C356.4,233.6,356.3,233.1,356.3,233.1z"/>
		<path style="fill:#333333;" d="M368.2,230c0,0,0.2,0.4,0.4,1.1c0.1,0.3,0.2,0.8,0.3,1.3c0.1,0.3,0.1,0.5,0.2,0.8
			c0,0.1,0,0.2,0,0.4c0,0.1,0,0.2-0.1,0.4c-0.1,0.3,0,0.5,0,0.7c0,0.1,0,0.2,0,0.4l0,0.1l0,0v0c0,0,0-0.2,0-0.1l0,0l0,0l0,0.2
			c0.1,0.3,0.1,0.7,0.2,0.9l0.1,0.4l0.2,0.4c0.4,1.2,1.2,2.5,1.8,4.1c0.3,0.8,0.5,1.5,0.7,2.2c0.2,0.7,0.4,1.4,0.6,2.1
			c0.2,0.7,0.4,1.3,0.6,1.8c0.2,0.5,0.4,1.1,0.7,1.5c0.1,0.1,0.1,0.2,0.2,0.3c0.1,0.1,0.1,0.2,0.1,0.3c0,0.3,0,0.5,0.1,0.7
			c0.1,0.5,0.1,0.9,0.2,1.2c0.2,0.7,0.3,1.1,0.3,1.1s-0.4-0.1-1.1-0.4c-0.4-0.1-0.8-0.4-1.2-0.7c-0.2-0.2-0.5-0.3-0.7-0.5
			c-0.1-0.1-0.2-0.2-0.2-0.4c0-0.1-0.1-0.3-0.2-0.4c-0.3-0.6-0.5-1.2-0.8-1.8c-0.2-0.6-0.5-1.3-0.7-2c-0.2-0.7-0.4-1.4-0.6-2.1
			c-0.2-0.7-0.4-1.5-0.7-2.1c-0.5-1.3-1.2-2.6-1.8-4.1c-0.3-0.6-0.5-1.7-0.6-2.2l0-0.2l0,0l0-0.1v0l0-0.1l0-0.1c0-0.2,0-0.4,0-0.6
			c0-0.4,0-0.8,0-1c0-0.2,0.1-0.3,0-0.5c0-0.2,0-0.3,0.1-0.4c0.2-0.3,0.3-0.5,0.5-0.7c0.3-0.4,0.6-0.8,0.8-1.1
			C367.9,230.4,368.2,230,368.2,230z"/>
		<path style="fill:#333333;" d="M289.6,127.5c-0.6,2.8-1.1,5.7-0.9,8.5c0.1,2.8,1,5.6,2.8,6.7c0.2,0.2,0.5,0.2,0.7,0.4l0.2,0.1l0,0
			l0,0c-0.2-0.1,0,0-0.1,0l0.1,0l0.5,0.2l1,0.4c0.3,0.1,0.6,0.1,0.9,0.2c0.3,0.1,0.6,0.1,0.9,0.2l1,0.1c0.7,0.1,1.4,0.1,2,0.1
			c2.8,0.1,5.6-0.2,8.6-0.2l17.2,0.2l4.3,0.1c1.4,0,2.7,0,4-0.2c2.6-0.4,4.8-1.5,5.7-3.6c0.2-0.5,0.4-1.1,0.5-1.7
			c0.1-0.6,0.2-1.4,0.3-2.1c0.2-1.4,0.4-2.8,0.5-4.1c0.2-2.7-0.3-5.3-2-6.4c-0.2-0.1-0.5-0.2-0.7-0.4l-0.9-0.3
			c-0.7-0.3-1.3-0.3-1.9-0.4c-0.6-0.1-1.3-0.1-2-0.2c-0.7,0-1.4,0-2,0c-1.4,0-2.8,0.1-4.2,0.2c-1.4,0.1-3,0.1-4.4,0.1l-8.6,0.1
			l-8.6-0.1l-2.2,0c-0.7,0-1.4-0.1-2.1-0.2c-1.4-0.1-2.8-0.3-4.1-0.3c-1.3,0-2.7,0.2-3.9,0.7c-1.2,0.6-2.2,1.7-2.7,3l-0.2,0
			C289.4,128.2,289.4,127.9,289.6,127.5L289.6,127.5l-0.1,0.6l-0.1,0.3l0,0.1c0,0,0,0.1,0,0.1c0.1-0.2,0.1-0.4,0.1-0.6l0.1-0.3
			L289.6,127.5C289.6,127.6,289.6,127.5,289.6,127.5z M289.6,127.5C289.6,127.5,289.6,127.6,289.6,127.5l0,0.2l-0.1,0.3
			c0,0.2-0.1,0.4-0.1,0.6c-0.1,0,0-0.1,0-0.1l0-0.1l0-0.3L289.6,127.5L289.6,127.5c-0.1,0.3,0,0.7-0.1,1l-0.2,0
			c0.4-1.4,1.2-2.7,2.4-3.7c1.2-0.9,2.7-1.5,4.2-1.9c1.5-0.4,3-0.5,4.4-0.6c0.7,0,1.4-0.1,2.2-0.1l2.1,0.1l8.5,0.1l8.6-0.1
			c1.5,0,2.8,0,4.2-0.1c1.4-0.1,2.9-0.2,4.3-0.2c0.7,0,1.5,0,2.2,0c0.8,0.1,1.5,0.1,2.3,0.2c0.8,0.1,1.7,0.3,2.3,0.5l0.5,0.2
			l0.3,0.1l0.1,0l0.1,0l0,0c0.2,0.1,0.1,0,0.1,0.1c0.4,0.2,0.8,0.4,1.2,0.6c1.6,1,2.6,2.7,3,4.3c0.4,1.6,0.5,3.2,0.4,4.7
			c-0.1,1.5-0.3,3-0.5,4.4c-0.1,0.7-0.2,1.4-0.3,2.2c-0.1,0.8-0.4,1.6-0.7,2.4c-0.7,1.6-1.9,3-3.4,3.8c-1.5,0.9-3.1,1.3-4.6,1.6
			c-1.5,0.2-3,0.3-4.5,0.3l-4.3-0.1l-17.2-0.2c-2.7,0-5.6,0.2-8.6,0.2c-0.7,0-1.5,0-2.3-0.1l-1.1-0.1c-0.4,0-0.8-0.1-1.2-0.2
			c-0.4-0.1-0.8-0.2-1.2-0.3l-1-0.3l-0.5-0.2l-0.1,0l-0.1-0.1l0,0l-0.1,0l-0.3-0.2c-0.4-0.2-0.8-0.4-1.1-0.8
			c-0.7-0.6-1.2-1.3-1.6-2.1c-0.4-0.8-0.6-1.6-0.7-2.4c-0.2-1.6,0-3.1,0.2-4.6C288.1,133.1,289,130.3,289.6,127.5z"/>
		<path style="fill:#333333;" d="M295.5,151.3c-1.3-1.3-2.6-2.6-3.9-3.9l-1.9-2l-0.9-1c-0.3-0.3-0.7-0.7-0.9-1l2.5-1.8l2.6,3.8
			c0.8,1.2,1.7,2.4,2.7,3.4c1,1,2,1.8,3.2,2.3c0.3,0.1,0.6,0.2,0.9,0.3c0.3,0.1,0.6,0.1,0.9,0.2l0.9,0c0.3,0,0.7,0,1.1-0.1
			c0.8-0.1,1.5-0.1,2.2-0.2c0.7-0.1,1.4-0.2,2.1-0.3c0.7-0.2,1.4-0.3,2.1-0.5l2.2-0.6c0.4-0.1,0.7-0.2,1.1-0.3l1.3-0.2
			c0.8-0.1,1.6-0.2,2.5-0.2c1.6,0,3.2,0.2,4.8,0.4l9,1.6c0.7,0.1,1.5,0.3,2.3,0.4c0.8,0.2,1.5,0.3,2.2,0.4c0.7,0.1,1.3,0.2,1.9,0.1
			l0.4,0l0.4-0.1l0.1,0l0,0l0,0l0,0c-0.2,0.1,0,0-0.1,0l0.3-0.1c0.2-0.1,0.2-0.1,0.3-0.1c0.7-0.4,1.2-1.6,1.4-2.9
			c0.1-0.6,0.2-1.4,0.2-2c0-0.8,0.1-1.5,0.2-2.3l0.7-4.5c0.2-1.5,0.4-3,0.7-4.5c0.3,1.5,0.5,3,0.7,4.6c0.3,1.5,0.4,3,0.6,4.6
			c0.1,0.8,0.2,1.5,0.2,2.3c-0.1,0.9-0.1,1.6-0.3,2.5c-0.1,0.8-0.3,1.7-0.7,2.6c-0.4,0.9-1,1.7-1.9,2.4c-0.3,0.2-0.6,0.4-0.7,0.4
			l-0.3,0.1l-0.1,0l0,0l0,0l-0.1,0l-0.2,0l-0.7,0.2l-0.7,0.1c-0.9,0.1-1.8,0-2.6-0.1c-0.8-0.1-1.6-0.3-2.3-0.5
			c-0.7-0.2-1.5-0.3-2.2-0.4l-9-1.6c-1.4-0.2-2.9-0.4-4.3-0.4c-0.7,0-1.4,0.1-2.1,0.1l-1,0.2c-0.3,0.1-0.7,0.2-1.1,0.3l-2.2,0.6
			c-0.8,0.2-1.5,0.3-2.3,0.5c-1.5,0.3-3.2,0.5-4.7,0.6c-0.4,0-0.7,0.1-1.2,0.1c-0.4,0-0.9,0-1.3,0c-0.4-0.1-0.9-0.1-1.3-0.2
			c-0.4-0.1-0.9-0.2-1.3-0.4c-1.7-0.7-3.1-1.8-4.2-3c-1.2-1.2-2.1-2.5-3-3.8c-0.9-1.3-1.7-2.6-2.6-3.7l2.5-1.8
			c0.3,0.4,0.5,0.8,0.7,1.2l0.7,1.2l1.3,2.4C293.8,148,294.7,149.6,295.5,151.3z"/>
		<path style="fill:#333333;" d="M342.8,152.6c0,0-0.2-0.4-0.5-1.1c-0.2-0.3-0.3-0.8-0.5-1.3c-0.1-0.3-0.1-0.6-0.2-0.9
			c0-0.2,0-0.3,0.1-0.4c0.1-0.1,0.1-0.3,0.1-0.4c0.1-0.6,0.3-1.3,0.4-1.9c0.2-0.7,0.4-1.4,0.6-2.1c0.2-0.7,0.4-1.4,0.6-2.2
			c0.2-0.7,0.4-1.4,0.6-2.1c0.1-0.7,0.3-1.7,0.2-2.1c0-0.5-0.2-1.2-0.3-1.8c-0.1-0.3-0.2-0.6-0.3-0.9c-0.1-0.3-0.2-0.6-0.4-0.8
			c-0.3-0.5-0.5-1.1-0.9-1.5c-0.1-0.1-0.1-0.2-0.2-0.3c-0.1-0.1-0.2-0.2-0.2-0.3c-0.1-0.3-0.1-0.5-0.2-0.8c-0.1-0.5-0.2-0.9-0.3-1.3
			c-0.2-0.7-0.2-1.2-0.2-1.2s0.4,0.2,1.1,0.5c0.4,0.2,0.8,0.4,1.2,0.7c0.2,0.1,0.5,0.3,0.7,0.5c0.1,0.1,0.2,0.2,0.3,0.3
			c0.1,0.1,0.2,0.3,0.2,0.4c0.4,0.5,0.7,1.1,1,1.8c0.2,0.3,0.3,0.7,0.5,1.1c0.1,0.4,0.3,0.8,0.4,1.2c0.2,0.8,0.4,1.7,0.4,2.7
			c0.1,1.1-0.1,1.7-0.2,2.5l0,0.2l0,0l0,0l0,0.1l0,0.1l-0.1,0.3l-0.1,0.6c-0.1,0.4-0.2,0.8-0.3,1.2c-0.2,0.7-0.4,1.5-0.6,2.2
			c-0.2,0.7-0.4,1.4-0.5,2c-0.2,0.6-0.3,1.2-0.4,1.8c0,0.1-0.1,0.3-0.1,0.4c0,0.1,0,0.3-0.1,0.4c-0.1,0.2-0.3,0.4-0.4,0.6
			c-0.3,0.4-0.5,0.8-0.7,1.1C343.1,152.2,342.8,152.6,342.8,152.6z"/>
		<path style="fill:#333333;" d="M335.9,180.7c0,0-0.1-0.1-0.3-0.3c-0.2-0.2-0.5-0.5-0.7-1c-0.2-0.5-0.6-1.2-0.8-1.9
			c-0.1-0.4-0.2-0.8-0.3-1.2c0-0.2,0-0.4,0-0.6c0-0.2,0.1-0.4,0.1-0.7c0.1-0.9,0.3-1.8,0.6-2.8c0.2-0.9,0.5-1.9,0.8-3
			c0.1-0.2,0.2-0.5,0.3-0.8c0.1-0.3,0.2-0.6,0.4-0.9c0.3-0.6,0.7-1.2,1.3-1.8c0.4-0.3,0.8-0.6,1.3-0.7l0.2-0.1l0.1,0l0,0
			c0,0-0.1,0,0.1,0h0l0.2-0.1c0.1,0,0.3,0,0.4,0l0.3,0c0.7,0.1,1.1,0.1,1.3,0.1c0.1,0-0.1,0-0.1,0.1c0,0,0,0.1,0,0l0,0v0v0v0
			c0,0.2,0,0.1-0.1,0.1l0.1-0.4c0-0.2,0.1-0.6,0.1-1.2c0-0.6,0.1-1.3,0.4-2.1l0.1-0.3l0-0.1l0.1-0.1l0.1-0.1l0.2-0.3
			c0.1-0.2,0.3-0.4,0.4-0.7c0.3-0.5,0.7-0.9,1-1.3c0.1-0.2,0.3-0.4,0.4-0.6c0.1-0.2,0.2-0.3,0.3-0.5l0.1-0.2l0,0l0,0
			c0,0-0.1,0.1,0,0.1l0,0l0-0.1l0.1-0.2c0-0.1,0.1-0.2,0.1-0.3c0-0.1,0-0.1,0-0.2c0.1-0.2,0.1-0.5,0-0.7c0-0.1,0-0.2-0.1-0.3
			c-0.1-0.1-0.1-0.2-0.1-0.3c0-0.2-0.1-0.5-0.2-0.7c-0.2-0.5-0.6-0.9-0.9-1.2c-0.4-0.3-0.7-0.5-0.9-0.7c-0.2-0.1-0.4-0.2-0.4-0.2
			s0.1,0,0.4-0.1c0.3,0,0.7-0.1,1.3-0.1c0.6,0,1.3,0.1,2.1,0.6c0.4,0.2,0.8,0.5,1.2,0.9c0.2,0.2,0.3,0.5,0.4,0.8
			c0.1,0.3,0.2,0.6,0.2,0.9c0.1,0.6,0,1.2-0.1,1.9l-0.1,0.5c-0.1,0.2-0.1,0.2-0.1,0.3l-0.1,0.2l0,0.1l0,0l0,0.1l0,0l0,0l-0.2,0.4
			c-0.1,0.2-0.3,0.5-0.4,0.8c-0.2,0.2-0.3,0.4-0.5,0.6c-0.3,0.4-0.6,0.8-0.9,1.1c-0.1,0.2-0.3,0.4-0.4,0.6l-0.2,0.3l-0.1,0.1l0,0
			l0,0c0,0.1,0.1-0.1,0-0.1l0,0l0,0.1c-0.1,0.3-0.2,0.6-0.2,1.1c0,0.5,0,1.2-0.3,2l-0.1,0.4l-0.1,0.1l0,0l0,0l-0.1,0.1l-0.1,0.2
			c-0.1,0.1-0.2,0.3-0.3,0.4c-0.5,0.5-1.1,0.7-1.6,0.8c-1,0.1-1.6-0.1-2-0.1l-0.1,0c0,0,0,0,0,0c0,0-0.1,0.1-0.2,0.1h0
			c0.2,0,0,0,0.1,0l0,0l0,0l0,0c0,0-0.1,0-0.1,0.1c-0.2,0.2-0.4,0.4-0.5,0.8c-0.1,0.2-0.2,0.4-0.2,0.6c-0.1,0.2-0.1,0.4-0.2,0.7
			c-0.3,1-0.5,1.9-0.8,2.9c-0.2,0.9-0.4,1.7-0.5,2.5c0,0.2,0,0.4,0,0.6c0,0.2,0,0.4-0.1,0.5c-0.2,0.3-0.2,0.6-0.3,1
			c-0.1,0.3-0.2,0.6-0.2,0.8c-0.1,0.3-0.1,0.5-0.2,0.8c-0.1,0.5-0.1,0.9-0.1,1.2C335.9,180.5,335.9,180.7,335.9,180.7z"/>
		<path style="fill:#333333;" d="M298.1,152.6c0,0,0.2,0.8,0.6,2.1c0.2,0.7,0.4,1.5,0.7,2.4c0.1,0.4,0.3,0.9,0.5,1.4
			c0.1,0.2,0.1,0.5,0.1,0.8c0,0.3,0.1,0.5,0.1,0.8c0.2,1.1,0.3,2.3,0.8,3.5c0.2,0.6,0.4,1.2,0.5,1.9l0,0.1l0,0c0,0,0,0.1,0,0l0,0
			l0,0.1l0.1,0.2l0.2,0.5c0.1,0.3,0.3,0.7,0.4,1c0.6,1.3,1.2,2.7,1.8,4.2c0.2,0.4,0.3,0.7,0.4,1.1l0.3,1.2c0.2,0.7,0.4,1.4,0.7,2
			c0.1,0.3,0.3,0.6,0.4,0.8l0.1,0.2l0.1,0.1l0,0l0,0l0,0c-0.1-0.2,0,0-0.1-0.1l0.4,0.4c0.2,0.3,0.5,0.6,0.7,0.8
			c0.2,0.2,0.5,0.4,0.7,0.6c1,0.8,2.2,1.4,3.5,1.8c1.2,0.4,2.5,0.6,3.7,0.7c1.2,0.1,2.5,0.1,3.6,0.1c0.3,0,0.5,0,0.8,0
			c0.3-0.1,0.5-0.1,0.8,0c0.5,0.1,1,0.1,1.4,0.2c0.9,0.1,1.7,0.1,2.3,0c0.6-0.1,1.1-0.3,1.4-0.5c0.3-0.2,0.4-0.4,0.4-0.4
			s0,0.2-0.2,0.6c-0.2,0.3-0.5,0.9-1.2,1.3c-0.6,0.5-1.4,0.9-2.4,1.3c-0.5,0.2-1,0.4-1.6,0.5c-0.3,0.1-0.6,0.1-0.9,0.1
			c-0.3,0-0.6,0-0.9,0c-1.2,0-2.5,0-3.9-0.1c-1.4-0.1-2.9-0.4-4.5-0.8c-1.5-0.5-3-1.3-4.4-2.3l-1-0.9c-0.3-0.3-0.5-0.6-0.8-0.9
			l-0.4-0.4l-0.1-0.1l0,0l0,0l0-0.1l-0.1-0.1l-0.2-0.3c-0.3-0.4-0.4-0.8-0.6-1.2c-0.4-0.8-0.6-1.6-0.8-2.4l-0.3-1.1
			c-0.1-0.3-0.2-0.8-0.3-1c-0.6-1.4-1.2-2.7-1.7-4.1c-0.1-0.3-0.3-0.7-0.4-1l-0.2-0.5l-0.1-0.2l0-0.1l0-0.1l0-0.1
			c-0.2-0.7-0.4-1.4-0.6-2.1c-0.5-1.3-0.6-2.6-0.8-3.8c-0.1-0.6-0.3-1.2-0.2-1.7c0.1-0.6,0.1-1.1,0.2-1.6c0.1-0.5,0.1-1,0.2-1.4
			c0.1-0.4,0.2-0.8,0.3-1.1C297.8,153.4,298.1,152.6,298.1,152.6z"/>
		<path style="fill:#333333;" d="M308.6,186.2c0,0-0.2-0.1-0.6-0.3c-0.2-0.1-0.4-0.2-0.5-0.3c-0.1-0.1-0.2-0.1-0.3-0.2
			c-0.1,0,0-0.1,0-0.1c0,0,0-0.1,0-0.1c0.1-0.4,0.1-1,0.2-1.6c0.1-0.6,0.1-1.2,0.2-1.6c0,0,0-0.1,0-0.1c0,0,0-0.1,0-0.1
			c0.1,0,0.2-0.1,0.3-0.1c0.2-0.1,0.4-0.1,0.6-0.2c0.4-0.1,0.6-0.1,0.6-0.1s0.2,0.1,0.5,0.3c0.2,0.1,0.4,0.2,0.5,0.3
			c0.1,0.1,0.2,0.1,0.3,0.2c0.1,0,0.1,0.1,0,0.1c0,0,0,0.1,0,0.1c-0.1,0.4-0.1,1-0.2,1.6c-0.1,0.6-0.1,1.2-0.2,1.6c0,0,0,0.1,0,0.1
			c0,0,0,0.1,0,0.1c-0.1,0-0.2,0.1-0.3,0.1c-0.2,0.1-0.4,0.1-0.6,0.2C308.9,186.2,308.6,186.2,308.6,186.2z"/>
		<path style="fill:#333333;" d="M184.3,141.4c0,0,0.1,0.4,0.2,1.1c0,0.3,0.1,0.8,0.1,1.2c0,0.2,0.1,0.5,0.1,0.7
			c0,0.1,0,0.2-0.1,0.3c-0.1,0.1-0.1,0.2-0.1,0.3c-0.2,0.5-0.3,0.9-0.4,1.5c-0.1,0.5-0.2,1.1-0.2,1.6c0,0.5,0,1,0.2,1.3
			c0.1,0.4,0.3,0.6,0.7,0.8l0.1,0.1l0.1,0l0,0l0,0l0,0c0.2,0.1-0.2-0.1-0.2-0.1l0,0l0.5,0.1c0.1,0,0.1,0,0.1,0c0,0,0,0,0,0
			c0,0,0.1,0,0.1,0c0.3-0.1,0.6-0.3,1-0.6c0.3-0.4,0.7-0.8,1-1.2c0.3-0.4,0.5-0.9,0.8-1.3c0.1-0.1,0.1-0.2,0.2-0.3
			c0-0.1,0.1-0.2,0.2-0.3c0.2-0.2,0.4-0.3,0.6-0.4c0.4-0.3,0.7-0.5,1-0.7c0.3-0.2,0.5-0.3,0.7-0.5c0.2-0.1,0.2-0.2,0.2-0.2
			s0,0.4,0.1,1.1c0,0.3,0.1,0.8,0,1.2c0,0.2,0,0.5,0,0.8c0,0.1,0,0.3-0.1,0.4c-0.1,0.1-0.1,0.2-0.2,0.3c-0.3,0.5-0.6,1-0.9,1.5
			c-0.4,0.5-0.8,1.1-1.3,1.7c-0.5,0.6-1.3,1.1-2.4,1.4c-0.3,0.1-0.5,0.1-0.9,0.1c-0.2,0-0.3,0-0.5,0c-0.2,0-0.4,0-0.4-0.1l-0.5-0.1
			l0,0l-0.2-0.1l0,0l0,0l-0.1,0l-0.2-0.1l-0.3-0.2c-0.9-0.5-1.6-1.4-1.9-2.3c-0.3-0.9-0.4-1.8-0.4-2.6c0-0.8,0.2-1.5,0.3-2.1
			c0.2-0.6,0.3-1.2,0.5-1.7c0-0.1,0.1-0.3,0.1-0.4c0-0.1,0-0.3,0.2-0.4c0.2-0.2,0.4-0.4,0.6-0.5c0.3-0.3,0.7-0.6,1-0.8
			c0.3-0.2,0.5-0.4,0.7-0.5C184.2,141.5,184.3,141.4,184.3,141.4z"/>
		<path style="fill:#333333;" d="M199.8,126.8c0,0,0.2-1,0.7-2.8c0.2-0.9,0.5-2,0.8-3.2c0.1-0.6,0.3-1.3,0.4-2
			c0.1-0.7,0.5-1.3,0.6-2c0.4-1.4,0.7-3,0.8-4.6c0.1-0.8,0-1.7,0-2.5c-0.1-0.4-0.1-0.9-0.2-1.2l-0.2-0.7c-0.1-0.2-0.1-0.4-0.2-0.6
			c-0.5-1.6-1.6-3.2-2.8-4.6c-1.2-1.4-2.8-2.6-4.4-3.3c-1.7-0.7-3.5-1-5.1-0.5c-0.8,0.2-1.5,0.6-1.9,1c-0.2,0.2-0.3,0.5-0.4,0.7
			c-0.1,0.2-0.2,0.5-0.2,0.7c0,0.2,0,0.3,0,0.5c0,0.8,0.1,1.6,0.2,2.4c0.1,0.4,0.2,0.8,0.3,1.2c0.1,0.2,0.1,0.4,0.2,0.6l0.1,0.3
			l0,0.1c-0.1-0.2,0,0,0-0.1l0,0l0,0l0.1,0.2c0.4,0.8,0.7,1.7,1.1,2.3c0.2,0.3,0.4,0.7,0.5,1c0.2,0.3,0.4,0.6,0.6,0.9
			c0.2,0.3,0.4,0.6,0.6,0.9c0.2,0.3,0.5,0.5,0.6,0.9c0.3,0.6,0.6,1.2,1,1.8c0.7,1.1,1.2,2.3,1.4,3.3c0.3,1,0.1,1.9-0.2,2.3
			c-0.1,0.2-0.3,0.4-0.4,0.5c-0.1,0.1-0.1,0.1-0.1,0.1c0,0,0.2-0.2,0.2-0.7c0.1-0.5-0.1-1.1-0.5-1.8c-0.5-0.7-1.2-1.4-2.1-2.2
			c-0.5-0.4-1-0.9-1.5-1.4c-0.6-0.5-0.9-1.2-1.4-1.9c-0.2-0.3-0.5-0.7-0.7-1.1c-0.2-0.4-0.4-0.8-0.7-1.2c-0.5-0.8-0.7-1.6-1.1-2.4
			l-0.1-0.2l-0.1-0.2l0-0.1l-0.1-0.3c-0.1-0.2-0.2-0.5-0.2-0.7c-0.1-0.5-0.3-1-0.4-1.5c-0.2-1-0.3-2.1-0.3-3.3c0-0.3,0.1-0.7,0.1-1
			c0.1-0.3,0.1-0.5,0.2-0.7c0.2-0.7,0.6-1.4,1-1.9c1-1.1,2.2-1.6,3.4-1.9c2.4-0.6,4.9-0.2,7,0.7c2.2,1,4,2.4,5.5,4.1
			c1.5,1.7,2.7,3.5,3.4,5.7c0.1,0.3,0.2,0.6,0.3,0.8l0.2,0.7c0.1,0.6,0.2,1.1,0.3,1.6c0.1,1,0.1,2,0.1,3c-0.1,1.9-0.5,3.7-0.9,5.3
			c-0.1,0.4-0.2,0.8-0.3,1.2c-0.1,0.4-0.2,0.7-0.4,1.1c-0.4,0.7-0.7,1.3-1,1.8c-0.7,1.1-1.3,2.1-1.9,2.8
			C200.5,125.9,199.8,126.8,199.8,126.8z"/>
		<path style="fill:#333333;" d="M187.7,107.9c0,0,0,0.1,0,0.2c0,0.1-0.1,0.4-0.1,0.6c-0.1,0.2-0.1,0.5-0.2,0.9
			c0,0.2-0.1,0.3-0.1,0.5c0,0.1-0.1,0.1-0.1,0.1c-0.1,0-0.1,0.1-0.2,0.1c-0.2,0.2-0.4,0.3-0.5,0.5c-0.1,0.1-0.1,0.1-0.1,0.1
			c0,0,0,0,0-0.1l0,0l-0.2,0l-0.2,0v0c0,0.1,0-0.2,0-0.1v0l0.2,0.1c0,0.3,0.1,0.2,0.1,0.3c0,0.1,0.1,0.3,0.2,0.4
			c0.1,0.3,0.3,0.6,0.5,1l0.2,0.3l0,0l0,0l0,0c0,0-0.1-0.2-0.1-0.1l0,0l0,0.1l0.1,0.1c0.2,0.2,0.2,0.2,0.2,0.2
			c0.1,0.1,0.3,0.2,0.4,0.2c0.4,0.1,1,0.1,1.6,0c0.1,0,0.1,0,0.2,0c0.1,0,0.1-0.1,0.2,0c0.2,0.1,0.3,0.2,0.5,0.3
			c0.3,0.1,0.6,0.3,0.8,0.4c0.2,0.1,0.4,0.3,0.5,0.3c0.1,0.1,0.2,0.1,0.2,0.1s-0.2,0.2-0.5,0.6c-0.1,0.2-0.3,0.4-0.5,0.7
			c-0.1,0.1-0.2,0.3-0.4,0.4c-0.1,0.1-0.1,0.1-0.2,0.1c-0.1,0-0.2,0-0.3,0c-0.4,0.1-0.7,0.1-1.2,0.1c-0.5,0-1,0-1.6-0.2
			c-0.6-0.2-1.2-0.5-1.7-0.9c-0.3-0.3-0.6-0.6-0.6-0.7l-0.1-0.1l0-0.1l-0.1-0.2l-0.2-0.3c-0.2-0.4-0.5-0.8-0.7-1.3
			c-0.1-0.2-0.2-0.5-0.3-0.7c-0.1-0.3-0.2-0.8-0.2-0.9l-0.2-0.1l-0.2-0.1v0l0.2,0l0.1-0.1l0.1-0.2c0-0.2,0.1-0.4,0.2-0.6
			c0.1-0.4,0.3-0.6,0.5-0.9c0.3-0.4,0.7-0.7,1-1c0.1-0.1,0.2-0.1,0.2-0.2c0.1-0.1,0.1-0.1,0.2-0.1c0.2,0,0.4,0,0.6,0
			c0.3,0,0.6,0,0.9,0.1c0.2,0,0.5,0.1,0.6,0.1C187.6,107.9,187.7,107.9,187.7,107.9z"/>
		<path style="fill:#333333;" d="M193.7,114c0,0,0.1,0,0.3,0c0.2,0,0.4-0.1,0.6-0.2c0.2-0.1,0.3-0.4,0.3-0.6c0-0.1,0-0.2,0-0.4
			c0-0.1,0.2-0.1,0.2-0.2c0.2-0.2,0.3-0.5,0.4-0.7c0-0.1,0-0.1,0.1-0.2l0,0l0.2,0l0.2,0v0c0,0.2-0.2,0.1-0.2,0.1l-0.1,0l0-0.2l0-0.4
			c0-0.1,0-0.1,0-0.2c0-0.3-0.1-0.8-0.2-1.2c-0.1-0.4-0.3-0.9-0.6-1.3c-0.1-0.1-0.1-0.2-0.2-0.3l-0.1-0.2l0-0.1l0,0
			c0,0-0.1-0.1,0.1,0.1l0,0l0,0l0,0l-0.5-0.7c-0.2-0.2-0.3-0.3-0.4-0.4c-0.1-0.1-0.3-0.3-0.5-0.4c-0.3-0.3-0.7-0.4-1-0.6
			c-0.4-0.1-0.7-0.3-1.1-0.3c-0.1,0-0.2,0-0.3,0c-0.1,0-0.2,0-0.2-0.1c-0.1-0.1-0.3-0.2-0.4-0.4c-0.3-0.2-0.6-0.4-0.8-0.6
			c-0.5-0.3-0.8-0.5-0.8-0.5s0.2-0.3,0.8-0.6c0.3-0.2,0.6-0.4,1-0.6c0.2-0.1,0.4-0.2,0.7-0.3c0.1-0.1,0.2,0,0.4,0
			c0.1,0,0.2,0.1,0.4,0.1c0.5,0.1,1.1,0.3,1.6,0.5c0.5,0.3,1.1,0.5,1.6,1c0.5,0.3,1.1,1,1.5,1.4l0.5,0.7l0,0l0.1,0.1l0,0l0.1,0.1
			l0.1,0.2c0.1,0.1,0.2,0.3,0.2,0.4c0.3,0.6,0.6,1.2,0.8,1.8c0.2,0.7,0.4,1.3,0.4,2.1c0,0.2,0,0.4,0,0.6l0,0.4l0,0.2l0,0l0,0.1l0,0
			l0,0l0,0.1c0,0.2-0.1,0.4-0.2,0.5c-0.2,0.7-0.6,1.2-1,1.7c-0.1,0.1-0.2,0.2-0.3,0.4c-0.1,0.1-0.2,0.2-0.4,0.3
			c-0.3,0.1-0.6,0.2-1,0.2c-0.6,0-1.2-0.2-1.5-0.4c-0.3-0.2-0.5-0.5-0.5-0.7C193.7,114.1,193.7,114,193.7,114z"/>
		<path style="fill:#333333;" d="M191.9,103.9c0,0,0.2,0.1,0.6,0.4c0.2,0.1,0.4,0.2,0.6,0.4c0.1,0.1,0.2,0.1,0.4,0.2
			c0.1,0,0.1,0.1,0,0.1c0,0.1,0,0.1,0,0.2c0.1,0.4,0.2,0.9,0.4,1.4c0.2,0.5,0.4,1,0.6,1.4c0.1,0.2,0.3,0.4,0.4,0.6
			c0.2,0.2,0.3,0.4,0.5,0.5c0.2,0.2,0.3,0.3,0.5,0.4c0.2,0.1,0.3,0.3,0.5,0.3c0,0,0.1,0,0.1,0.1c0.1,0,0.1,0,0.1,0.1
			c0,0.1,0,0.3,0.1,0.4c0.1,0.3,0.1,0.5,0.2,0.7c0.1,0.4,0.2,0.7,0.2,0.7s-0.2,0.2-0.6,0.4c-0.2,0.1-0.5,0.2-0.8,0.3
			c-0.1,0-0.3,0.1-0.5,0.1c-0.1,0-0.2,0-0.2-0.1c-0.1-0.1-0.1-0.1-0.2-0.1c-0.3-0.1-0.5-0.3-0.8-0.5c-0.3-0.2-0.5-0.5-0.8-0.7
			c-0.3-0.2-0.5-0.6-0.7-0.8c-0.2-0.3-0.4-0.6-0.6-0.9c-0.3-0.6-0.7-1.3-0.9-1.9c-0.2-0.6-0.4-1.2-0.5-1.7c0-0.1,0-0.1-0.1-0.2
			c0-0.1-0.1-0.1,0-0.2c0.1-0.1,0.2-0.3,0.3-0.4c0.2-0.2,0.3-0.4,0.5-0.6c0.1-0.2,0.3-0.3,0.4-0.4
			C191.9,103.9,191.9,103.9,191.9,103.9z"/>
		<path style="fill:#333333;" d="M199.7,103c0,0,0.1,0,0.2,0c0.1,0,0.2,0,0.3,0c0.1,0,0.3,0.1,0.4,0.2c0.1,0.1,0.3,0.3,0.4,0.6
			c0.1,0.3,0.1,0.6,0,1c-0.1,0.3-0.2,0.6-0.3,0.8c-0.1,0.1-0.1,0.2-0.2,0.2c-0.1,0-0.2,0.1-0.3,0.2c-0.3,0.2-0.6,0.4-0.9,0.6
			c-0.1,0.1-0.3,0.2-0.3,0.2l0,0c0,0,0,0,0,0c0,0,0,0,0-0.1c0,0,0-0.1,0-0.1l0,0l0-0.2l0,0.3c0,0.1,0,0,0,0c0-0.1,0,0.1,0,0.1
			c0,0.1,0,0.1,0.1,0.2c0.1,0.3,0.3,0.7,0.5,1.1c0.1,0.2,0.2,0.5,0.3,0.8l0.2,0.6c0.1,0.4,0.3,0.8,0.5,1.1c0.2,0.3,0.3,0.6,0.5,0.9
			c0.2,0.2,0.3,0.4,0.4,0.5c0,0,0,0,0,0c0,0,0,0,0,0c0,0.1-0.1,0.2-0.1,0.3c0,0.1,0,0.2,0.1,0.3c0.1,0.1,0.2,0.1,0.3,0.2
			c0.2,0.1,0.4,0.1,0.6,0.1c0.1,0,0.2,0,0.2,0s0,0.1,0,0.2c0,0.1,0,0.4-0.2,0.7c-0.1,0.1-0.2,0.3-0.3,0.5c-0.2,0.1-0.4,0.3-0.6,0.4
			c-0.3,0.1-0.6,0.2-1,0.2c-0.2,0-0.3-0.1-0.5-0.2c-0.1-0.1-0.2-0.2-0.4-0.3c-0.5-0.4-0.8-0.8-1.1-1.2c-0.3-0.4-0.5-0.8-0.7-1.3
			c-0.2-0.4-0.4-0.9-0.5-1.3l-0.2-0.7c-0.1-0.2-0.1-0.3-0.2-0.5c-0.2-0.4-0.4-0.8-0.6-1.3c-0.1-0.1-0.1-0.3-0.1-0.4
			c0-0.2-0.1-0.2-0.1-0.5c0-0.2-0.2-0.5-0.1-0.7l-0.1-0.3v0c0-0.4,0.1-0.1,0.1-0.2l0.1,0l0-0.1l0.1-0.1c0-0.1,0.1-0.2,0.1-0.2
			c0.1-0.2,0.1-0.3,0.2-0.3c0.1-0.1,0.1-0.2,0.2-0.3l0.2-0.2c0.2-0.2,0.5-0.4,0.6-0.5c0.3-0.2,0.6-0.4,0.9-0.6
			c0.1,0,0.1-0.1,0.1-0.1c0-0.1,0.1-0.1,0.1-0.1c0.1,0,0.2,0.1,0.3,0.1c0.1,0.1,0.1,0.2,0.2,0.2c0.1,0.1,0.2,0,0.3,0
			c0.1-0.1,0.1-0.1,0.1-0.2c0-0.1,0-0.2,0-0.3C199.7,103.1,199.7,103,199.7,103z"/>
		<path style="fill:#333333;" d="M205.7,161.1c0,0-0.6-0.7-1.5-1.9c-0.5-0.6-1.1-1.3-1.7-2.2c-0.3-0.4-0.7-0.9-1-1.4
			c-0.2-0.3-0.3-0.6-0.4-0.9c-0.1-0.3-0.2-0.6-0.3-0.9c-0.2-0.6-0.4-1.3-0.6-2c-0.2-0.7-0.4-1.4-0.5-2.2c-0.1-0.8-0.3-1.6-0.3-2.4
			c0-0.4,0-0.8,0-1.3l0-0.6l0.1-0.7c0.1-1.5,0.4-3.4,0.8-5c0.2-0.8,0.3-1.6,0.5-2.5c0.1-0.8,0.3-1.6,0.3-2.4l0.1-1.2
			c0-0.4,0-0.8,0-1.2c0-0.8-0.2-1.5-0.3-2.2l0-0.3l0,0l0,0c0,0,0-0.1,0,0.1l0-0.1l-0.1-0.1c-0.1-0.2-0.1-0.4-0.2-0.5
			c-0.1-0.1-0.1-0.2-0.2-0.3c-0.1-0.1-0.1-0.2-0.2-0.3c-0.3-0.3-0.8-0.6-1.5-0.8c-1.4-0.5-3-1-3.9-1c-0.3,0-0.4,0-0.5,0.1
			c-0.1,0,0,0,0,0c0,0,0,0,0,0l0,0l0,0c0,0.1,0-0.2,0-0.2l0,0.1l0,0.1c0,0.2-0.1,0.4,0,0.4c0,0.1,0,0,0,0.2l0.1,0.3
			c0.1,0.2,0.1,0.4,0.2,0.7c0.1,0.2,0.2,0.4,0.3,0.7c0.1,0.5,0.3,0.9,0.5,1.3c0.4,0.8,1,1.4,1.5,1.8c0.5,0.4,1.1,0.4,1.5,0.4
			c0.4-0.1,0.6-0.1,0.6-0.1s-0.2,0.1-0.5,0.4c-0.4,0.2-1,0.5-1.9,0.4c-0.9-0.1-1.9-0.6-2.8-1.4c-0.5-0.4-0.9-0.8-1.4-1.4
			c-0.2-0.3-0.4-0.6-0.5-1c-0.1-0.3-0.2-0.7-0.4-1.1c0-0.2-0.1-0.4-0.1-0.6c0-0.2,0-0.6,0-0.8c0-0.3,0-0.5,0.1-0.6l0-0.1l0-0.1
			c0,0,0.1-0.3,0-0.2l0,0l0-0.1c0.1-0.1,0.1-0.3,0.2-0.4c0.3-0.6,0.9-1.2,1.5-1.4c0.6-0.2,1.2-0.3,1.6-0.3c1,0,1.8,0.2,2.6,0.5
			c0.8,0.2,1.5,0.5,2.3,0.8c0.8,0.3,1.8,0.7,2.7,1.6c0.2,0.2,0.4,0.5,0.5,0.7c0.2,0.3,0.3,0.5,0.4,0.8c0.1,0.3,0.2,0.4,0.2,0.6
			l0.1,0.1l0,0.1c0.1,0.2,0,0.1,0,0.1l0,0l0,0l0.1,0.3c0.2,0.9,0.4,1.9,0.4,2.8c0,0.5,0.1,0.9,0,1.4l-0.1,1.4
			c-0.1,0.9-0.2,1.8-0.4,2.7c-0.2,0.8-0.3,1.7-0.5,2.5c-0.2,0.8-0.3,1.6-0.4,2.4c-0.1,0.7-0.2,1.5-0.3,2.3l0,0.5l0,0.5
			c0,0.4,0,0.7,0,1.1c0,0.7,0.2,1.4,0.2,2.1c0.1,0.7,0.3,1.3,0.5,1.9c0.2,0.6,0.4,1.2,0.6,1.8c0.2,0.6,0.5,1.1,0.6,1.7
			c0.1,0.6,0.2,1.1,0.3,1.6c0.2,1,0.4,1.9,0.6,2.7C205.5,160.2,205.7,161.1,205.7,161.1z"/>
		<path style="fill:#333333;" d="M189.7,123.3c0,0,0.1,0,0.3,0c0.1,0,0.2,0,0.3-0.1c0.1-0.1,0.1-0.1,0.2-0.2
			c0.1-0.2,0.1-0.4,0.1-0.6c0-0.1,0-0.3-0.1-0.4c0-0.1,0-0.1,0.1-0.1c0.1,0,0.1-0.1,0.1-0.2c0.1-0.2,0.2-0.5,0.3-0.8
			c0-0.3,0-0.6-0.1-0.7c0,0,0-0.1,0-0.1c0,0,0.1,0,0.1,0l0.1,0v0v0h-0.1c0.1,0-0.2-0.1,0.1,0.1l-0.1,0l-0.4-0.2l-0.2-0.1l-0.1,0
			c0,0-0.1,0-0.1,0c-0.1,0-0.1,0-0.2,0c-0.1-0.1-0.2,0-0.4,0c-0.2,0.1-0.3,0.2-0.5,0.3c0,0,0,0.1-0.1,0.2l0,0.1l0,0l0,0l0,0
			c0-0.1,0,0.2,0-0.2l0,0l0,0c0,0.3-0.1,0.6-0.1,0.8c0,0.1,0,0.2,0,0.4c0,0.2,0.1,0.4,0.1,0.6c0.1,0.4,0.2,0.8,0.4,1.1
			c0,0.1,0.1,0.2,0.1,0.3c0.1,0.1,0.1,0.2,0.1,0.3c0,0.2,0,0.4-0.1,0.6c0,0.4-0.1,0.8-0.1,1.1c-0.1,0.6-0.1,1-0.1,1
			s-0.3-0.2-0.9-0.5c-0.3-0.2-0.6-0.3-0.9-0.6c-0.2-0.1-0.4-0.3-0.6-0.4c-0.1-0.1-0.2-0.2-0.2-0.3c0-0.1-0.1-0.2-0.1-0.3
			c-0.2-0.4-0.4-1-0.5-1.5c-0.1-0.3-0.1-0.6-0.2-0.9c0-0.4,0-0.8,0-1.2c0-0.3,0.1-0.6,0.1-0.8l0,0l0,0c0.1-0.3,0-0.1,0-0.2l0,0
			l0-0.1l0.1-0.2l0.1-0.3c0.1-0.2,0.1-0.4,0.3-0.6c0.5-0.8,1.4-1.4,2.3-1.6c0.5-0.1,0.9-0.2,1.4-0.1c0.2,0,0.4,0.1,0.7,0.1
			c0.2,0.1,0.5,0.2,0.7,0.3l0.3,0.2l0.2,0.1l0.4,0.2l0,0c0.3,0.2,0.1,0.1,0.1,0.1l0,0l0,0l0,0l0.1,0.1l0.3,0.3
			c0.2,0.2,0.3,0.4,0.4,0.6c0.4,0.9,0.4,1.7,0.3,2.4c-0.1,0.7-0.3,1.3-0.6,1.8c-0.2,0.2-0.2,0.6-0.5,0.8c-0.3,0.2-0.6,0.3-0.8,0.4
			c-0.6,0.2-1.2,0.2-1.6,0c-0.2-0.1-0.4-0.2-0.5-0.3c-0.1-0.1-0.1-0.2-0.1-0.3C189.7,123.4,189.7,123.3,189.7,123.3z"/>
		<path style="fill:#333333;" d="M191,169.1c0,0-0.3-0.3-0.7-0.7c-0.2-0.2-0.4-0.5-0.7-0.8c-0.1-0.2-0.3-0.3-0.4-0.5
			c-0.1-0.1-0.1-0.2-0.1-0.3c0-0.1,0-0.2,0-0.3c-0.1-0.9-0.3-1.8-0.3-2.9c-0.1-1.1-0.2-2.3-0.3-3.4c0-0.6-0.1-1.1-0.1-1.7
			c-0.1-0.5-0.1-1-0.2-1.5c-0.1-0.5-0.2-0.9-0.3-1.4c-0.1-0.4-0.2-0.8-0.4-1.1c0-0.1-0.1-0.2-0.1-0.2c-0.1-0.1-0.1-0.1-0.1-0.2
			c0-0.2,0-0.4,0.1-0.6c0-0.4,0.1-0.7,0-1c0-0.6-0.1-1-0.1-1s0.3,0.1,1,0.3c0.3,0.1,0.7,0.3,1,0.5c0.2,0.1,0.4,0.2,0.6,0.4
			c0.1,0.1,0.2,0.2,0.2,0.3c0,0.1,0.1,0.2,0.1,0.3c0.2,0.5,0.4,1,0.5,1.5c0.1,0.5,0.3,1.1,0.4,1.7c0.1,0.6,0.2,1.2,0.2,1.8
			c0,0.6,0.1,1.1,0.1,1.7c0.1,1.1,0.2,2.3,0.3,3.3c0.1,1,0.2,2.1,0.3,2.9c0,0.1,0,0.2,0.1,0.3c0,0.1,0.1,0.2,0,0.3
			c-0.1,0.2-0.2,0.4-0.3,0.6c-0.2,0.4-0.3,0.7-0.5,1C191.2,168.8,191,169.1,191,169.1z"/>
		<path style="fill:#333333;" d="M186.4,131.7c0,0,0.2,0.2,0.5,0.4c0.3,0.2,0.8,0.4,1.5,0.6c0.7,0.2,1.5,0.4,2.5,0.6
			c0.5,0.1,1,0.2,1.7,0.4l0.1,0c-0.1,0,0,0,0.1,0c0.1,0,0.1,0,0.2,0.1c0.1,0,0.1,0.1,0.2,0.1c0.2,0.1,0.4,0.1,0.7,0.2
			c0.5,0.1,0.9,0.1,1.3,0c0.2,0,0.3-0.1,0.4-0.2c0,0,0.1-0.1,0.1-0.1c0,0,0,0,0-0.1l0,0l0,0l0,0c0,0.1,0.1-0.2-0.1,0.2l0,0l0-0.1
			l0-0.1c0,0,0,0,0,0c0,0.1,0,0.2,0,0.2c0,0,0,0,0-0.1c-0.1-0.1-0.2-0.4-0.4-0.6c-0.4-0.5-0.8-1-1.4-1.4c-1.1-0.9-2.3-1.9-3.6-2.7
			c-0.7-0.4-1.3-0.8-2-1.2l-0.5-0.3c-0.1-0.1-0.3-0.2-0.4-0.2l-0.3-0.1l-0.2,0c-0.1,0-0.3-0.1-0.4-0.1c-0.6-0.1-1.3,0-1.5,0.2
			c-0.1,0.1-0.1,0-0.1,0.1c0,0,0,0.2,0,0.5c0.1,0.2,0.1,0.2,0.1,0.4l0.2,0.6c0.1,0.4,0.3,0.9,0.4,1.6c0,0.2,0,0.4,0,0.5l0,0.1l0,0
			c0-0.2-0.1,0.3-0.1,0.3l0,0.1l0,0.1l0,0.1c-0.1,0.1-0.1,0.2-0.2,0.4c-0.1,0.1-0.1,0.2-0.2,0.4l-0.1,0.2l-0.1,0.1
			c-0.5,0.5-0.9,0.7-1.3,0.9c-0.3,0.2-0.5,0.3-0.5,0.3c-0.1,0.1,0.1-0.2,0.1-0.2l0,0l0,0l0,0.1l-0.1,0.1l-0.1,0.2
			c-0.1,0.2-0.1,0.2-0.1,0.3l-0.2,0.5l-0.1,0.3c-0.1,0.1-0.1,0.3-0.2,0.4c-0.3,0.6-0.6,0.8-0.8,1.1c-0.4,0.5-0.6,0.8-0.6,1.1
			c0,0.2,0,0.4,0,0.7l0.1,0.1l0.1,0v0c0-0.2-0.1,0-0.1-0.1l0,0l0,0.2l0.1,0.5c0.1,0.3,0.1,0.6,0.2,0.9c0.1,0.3,0.1,0.6,0.1,0.8
			c0,0.5,0.1,1,0.1,1.5c0.1,0.9,0.3,1.8,0.4,2.5c0.4,1.4,0.6,2.3,0.6,2.3s-0.6-0.6-1.6-1.8c-0.4-0.6-1-1.3-1.6-2.3
			c-0.3-0.5-0.5-1-0.8-1.6c-0.2-0.3-0.2-0.6-0.2-0.9c0-0.3-0.1-0.6-0.1-0.9l-0.1-0.5l0-0.2l0,0l0-0.1l0-0.1l0-0.2c0-0.4,0-0.8,0-1.3
			c0.1-0.5,0.2-1,0.5-1.4c0.2-0.5,0.5-0.8,0.7-1.1l0.3-0.4l0.1-0.1l0-0.1c0,0,0-0.1,0-0.1c0,0,0,0,0.1-0.1l0.1-0.2l0.2-0.5
			c0.1-0.2,0.2-0.6,0.3-0.7l0.1-0.2l0.1-0.1l0-0.1l0,0l0,0c0,0,0.2-0.3,0.1-0.2c0.5-0.6,1-0.9,1.3-1.1c0.3-0.2,0.6-0.4,0.7-0.4
			c0,0,0,0,0,0c0,0,0,0,0,0c0,0,0,0.1-0.1,0.1c0,0,0,0.1,0,0.1l0-0.1l0-0.1l0.2-0.1c0-0.1,0.1,0.5,0.1,0.2v0l-0.2,0
			c0,0-0.1,0-0.1-0.1c0-0.1-0.1-0.4-0.3-0.8l-0.2-0.6c-0.1-0.2-0.2-0.6-0.2-0.8c-0.1-0.5-0.2-1.2,0-2c0.2-0.8,0.8-1.5,1.4-1.8
			c1.2-0.7,2.3-0.7,3.3-0.6c0.3,0,0.5,0.1,0.8,0.1l0.4,0.1l0.3,0.1c0.4,0.1,0.5,0.2,0.8,0.3l0.6,0.3c0.8,0.4,1.5,0.9,2.2,1.3
			c1.4,0.9,2.8,1.9,4,3c0.6,0.6,1.2,1.1,1.8,1.9c0.3,0.4,0.5,0.8,0.8,1.3c0.1,0.3,0.2,0.6,0.2,0.9c0,0.1,0,0.5,0,0.7l0,0.2l0,0.1
			l0,0.1c-0.5,1.5-1.6,2-2.6,2.3c-0.9,0.3-1.8,0.2-2.5,0.1c-0.4-0.1-0.8-0.1-1.1-0.2c-0.2,0-0.4-0.1-0.6-0.2c-0.1,0-0.1-0.1-0.2-0.1
			c-0.1,0,0,0-0.1-0.1l-0.1-0.1c-0.4-0.3-0.9-0.6-1.3-0.9c-0.9-0.6-1.6-1.2-2.2-1.7c-0.6-0.5-1-1-1.2-1.4
			C186.4,131.9,186.4,131.7,186.4,131.7z"/>
		<path style="fill:#333333;" d="M183.7,135.8c0,0,0.4,0,1.1,0c0.4,0,0.8,0,1.3,0c0.2,0,0.5,0,0.8,0c0.1,0,0.2,0.1,0.3,0.2
			c0.1,0.1,0.2,0.2,0.3,0.2c0.5,0.3,1,0.7,1.5,1c0.6,0.3,1.1,0.8,1.6,1.2c0.5,0.4,1,0.8,1.5,1c0.5,0.3,1,0.5,1.4,0.6
			c0.3,0.1,1,0,1.5-0.2c0.2-0.1,0.5-0.2,0.6-0.2c0.1,0,0.1,0,0,0c0,0-0.1,0.2-0.1,0.3c0,0,0,0.1,0,0.1l0,0.2l0-0.1l-0.1-0.2
			c0-0.1,0,0-0.1-0.1c-0.1-0.1-0.2-0.3-0.3-0.5c-0.3-0.4-0.7-0.7-1-1c-0.1-0.1-0.2-0.2-0.3-0.2c-0.1,0-0.2-0.1-0.2-0.2
			c-0.1-0.2-0.2-0.5-0.3-0.7c-0.2-0.4-0.4-0.8-0.6-1.1c-0.3-0.6-0.4-1.1-0.4-1.1c0,0,0.4,0.1,1.1,0.1c0.3,0,0.8,0.1,1.2,0.2
			c0.2,0.1,0.5,0.1,0.8,0.2c0.1,0,0.3,0.1,0.3,0.2c0.1,0.1,0.2,0.2,0.3,0.3c0.4,0.4,0.9,0.8,1.4,1.4c0.2,0.3,0.5,0.6,0.7,1
			c0.1,0.2,0.3,0.6,0.3,0.8l0.1,0.2l0,0.1c0,0.3,0,0.1,0,0.2l0,0l0,0l0,0.1c0,0.1,0,0.2,0,0.3c0,0.5-0.3,0.9-0.5,1.2
			c-0.3,0.3-0.5,0.5-0.8,0.7c-0.5,0.3-0.9,0.4-1.4,0.6c-0.9,0.2-1.6,0.4-2.7,0.2c-1-0.2-1.8-0.5-2.5-0.9c-0.7-0.4-1.3-0.8-1.9-1.3
			c-0.6-0.4-1-0.8-1.5-1.1c-0.5-0.3-0.9-0.6-1.3-0.9c-0.2-0.2-0.4-0.2-0.6-0.4c-0.2-0.2-0.3-0.4-0.4-0.6c-0.3-0.4-0.5-0.7-0.7-1
			C183.9,136.2,183.7,135.8,183.7,135.8z"/>
		<path style="fill:#333333;" d="M181.3,140.1c0,0,0.1,0,0.2-0.1c0.1-0.1,0.4-0.1,0.6-0.2c0.3-0.1,0.6-0.1,0.9-0.2
			c0.2,0,0.3-0.1,0.5-0.1c0.1,0,0.2,0,0.2,0.1c0.1,0.1,0.1,0.1,0.2,0.1c1.2,0.6,2.7,1.4,4.2,2c0.8,0.3,1.5,0.6,2.2,0.7
			c0.3,0.1,0.6,0.1,0.9,0.1c0.3,0,0.4-0.1,0.5-0.1c0,0,0,0,0,0c0,0,0,0,0.1,0c0.1,0.1,0.2,0.1,0.3,0.2c0.2,0.1,0.5,0,0.7-0.1
			c0.2-0.1,0.4-0.2,0.5-0.3c0.1-0.1,0.2-0.1,0.2-0.1s0,0.1,0.1,0.2c0.1,0.1,0.2,0.3,0.3,0.6c0.1,0.3,0.1,0.7,0,1.1
			c-0.1,0.2-0.2,0.5-0.3,0.7c-0.1,0.1-0.2,0.2-0.3,0.3c-0.1,0-0.3,0.1-0.4,0.2c-0.5,0.2-1.1,0.3-1.6,0.3c-0.5,0-1,0-1.5-0.1
			c-1-0.2-1.9-0.5-2.7-0.8c-1.7-0.7-3.3-1.5-4.5-2.2c-0.1,0-0.1-0.1-0.2-0.1c-0.1,0-0.2,0-0.2-0.1c-0.1-0.2-0.1-0.3-0.2-0.5
			c-0.1-0.3-0.2-0.6-0.3-0.8C181.4,140.4,181.3,140.1,181.3,140.1z"/>
		<path style="fill:#333333;" d="M351.9,207.9c0,0,0.3,0.3,0.7,0.8c0.2,0.3,0.5,0.6,0.7,0.9c0.1,0.2,0.3,0.3,0.4,0.5
			c0.1,0.1,0.1,0.2,0.1,0.3c0,0.1,0,0.2,0.1,0.3c0.1,0.4,0.3,0.9,0.4,1.4c0.2,0.5,0.4,1,0.6,1.5c0.2,0.5,0.5,1,0.8,1.6
			c0.2,0.3,0.3,0.5,0.5,0.8l0.5,0.9c0.3,0.6,0.6,1.1,0.9,1.7c0.3,0.6,0.6,1.2,0.8,1.8c0.3,0.6,0.5,1.2,0.7,1.7
			c0.2,0.6,0.4,1.1,0.5,1.6c0,0.1,0.1,0.2,0.1,0.4c0.1,0.1,0.1,0.2,0.1,0.4c-0.1,0.3-0.1,0.5-0.2,0.7c-0.1,0.5-0.2,0.8-0.3,1.2
			c-0.2,0.6-0.3,1-0.3,1s-0.3-0.3-0.8-0.7c-0.2-0.2-0.5-0.5-0.8-0.8c-0.1-0.2-0.3-0.3-0.5-0.5c-0.1-0.1-0.1-0.2-0.1-0.3
			c0-0.1-0.1-0.2-0.1-0.3c-0.2-0.4-0.3-0.9-0.5-1.4c-0.2-0.5-0.4-1-0.6-1.5c-0.2-0.5-0.5-1.1-0.7-1.6c-0.3-0.6-0.6-1.1-0.9-1.7
			l-0.4-0.8c-0.2-0.3-0.3-0.6-0.5-0.9c-0.3-0.6-0.6-1.2-0.9-1.8c-0.3-0.6-0.5-1.2-0.7-1.7c-0.2-0.6-0.4-1.1-0.5-1.6
			c0-0.1-0.1-0.3-0.1-0.4c-0.1-0.1-0.1-0.2-0.1-0.4c0-0.3,0.1-0.5,0.2-0.8c0.1-0.5,0.3-0.9,0.4-1.2
			C351.7,208.3,351.9,207.9,351.9,207.9z"/>
		<path style="fill:#333333;" d="M364.6,198c0,0-0.5,0.1-1.4,0.3c-0.4,0.1-1,0.2-1.6,0.2c-0.3,0-0.6,0.1-1,0.1c-0.2,0-0.3,0-0.5-0.1
			c-0.2-0.1-0.3-0.1-0.5-0.1c-1.4-0.3-3.1-0.7-4.8-1.1c-0.4-0.1-0.9-0.2-1.4-0.3c-0.2-0.1-0.4-0.1-0.6-0.1c-0.2,0-0.4-0.1-0.6-0.1
			c-0.8-0.1-1.6-0.1-2.1,0.1c-0.2,0.1-0.4,0.2-0.4,0.3c-0.1,0.1-0.4,0.3-0.4,0.6c0,0-0.2,0.1-0.2,0.1v0.2c0,0.2,0.2,0.1,0.2,0.2
			c0,0.1,0.2,0-0.2-0.3c-0.2-0.1-0.3-0.2-0.3-0.2c-0.1,0,0,0,0.1,0c0.2,0,0.5,0,0.7,0c0.1,0,0.3,0,0.5,0l0.2,0l0,0l0.1,0l0.2,0
			c0.2,0,0.4,0,0.7,0.1c0.3,0.1,0.6,0.2,0.9,0.3c0.3,0.1,0.5,0.2,0.7,0.3c0.8,0.4,1.5,0.7,2.1,1c0.2,0.1,0.3,0.2,0.5,0.2
			c0.2,0.1,0.3,0.1,0.5,0.3c0.3,0.3,0.5,0.5,0.7,0.8c0.4,0.5,0.8,1,1,1.5c0.2,0.5,0.3,0.9,0.3,1.2c0,0.3-0.2,0.4-0.1,0.4
			c0,0,0-0.2-0.2-0.3c-0.1-0.2-0.4-0.3-0.8-0.4c-0.4-0.1-0.9-0.2-1.4-0.3c-0.3,0-0.6-0.1-0.9-0.1c-0.2,0-0.3-0.1-0.4-0.2
			c-0.1-0.1-0.3-0.2-0.4-0.2c-0.6-0.3-1.3-0.7-2.1-1c-0.1-0.1-0.4-0.2-0.5-0.2c-0.1,0-0.2-0.1-0.3-0.1c-0.1-0.1-0.4-0.1-0.6-0.1
			l-0.2,0l-0.1,0l0,0l0-0.2c-0.2,0,0.2-0.2,0.2-0.2h0l-0.2,0.2c-0.2,0-0.5,0.2-0.7,0.2c-0.2,0-0.4,0.1-0.6,0c-0.3,0-0.7-0.1-1-0.4
			c-0.3-0.3-0.6-0.6-0.6-0.9c-0.1-0.3-0.4-0.5-0.4-0.7c0-0.2-0.3-0.4-0.3-0.5v-0.2c0-0.1,0.2-0.2,0.2-0.3c0-0.7,0.4-1.4,0.8-2.1
			c0.5-0.7,1.3-1.1,1.9-1.4c1.3-0.5,2.5-0.4,3.6-0.3c0.3,0,0.5,0.1,0.8,0.1c0.3,0.1,0.6,0.1,0.8,0.2c0.4,0.1,0.9,0.2,1.3,0.3
			c1.8,0.4,3.4,0.8,4.8,1.1c0.2,0,0.3,0.1,0.5,0.1c0.2,0,0.3,0,0.5,0.1c0.3,0.2,0.6,0.4,0.8,0.5c0.5,0.3,1,0.6,1.4,0.9
			C364.2,197.6,364.6,198,364.6,198z"/>
		<path style="fill:#333333;" d="M366.1,193.7c0,0-0.4,0-1.1,0c-0.3,0-0.8,0-1.2,0c-0.2,0-0.5,0-0.7,0c-0.1,0-0.2-0.1-0.3-0.1
			c-0.1-0.1-0.2-0.1-0.3-0.2c-0.4-0.2-0.9-0.5-1.4-0.7c-0.3-0.1-0.5-0.2-0.8-0.3c-0.3-0.1-0.6-0.2-0.8-0.3c-0.6-0.2-1.2-0.3-1.8-0.4
			c-0.6,0-1.2-0.2-1.8-0.1l-0.9,0c-0.3,0-0.7,0-1,0.1c-0.7,0-1.3,0.1-1.8,0.2c-0.6,0.1-1,0.3-1.4,0.4l-0.3,0.1l-0.1,0l0,0l0,0
			c0.1,0-0.1,0.1,0.1-0.1l0,0l0,0l-0.2,0.1l-0.2,0.1c0,0,0,0,0,0.1c0,0,0,0.1-0.1,0.1c0,0.1-0.1,0.1-0.1,0.2c0,0.1-0.1,0.1-0.1,0.2
			c-0.2,0.1-0.3,0.2-0.5,0.3c-0.3,0.2-0.5,0.5-0.7,0.8c-0.1,0.1-0.1,0.3-0.2,0.4c0,0.1-0.1,0.2-0.1,0.3c0,0.2-0.1,0.3-0.1,0.3
			s-0.1-0.1-0.2-0.2c-0.1-0.1-0.2-0.2-0.3-0.3c-0.1-0.1-0.2-0.3-0.3-0.4c-0.2-0.4-0.4-0.8-0.4-1.4c0-0.3,0-0.6,0-0.9
			c0-0.2,0.1-0.3,0.2-0.5c0.1-0.1,0.2-0.3,0.3-0.4c0.1-0.2,0.3-0.4,0.4-0.5c0.1-0.1,0.2-0.2,0.2-0.2l0.2-0.1l0.2-0.1l0,0l0,0
			l0.1-0.1l0,0l0,0l0.1-0.1c0.2-0.1,0.3-0.2,0.5-0.3c0.7-0.4,1.5-0.6,2.2-0.7c0.7-0.1,1.5-0.2,2.2-0.2c0.3,0,0.7,0,1-0.1l1.1,0
			c0.8-0.1,1.6,0.1,2.3,0.2c0.7,0.2,1.5,0.3,2.1,0.5c0.3,0.1,0.7,0.2,1,0.3c0.3,0.1,0.6,0.2,0.9,0.4c0.6,0.2,1.1,0.5,1.6,0.7
			c0.2,0.2,0.5,0.1,0.7,0.4c0.2,0.2,0.3,0.4,0.5,0.6c0.3,0.4,0.5,0.7,0.7,1C365.9,193.3,366.1,193.7,366.1,193.7z"/>
		<path style="fill:#333333;" d="M369.4,190.4c0,0-0.4,0-1.1-0.1c-0.3,0-0.8-0.1-1.3-0.2c-0.2,0-0.5-0.1-0.7-0.1
			c-0.3,0-0.4-0.3-0.6-0.4c-0.4-0.2-0.9-0.5-1.4-0.8c-0.5-0.2-1.1-0.6-1.6-0.8c-0.3-0.1-0.6-0.2-0.9-0.3c-0.3-0.1-0.6-0.2-0.9-0.3
			c-0.6-0.2-1.3-0.3-1.9-0.4c-0.6-0.1-1.3-0.1-1.9-0.1c-0.4,0-0.7,0-1,0c-0.3,0-0.6,0.1-0.9,0.1c-0.6,0.1-1.1,0.2-1.6,0.4
			c-0.4,0.2-0.8,0.4-1,0.6c0,0.1-0.1,0.1-0.1,0.2c0,0.1-0.1,0.1-0.2,0.1c-0.2,0-0.3,0.1-0.5,0.2c-0.3,0.2-0.6,0.5-0.7,0.7
			c-0.2,0.3-0.3,0.5-0.4,0.7c-0.1,0.2-0.1,0.3-0.1,0.3s-0.1-0.1-0.2-0.2c-0.1-0.2-0.3-0.4-0.4-0.8c-0.2-0.4-0.3-0.9-0.3-1.5
			c0-0.3,0-0.7,0.2-1c0-0.2,0.1-0.4,0.3-0.5c0.1-0.1,0.3-0.3,0.4-0.4c0.6-0.5,1.2-0.9,1.9-1.2c0.7-0.3,1.4-0.5,2.2-0.6
			c0.4-0.1,0.8-0.1,1.1-0.1c0.4,0,0.8-0.1,1.1-0.1c0.8,0,1.6,0.1,2.4,0.1c0.8,0.1,1.6,0.2,2.3,0.5c0.4,0.1,0.7,0.2,1.1,0.3
			c0.4,0.1,0.7,0.3,1,0.4c0.7,0.2,1.3,0.6,1.9,0.9c0.6,0.3,1.1,0.6,1.6,0.9c0.1,0.1,0.2,0.2,0.4,0.2c0.1,0,0.2,0.1,0.3,0.2
			c0.2,0.2,0.3,0.5,0.4,0.7c0.3,0.4,0.5,0.8,0.6,1.1C369.3,190,369.4,190.4,369.4,190.4z"/>
		<path style="fill:#333333;" d="M350.4,199.1c0,0,0,0.4,0,1c0,0.3,0,0.6,0,1c0,0.2,0,0.4,0.1,0.6c0,0.1,0,0.2-0.1,0.2
			c-0.1,0.1-0.1,0.1-0.1,0.2c-0.3,0.6-0.5,1.4-0.3,1.9c0.1,0.3,0.2,0.5,0.4,0.8c0.1,0.1,0.2,0.2,0.4,0.4l0.6,0.5
			c0.4,0.3,0.8,0.5,1.1,0.6c0.3,0.1,0.5,0.1,0.7,0.1c0.1-0.1,0.2-0.1,0.3-0.1c0.2-0.1,0.5-0.3,0.5-0.4c0.2-0.2,0.5-0.5,0.7-0.7
			c0-0.1,0.1-0.1,0.1-0.2c0-0.1,0.1-0.1,0.2-0.2c0.2-0.1,0.4-0.1,0.5-0.2c0.3-0.1,0.6-0.3,0.8-0.4c0.2-0.2,0.4-0.3,0.5-0.4
			c0.1-0.1,0.2-0.2,0.2-0.2s0,0.1,0.1,0.2c0.1,0.1,0.2,0.4,0.3,0.7c0.1,0.3,0.2,0.7,0.1,1.2c0,0.2,0,0.5-0.1,0.8
			c0,0.3-0.3,0.4-0.4,0.6c-0.3,0.4-0.7,0.8-1.2,1.2c-0.3,0.2-0.4,0.3-0.7,0.5c-0.4,0.2-0.7,0.4-1.1,0.5c-0.9,0.2-1.8,0.1-2.5-0.2
			c-0.7-0.3-1.3-0.7-1.8-1l-0.7-0.5c-0.3-0.2-0.6-0.5-0.8-0.8c-0.5-0.6-0.9-1.3-1.1-2.1c-0.2-0.8-0.1-1.5,0-2.1
			c0.1-0.6,0.3-1.2,0.5-1.6c0.1-0.2,0.1-0.5,0.3-0.6c0.2-0.1,0.4-0.3,0.6-0.4c0.4-0.2,0.7-0.4,1-0.5c0.3-0.1,0.5-0.2,0.7-0.2
			C350.4,199.1,350.4,199.1,350.4,199.1z"/>
		<path style="fill:#333333;" d="M371.8,179.5c0,0,0-0.1,0-0.3c0-0.2,0-0.4,0.1-0.7c0.1-0.6,0.3-1.6,0.9-2.7
			c0.3-0.6,0.7-1.2,1.3-1.8c0.6-0.6,1.4-1.1,2.5-1.4c0.3-0.1,0.5-0.1,0.8-0.1c0.3,0,0.6,0,0.8,0c0.2,0,0.5,0,0.7,0
			c0.1,0,0.1,0,0.2,0c0,0,0.1,0,0.1,0c0,0,0,0,0,0c0,0-0.1,0-0.1,0c-0.1,0.1-0.1,0.1,0,0.1c0.1-0.1,0.2-0.7,0.3-1.2
			c0.3-1,0.5-2,0.6-2.8c0-0.2,0-0.3,0-0.5c0-0.1,0-0.1-0.1-0.1c0,0,0,0,0-0.1l-0.1-0.2c-0.3-0.5-0.5-1-0.8-1.6
			c-1.1-2.3-1.8-4.6-3-6.6c-0.3-0.5-0.6-1-1-1.4l-0.5-0.6l-0.7-0.7l-0.4-0.3l-0.3-0.3l-0.7-0.5c-0.2-0.2-0.5-0.3-0.7-0.4
			c-0.3-0.2-0.5-0.3-0.8-0.4c-1-0.5-2.2-0.7-3.3-0.8c-0.6,0.1-1.2,0-1.7,0.1l-0.9,0.2c-0.3,0.1-0.7,0.2-0.9,0.3
			c-1.2,0.4-2.4,0.8-3.2,1.5l-0.3,0.2l-0.1,0.1l0,0l0,0c0.2-0.2,0,0,0.1-0.1l-0.2,0.2c-0.3,0.3-0.3,0.4-0.4,0.6
			c-0.3,0.5-0.5,1-0.8,1.7c-0.3,0.6-0.6,1.3-1.2,2c0,0.1,0.1-0.1-0.1,0.1l0,0l0,0l-0.1,0.1l-0.2,0.2c-0.1,0.1-0.4,0.3-0.6,0.5
			c-0.4,0.3-0.7,0.4-0.9,0.6c-0.5,0.3-0.8,0.6-0.8,0.6l0-0.1l0-0.1h0c0,0,0-0.1,0,0l0,0.3c0,0.1-0.1,0.4,0,0.4c0,0.1,0,0.1,0,0.2
			c0,0.1,0,0.2,0.1,0.3c0.1,0.4,0.3,0.9,0.5,1.3c0.1,0.2,0.3,0.4,0.4,0.6l0.2,0.3l0.1,0.1l0,0l0,0c-0.2-0.2,0,0-0.1-0.1l0.2,0.2
			c0.1,0.1,0.2,0.3,0.3,0.3c0,0,0,0,0.1,0c0.1,0,0.2,0.1,0.3,0.1c0.3,0,0.9,0,1.6-0.1l0.5,0h0.1h0l0.2,0l0.1,0l0.2,0
			c0.3,0.1,0.6,0.1,0.9,0.3c0.2,0.1,0.5,0.2,0.7,0.4c0.8,0.6,1.2,1.4,1.4,2c0.5,1.3,0.6,2.5,0.5,3.8c0,0.3-0.1,0.5-0.1,0.8
			c0,0.2,0,0.5-0.1,0.8c-0.1,0.6-0.3,1.1-0.5,1.6c-0.5,0.9-1,1.7-1.5,2.4c-1,1.4-2,2.5-2.9,3.4c-1.7,1.7-2.6,2.7-2.6,2.7
			s0.2-0.3,0.4-0.9c0.3-0.6,0.7-1.4,1.3-2.5c0.5-1.1,1.2-2.3,1.8-3.8c0.3-0.7,0.5-1.5,0.7-2.3c0-0.4,0.1-0.7,0.3-1.1
			c0-0.1,0.1-0.2,0.1-0.3l0-0.4c0-0.2,0.1-0.5,0.1-0.8c0.1-0.7,0-1.7-0.3-2.4c-0.1-0.4-0.3-0.6-0.4-0.7c0,0-0.1,0-0.1,0
			c0,0,0,0,0.1,0l-0.2,0l-0.1,0c0.1,0-0.2,0,0.1,0h0h0l-0.3,0c-0.5,0-1.1,0.1-2,0.1c-0.5,0-0.9-0.2-1.4-0.4
			c-0.2-0.1-0.5-0.3-0.7-0.5c-0.2-0.2-0.2-0.2-0.4-0.3l-0.2-0.2l-0.1-0.1l0,0l0-0.1l-0.1-0.1l-0.3-0.4c-0.2-0.3-0.4-0.6-0.6-0.9
			c-0.4-0.6-0.7-1.4-0.8-2.2c0-0.2-0.1-0.4-0.1-0.6c0-0.3,0-0.5,0-0.8c0-0.3,0-0.3,0.1-0.5l0-0.2c0,0.1,0-0.2,0-0.2l0-0.1l0-0.1
			l0.1-0.2c0.1-0.3,0.2-0.6,0.4-0.8l0.3-0.3c0.1-0.1,0.2-0.2,0.3-0.2c0.2-0.2,0.4-0.3,0.5-0.4c0.2-0.1,0.3-0.2,0.5-0.3
			c0.3-0.2,0.6-0.4,0.7-0.5c0.1-0.1,0.1-0.1,0.2-0.1l0.2-0.2l0.1-0.1l0,0l0,0c-0.2,0.2,0,0-0.1,0.1c0.3-0.4,0.5-0.9,0.8-1.4
			c0.3-0.6,0.6-1.2,1-1.9c0.3-0.4,0.6-0.8,0.8-1l0.2-0.2l0.1-0.1l0,0l0.1-0.1l0.1-0.1c0.2-0.1,0.3-0.3,0.5-0.4
			c1.3-1,2.7-1.5,4.1-1.9c0.4-0.1,0.7-0.2,1-0.3l1.1-0.2c0.7-0.2,1.5-0.1,2.3-0.2c1.5,0.1,3.1,0.4,4.5,1.1c0.4,0.1,0.7,0.3,1,0.5
			c0.3,0.2,0.7,0.4,1,0.6l0.9,0.7l0.4,0.3l0.4,0.3l0.7,0.7l0,0l0.1,0.1l0,0l0.1,0.1l0.2,0.2l0.4,0.4c0.5,0.5,0.9,1.2,1.3,1.7
			c1.5,2.4,2.2,4.9,3.1,6.8c0.2,0.5,0.5,1,0.8,1.5c0,0,0.1,0.2,0.1,0.2l0.1,0.3c0.1,0.2,0.2,0.5,0.2,0.7c0.1,0.4,0.1,0.8,0.1,1.2
			c0,1.4-0.4,2.5-0.7,3.5c-0.1,0.5-0.2,0.9-0.5,1.7c-0.1,0.4-0.4,0.9-0.9,1.2c-0.2,0.2-0.5,0.3-0.7,0.4c-0.3,0.1-0.5,0.1-0.7,0.1
			c-0.2,0-0.4,0-0.6,0c-0.2,0-0.4-0.1-0.5-0.1c-0.2-0.1-0.4-0.1-0.6-0.2c-0.2-0.1-0.3-0.1-0.4-0.1c-0.2,0-0.3-0.1-0.4-0.1
			c-1.2-0.1-2.4,0.7-3.1,1.5c-0.8,0.8-1.3,1.6-1.6,2.2c-0.2,0.3-0.3,0.5-0.3,0.7C371.8,179.4,371.8,179.5,371.8,179.5z"/>
		<path style="fill:#333333;" d="M370.6,172.5c0,0,0-0.1,0-0.3c0-0.2,0-0.5,0-0.8c0-0.3-0.1-0.6-0.1-1c0-0.2-0.1-0.4-0.2-0.6
			c0-0.2,0.1-0.3,0.1-0.5c0.1-0.4,0.1-0.8,0.1-1.3c0-0.5,0-0.9-0.1-1.4c-0.2-1-0.6-2-1.2-2.7c-0.1-0.1-0.2-0.2-0.2-0.2l-0.1-0.1
			c0.3,0.2,0.1,0.1,0.1,0.1l0,0l0,0l0,0l0,0l-0.1-0.1c-0.3-0.2-0.5-0.4-0.8-0.5c-0.2-0.1-0.4-0.1-0.6-0.2c-0.2-0.1-0.5-0.1-0.7-0.2
			c-0.5-0.2-1-0.2-1.5-0.2c-0.5,0-1-0.1-1.4,0c-0.1,0-0.2,0-0.3,0c-0.1,0-0.2,0-0.3,0c-0.2-0.1-0.4-0.2-0.6-0.3
			c-0.4-0.2-0.7-0.4-1-0.5c-0.6-0.3-0.9-0.5-0.9-0.5s0.3-0.3,0.8-0.6c0.3-0.2,0.6-0.4,1-0.7c0.2-0.1,0.4-0.2,0.6-0.4
			c0.1-0.1,0.2-0.1,0.4,0c0.1,0,0.2,0,0.4,0c0.5,0,1.1,0,1.7,0c0.6,0.1,1.3,0.1,2,0.3c0.4,0.1,0.7,0.1,1.1,0.3
			c0.4,0.2,0.8,0.3,1.2,0.5c0.3,0.2,0.5,0.4,0.8,0.5l0.1,0.1l0,0l0.2,0.1l0.2,0.2c0.1,0.1,0.3,0.3,0.4,0.4c1.1,1.3,1.6,2.7,1.9,4.1
			c0.1,0.7,0.2,1.4,0.2,2c0,0.6-0.1,1.3-0.2,1.8c0,0.1-0.1,0.3-0.1,0.4c0,0.1,0,0.3-0.1,0.4c-0.2,0.2-0.4,0.4-0.6,0.6
			c-0.2,0.2-0.4,0.3-0.5,0.5c-0.2,0.1-0.4,0.2-0.5,0.3c-0.3,0.2-0.6,0.2-0.7,0.3C370.7,172.5,370.6,172.5,370.6,172.5z"/>
		<path style="fill:#333333;" d="M365.3,160.9c0,0,0.1,0.3,0.3,0.8c0.1,0.2,0.2,0.5,0.3,0.8c0.1,0.1,0.1,0.3,0.2,0.5
			c0,0.1,0,0.1,0,0.2c0,0.1,0,0.1-0.1,0.2c-0.1,0.5-0.2,1.2-0.2,1.8c0,0.3,0.1,0.6,0.2,0.8c0.1,0.2,0.2,0.5,0.4,0.6
			c0.2,0.2,0.4,0.3,0.6,0.5c0.2,0.1,0.6,0.2,0.9,0.3c0.3,0.1,0.6,0.1,1,0.2c0.3,0,0.6,0,0.9,0.1c0.1,0,0.1,0,0.2,0
			c0.1,0,0.1,0,0.2,0c0.1,0.1,0.3,0.2,0.4,0.3c0.3,0.2,0.5,0.4,0.7,0.5c0.4,0.3,0.7,0.5,0.7,0.5s-0.2,0.2-0.6,0.6
			c-0.2,0.2-0.4,0.4-0.7,0.6c-0.1,0.1-0.3,0.2-0.5,0.3c-0.1,0.1-0.2,0.1-0.3,0c-0.1,0-0.2,0-0.3,0c-0.4,0-0.8,0-1.2-0.1
			c-0.4,0-0.9-0.1-1.4-0.2c-0.5-0.1-1-0.3-1.5-0.6c-0.5-0.3-1-0.6-1.4-1.1c-0.9-0.9-1.3-2.2-1.4-3.2c-0.1-1.1,0.1-2,0.2-2.7
			c0-0.1,0.1-0.2,0-0.3c0-0.1,0-0.2,0.1-0.2c0.2-0.1,0.3-0.3,0.5-0.4c0.3-0.2,0.6-0.4,0.8-0.5C365,161,365.3,160.9,365.3,160.9z"/>
		<path style="fill:#333333;" d="M356.3,182.9c0,0-0.3-0.1-0.8-0.2c-0.2-0.1-0.5-0.2-0.8-0.3c-0.1,0-0.3-0.1-0.5-0.1
			c-0.1,0-0.1-0.1-0.1-0.1c0-0.1-0.1-0.1-0.1-0.2c-0.1-0.2-0.3-0.4-0.5-0.6c-0.2-0.2-0.3-0.3-0.5-0.4c-0.1-0.1,0,0,0,0
			c0,0,0,0-0.1,0l-0.1,0.1l-0.1,0l0,0h0c0.1,0-0.1,0.1,0.1-0.1l0,0l0,0l0,0.1l-0.4,0.5c-0.1,0.1,0,0.2-0.1,0.3c0,0,0,0.1-0.1,0.1
			l0,0.2c0,0.1-0.1,0.3-0.1,0.4c0,0.3-0.1,0.6,0,0.8c0,0.3,0,0.5,0.1,0.7c0,0.1,0,0.1,0,0.2c0,0,0,0.1,0,0.2
			c-0.1,0.1-0.1,0.2-0.2,0.4c-0.1,0.2-0.2,0.5-0.3,0.7c0,0.2-0.1,0.4-0.1,0.5c0,0.1,0,0.2,0,0.2s-0.1,0-0.2,0c-0.1,0-0.3,0-0.6-0.1
			c-0.3-0.1-0.6-0.2-0.9-0.4c-0.2-0.1-0.3-0.2-0.5-0.4c-0.1-0.1-0.1-0.2-0.1-0.3c0-0.1,0-0.2-0.1-0.3c-0.1-0.4-0.1-0.8-0.2-1.3
			c-0.1-0.4,0-0.9,0.1-1.4c0-0.2,0.1-0.5,0.2-0.7c0.1-0.2,0.1-0.5,0.3-0.8c0.1-0.3,0.3-0.6,0.4-0.8l0.4-0.5l0-0.1l0,0l0.1-0.2l0,0
			l0.2-0.2c0.1-0.1,0.2-0.2,0.4-0.3c0.3-0.2,0.6-0.4,1-0.5c0.8-0.2,1.8,0,2.3,0.3c0.5,0.3,0.9,0.7,1.2,1c0.3,0.3,0.5,0.7,0.7,1
			c0.1,0.1,0.1,0.2,0.2,0.2c0.1,0.1,0.1,0.1,0.1,0.2c0,0.2,0,0.4-0.1,0.5c0,0.3-0.1,0.6-0.2,0.9c-0.1,0.2-0.1,0.4-0.2,0.6
			C356.4,182.8,356.3,182.9,356.3,182.9z"/>
		<path style="fill:#333333;" d="M348.3,192.8c0,0-0.3,0-0.8,0.1c-0.2,0-0.6,0-0.9,0c-0.2,0-0.3,0-0.5,0c-0.1,0-0.1-0.1-0.2-0.1
			c0-0.1-0.1-0.1-0.2-0.2c-0.2-0.2-0.5-0.5-0.8-0.8c-0.3-0.3-0.6-0.5-0.8-0.9c-0.3-0.3-0.5-0.6-0.8-1c-0.3-0.3-0.5-0.7-0.8-1
			c-0.3-0.4-0.5-0.7-0.8-1.1c-0.2-0.3-0.4-0.7-0.6-1c-0.2-0.3-0.4-0.6-0.6-0.7c-0.2-0.2-0.3-0.3-0.5-0.4c0,0-0.1,0-0.1,0
			c-0.1,0-0.1,0-0.1-0.1c0-0.2,0-0.3-0.1-0.4c-0.1-0.2-0.2-0.5-0.3-0.7c-0.3-0.4-0.5-0.6-0.5-0.6s0.2-0.2,0.7-0.5
			c0.2-0.2,0.5-0.3,0.9-0.3c0.2,0,0.4-0.1,0.6-0.1c0.1,0,0.2,0,0.3,0.1c0.1,0.1,0.2,0.1,0.3,0.2c0.3,0.3,0.7,0.6,1,0.9
			c0.3,0.3,0.5,0.7,0.8,1c0.2,0.3,0.4,0.7,0.7,1c0.2,0.3,0.5,0.6,0.7,0.9c0.2,0.3,0.4,0.6,0.7,0.9c0.3,0.3,0.5,0.6,0.7,0.9
			c0.2,0.3,0.5,0.5,0.7,0.8c0.2,0.2,0.4,0.5,0.7,0.7c0.1,0,0.1,0.1,0.2,0.1c0.1,0,0.1,0.1,0.1,0.2c0,0.2,0.1,0.4,0.1,0.5
			c0.1,0.3,0.1,0.6,0.1,0.9C348.3,192.5,348.3,192.8,348.3,192.8z"/>
		<path style="fill:#333333;" d="M380.4,230.6c0,0-0.1-0.1-0.2-0.4c-0.1-0.2-0.4-0.6-0.6-1c-0.2-0.5-0.5-1.1-0.7-1.7
			c-0.1-0.3-0.3-0.7-0.4-1c-0.1-0.3,0-0.8-0.1-1.1c-0.1-0.8-0.2-1.6-0.4-2.3c-0.1-0.4-0.2-0.8-0.4-1.2c-0.2-0.4-0.4-0.9-0.5-1.4
			c-0.2-0.4-0.4-1.1-0.5-1.7c-0.1-0.6-0.2-1.2-0.3-1.7c-0.1-1.2-0.1-2.3-0.1-3.4c0-1.1,0-2.1-0.1-3.1c-0.1-1-0.2-2-0.3-2.9
			c-0.2-0.9-0.4-1.8-0.7-2.5c-0.3-0.8-0.6-1.4-1-2c-0.1-0.1-0.2-0.3-0.3-0.4c-0.1-0.1-0.2-0.2-0.3-0.4c-0.1-0.3-0.3-0.6-0.4-0.8
			c-0.3-0.5-0.7-0.9-1-1.3c-0.3-0.3-0.6-0.6-0.8-0.8c-0.2-0.2-0.3-0.3-0.3-0.3s0.1,0,0.4,0c0.3,0,0.7-0.1,1.2,0
			c0.5,0,1.2,0.2,1.9,0.5c0.4,0.2,0.8,0.3,1.1,0.6c0.2,0.1,0.4,0.3,0.5,0.5c0.1,0.2,0.3,0.4,0.4,0.6c0.5,0.8,1,1.7,1.4,2.7
			c0.4,1,0.6,2,0.8,3.1c0.2,1.1,0.3,2.2,0.4,3.3c0.1,1.1,0.1,2.2,0.1,3.3c0,1.1,0,2.1,0.1,3c0.1,0.5,0.1,0.9,0.2,1.4
			c0.1,0.4,0.2,0.8,0.4,1.3c0.2,0.5,0.4,0.9,0.6,1.4c0.2,0.5,0.4,1,0.5,1.5c0.3,1,0.4,1.9,0.5,2.8c0,0.2,0,0.4,0.1,0.6
			c0,0.2,0.1,0.4,0,0.6c-0.1,0.4-0.2,0.7-0.3,1.1c-0.2,0.7-0.3,1.2-0.4,1.7C380.6,230,380.4,230.6,380.4,230.6z"/>
		<path style="fill:#333333;" d="M272.1,316.8c0,0,0.1,0,0.3,0.1c0.2,0,0.4,0.1,0.7,0.1c0.3,0,0.6,0.1,1,0.2c0.2,0,0.4,0.1,0.6,0.1
			c0.1,0,0.2,0.1,0.2,0.2c0.1,0.1,0.1,0.1,0.2,0.2c0.3,0.2,0.7,0.5,1.1,0.8c0.4,0.3,0.8,0.5,1.2,0.8c0.4,0.3,0.9,0.5,1.4,0.8
			c0.5,0.2,1,0.5,1.5,0.7c0.5,0.2,1,0.5,1.5,0.7c0.5,0.2,1,0.4,1.5,0.5c0.5,0.2,1,0.3,1.4,0.5c0.5,0.1,0.9,0.2,1.3,0.3
			c0.1,0,0.2,0.1,0.3,0.1c0.1,0,0.2,0,0.3,0.1c0.2,0.2,0.3,0.3,0.5,0.5c0.3,0.3,0.5,0.5,0.7,0.8c0.4,0.5,0.7,0.7,0.7,0.7
			s-0.3,0.2-0.9,0.4c-0.3,0.1-0.6,0.2-1,0.3c-0.2,0.1-0.4,0.1-0.6,0.2c-0.1,0-0.2,0-0.3,0c-0.1,0-0.2-0.1-0.3-0.1
			c-0.4-0.1-0.9-0.2-1.4-0.4c-0.5-0.2-1-0.4-1.5-0.5c-0.5-0.2-1.1-0.4-1.6-0.6c-0.6-0.2-1.1-0.5-1.7-0.7c-0.5-0.3-1.1-0.5-1.6-0.8
			c-0.5-0.3-1-0.6-1.5-0.9c-0.5-0.3-1-0.6-1.4-0.9c-0.4-0.3-0.8-0.6-1.2-0.9c-0.1-0.1-0.2-0.2-0.3-0.2c-0.1,0-0.2-0.1-0.2-0.2
			c-0.1-0.2-0.2-0.4-0.2-0.6c-0.2-0.4-0.3-0.8-0.3-1.1c-0.1-0.3-0.1-0.6-0.1-0.7C272.1,316.9,272.1,316.8,272.1,316.8z"/>
		<path style="fill:#333333;" d="M305.6,324.8c0,0,0.2-0.2,0.5-0.5c0.2-0.2,0.4-0.4,0.6-0.5c0.1-0.1,0.2-0.2,0.4-0.3
			c0.1-0.1,0.1,0,0.2,0c0.1,0,0.1,0,0.2,0c0.5,0,1.2,0.1,1.9,0.1c0.3,0,0.7,0.1,1,0.1c0.4,0,0.7,0.1,1.1,0.1c0.7,0,1.4,0,2,0
			c0.3,0,0.6,0,0.9,0c0.3,0,0.5-0.1,0.8-0.1c0.1,0,0.1,0,0.2,0c0.1,0,0.1,0,0.2,0c0.1,0.1,0.3,0.2,0.4,0.3c0.2,0.2,0.5,0.4,0.6,0.5
			c0.3,0.3,0.6,0.4,0.6,0.4s-0.1,0.3-0.4,0.7c-0.1,0.2-0.3,0.4-0.5,0.6c-0.1,0.1-0.2,0.2-0.3,0.4c-0.1,0.1-0.1,0.1-0.2,0.1
			c-0.1,0-0.1,0-0.2,0c-0.3,0-0.6,0.1-1,0.1c-0.3,0-0.7,0-1,0c-0.7,0-1.5,0-2.3,0c-0.4,0-0.7,0-1.1-0.1c-0.4,0-0.7-0.1-1-0.1
			c-0.7,0-1.3-0.1-1.9-0.1c-0.1,0-0.1,0-0.2,0c-0.1,0-0.1,0-0.2,0c-0.1-0.1-0.2-0.2-0.3-0.4c-0.2-0.2-0.4-0.4-0.5-0.6
			C305.8,325.1,305.6,324.8,305.6,324.8z"/>
		<path style="fill:#333333;" d="M339.2,297c0,0,0.2,0.5,0.5,1.3c0.2,0.4,0.3,0.9,0.5,1.5c0.1,0.3,0.2,0.6,0.3,0.9
			c0.1,0.2,0.1,0.3,0,0.5c0,0.2,0,0.3,0,0.5c0.1,1.3,0.3,2.8,1.1,3.7c0.1,0.1,0.2,0.2,0.3,0.3l0.2,0.1l0.1,0.1l0,0
			c0.1,0.1-0.2-0.1-0.2-0.1l0,0l0,0l0.1,0l0.6,0.3c0.1,0.1,0.2,0.1,0.2,0.1c0.1,0,0.1,0,0.2,0c0.2,0.1,0.7,0.1,1,0.1
			c0.4,0,0.8,0,1.2-0.1c0.8-0.1,1.7-0.3,2.6-0.6l0.7-0.2l0.7-0.1c0.5-0.1,0.9-0.2,1.3-0.3c1.8-0.4,3.4-0.7,4.8-1
			c0.2,0,0.3-0.1,0.5-0.1c0.2-0.1,0.3-0.1,0.5-0.1c0.3,0.1,0.7,0.1,1,0.1c0.6,0.1,1.1,0.2,1.6,0.3c0.9,0.2,1.4,0.3,1.4,0.3
			s-0.4,0.3-1.2,0.8c-0.4,0.2-0.8,0.5-1.4,0.9c-0.3,0.2-0.5,0.3-0.8,0.5c-0.1,0.1-0.3,0.1-0.5,0.1c-0.2,0-0.3,0.1-0.5,0.1
			c-1.4,0.3-3,0.6-4.8,1c-0.4,0.1-0.9,0.2-1.3,0.3l-0.6,0.1l-0.7,0.2c-0.9,0.2-1.9,0.5-2.9,0.6c-1.1,0.1-2.1,0.3-3.4,0L342,309
			c-0.2,0-0.3-0.1-0.4-0.1l-0.6-0.3l-0.1,0l0,0l0,0c0,0-0.3-0.2-0.2-0.1l0,0l-0.2-0.1l-0.4-0.3c-0.2-0.2-0.4-0.4-0.7-0.6
			c-0.8-0.9-1.2-2-1.4-2.9c-0.2-0.9-0.3-1.8-0.4-2.6c0-0.2,0-0.4,0-0.6c0-0.2,0-0.4,0-0.5c0.1-0.3,0.2-0.7,0.3-1
			c0.2-0.6,0.5-1.1,0.6-1.5C339,297.5,339.2,297,339.2,297z"/>
		<path style="fill:#333333;" d="M278,533.6c0,0-0.3,0.1-0.7,0.1c-0.2,0-0.5,0.1-0.7,0.2c-0.1,0.1-0.2,0.1-0.3,0.2
			c-0.1,0-0.1,0-0.1,0c0,0,0,0-0.1-0.1c-0.1-0.1-0.2-0.1-0.4-0.2c-0.2-0.1-0.3-0.1-0.5-0.2c-0.4-0.1-0.8-0.2-1.3-0.2
			c-0.9-0.1-1.9-0.1-2.7,0c0,0-0.1,0-0.1,0c0,0-0.1,0-0.1,0c-0.1-0.1-0.2-0.2-0.3-0.3c-0.2-0.2-0.3-0.4-0.5-0.5
			c-0.3-0.3-0.4-0.5-0.4-0.5s0.1-0.2,0.3-0.6c0.1-0.2,0.2-0.4,0.4-0.6c0.1-0.1,0.2-0.2,0.2-0.4c0-0.1,0.1-0.1,0.1-0.1
			c0.1,0,0.1,0,0.2,0c0.9-0.1,2-0.1,3.2,0c0.6,0.1,1.2,0.2,1.8,0.3c0.3,0.1,0.6,0.2,0.9,0.3c0.3,0.1,0.5,0.2,0.8,0.4
			c0.1,0,0.1,0.1,0.2,0.1c0.1,0,0.2,0.1,0.2,0.2c0.1,0.2,0.1,0.4,0.1,0.5c0.1,0.3,0,0.5,0,0.7C278.1,533.3,278,533.6,278,533.6z"/>
		<path style="fill:#333333;" d="M274.7,537.4c0,0-0.3,0-0.7,0.1c-0.2,0-0.5,0-0.7,0c-0.1,0-0.2,0.1-0.4,0.1c-0.1,0-0.1,0-0.1,0
			c0,0,0,0,0-0.1c-0.1-0.1-0.2-0.1-0.4-0.2c-0.1-0.1-0.3-0.1-0.5-0.2c-0.2-0.1-0.4-0.1-0.6-0.2c-0.2,0-0.4-0.1-0.7-0.1
			c-0.5,0-0.9-0.1-1.4,0c-0.5,0-0.9,0.1-1.3,0.2c0,0-0.1,0-0.1,0c0,0-0.1,0-0.1,0c-0.1-0.1-0.2-0.2-0.3-0.3
			c-0.2-0.2-0.4-0.3-0.5-0.5c-0.3-0.3-0.5-0.4-0.5-0.4s0.1-0.3,0.2-0.7c0.1-0.2,0.2-0.4,0.3-0.7c0.1-0.1,0.1-0.3,0.2-0.4
			c0-0.1,0.1-0.1,0.2-0.1c0.1,0,0.1,0,0.2,0c0.5-0.1,1-0.2,1.6-0.2c0.6,0,1.2,0,1.9,0c0.3,0,0.7,0.1,1,0.2c0.3,0.1,0.7,0.2,1,0.3
			c0.3,0.1,0.6,0.2,0.9,0.4c0.3,0.2,0.5,0.3,0.8,0.5c0.1,0,0.1,0.1,0.2,0.1c0.1,0,0.1,0.1,0.2,0.2c0,0.2,0,0.3,0.1,0.5
			c0,0.3-0.1,0.5-0.1,0.7C274.8,537.1,274.7,537.4,274.7,537.4z"/>
		<path style="fill:#333333;" d="M331.1,542.4c0,0-0.3,0.1-0.6,0.2c-0.2,0.1-0.4,0.1-0.7,0.2c-0.1,0-0.3,0.1-0.4,0.1
			c-0.1,0-0.1,0-0.1-0.1c0,0-0.1-0.1-0.1-0.1c-0.5-0.5-1.2-1.1-1.9-1.7c-0.4-0.3-0.7-0.6-1.1-0.8c-0.2-0.1-0.3-0.2-0.5-0.3
			c-0.1-0.1-0.3-0.1-0.3-0.2c0,0,0,0-0.1,0c0,0,0,0,0-0.1c0-0.1,0-0.2,0-0.3c0-0.1,0.1-0.2,0.1-0.3c0-0.1,0-0.2,0-0.3
			c0-0.2-0.2-0.2-0.3-0.2c-0.1,0-0.2,0-0.2,0s-0.1,0-0.1-0.1c-0.1-0.1-0.2-0.3,0-0.6c0.1-0.2,0.2-0.3,0.3-0.4
			c0.1-0.1,0.3-0.2,0.5-0.3c0.1-0.1,0.3-0.2,0.5-0.2c0.1,0,0.2,0,0.2,0c0.1,0,0.1,0.1,0.2,0.1c0.3,0.1,0.5,0.2,0.7,0.3
			c0.2,0.1,0.5,0.3,0.7,0.4c0.4,0.3,0.9,0.6,1.3,0.9c0.8,0.6,1.6,1.3,2.1,1.8c0,0,0.1,0.1,0.1,0.1c0.1,0,0.1,0,0.1,0.1
			c0,0.1,0,0.3-0.1,0.4c0,0.2-0.1,0.5-0.1,0.7C331.2,542.1,331.1,542.4,331.1,542.4z"/>
		<path style="fill:#333333;" d="M331.1,547.2c0,0-0.1,0-0.2-0.1c-0.1-0.1-0.3-0.2-0.5-0.1c-0.2,0-0.4,0-0.7,0c-0.1,0-0.3,0-0.4,0
			c-0.1,0-0.1,0-0.1-0.1c0-0.1-0.1-0.1-0.1-0.1c-0.5-0.6-1.6-1.3-2.7-2c-1.1-0.7-2.3-1.2-3.2-1.7c-0.1,0-0.1-0.1-0.2-0.1
			c-0.1,0-0.1,0-0.1-0.1c-0.1-0.2-0.1-0.3-0.2-0.4c-0.1-0.3-0.2-0.5-0.3-0.7c-0.1-0.4-0.2-0.7-0.2-0.7s0.2-0.1,0.7-0.3
			c0.2-0.1,0.5-0.2,0.7-0.3c0.1-0.1,0.3-0.1,0.4-0.2c0.1,0,0.1,0,0.2,0c0,0,0.1,0.1,0.2,0.1c1,0.4,2.2,1.1,3.5,1.8
			c1.2,0.7,2.5,1.5,3.4,2.5c0.1,0.1,0.1,0.1,0.2,0.2c0.1,0,0.1,0.1,0.1,0.2c0,0.2,0,0.4,0,0.6c0,0.3-0.1,0.7-0.1,0.9
			c-0.1,0.3-0.2,0.4-0.3,0.5C331.2,547.1,331.1,547.2,331.1,547.2z"/>
		<path style="fill:#333333;" d="M326.8,548.9c0,0-0.3,0-0.7,0c-0.2,0-0.5,0-0.7,0c-0.1,0-0.2,0.1-0.4,0.1c-0.1,0-0.1,0-0.1,0
			c0,0,0,0,0-0.1c-0.2-0.2-0.5-0.4-0.8-0.6c-0.3-0.2-0.7-0.4-1.1-0.6c-0.8-0.4-1.7-0.6-2.4-0.8c0,0-0.1,0-0.1,0c0,0-0.1,0-0.1-0.1
			c-0.1-0.1-0.1-0.3-0.2-0.4c-0.1-0.2-0.2-0.5-0.3-0.6c-0.2-0.4-0.2-0.6-0.2-0.6s0.2-0.2,0.4-0.5c0.1-0.1,0.3-0.3,0.5-0.5
			c0.1-0.1,0.2-0.2,0.3-0.3c0.1-0.1,0.1-0.1,0.2,0c0,0,0.1,0,0.1,0c0.8,0.2,1.9,0.5,2.9,1c0.5,0.2,1,0.5,1.5,0.8
			c0.5,0.3,0.9,0.7,1.3,1c0,0,0.1,0.1,0.2,0.1c0.1,0,0.1,0.1,0.1,0.2c0,0.2,0,0.3,0,0.5c0,0.3-0.2,0.5-0.2,0.7
			C326.9,548.7,326.8,548.9,326.8,548.9z"/>
	</g>
</g>
</svg>
