<svg width="21" height="21" viewBox="0 0 21 21" fill="none" xmlns="http://www.w3.org/2000/svg">
<mask id="mask0_34_1334" style="mask-type:luminance" maskUnits="userSpaceOnUse" x="0" y="0" width="21" height="21">
<path d="M20.5 0.385132H0.5V20.3851H20.5V0.385132Z" fill="white"/>
</mask>
<g mask="url(#mask0_34_1334)">
<path d="M20.1 10.6125C20.1 9.90336 20.0364 9.22156 19.9182 8.56696H10.5V12.4352H15.8818C15.65 13.6852 14.9455 14.7443 13.8864 15.4534V17.9625H17.1182C19.0091 16.2216 20.1 13.6579 20.1 10.6125Z" fill="#4285F4"/>
<path d="M10.4999 20.3852C13.1999 20.3852 15.4635 19.4897 17.118 17.9625L13.8862 15.4534C12.9908 16.0534 11.8453 16.4079 10.4999 16.4079C7.89528 16.4079 5.69078 14.6488 4.90438 12.2852H1.56348V14.8761C3.20898 18.1443 6.59078 20.3852 10.4999 20.3852Z" fill="#34A853"/>
<path d="M4.9045 12.2851C4.7045 11.6851 4.5909 11.0442 4.5909 10.3851C4.5909 9.72603 4.7045 9.08513 4.9045 8.48513V5.89423H1.5636C0.8864 7.24423 0.5 8.77153 0.5 10.3851C0.5 11.9987 0.8864 13.526 1.5636 14.876L4.9045 12.2851Z" fill="#FBBC04"/>
<path d="M10.4999 4.36243C11.968 4.36243 13.2862 4.86693 14.3226 5.85783L17.1908 2.98963C15.459 1.37603 13.1953 0.385132 10.4999 0.385132C6.59078 0.385132 3.20898 2.62603 1.56348 5.89423L4.90438 8.48513C5.69078 6.12153 7.89528 4.36243 10.4999 4.36243Z" fill="#E94235"/>
</g>
</svg>
