<?xml version="1.0" encoding="utf-8"?>
<!-- Generator: Adobe Illustrator 16.0.0, SVG Export Plug-In . SVG Version: 6.00 Build 0)  -->
<!DOCTYPE svg PUBLIC "-//W3C//DTD SVG 1.1//EN" "http://www.w3.org/Graphics/SVG/1.1/DTD/svg11.dtd">
<svg version="1.1" id="Layer_1" xmlns="http://www.w3.org/2000/svg" xmlns:xlink="http://www.w3.org/1999/xlink" x="0px" y="0px"
	 width="392px" height="84.8px" viewBox="0 0 392 84.8" style="enable-background:new 0 0 392 84.8;" xml:space="preserve">
<linearGradient id="New_0_Pen_No__223_1_" gradientUnits="userSpaceOnUse" x1="5.1777" y1="41.6587" x2="81.5278" y2="41.6587">
	<stop  offset="0" style="stop-color:#9BE25E"/>
	<stop  offset="0.2315" style="stop-color:#92D962"/>
	<stop  offset="0.615" style="stop-color:#78C26C"/>
	<stop  offset="0.9944" style="stop-color:#59A579"/>
</linearGradient>
<path id="New_0_Pen_No__223" style="opacity:0.3;fill:none;stroke:url(#New_0_Pen_No__223_1_);stroke-width:2;" d="M43.3,2.3
	L60,20.7 M60,20.7L81,34 M75.7,63.9l-24.3,5.3 M51.4,69.2l-22,11.6 M6.1,61.2l7.6-23.7 M14.7,12.7l-1,24.8 M41.7,42.5l-28-4.9
	 M41.7,42.5l9.7,26.7 M60,20.7L41.7,42.5"/>
<linearGradient id="New_0_Pen_No__245_1_" gradientUnits="userSpaceOnUse" x1="1.6157" y1="43.2803" x2="78.71" y2="43.2803">
	<stop  offset="0" style="stop-color:#9BE25E"/>
	<stop  offset="0.2315" style="stop-color:#92D962"/>
	<stop  offset="0.615" style="stop-color:#78C26C"/>
	<stop  offset="0.9944" style="stop-color:#59A579"/>
</linearGradient>
<path id="New_0_Pen_No__245" style="fill:none;stroke:url(#New_0_Pen_No__245_1_);stroke-width:3;" d="M54,4.2L32,15.8 M32,15.8
	L7.7,21.1 M23.4,64.3l18.3-21.8 M23.4,64.3L2.4,51 M23.4,64.3l16.7,18.4 M69.7,47.4l-1,24.8 M77.3,23.8l-7.6,23.7 M41.7,42.5l28,4.9
	 M32,15.8l9.7,26.7"/>
<linearGradient id="New_0_Pen_No__241_1_" gradientUnits="userSpaceOnUse" x1="0.416" y1="42.4971" x2="82.9946" y2="42.4971">
	<stop  offset="0" style="stop-color:#9BE25E"/>
	<stop  offset="0.2315" style="stop-color:#92D962"/>
	<stop  offset="0.615" style="stop-color:#78C26C"/>
	<stop  offset="0.9944" style="stop-color:#59A579"/>
</linearGradient>
<path id="New_0_Pen_No__241" style="fill:none;stroke:url(#New_0_Pen_No__241_1_);stroke-width:4;stroke-linecap:round;stroke-miterlimit:10;" d="
	M14.7,12.7L43.3,2.3 M43.3,2.3L54,4.2 M77.3,23.8L54,4.2 M81,34l-3.7-10.2 M81,34l-5.3,30 M68.7,72.3l7-8.3 M68.7,72.3L40.1,82.7
	 M29.4,80.8l10.7,1.9 M6.1,61.2l23.3,19.6 M6.1,61.2L2.4,51 M2.4,51l5.3-30 M7.7,21.1l7-8.3"/>
<g>
	<g>
		<linearGradient id="SVGID_1_" gradientUnits="userSpaceOnUse" x1="107.9805" y1="42.542" x2="392.2686" y2="42.542">
			<stop  offset="0" style="stop-color:#59A579"/>
			<stop  offset="0.2315" style="stop-color:#62AE75"/>
			<stop  offset="0.615" style="stop-color:#7CC56B"/>
			<stop  offset="0.9944" style="stop-color:#9BE25E"/>
		</linearGradient>
		<path style="fill:url(#SVGID_1_);" d="M126.9,66.4h-5.1c-0.6,0-1-0.3-1.2-1L108,21.7c-0.1-0.7,0.2-1.1,0.9-1.1h3.5
			c0.6,0,1,0.3,1.1,1l10.6,39h0.3l10.6-39c0.1-0.7,0.5-1,1.1-1h3.6c0.7,0,1,0.4,0.9,1.1L128,65.4C127.9,66.1,127.5,66.4,126.9,66.4z
			"/>
		<linearGradient id="SVGID_2_" gradientUnits="userSpaceOnUse" x1="107.9805" y1="42.542" x2="392.2686" y2="42.542">
			<stop  offset="0" style="stop-color:#59A579"/>
			<stop  offset="0.2315" style="stop-color:#62AE75"/>
			<stop  offset="0.615" style="stop-color:#7CC56B"/>
			<stop  offset="0.9944" style="stop-color:#9BE25E"/>
		</linearGradient>
		<path style="fill:url(#SVGID_2_);" d="M152.2,66.4H149c-0.7,0-1-0.3-1-1V21.6c0-0.7,0.3-1,1-1h16.4c3.3,0,5.9,0.9,7.8,2.8
			c1.9,1.9,2.9,4.5,2.9,7.7v6.5c0,2.7-0.6,4.9-1.9,6.6c-1.3,1.7-3.1,2.9-5.3,3.5V48l8.3,17.3c0.4,0.8,0.2,1.1-0.7,1.1h-3.2
			c-0.8,0-1.4-0.3-1.8-1l-8-17.3h-9.4c-0.5,0-0.7,0.2-0.7,0.6v16.6C153.2,66.1,152.9,66.4,152.2,66.4z M153.9,43.8h10.8
			c4.1,0,6.1-2,6.1-6.1v-6.3c0-4.1-2-6.2-6.1-6.2h-10.8c-0.5,0-0.7,0.2-0.7,0.6v17.4C153.2,43.6,153.5,43.8,153.9,43.8z"/>
		<linearGradient id="SVGID_3_" gradientUnits="userSpaceOnUse" x1="107.9805" y1="42.542" x2="392.2686" y2="42.542">
			<stop  offset="0" style="stop-color:#59A579"/>
			<stop  offset="0.2315" style="stop-color:#62AE75"/>
			<stop  offset="0.615" style="stop-color:#7CC56B"/>
			<stop  offset="0.9944" style="stop-color:#9BE25E"/>
		</linearGradient>
		<path style="fill:url(#SVGID_3_);" d="M210.2,65.4c-2.4-1.1-4.8-2.8-7.1-5.2c-0.3-0.3-0.4-0.6-0.4-1c0-0.3,0.2-0.7,0.5-1
			c0.3-0.3,0.6-0.5,1-0.5c0.4,0,0.8,0.2,1.1,0.6c1.7,2,3.7,3.5,6.1,4.6c2.3,1,4.8,1.6,7.4,1.6c3.4,0,6.1-0.8,8.3-2.4
			s3.3-3.8,3.3-6.4c0-2.1-0.6-3.8-1.7-5.2c-1.1-1.4-2.4-2.4-4-3.2c-1.6-0.8-3.8-1.7-6.5-2.7c-3-1.1-5.4-2.1-7-3
			c-1.7-0.9-3.1-2.1-4.3-3.7c-1.2-1.6-1.8-3.7-1.8-6.4c0-2.1,0.6-4.1,1.8-5.8c1.2-1.7,2.9-3.1,5-4.1c2.2-1,4.7-1.5,7.6-1.5
			c2.6,0,5,0.5,7.3,1.4c2.3,0.9,4.1,2.3,5.5,4c0.4,0.6,0.7,1.1,0.7,1.4c0,0.4-0.2,0.7-0.5,0.9c-0.3,0.3-0.7,0.4-1.1,0.4
			c-0.4,0-0.6-0.1-0.9-0.4c-1.2-1.6-2.8-2.8-4.7-3.7c-1.9-0.9-4-1.4-6.4-1.4c-3.3,0-6.1,0.8-8.3,2.4c-2.2,1.6-3.3,3.7-3.3,6.4
			c0,1.9,0.5,3.5,1.6,4.8c1.1,1.3,2.4,2.4,4,3.2c1.6,0.8,3.6,1.6,6,2.5c3.1,1.1,5.5,2.1,7.3,3c1.8,0.9,3.3,2.2,4.6,4
			c1.3,1.7,1.9,4.1,1.9,6.9c0,2-0.6,3.9-1.8,5.6s-2.9,3.1-5.1,4.2c-2.2,1-4.7,1.5-7.6,1.5C215.5,67.1,212.6,66.5,210.2,65.4z"/>
		<linearGradient id="SVGID_4_" gradientUnits="userSpaceOnUse" x1="107.9805" y1="42.542" x2="392.2686" y2="42.542">
			<stop  offset="0" style="stop-color:#59A579"/>
			<stop  offset="0.2315" style="stop-color:#62AE75"/>
			<stop  offset="0.615" style="stop-color:#7CC56B"/>
			<stop  offset="0.9944" style="stop-color:#9BE25E"/>
		</linearGradient>
		<path style="fill:url(#SVGID_4_);" d="M267.9,65.1c0,0.4-0.2,0.7-0.5,0.9c-0.3,0.2-0.6,0.4-0.8,0.4c-0.3,0-0.7-0.2-1-0.5
			l-15.3-16.3l-5.5,4.6v10.9c0,0.3-0.1,0.7-0.4,0.9c-0.2,0.3-0.6,0.4-0.9,0.4c-0.4,0-0.7-0.1-1-0.4s-0.4-0.6-0.4-0.9V19.3
			c0-0.3,0.1-0.7,0.4-0.9c0.2-0.3,0.6-0.4,1-0.4c0.4,0,0.7,0.1,0.9,0.4c0.2,0.3,0.4,0.6,0.4,0.9V51l20.6-17.2
			c0.3-0.3,0.5-0.4,0.9-0.4c0.3,0,0.7,0.1,0.9,0.4c0.3,0.3,0.4,0.6,0.4,1s-0.2,0.7-0.5,1L252.3,48l15.2,16.2
			C267.8,64.4,267.9,64.7,267.9,65.1z"/>
		<linearGradient id="SVGID_5_" gradientUnits="userSpaceOnUse" x1="107.9805" y1="42.542" x2="392.2686" y2="42.542">
			<stop  offset="0" style="stop-color:#59A579"/>
			<stop  offset="0.2315" style="stop-color:#62AE75"/>
			<stop  offset="0.615" style="stop-color:#7CC56B"/>
			<stop  offset="0.9944" style="stop-color:#9BE25E"/>
		</linearGradient>
		<path style="fill:url(#SVGID_5_);" d="M302.8,58.9c0.2,0.2,0.3,0.5,0.3,0.8c0,0.3-0.1,0.6-0.3,0.8c-1.4,1.9-3.2,3.5-5.4,4.7
			c-2.1,1.2-4.4,1.8-6.9,1.8c-3.3,0-6.2-0.7-8.7-2.1c-2.5-1.4-4.5-3.4-5.9-6c-1.4-2.6-2.1-5.6-2.1-9c0-3.5,0.7-6.6,2.1-9.2
			c1.4-2.6,3.2-4.7,5.5-6.1c2.3-1.4,4.7-2.1,7.3-2.1c2.6,0,5,0.6,7.2,1.7c2.2,1.1,4,2.8,5.4,5c1.4,2.2,2.1,5,2.2,8.3
			c0,0.3-0.1,0.7-0.4,0.9c-0.3,0.3-0.6,0.4-0.9,0.4h-25.7v0.9c0,2.7,0.5,5.2,1.6,7.4c1.1,2.3,2.7,4,4.8,5.3c2.1,1.3,4.7,2,7.7,2
			c2.1,0,4.1-0.5,5.9-1.5s3.3-2.3,4.4-3.9c0.3-0.4,0.7-0.6,1.1-0.6C302.3,58.6,302.6,58.7,302.8,58.9z M283.7,36.6
			c-1.7,0.9-3.2,2.1-4.5,3.8c-1.3,1.7-2.2,3.7-2.6,6.1h24.1v-0.6c-0.2-2.2-0.9-4.1-2.1-5.7c-1.2-1.6-2.7-2.8-4.5-3.6
			c-1.8-0.8-3.6-1.2-5.5-1.2C287.1,35.3,285.4,35.8,283.7,36.6z"/>
		<linearGradient id="SVGID_6_" gradientUnits="userSpaceOnUse" x1="107.9805" y1="42.542" x2="392.2686" y2="42.542">
			<stop  offset="0" style="stop-color:#59A579"/>
			<stop  offset="0.2315" style="stop-color:#62AE75"/>
			<stop  offset="0.615" style="stop-color:#7CC56B"/>
			<stop  offset="0.9944" style="stop-color:#9BE25E"/>
		</linearGradient>
		<path style="fill:url(#SVGID_6_);" d="M325.1,33.9c0.3,0.3,0.4,0.5,0.4,0.9c0,0.4-0.1,0.6-0.4,0.9c-0.2,0.2-0.5,0.4-0.9,0.4H317
			v23.3c0,1.9,0.3,3.2,1,3.8c0.7,0.6,1.5,0.9,2.6,0.9c0.2,0,0.4,0,0.8-0.1c0.3-0.1,0.6-0.1,0.8-0.1c0.3,0,0.6,0.1,0.8,0.4
			c0.2,0.2,0.3,0.5,0.3,0.8c0,0.4-0.3,0.7-0.8,1c-0.5,0.3-1.1,0.4-1.8,0.4c-1.1,0-2-0.1-2.8-0.2c-0.7-0.2-1.5-0.7-2.3-1.8
			c-0.8-1-1.2-2.7-1.2-5V36H309c-0.3,0-0.6-0.1-0.9-0.4c-0.3-0.3-0.4-0.5-0.4-0.9c0-0.3,0.1-0.6,0.4-0.9c0.2-0.2,0.5-0.4,0.9-0.4
			h5.4v-8.3c0-0.3,0.1-0.7,0.4-0.9c0.3-0.3,0.6-0.4,0.9-0.4c0.4,0,0.7,0.1,1,0.4c0.2,0.3,0.4,0.6,0.4,0.9v8.3h7.2
			C324.5,33.5,324.8,33.6,325.1,33.9z"/>
		<linearGradient id="SVGID_7_" gradientUnits="userSpaceOnUse" x1="107.9805" y1="42.542" x2="392.2686" y2="42.542">
			<stop  offset="0" style="stop-color:#59A579"/>
			<stop  offset="0.2315" style="stop-color:#62AE75"/>
			<stop  offset="0.615" style="stop-color:#7CC56B"/>
			<stop  offset="0.9944" style="stop-color:#9BE25E"/>
		</linearGradient>
		<path style="fill:url(#SVGID_7_);" d="M352.4,33.4c1.8,0.4,3.2,1,4.3,1.7c1.1,0.7,1.6,1.5,1.6,2.3c0,0.4-0.1,0.7-0.4,0.9
			c-0.2,0.3-0.5,0.4-0.9,0.4c-0.4,0-0.7-0.1-0.9-0.2s-0.5-0.4-0.8-0.7c-0.6-0.7-1.2-1.1-1.8-1.4c-1.6-0.7-3.8-1.1-6.7-1.1
			c-2.5,0-4.8,0.7-6.9,2c-2.1,1.3-3.8,3.1-5,5.3c-1.2,2.2-1.9,4.7-1.9,7.4c0,2.8,0.6,5.3,1.7,7.6c1.2,2.3,2.8,4,4.9,5.3
			c2.1,1.3,4.5,1.9,7.2,1.9c1.7,0,3.1-0.2,4.1-0.5c1-0.3,2-0.7,3-1.3c0.7-0.4,1.3-0.9,1.8-1.4c0.2-0.2,0.4-0.4,0.7-0.6
			s0.4-0.2,0.7-0.2c0.3,0,0.6,0.1,0.8,0.3s0.3,0.5,0.3,0.9c0,0.6-0.5,1.3-1.5,2.2c-1,0.9-2.4,1.6-4.2,2.2c-1.8,0.6-3.7,0.9-5.9,0.9
			c-3.1,0-5.9-0.7-8.4-2.2c-2.5-1.5-4.4-3.5-5.8-6.2s-2.1-5.6-2.1-8.8c0-3.1,0.7-5.9,2.1-8.5c1.4-2.6,3.3-4.7,5.8-6.3
			c2.5-1.6,5.4-2.4,8.6-2.4C348.8,32.7,350.7,32.9,352.4,33.4z"/>
		<linearGradient id="SVGID_8_" gradientUnits="userSpaceOnUse" x1="107.9805" y1="42.542" x2="392.2686" y2="42.542">
			<stop  offset="0" style="stop-color:#59A579"/>
			<stop  offset="0.2315" style="stop-color:#62AE75"/>
			<stop  offset="0.615" style="stop-color:#7CC56B"/>
			<stop  offset="0.9944" style="stop-color:#9BE25E"/>
		</linearGradient>
		<path style="fill:url(#SVGID_8_);" d="M389.3,36.9c2,2.4,3,5.4,3,9.1v19.1c0,0.3-0.1,0.7-0.4,0.9s-0.6,0.4-0.9,0.4
			c-0.4,0-0.7-0.1-0.9-0.4c-0.2-0.3-0.4-0.6-0.4-0.9V46c0-3-0.7-5.5-2.2-7.3c-1.5-1.9-3.8-2.8-6.8-2.8c-1.9,0-3.7,0.5-5.5,1.4
			c-1.8,0.9-3.3,2.2-4.4,3.7c-1.1,1.6-1.7,3.3-1.7,5v19.1c0,0.3-0.1,0.7-0.4,0.9s-0.6,0.4-0.9,0.4c-0.4,0-0.7-0.1-0.9-0.4
			c-0.2-0.3-0.4-0.6-0.4-0.9V19.3c0-0.3,0.1-0.7,0.4-0.9c0.3-0.3,0.6-0.4,0.9-0.4c0.4,0,0.7,0.1,1,0.4c0.2,0.3,0.4,0.6,0.4,0.9V40
			c1.2-1.9,2.9-3.5,5.1-4.7s4.4-1.9,6.6-1.9C384.4,33.4,387.2,34.6,389.3,36.9z"/>
	</g>
</g>
</svg>
