<?xml version="1.0" encoding="utf-8"?>
<!-- Generator: Adobe Illustrator 16.0.0, SVG Export Plug-In . SVG Version: 6.00 Build 0)  -->
<!DOCTYPE svg PUBLIC "-//W3C//DTD SVG 1.1//EN" "http://www.w3.org/Graphics/SVG/1.1/DTD/svg11.dtd">
<svg version="1.1" id="Layer_1" xmlns="http://www.w3.org/2000/svg" xmlns:xlink="http://www.w3.org/1999/xlink" x="0px" y="0px"
	 width="60px" height="60px" viewBox="0 0 60 60" style="enable-background:new 0 0 60 60;" xml:space="preserve">
<linearGradient id="New_0_Pen_No__223_1_" gradientUnits="userSpaceOnUse" x1="5.6978" y1="29.4736" x2="57.373" y2="29.4736">
	<stop  offset="0" style="stop-color:#9BE25E"/>
	<stop  offset="0.2315" style="stop-color:#92D962"/>
	<stop  offset="0.615" style="stop-color:#78C26C"/>
	<stop  offset="0.9944" style="stop-color:#59A579"/>
</linearGradient>
<path id="New_0_Pen_No__223" style="opacity:0.3;fill:none;stroke:url(#New_0_Pen_No__223_1_);stroke-width:2;" d="M31.6,3.1
	l11.2,12.3 M42.8,15.4l14.1,8.9 M53.3,44.4L37,47.9 M37,47.9l-14.7,7.8 M6.6,42.6l5.1-15.9 M12.4,10l-0.7,16.6 M30.5,30l-18.8-3.3
	 M30.5,30L37,47.9 M42.8,15.4L30.5,30"/>
<linearGradient id="New_0_Pen_No__245_1_" gradientUnits="userSpaceOnUse" x1="3.3604" y1="30.4727" x2="55.7783" y2="30.4727">
	<stop  offset="0" style="stop-color:#9BE25E"/>
	<stop  offset="0.2315" style="stop-color:#92D962"/>
	<stop  offset="0.615" style="stop-color:#78C26C"/>
	<stop  offset="0.9944" style="stop-color:#59A579"/>
</linearGradient>
<path id="New_0_Pen_No__245" style="fill:none;stroke:url(#New_0_Pen_No__245_1_);stroke-width:3;" d="M38.7,4.3L24,12.1 M24,12.1
	L7.7,15.6 M18.2,44.6L30.5,30 M18.2,44.6L4.2,35.7 M18.2,44.6l11.2,12.3 M49.3,33.3L48.6,50 M54.3,17.4l-5.1,15.9 M30.5,30l18.8,3.3
	 M24,12.1L30.5,30"/>
<linearGradient id="New_0_Pen_No__241_1_" gradientUnits="userSpaceOnUse" x1="2.1606" y1="30" x2="58.8398" y2="30">
	<stop  offset="0" style="stop-color:#9BE25E"/>
	<stop  offset="0.2315" style="stop-color:#92D962"/>
	<stop  offset="0.615" style="stop-color:#78C26C"/>
	<stop  offset="0.9944" style="stop-color:#59A579"/>
</linearGradient>
<path id="New_0_Pen_No__241" style="fill:none;stroke:url(#New_0_Pen_No__241_1_);stroke-width:4;stroke-linecap:round;stroke-miterlimit:10;" d="
	M12.4,10l19.2-7 M31.6,3.1l7.2,1.3 M54.3,17.4L38.7,4.3 M56.8,24.3l-2.5-6.8 M56.8,24.3l-3.5,20.1 M48.6,50l4.7-5.6 M48.6,50
	l-19.2,7 M22.3,55.7l7.2,1.3 M6.6,42.6l15.6,13.1 M6.6,42.6l-2.5-6.8 M4.2,35.7l3.5-20.1 M7.7,15.6l4.7-5.6"/>
</svg>
