<?xml version="1.0" encoding="utf-8"?>
<!-- Generator: Adobe Illustrator 16.0.0, SVG Export Plug-In . SVG Version: 6.00 Build 0)  -->
<!DOCTYPE svg PUBLIC "-//W3C//DTD SVG 1.1//EN" "http://www.w3.org/Graphics/SVG/1.1/DTD/svg11.dtd">
<svg version="1.1" id="Layer_1" xmlns="http://www.w3.org/2000/svg" xmlns:xlink="http://www.w3.org/1999/xlink" x="0px" y="0px"
	 width="392px" height="84.8px" viewBox="0 0 392 84.8" style="enable-background:new 0 0 392 84.8;" xml:space="preserve">
<path id="New_0_Pen_No__223" style="opacity:0.3;fill:none;stroke:#000000;stroke-width:2;" d="M43.3,2.3L60,20.7 M60,20.7L81,34
	 M75.7,63.9l-24.3,5.3 M51.4,69.2l-22,11.6 M6.1,61.2l7.6-23.7 M14.7,12.7l-1,24.8 M41.7,42.5l-28-4.9 M41.7,42.5l9.7,26.7 M60,20.7
	L41.7,42.5"/>
<path id="New_0_Pen_No__245" style="fill:none;stroke:#000000;stroke-width:3;" d="M54,4.2L32,15.8 M32,15.8L7.7,21.1 M23.4,64.3
	l18.3-21.8 M23.4,64.3L2.4,51 M23.4,64.3l16.7,18.4 M69.7,47.4l-1,24.8 M77.3,23.8l-7.6,23.7 M41.7,42.5l28,4.9 M32,15.8l9.7,26.7"
	/>
<path id="New_0_Pen_No__241" style="fill:none;stroke:#000000;stroke-width:4;stroke-linecap:round;stroke-miterlimit:10;" d="
	M14.7,12.7L43.3,2.3 M43.3,2.3L54,4.2 M77.3,23.8L54,4.2 M81,34l-3.7-10.2 M81,34l-5.3,30 M68.7,72.3l7-8.3 M68.7,72.3L40.1,82.7
	 M29.4,80.8l10.7,1.9 M6.1,61.2l23.3,19.6 M6.1,61.2L2.4,51 M2.4,51l5.3-30 M7.7,21.1l7-8.3"/>
<g>
	<text transform="matrix(1 0 0 1 106.3032 66.4414)"><tspan x="0" y="0" style="font-family:'Rajdhani-Medium'; font-size:71.2962;">VR</tspan><tspan x="74.4" y="0" style="font-family:'Quicksand-Medium'; font-size:71.2962;"> </tspan><tspan x="94.1" y="0" style="font-family:'Quicksand-Light'; font-size:65.4811;">Sketch</tspan></text>
</g>
</svg>
